<svg width="286" height="92" viewBox="0 0 286 92" fill="none" xmlns="http://www.w3.org/2000/svg">
<path d="M10.32 54.6H14.52V47.68H21.4V43.48H14.52V36.6H10.32V43.48H3.4V47.68H10.32V54.6ZM39.6203 60H45.1803V31.2H39.6203L34.2203 34.44V40.44L39.6203 37.12V60ZM61.1844 60.52C62.9977 60.52 64.6644 60.1 66.1844 59.26C67.7044 58.4067 68.9244 57.26 69.8444 55.82C70.7644 54.3667 71.2244 52.7333 71.2244 50.92C71.2244 49.5733 70.9777 48.3 70.4844 47.1C70.0044 45.8867 69.291 44.8333 68.3444 43.94C67.3977 43.0333 66.2377 42.38 64.8644 41.98L70.7044 36.32V31.2H52.7044V36.32H64.2644L56.5044 42.76L58.9444 47.04C59.6644 46.6133 60.411 46.4 61.1844 46.4C62.5044 46.4 63.5844 46.8467 64.4244 47.74C65.2777 48.62 65.7044 49.68 65.7044 50.92C65.7044 51.7467 65.4977 52.5 65.0844 53.18C64.6844 53.86 64.1377 54.4 63.4444 54.8C62.7644 55.2 62.011 55.4 61.1844 55.4C60.2244 55.4 59.331 55.1133 58.5044 54.54C57.691 53.9533 57.1444 53.1333 56.8644 52.08L51.5844 53.48C51.9977 54.9067 52.6844 56.1467 53.6444 57.2C54.6177 58.2533 55.7577 59.0733 57.0644 59.66C58.371 60.2333 59.7444 60.52 61.1844 60.52ZM84.425 60H89.505V42.8L97.865 60H99.785L108.145 42.8V60H113.225V31.2H108.345L98.825 50.32L89.305 31.2H84.425V60ZM119.239 35.4H124.679V30.6H119.239V35.4ZM119.239 60H124.679V38.4H119.239V60ZM131.075 60H136.515V30.6H131.075V60ZM142.471 60H147.991V49.04C147.991 47.6933 148.138 46.6133 148.431 45.8C148.738 44.9867 149.124 44.3733 149.591 43.96C150.058 43.5333 150.558 43.2467 151.091 43.1C151.624 42.9533 152.124 42.88 152.591 42.88C153.751 42.88 154.644 43.14 155.271 43.66C155.911 44.18 156.371 44.8267 156.651 45.6C156.931 46.3733 157.098 47.1467 157.151 47.92C157.204 48.68 157.231 49.3067 157.231 49.8V60H162.751V47.88C162.751 47.52 162.724 46.9467 162.671 46.16C162.618 45.3733 162.464 44.5067 162.211 43.56C161.958 42.6 161.531 41.68 160.931 40.8C160.344 39.92 159.518 39.1933 158.451 38.62C157.384 38.0467 156.004 37.76 154.311 37.76C152.751 37.76 151.391 38.02 150.231 38.54C149.071 39.06 148.098 39.7533 147.311 40.62V31.2H142.471V60ZM181.141 35.28C182.821 35.28 183.954 34.6733 184.541 33.46C185.127 32.2467 185.207 30.7733 184.781 29.04H181.421C181.607 29.72 181.621 30.2867 181.461 30.74C181.301 31.18 181.021 31.4 180.621 31.4C180.234 31.4 179.807 31.2533 179.341 30.96C178.874 30.6533 178.367 30.3067 177.821 29.92C177.287 29.5333 176.721 29.1933 176.121 28.9C175.534 28.5933 174.914 28.44 174.261 28.44C172.581 28.44 171.447 29.0467 170.861 30.26C170.287 31.46 170.207 32.9333 170.621 34.68H173.981C173.807 34 173.794 33.44 173.941 33C174.101 32.5467 174.381 32.32 174.781 32.32C175.167 32.32 175.594 32.4733 176.061 32.78C176.527 33.0733 177.027 33.4133 177.561 33.8C178.107 34.1867 178.674 34.5333 179.261 34.84C179.861 35.1333 180.487 35.28 181.141 35.28ZM177.661 60.6C179.821 60.6 181.721 60.12 183.361 59.16C185.014 58.1867 186.301 56.8467 187.221 55.14C188.154 53.42 188.621 51.44 188.621 49.2C188.621 46.9733 188.161 45.0067 187.241 43.3C186.321 41.58 185.034 40.2333 183.381 39.26C181.741 38.2867 179.834 37.8 177.661 37.8C175.527 37.8 173.641 38.28 172.001 39.24C170.361 40.2 169.074 41.54 168.141 43.26C167.207 44.9667 166.741 46.9467 166.741 49.2C166.741 51.4267 167.194 53.4 168.101 55.12C169.021 56.8267 170.301 58.1667 171.941 59.14C173.581 60.1133 175.487 60.6 177.661 60.6ZM177.661 55.52C175.967 55.52 174.681 54.9533 173.801 53.82C172.934 52.6733 172.501 51.1333 172.501 49.2C172.501 47.32 172.914 45.8 173.741 44.64C174.581 43.4667 175.887 42.88 177.661 42.88C179.381 42.88 180.674 43.4533 181.541 44.6C182.421 45.7467 182.861 47.28 182.861 49.2C182.861 51.0533 182.427 52.5733 181.561 53.76C180.707 54.9333 179.407 55.52 177.661 55.52ZM203.059 60.6C205.139 60.6 207.052 60.0533 208.799 58.96C210.559 57.8667 211.845 56.3333 212.659 54.36L207.219 52.8C206.392 54.6133 204.899 55.52 202.739 55.52C201.259 55.52 200.092 55.1067 199.239 54.28C198.399 53.4533 197.879 52.2667 197.679 50.72H212.839C213.065 48.1067 212.799 45.8333 212.039 43.9C211.279 41.9667 210.105 40.4667 208.519 39.4C206.932 38.3333 205.005 37.8 202.739 37.8C200.605 37.8 198.719 38.2867 197.079 39.26C195.439 40.22 194.152 41.5733 193.219 43.32C192.285 45.0667 191.819 47.12 191.819 49.48C191.819 51.64 192.292 53.56 193.239 55.24C194.199 56.9067 195.519 58.22 197.199 59.18C198.892 60.1267 200.845 60.6 203.059 60.6ZM202.979 42.52C204.285 42.52 205.285 42.8467 205.979 43.5C206.685 44.1533 207.139 45.2133 207.339 46.68H197.819C198.392 43.9067 200.112 42.52 202.979 42.52ZM225.795 60.6C228.621 60.6 230.835 59.9667 232.435 58.7C234.035 57.4333 234.835 55.6933 234.835 53.48C234.835 51.8 234.315 50.4733 233.275 49.5C232.248 48.5267 230.501 47.72 228.035 47.08C226.355 46.6533 225.101 46.3067 224.275 46.04C223.461 45.7733 222.921 45.5133 222.655 45.26C222.401 45.0067 222.275 44.6933 222.275 44.32C222.275 43.6933 222.575 43.2133 223.175 42.88C223.788 42.5467 224.595 42.4133 225.595 42.48C227.715 42.64 228.875 43.5467 229.075 45.2L234.635 44.2C234.355 42.24 233.395 40.6867 231.755 39.54C230.115 38.38 228.021 37.8 225.475 37.8C222.861 37.8 220.775 38.4133 219.215 39.64C217.655 40.8667 216.875 42.52 216.875 44.6C216.875 46.2533 217.415 47.56 218.495 48.52C219.575 49.4667 221.435 50.28 224.075 50.96C225.635 51.3733 226.781 51.7067 227.515 51.96C228.261 52.2133 228.741 52.4733 228.955 52.74C229.168 52.9933 229.275 53.3333 229.275 53.76C229.275 54.44 229.008 54.9733 228.475 55.36C227.941 55.7333 227.181 55.92 226.195 55.92C224.995 55.92 224.001 55.6333 223.215 55.06C222.441 54.4867 221.941 53.6933 221.715 52.68L216.155 53.52C216.515 55.7733 217.528 57.52 219.195 58.76C220.875 59.9867 223.075 60.6 225.795 60.6Z" fill="#18191F"/>
<g style="mix-blend-mode:color-dodge">
<path d="M256.86 78.657C253.252 54.5912 230.844 37.9194 206.657 41.546C182.591 45.1546 165.919 67.5624 169.546 91.7492C206.657 83.9997 188.313 87.6265 212.5 83.9999C236.566 80.3914 260.469 102.723 256.86 78.657Z" fill="#12FF2A"/>
</g>
<g style="mix-blend-mode:color-dodge">
<path d="M256.86 78.657C253.252 54.5912 230.844 37.9194 206.657 41.546C182.591 45.1546 165.919 67.5624 169.546 91.7492C206.657 83.9997 188.313 87.6265 212.5 83.9999C236.566 80.3914 260.469 102.723 256.86 78.657Z" fill="#12FF2A"/>
</g>
</svg>
