<svg width="241" height="49" viewBox="0 0 241 49" fill="none" xmlns="http://www.w3.org/2000/svg">
<mask id="mask0" mask-type="alpha" maskUnits="userSpaceOnUse" x="3" y="11" width="232" height="33">
<path d="M10.32 37.6L14.52 37.6L14.52 30.68L21.4 30.68L21.4 26.48L14.52 26.48L14.52 19.6L10.32 19.6L10.32 26.48L3.4 26.48L3.4 30.68L10.32 30.68L10.32 37.6ZM39.6203 43L45.1803 43L45.1803 14.2L39.6203 14.2L34.2203 17.44L34.2203 23.44L39.6203 20.12L39.6203 43ZM61.1844 43.52C62.9977 43.52 64.6644 43.1 66.1844 42.26C67.7044 41.4067 68.9244 40.26 69.8444 38.82C70.7644 37.3667 71.2244 35.7333 71.2244 33.92C71.2244 32.5733 70.9777 31.3 70.4844 30.1C70.0044 28.8867 69.291 27.8333 68.3444 26.94C67.3977 26.0333 66.2377 25.38 64.8644 24.98L70.7044 19.32L70.7044 14.2L52.7044 14.2L52.7044 19.32L64.2644 19.32L56.5044 25.76L58.9444 30.04C59.6644 29.6133 60.411 29.4 61.1844 29.4C62.5044 29.4 63.5844 29.8467 64.4244 30.74C65.2777 31.62 65.7044 32.68 65.7044 33.92C65.7044 34.7467 65.4977 35.5 65.0844 36.18C64.6844 36.86 64.1377 37.4 63.4444 37.8C62.7644 38.2 62.011 38.4 61.1844 38.4C60.2244 38.4 59.331 38.1133 58.5044 37.54C57.691 36.9533 57.1444 36.1333 56.8644 35.08L51.5844 36.48C51.9977 37.9067 52.6844 39.1467 53.6444 40.2C54.6177 41.2533 55.7577 42.0733 57.0644 42.66C58.371 43.2333 59.7444 43.52 61.1844 43.52ZM84.425 43L89.505 43L89.505 25.8L97.865 43L99.785 43L108.145 25.8L108.145 43L113.225 43L113.225 14.2L108.345 14.2L98.825 33.32L89.305 14.2L84.425 14.2L84.425 43ZM119.239 18.4L124.679 18.4L124.679 13.6L119.239 13.6L119.239 18.4ZM119.239 43L124.679 43L124.679 21.4L119.239 21.4L119.239 43ZM131.075 43L136.515 43L136.515 13.6L131.075 13.6L131.075 43ZM142.471 43L147.991 43L147.991 32.04C147.991 30.6933 148.138 29.6133 148.431 28.8C148.738 27.9867 149.124 27.3733 149.591 26.96C150.058 26.5333 150.558 26.2467 151.091 26.1C151.624 25.9533 152.124 25.88 152.591 25.88C153.751 25.88 154.644 26.14 155.271 26.66C155.911 27.18 156.371 27.8267 156.651 28.6C156.931 29.3733 157.098 30.1467 157.151 30.92C157.204 31.68 157.231 32.3067 157.231 32.8L157.231 43L162.751 43L162.751 30.88C162.751 30.52 162.724 29.9467 162.671 29.16C162.618 28.3733 162.464 27.5067 162.211 26.56C161.958 25.6 161.531 24.68 160.931 23.8C160.344 22.92 159.518 22.1933 158.451 21.62C157.384 21.0467 156.004 20.76 154.311 20.76C152.751 20.76 151.391 21.02 150.231 21.54C149.071 22.06 148.098 22.7533 147.311 23.62L147.311 14.2L142.471 14.2L142.471 43ZM181.141 18.28C182.821 18.28 183.954 17.6733 184.541 16.46C185.127 15.2467 185.207 13.7733 184.781 12.04L181.421 12.04C181.607 12.72 181.621 13.2867 181.461 13.74C181.301 14.18 181.021 14.4 180.621 14.4C180.234 14.4 179.807 14.2533 179.341 13.96C178.874 13.6533 178.367 13.3067 177.821 12.92C177.287 12.5333 176.721 12.1933 176.121 11.9C175.534 11.5933 174.914 11.44 174.261 11.44C172.581 11.44 171.447 12.0467 170.861 13.26C170.287 14.46 170.207 15.9333 170.621 17.68L173.981 17.68C173.807 17 173.794 16.44 173.941 16C174.101 15.5467 174.381 15.32 174.781 15.32C175.167 15.32 175.594 15.4733 176.061 15.78C176.527 16.0733 177.027 16.4133 177.561 16.8C178.107 17.1867 178.674 17.5333 179.261 17.84C179.861 18.1333 180.487 18.28 181.141 18.28ZM177.661 43.6C179.821 43.6 181.721 43.12 183.361 42.16C185.014 41.1867 186.301 39.8467 187.221 38.14C188.154 36.42 188.621 34.44 188.621 32.2C188.621 29.9733 188.161 28.0067 187.241 26.3C186.321 24.58 185.034 23.2333 183.381 22.26C181.741 21.2867 179.834 20.8 177.661 20.8C175.527 20.8 173.641 21.28 172.001 22.24C170.361 23.2 169.074 24.54 168.141 26.26C167.207 27.9667 166.741 29.9467 166.741 32.2C166.741 34.4267 167.194 36.4 168.101 38.12C169.021 39.8267 170.301 41.1667 171.941 42.14C173.581 43.1133 175.487 43.6 177.661 43.6ZM177.661 38.52C175.967 38.52 174.681 37.9533 173.801 36.82C172.934 35.6733 172.501 34.1333 172.501 32.2C172.501 30.32 172.914 28.8 173.741 27.64C174.581 26.4667 175.887 25.88 177.661 25.88C179.381 25.88 180.674 26.4533 181.541 27.6C182.421 28.7467 182.861 30.28 182.861 32.2C182.861 34.0533 182.427 35.5733 181.561 36.76C180.707 37.9333 179.407 38.52 177.661 38.52ZM203.059 43.6C205.139 43.6 207.052 43.0533 208.799 41.96C210.559 40.8667 211.845 39.3333 212.659 37.36L207.219 35.8C206.392 37.6133 204.899 38.52 202.739 38.52C201.259 38.52 200.092 38.1067 199.239 37.28C198.399 36.4533 197.879 35.2667 197.679 33.72L212.839 33.72C213.065 31.1067 212.799 28.8333 212.039 26.9C211.279 24.9667 210.105 23.4667 208.519 22.4C206.932 21.3333 205.005 20.8 202.739 20.8C200.605 20.8 198.719 21.2867 197.079 22.26C195.439 23.22 194.152 24.5733 193.219 26.32C192.285 28.0667 191.819 30.12 191.819 32.48C191.819 34.64 192.292 36.56 193.239 38.24C194.199 39.9067 195.519 41.22 197.199 42.18C198.892 43.1267 200.845 43.6 203.059 43.6ZM202.979 25.52C204.285 25.52 205.285 25.8467 205.979 26.5C206.685 27.1533 207.139 28.2133 207.339 29.68L197.819 29.68C198.392 26.9067 200.112 25.52 202.979 25.52ZM225.795 43.6C228.621 43.6 230.835 42.9667 232.435 41.7C234.035 40.4333 234.835 38.6933 234.835 36.48C234.835 34.8 234.315 33.4733 233.275 32.5C232.248 31.5267 230.501 30.72 228.035 30.08C226.355 29.6533 225.101 29.3067 224.275 29.04C223.461 28.7733 222.921 28.5133 222.655 28.26C222.401 28.0067 222.275 27.6933 222.275 27.32C222.275 26.6933 222.575 26.2133 223.175 25.88C223.788 25.5467 224.595 25.4133 225.595 25.48C227.715 25.64 228.875 26.5467 229.075 28.2L234.635 27.2C234.355 25.24 233.395 23.6867 231.755 22.54C230.115 21.38 228.021 20.8 225.475 20.8C222.861 20.8 220.775 21.4133 219.215 22.64C217.655 23.8667 216.875 25.52 216.875 27.6C216.875 29.2533 217.415 30.56 218.495 31.52C219.575 32.4667 221.435 33.28 224.075 33.96C225.635 34.3733 226.781 34.7067 227.515 34.96C228.261 35.2133 228.741 35.4733 228.955 35.74C229.168 35.9933 229.275 36.3333 229.275 36.76C229.275 37.44 229.008 37.9733 228.475 38.36C227.941 38.7333 227.181 38.92 226.195 38.92C224.995 38.92 224.001 38.6333 223.215 38.06C222.441 37.4867 221.941 36.6933 221.715 35.68L216.155 36.52C216.515 38.7733 217.528 40.52 219.195 41.76C220.875 42.9867 223.075 43.6 225.795 43.6Z" fill="#18191F"/>
</mask>
<g mask="url(#mask0)">
<rect x="-19.9998" y="-35" width="268" height="96" fill="#18191F"/>
<path d="M256.86 61.657C253.252 37.5912 230.844 20.9194 206.657 24.546C182.591 28.1546 165.92 50.5624 169.546 74.7492C206.657 66.9997 188.313 70.6265 212.5 66.9999C236.566 63.3914 260.469 85.7228 256.86 61.657Z" fill="#12FF2A"/>
</g>
</svg>
