<svg width="258" height="120" viewBox="0 0 258 120" fill="none" xmlns="http://www.w3.org/2000/svg">
<path d="M14.184 55.52H19.224V47.216H27.48V42.176H19.224V33.92H14.184V42.176H5.88V47.216H14.184V55.52ZM32.775 61.952H56.967V55.808H42.903L50.631 49.04C52.007 47.84 53.167 46.768 54.111 45.824C55.055 44.864 55.767 43.824 56.247 42.704C56.727 41.568 56.967 40.144 56.967 38.432C56.967 36.112 56.455 34.072 55.431 32.312C54.407 30.552 52.999 29.184 51.207 28.208C49.431 27.216 47.415 26.72 45.159 26.72C42.695 26.72 40.535 27.192 38.679 28.136C36.823 29.08 35.375 30.416 34.335 32.144C33.295 33.872 32.775 35.92 32.775 38.288H39.495C39.463 37.328 39.679 36.44 40.143 35.624C40.607 34.792 41.255 34.128 42.087 33.632C42.935 33.12 43.911 32.864 45.015 32.864C46.599 32.864 47.863 33.384 48.807 34.424C49.767 35.448 50.247 36.752 50.247 38.336C50.247 39.072 50.023 39.864 49.575 40.712C49.127 41.56 48.359 42.464 47.271 43.424L32.775 56.288V61.952ZM75.5198 62.72C78.0798 62.72 80.3198 62.184 82.2398 61.112C84.1598 60.04 85.6558 58.544 86.7278 56.624C87.7998 54.704 88.3358 52.464 88.3358 49.904V39.536C88.3358 36.976 87.7998 34.736 86.7278 32.816C85.6558 30.896 84.1598 29.4 82.2398 28.328C80.3198 27.256 78.0798 26.72 75.5198 26.72C72.9598 26.72 70.7198 27.256 68.7998 28.328C66.8798 29.4 65.3838 30.896 64.3118 32.816C63.2398 34.736 62.7038 36.976 62.7038 39.536V49.904C62.7038 52.464 63.2398 54.704 64.3118 56.624C65.3838 58.544 66.8798 60.04 68.7998 61.112C70.7198 62.184 72.9598 62.72 75.5198 62.72ZM75.5198 56.528C74.3678 56.528 73.3278 56.256 72.3998 55.712C71.4718 55.168 70.7358 54.432 70.1918 53.504C69.6478 52.576 69.3758 51.536 69.3758 50.384V39.008C69.3758 37.856 69.6478 36.816 70.1918 35.888C70.7358 34.96 71.4718 34.224 72.3998 33.68C73.3278 33.136 74.3678 32.864 75.5198 32.864C76.6718 32.864 77.7118 33.136 78.6398 33.68C79.5678 34.224 80.3038 34.96 80.8478 35.888C81.3918 36.816 81.6638 37.856 81.6638 39.008V50.384C81.6638 51.536 81.3918 52.576 80.8478 53.504C80.3038 54.432 79.5678 55.168 78.6398 55.712C77.7118 56.256 76.6718 56.528 75.5198 56.528ZM107.864 62.72C110.424 62.72 112.664 62.184 114.584 61.112C116.504 60.04 118 58.544 119.072 56.624C120.144 54.704 120.68 52.464 120.68 49.904V39.536C120.68 36.976 120.144 34.736 119.072 32.816C118 30.896 116.504 29.4 114.584 28.328C112.664 27.256 110.424 26.72 107.864 26.72C105.304 26.72 103.064 27.256 101.144 28.328C99.2235 29.4 97.7275 30.896 96.6555 32.816C95.5835 34.736 95.0475 36.976 95.0475 39.536V49.904C95.0475 52.464 95.5835 54.704 96.6555 56.624C97.7275 58.544 99.2235 60.04 101.144 61.112C103.064 62.184 105.304 62.72 107.864 62.72ZM107.864 56.528C106.712 56.528 105.672 56.256 104.744 55.712C103.816 55.168 103.08 54.432 102.536 53.504C101.992 52.576 101.72 51.536 101.72 50.384V39.008C101.72 37.856 101.992 36.816 102.536 35.888C103.08 34.96 103.816 34.224 104.744 33.68C105.672 33.136 106.712 32.864 107.864 32.864C109.016 32.864 110.056 33.136 110.984 33.68C111.912 34.224 112.648 34.96 113.192 35.888C113.736 36.816 114.008 37.856 114.008 39.008V50.384C114.008 51.536 113.736 52.576 113.192 53.504C112.648 54.432 111.912 55.168 110.984 55.712C110.056 56.256 109.016 56.528 107.864 56.528ZM140.207 62.72C142.767 62.72 145.007 62.184 146.927 61.112C148.847 60.04 150.343 58.544 151.415 56.624C152.487 54.704 153.023 52.464 153.023 49.904V39.536C153.023 36.976 152.487 34.736 151.415 32.816C150.343 30.896 148.847 29.4 146.927 28.328C145.007 27.256 142.767 26.72 140.207 26.72C137.647 26.72 135.407 27.256 133.487 28.328C131.567 29.4 130.071 30.896 128.999 32.816C127.927 34.736 127.391 36.976 127.391 39.536V49.904C127.391 52.464 127.927 54.704 128.999 56.624C130.071 58.544 131.567 60.04 133.487 61.112C135.407 62.184 137.647 62.72 140.207 62.72ZM140.207 56.528C139.055 56.528 138.015 56.256 137.087 55.712C136.159 55.168 135.423 54.432 134.879 53.504C134.335 52.576 134.063 51.536 134.063 50.384V39.008C134.063 37.856 134.335 36.816 134.879 35.888C135.423 34.96 136.159 34.224 137.087 33.68C138.015 33.136 139.055 32.864 140.207 32.864C141.359 32.864 142.399 33.136 143.327 33.68C144.255 34.224 144.991 34.96 145.535 35.888C146.079 36.816 146.351 37.856 146.351 39.008V50.384C146.351 51.536 146.079 52.576 145.535 53.504C144.991 54.432 144.255 55.168 143.327 55.712C142.399 56.256 141.359 56.528 140.207 56.528Z" fill="#18191F"/>
<g style="mix-blend-mode:color-dodge">
<path d="M199.035 69.8083C195.497 46.2104 173.525 29.8627 149.808 33.4188C126.21 36.9572 109.863 58.9294 113.419 82.646C116.957 106.244 138.929 122.592 162.646 119.036C186.244 115.497 202.574 93.4063 199.035 69.8083Z" fill="#12FF2A"/>
</g>
</svg>
