<svg width="159" height="68" viewBox="0 0 159 68" fill="none" xmlns="http://www.w3.org/2000/svg">
<mask id="mask0" mask-type="alpha" maskUnits="userSpaceOnUse" x="2" y="16" width="149" height="37">
<path d="M11.184 45.52H16.224V37.216H24.48V32.176H16.224V23.92H11.184V32.176H2.88V37.216H11.184V45.52ZM29.775 51.952H53.967V45.808H39.903L47.631 39.04C49.007 37.84 50.167 36.768 51.111 35.824C52.055 34.864 52.767 33.824 53.247 32.704C53.727 31.568 53.967 30.144 53.967 28.432C53.967 26.112 53.455 24.072 52.431 22.312C51.407 20.552 49.999 19.184 48.207 18.208C46.431 17.216 44.415 16.72 42.159 16.72C39.695 16.72 37.535 17.192 35.679 18.136C33.823 19.08 32.375 20.416 31.335 22.144C30.295 23.872 29.775 25.92 29.775 28.288H36.495C36.463 27.328 36.679 26.44 37.143 25.624C37.607 24.792 38.255 24.128 39.087 23.632C39.935 23.12 40.911 22.864 42.015 22.864C43.599 22.864 44.863 23.384 45.807 24.424C46.767 25.448 47.247 26.752 47.247 28.336C47.247 29.072 47.023 29.864 46.575 30.712C46.127 31.56 45.359 32.464 44.271 33.424L29.775 46.288V51.952ZM72.5198 52.72C75.0798 52.72 77.3198 52.184 79.2398 51.112C81.1598 50.04 82.6558 48.544 83.7278 46.624C84.7998 44.704 85.3358 42.464 85.3358 39.904V29.536C85.3358 26.976 84.7998 24.736 83.7278 22.816C82.6558 20.896 81.1598 19.4 79.2398 18.328C77.3198 17.256 75.0798 16.72 72.5198 16.72C69.9598 16.72 67.7198 17.256 65.7998 18.328C63.8798 19.4 62.3838 20.896 61.3118 22.816C60.2398 24.736 59.7038 26.976 59.7038 29.536V39.904C59.7038 42.464 60.2398 44.704 61.3118 46.624C62.3838 48.544 63.8798 50.04 65.7998 51.112C67.7198 52.184 69.9598 52.72 72.5198 52.72ZM72.5198 46.528C71.3678 46.528 70.3278 46.256 69.3998 45.712C68.4718 45.168 67.7358 44.432 67.1918 43.504C66.6478 42.576 66.3758 41.536 66.3758 40.384V29.008C66.3758 27.856 66.6478 26.816 67.1918 25.888C67.7358 24.96 68.4718 24.224 69.3998 23.68C70.3278 23.136 71.3678 22.864 72.5198 22.864C73.6718 22.864 74.7118 23.136 75.6398 23.68C76.5678 24.224 77.3038 24.96 77.8478 25.888C78.3918 26.816 78.6638 27.856 78.6638 29.008V40.384C78.6638 41.536 78.3918 42.576 77.8478 43.504C77.3038 44.432 76.5678 45.168 75.6398 45.712C74.7118 46.256 73.6718 46.528 72.5198 46.528ZM104.864 52.72C107.424 52.72 109.664 52.184 111.584 51.112C113.504 50.04 115 48.544 116.072 46.624C117.144 44.704 117.68 42.464 117.68 39.904V29.536C117.68 26.976 117.144 24.736 116.072 22.816C115 20.896 113.504 19.4 111.584 18.328C109.664 17.256 107.424 16.72 104.864 16.72C102.304 16.72 100.064 17.256 98.1435 18.328C96.2235 19.4 94.7275 20.896 93.6555 22.816C92.5835 24.736 92.0475 26.976 92.0475 29.536V39.904C92.0475 42.464 92.5835 44.704 93.6555 46.624C94.7275 48.544 96.2235 50.04 98.1435 51.112C100.064 52.184 102.304 52.72 104.864 52.72ZM104.864 46.528C103.712 46.528 102.672 46.256 101.744 45.712C100.816 45.168 100.08 44.432 99.5355 43.504C98.9915 42.576 98.7195 41.536 98.7195 40.384V29.008C98.7195 27.856 98.9915 26.816 99.5355 25.888C100.08 24.96 100.816 24.224 101.744 23.68C102.672 23.136 103.712 22.864 104.864 22.864C106.016 22.864 107.056 23.136 107.984 23.68C108.912 24.224 109.648 24.96 110.192 25.888C110.736 26.816 111.008 27.856 111.008 29.008V40.384C111.008 41.536 110.736 42.576 110.192 43.504C109.648 44.432 108.912 45.168 107.984 45.712C107.056 46.256 106.016 46.528 104.864 46.528ZM137.207 52.72C139.767 52.72 142.007 52.184 143.927 51.112C145.847 50.04 147.343 48.544 148.415 46.624C149.487 44.704 150.023 42.464 150.023 39.904V29.536C150.023 26.976 149.487 24.736 148.415 22.816C147.343 20.896 145.847 19.4 143.927 18.328C142.007 17.256 139.767 16.72 137.207 16.72C134.647 16.72 132.407 17.256 130.487 18.328C128.567 19.4 127.071 20.896 125.999 22.816C124.927 24.736 124.391 26.976 124.391 29.536V39.904C124.391 42.464 124.927 44.704 125.999 46.624C127.071 48.544 128.567 50.04 130.487 51.112C132.407 52.184 134.647 52.72 137.207 52.72ZM137.207 46.528C136.055 46.528 135.015 46.256 134.087 45.712C133.159 45.168 132.423 44.432 131.879 43.504C131.335 42.576 131.063 41.536 131.063 40.384V29.008C131.063 27.856 131.335 26.816 131.879 25.888C132.423 24.96 133.159 24.224 134.087 23.68C135.015 23.136 136.055 22.864 137.207 22.864C138.359 22.864 139.399 23.136 140.327 23.68C141.255 24.224 141.991 24.96 142.535 25.888C143.079 26.816 143.351 27.856 143.351 29.008V40.384C143.351 41.536 143.079 42.576 142.535 43.504C141.991 44.432 141.255 45.168 140.327 45.712C139.399 46.256 138.359 46.528 137.207 46.528Z" fill="#18191F"/>
</mask>
<g mask="url(#mask0)">
<rect x="-21" y="-10" width="180" height="85" fill="#18191F"/>
<path d="M196.035 59.8083C192.497 36.2104 170.525 19.8627 146.808 23.4188C123.21 26.9572 106.863 48.9294 110.419 72.646C113.957 96.2439 135.929 112.592 159.646 109.036C183.244 105.497 199.574 83.4063 196.035 59.8083Z" fill="#12FF2A"/>
</g>
</svg>
