<svg width="285" height="72" viewBox="0 0 285 72" fill="none" xmlns="http://www.w3.org/2000/svg">
<mask id="mask0" mask-type="alpha" maskUnits="userSpaceOnUse" x="2" y="15" width="228" height="33">
<path d="M9.32 41.6H13.52V34.68H20.4V30.48H13.52V23.6H9.32V30.48H2.4V34.68H9.32V41.6ZM34.0125 47.52C35.8258 47.52 37.4925 47.1 39.0125 46.26C40.5325 45.4067 41.7525 44.26 42.6725 42.82C43.5925 41.3667 44.0525 39.7333 44.0525 37.92C44.0525 36.5733 43.8058 35.3 43.3125 34.1C42.8325 32.8867 42.1192 31.8333 41.1725 30.94C40.2258 30.0333 39.0658 29.38 37.6925 28.98L43.5325 23.32V18.2H25.5325V23.32H37.0925L29.3325 29.76L31.7725 34.04C32.4925 33.6133 33.2392 33.4 34.0125 33.4C35.3325 33.4 36.4125 33.8467 37.2525 34.74C38.1058 35.62 38.5325 36.68 38.5325 37.92C38.5325 38.7467 38.3258 39.5 37.9125 40.18C37.5125 40.86 36.9658 41.4 36.2725 41.8C35.5925 42.2 34.8392 42.4 34.0125 42.4C33.0525 42.4 32.1592 42.1133 31.3325 41.54C30.5192 40.9533 29.9725 40.1333 29.6925 39.08L24.4125 40.48C24.8258 41.9067 25.5125 43.1467 26.4725 44.2C27.4458 45.2533 28.5858 46.0733 29.8925 46.66C31.1992 47.2333 32.5725 47.52 34.0125 47.52ZM50.6853 47H56.5653L66.2053 23.32V18.2H48.0453V23.32H60.3653L50.6853 47ZM79.0109 47H84.0909V29.8L92.4509 47H94.3709L102.731 29.8V47H107.811V18.2H102.931L93.4109 37.32L83.8909 18.2H79.0109V47ZM113.825 22.4H119.265V17.6H113.825V22.4ZM113.825 47H119.265V25.4H113.825V47ZM125.661 47H131.101V17.6H125.661V47ZM137.057 47H142.577V36.04C142.577 34.6933 142.724 33.6133 143.017 32.8C143.324 31.9867 143.71 31.3733 144.177 30.96C144.644 30.5333 145.144 30.2467 145.677 30.1C146.21 29.9533 146.71 29.88 147.177 29.88C148.337 29.88 149.23 30.14 149.857 30.66C150.497 31.18 150.957 31.8267 151.237 32.6C151.517 33.3733 151.684 34.1467 151.737 34.92C151.79 35.68 151.817 36.3067 151.817 36.8V47H157.337V34.88C157.337 34.52 157.31 33.9467 157.257 33.16C157.204 32.3733 157.05 31.5067 156.797 30.56C156.544 29.6 156.117 28.68 155.517 27.8C154.93 26.92 154.104 26.1933 153.037 25.62C151.97 25.0467 150.59 24.76 148.897 24.76C147.337 24.76 145.977 25.02 144.817 25.54C143.657 26.06 142.684 26.7533 141.897 27.62V18.2H137.057V47ZM175.727 22.28C177.407 22.28 178.54 21.6733 179.127 20.46C179.713 19.2467 179.793 17.7733 179.367 16.04H176.007C176.193 16.72 176.207 17.2867 176.047 17.74C175.887 18.18 175.607 18.4 175.207 18.4C174.82 18.4 174.393 18.2533 173.927 17.96C173.46 17.6533 172.953 17.3067 172.407 16.92C171.873 16.5333 171.307 16.1933 170.707 15.9C170.12 15.5933 169.5 15.44 168.847 15.44C167.167 15.44 166.033 16.0467 165.447 17.26C164.873 18.46 164.793 19.9333 165.207 21.68H168.567C168.393 21 168.38 20.44 168.527 20C168.687 19.5467 168.967 19.32 169.367 19.32C169.753 19.32 170.18 19.4733 170.647 19.78C171.113 20.0733 171.613 20.4133 172.147 20.8C172.693 21.1867 173.26 21.5333 173.847 21.84C174.447 22.1333 175.073 22.28 175.727 22.28ZM172.247 47.6C174.407 47.6 176.307 47.12 177.947 46.16C179.6 45.1867 180.887 43.8467 181.807 42.14C182.74 40.42 183.207 38.44 183.207 36.2C183.207 33.9733 182.747 32.0067 181.827 30.3C180.907 28.58 179.62 27.2333 177.967 26.26C176.327 25.2867 174.42 24.8 172.247 24.8C170.113 24.8 168.227 25.28 166.587 26.24C164.947 27.2 163.66 28.54 162.727 30.26C161.793 31.9667 161.327 33.9467 161.327 36.2C161.327 38.4267 161.78 40.4 162.687 42.12C163.607 43.8267 164.887 45.1667 166.527 46.14C168.167 47.1133 170.073 47.6 172.247 47.6ZM172.247 42.52C170.553 42.52 169.267 41.9533 168.387 40.82C167.52 39.6733 167.087 38.1333 167.087 36.2C167.087 34.32 167.5 32.8 168.327 31.64C169.167 30.4667 170.473 29.88 172.247 29.88C173.967 29.88 175.26 30.4533 176.127 31.6C177.007 32.7467 177.447 34.28 177.447 36.2C177.447 38.0533 177.013 39.5733 176.147 40.76C175.293 41.9333 173.993 42.52 172.247 42.52ZM197.645 47.6C199.725 47.6 201.638 47.0533 203.385 45.96C205.145 44.8667 206.431 43.3333 207.245 41.36L201.805 39.8C200.978 41.6133 199.485 42.52 197.325 42.52C195.845 42.52 194.678 42.1067 193.825 41.28C192.985 40.4533 192.465 39.2667 192.265 37.72H207.425C207.651 35.1067 207.385 32.8333 206.625 30.9C205.865 28.9667 204.691 27.4667 203.105 26.4C201.518 25.3333 199.591 24.8 197.325 24.8C195.191 24.8 193.305 25.2867 191.665 26.26C190.025 27.22 188.738 28.5733 187.805 30.32C186.871 32.0667 186.405 34.12 186.405 36.48C186.405 38.64 186.878 40.56 187.825 42.24C188.785 43.9067 190.105 45.22 191.785 46.18C193.478 47.1267 195.431 47.6 197.645 47.6ZM197.565 29.52C198.871 29.52 199.871 29.8467 200.565 30.5C201.271 31.1533 201.725 32.2133 201.925 33.68H192.405C192.978 30.9067 194.698 29.52 197.565 29.52ZM220.381 47.6C223.207 47.6 225.421 46.9667 227.021 45.7C228.621 44.4333 229.421 42.6933 229.421 40.48C229.421 38.8 228.901 37.4733 227.861 36.5C226.834 35.5267 225.087 34.72 222.621 34.08C220.941 33.6533 219.687 33.3067 218.861 33.04C218.047 32.7733 217.507 32.5133 217.241 32.26C216.987 32.0067 216.861 31.6933 216.861 31.32C216.861 30.6933 217.161 30.2133 217.761 29.88C218.374 29.5467 219.181 29.4133 220.181 29.48C222.301 29.64 223.461 30.5467 223.661 32.2L229.221 31.2C228.941 29.24 227.981 27.6867 226.341 26.54C224.701 25.38 222.607 24.8 220.061 24.8C217.447 24.8 215.361 25.4133 213.801 26.64C212.241 27.8667 211.461 29.52 211.461 31.6C211.461 33.2533 212.001 34.56 213.081 35.52C214.161 36.4667 216.021 37.28 218.661 37.96C220.221 38.3733 221.367 38.7067 222.101 38.96C222.847 39.2133 223.327 39.4733 223.541 39.74C223.754 39.9933 223.861 40.3333 223.861 40.76C223.861 41.44 223.594 41.9733 223.061 42.36C222.527 42.7333 221.767 42.92 220.781 42.92C219.581 42.92 218.587 42.6333 217.801 42.06C217.027 41.4867 216.527 40.6933 216.301 39.68L210.741 40.52C211.101 42.7733 212.114 44.52 213.781 45.76C215.461 46.9867 217.661 47.6 220.381 47.6Z" fill="#18191F"/>
</mask>
<g mask="url(#mask0)">
<rect width="241" height="61" fill="#18191F"/>
<path d="M109.064 -37.8183C116.858 -10.9086 89.0311 16.8864 110.182 37.4179C131.227 57.8467 193.896 31.5837 173.212 20.9467C183.171 15.8681 205.451 -18.4044 184.3 -38.9359C147.329 -14.6492 140.284 -70.8959 109.064 -37.8183Z" fill="#12FF2A"/>
</g>
</svg>
