<svg width="256" height="143" viewBox="0 0 256 143" fill="none" xmlns="http://www.w3.org/2000/svg">
<path d="M9.32 117.6H13.52V110.68H20.4V106.48H13.52V99.6H9.32V106.48H2.4V110.68H9.32V117.6ZM34.0125 123.52C35.8258 123.52 37.4925 123.1 39.0125 122.26C40.5325 121.407 41.7525 120.26 42.6725 118.82C43.5925 117.367 44.0525 115.733 44.0525 113.92C44.0525 112.573 43.8058 111.3 43.3125 110.1C42.8325 108.887 42.1192 107.833 41.1725 106.94C40.2258 106.033 39.0658 105.38 37.6925 104.98L43.5325 99.32V94.2H25.5325V99.32H37.0925L29.3325 105.76L31.7725 110.04C32.4925 109.613 33.2392 109.4 34.0125 109.4C35.3325 109.4 36.4125 109.847 37.2525 110.74C38.1058 111.62 38.5325 112.68 38.5325 113.92C38.5325 114.747 38.3258 115.5 37.9125 116.18C37.5125 116.86 36.9658 117.4 36.2725 117.8C35.5925 118.2 34.8392 118.4 34.0125 118.4C33.0525 118.4 32.1592 118.113 31.3325 117.54C30.5192 116.953 29.9725 116.133 29.6925 115.08L24.4125 116.48C24.8258 117.907 25.5125 119.147 26.4725 120.2C27.4458 121.253 28.5858 122.073 29.8925 122.66C31.1992 123.233 32.5725 123.52 34.0125 123.52ZM50.6853 123H56.5653L66.2053 99.32V94.2H48.0453V99.32H60.3653L50.6853 123ZM79.0109 123H84.0909V105.8L92.4509 123H94.3709L102.731 105.8V123H107.811V94.2H102.931L93.4109 113.32L83.8909 94.2H79.0109V123ZM113.825 98.4H119.265V93.6H113.825V98.4ZM113.825 123H119.265V101.4H113.825V123ZM125.661 123H131.101V93.6H125.661V123ZM137.057 123H142.577V112.04C142.577 110.693 142.724 109.613 143.017 108.8C143.324 107.987 143.71 107.373 144.177 106.96C144.644 106.533 145.144 106.247 145.677 106.1C146.21 105.953 146.71 105.88 147.177 105.88C148.337 105.88 149.23 106.14 149.857 106.66C150.497 107.18 150.957 107.827 151.237 108.6C151.517 109.373 151.684 110.147 151.737 110.92C151.79 111.68 151.817 112.307 151.817 112.8V123H157.337V110.88C157.337 110.52 157.31 109.947 157.257 109.16C157.204 108.373 157.05 107.507 156.797 106.56C156.544 105.6 156.117 104.68 155.517 103.8C154.93 102.92 154.104 102.193 153.037 101.62C151.97 101.047 150.59 100.76 148.897 100.76C147.337 100.76 145.977 101.02 144.817 101.54C143.657 102.06 142.684 102.753 141.897 103.62V94.2H137.057V123ZM175.727 98.28C177.407 98.28 178.54 97.6733 179.127 96.46C179.713 95.2467 179.793 93.7733 179.367 92.04H176.007C176.193 92.72 176.207 93.2867 176.047 93.74C175.887 94.18 175.607 94.4 175.207 94.4C174.82 94.4 174.393 94.2533 173.927 93.96C173.46 93.6533 172.953 93.3067 172.407 92.92C171.873 92.5333 171.307 92.1933 170.707 91.9C170.12 91.5933 169.5 91.44 168.847 91.44C167.167 91.44 166.033 92.0467 165.447 93.26C164.873 94.46 164.793 95.9333 165.207 97.68H168.567C168.393 97 168.38 96.44 168.527 96C168.687 95.5467 168.967 95.32 169.367 95.32C169.753 95.32 170.18 95.4733 170.647 95.78C171.113 96.0733 171.613 96.4133 172.147 96.8C172.693 97.1867 173.26 97.5333 173.847 97.84C174.447 98.1333 175.073 98.28 175.727 98.28ZM172.247 123.6C174.407 123.6 176.307 123.12 177.947 122.16C179.6 121.187 180.887 119.847 181.807 118.14C182.74 116.42 183.207 114.44 183.207 112.2C183.207 109.973 182.747 108.007 181.827 106.3C180.907 104.58 179.62 103.233 177.967 102.26C176.327 101.287 174.42 100.8 172.247 100.8C170.113 100.8 168.227 101.28 166.587 102.24C164.947 103.2 163.66 104.54 162.727 106.26C161.793 107.967 161.327 109.947 161.327 112.2C161.327 114.427 161.78 116.4 162.687 118.12C163.607 119.827 164.887 121.167 166.527 122.14C168.167 123.113 170.073 123.6 172.247 123.6ZM172.247 118.52C170.553 118.52 169.267 117.953 168.387 116.82C167.52 115.673 167.087 114.133 167.087 112.2C167.087 110.32 167.5 108.8 168.327 107.64C169.167 106.467 170.473 105.88 172.247 105.88C173.967 105.88 175.26 106.453 176.127 107.6C177.007 108.747 177.447 110.28 177.447 112.2C177.447 114.053 177.013 115.573 176.147 116.76C175.293 117.933 173.993 118.52 172.247 118.52ZM197.645 123.6C199.725 123.6 201.638 123.053 203.385 121.96C205.145 120.867 206.431 119.333 207.245 117.36L201.805 115.8C200.978 117.613 199.485 118.52 197.325 118.52C195.845 118.52 194.678 118.107 193.825 117.28C192.985 116.453 192.465 115.267 192.265 113.72H207.425C207.651 111.107 207.385 108.833 206.625 106.9C205.865 104.967 204.691 103.467 203.105 102.4C201.518 101.333 199.591 100.8 197.325 100.8C195.191 100.8 193.305 101.287 191.665 102.26C190.025 103.22 188.738 104.573 187.805 106.32C186.871 108.067 186.405 110.12 186.405 112.48C186.405 114.64 186.878 116.56 187.825 118.24C188.785 119.907 190.105 121.22 191.785 122.18C193.478 123.127 195.431 123.6 197.645 123.6ZM197.565 105.52C198.871 105.52 199.871 105.847 200.565 106.5C201.271 107.153 201.725 108.213 201.925 109.68H192.405C192.978 106.907 194.698 105.52 197.565 105.52ZM220.381 123.6C223.207 123.6 225.421 122.967 227.021 121.7C228.621 120.433 229.421 118.693 229.421 116.48C229.421 114.8 228.901 113.473 227.861 112.5C226.834 111.527 225.087 110.72 222.621 110.08C220.941 109.653 219.687 109.307 218.861 109.04C218.047 108.773 217.507 108.513 217.241 108.26C216.987 108.007 216.861 107.693 216.861 107.32C216.861 106.693 217.161 106.213 217.761 105.88C218.374 105.547 219.181 105.413 220.181 105.48C222.301 105.64 223.461 106.547 223.661 108.2L229.221 107.2C228.941 105.24 227.981 103.687 226.341 102.54C224.701 101.38 222.607 100.8 220.061 100.8C217.447 100.8 215.361 101.413 213.801 102.64C212.241 103.867 211.461 105.52 211.461 107.6C211.461 109.253 212.001 110.56 213.081 111.52C214.161 112.467 216.021 113.28 218.661 113.96C220.221 114.373 221.367 114.707 222.101 114.96C222.847 115.213 223.327 115.473 223.541 115.74C223.754 115.993 223.861 116.333 223.861 116.76C223.861 117.44 223.594 117.973 223.061 118.36C222.527 118.733 221.767 118.92 220.781 118.92C219.581 118.92 218.587 118.633 217.801 118.06C217.027 117.487 216.527 116.693 216.301 115.68L210.741 116.52C211.101 118.773 212.114 120.52 213.781 121.76C215.461 122.987 217.661 123.6 220.381 123.6Z" fill="#18191F"/>
<g style="mix-blend-mode:color-dodge">
<path d="M109.064 38.1817C116.858 65.0914 89.0311 92.8864 110.182 113.418C131.227 133.847 193.896 107.584 173.212 96.9467C183.171 91.8681 205.451 57.5956 184.3 37.0641C147.329 61.3508 140.284 5.10409 109.064 38.1817Z" fill="#12FF2A"/>
</g>
</svg>
