<svg width="64" height="64" viewBox="0 0 64 64" fill="none" xmlns="http://www.w3.org/2000/svg">
<path d="M48.0001 2H24.0001C22.7622 2.00348 21.5557 2.38976 20.546 3.10588C19.5362 3.822 18.7727 4.8329 18.3601 6H40.0001C42.6523 6 45.1958 7.05357 47.0712 8.92893C48.9465 10.8043 50.0001 13.3478 50.0001 16V53.64C51.1672 53.2274 52.1781 52.4639 52.8942 51.4541C53.6104 50.4444 53.9966 49.2379 54.0001 48V8C54.0001 6.4087 53.368 4.88258 52.2427 3.75736C51.1175 2.63214 49.5914 2 48.0001 2Z" fill="#141613"/>
<path d="M40 10H16C14.4087 10 12.8826 10.6321 11.7574 11.7574C10.6321 12.8826 10 14.4087 10 16V56C10 57.5913 10.6321 59.1174 11.7574 60.2426C12.8826 61.3679 14.4087 62 16 62H40C41.5913 62 43.1174 61.3679 44.2426 60.2426C45.3679 59.1174 46 57.5913 46 56V16C46 14.4087 45.3679 12.8826 44.2426 11.7574C43.1174 10.6321 41.5913 10 40 10ZM38 54H18C17.4696 54 16.9609 53.7893 16.5858 53.4142C16.2107 53.0391 16 52.5304 16 52C16 51.4696 16.2107 50.9609 16.5858 50.5858C16.9609 50.2107 17.4696 50 18 50H38C38.5304 50 39.0391 50.2107 39.4142 50.5858C39.7893 50.9609 40 51.4696 40 52C40 52.5304 39.7893 53.0391 39.4142 53.4142C39.0391 53.7893 38.5304 54 38 54ZM38 46H18C17.4696 46 16.9609 45.7893 16.5858 45.4142C16.2107 45.0391 16 44.5304 16 44C16 43.4696 16.2107 42.9609 16.5858 42.5858C16.9609 42.2107 17.4696 42 18 42H38C38.5304 42 39.0391 42.2107 39.4142 42.5858C39.7893 42.9609 40 43.4696 40 44C40 44.5304 39.7893 45.0391 39.4142 45.4142C39.0391 45.7893 38.5304 46 38 46ZM28 40C25.6266 40 23.3065 39.2962 21.3332 37.9776C19.3598 36.6591 17.8217 34.7849 16.9134 32.5922C16.0052 30.3995 15.7676 27.9867 16.2306 25.6589C16.6936 23.3311 17.8365 21.1929 19.5147 19.5147C21.1929 17.8365 23.3311 16.6936 25.6589 16.2306C27.9867 15.7676 30.3995 16.0052 32.5922 16.9134C34.7849 17.8217 36.6591 19.3598 37.9776 21.3332C39.2962 23.3065 40 25.6266 40 28C40 31.1826 38.7357 34.2348 36.4853 36.4853C34.2348 38.7357 31.1826 40 28 40Z" fill="#141613"/>
<path d="M28 20C26.4178 20 24.871 20.4692 23.5554 21.3482C22.2399 22.2273 21.2145 23.4767 20.609 24.9385C20.0035 26.4003 19.845 28.0089 20.1537 29.5607C20.4624 31.1126 21.2243 32.538 22.3431 33.6569C23.462 34.7757 24.8874 35.5376 26.4393 35.8463C27.9911 36.155 29.5997 35.9965 31.0615 35.391C32.5233 34.7855 33.7727 33.7602 34.6518 32.4446C35.5308 31.129 36 29.5823 36 28C36 25.8783 35.1572 23.8434 33.6569 22.3431C32.1566 20.8429 30.1217 20 28 20ZM32.38 27.44L28.24 31.44C27.8693 31.7974 27.3749 31.998 26.86 32C26.3382 32.0031 25.8357 31.8022 25.46 31.44L23.62 29.64C23.4078 29.4649 23.234 29.2479 23.1095 29.0025C22.9849 28.7572 22.9124 28.4888 22.8963 28.2141C22.8803 27.9394 22.9211 27.6644 23.0161 27.4062C23.1112 27.148 23.2586 26.9122 23.4489 26.7136C23.6393 26.5149 23.8686 26.3577 24.1225 26.2517C24.3764 26.1457 24.6495 26.0933 24.9246 26.0976C25.1997 26.102 25.471 26.1631 25.7214 26.277C25.9718 26.391 26.196 26.5554 26.38 26.76L26.86 27.22L29.62 24.56C30.0093 24.2387 30.5057 24.0766 31.0096 24.106C31.5135 24.1355 31.9876 24.3544 32.3369 24.7188C32.6861 25.0832 32.8847 25.5663 32.8927 26.0709C32.9007 26.5756 32.7175 27.0647 32.38 27.44Z" fill="#12FF2A"/>
</svg>
