<svg width="53" height="60" viewBox="0 0 53 60" fill="none" xmlns="http://www.w3.org/2000/svg">
<path d="M35.3334 42.5C35.5475 42.5003 35.7543 42.4125 35.9155 42.253L37.9834 40.2V45C37.9834 45.2652 38.0765 45.5196 38.2421 45.7071C38.4078 45.8947 38.6325 46 38.8668 46C39.101 46 39.3257 45.8947 39.4914 45.7071C39.657 45.5196 39.7501 45.2652 39.7501 45V40L41.8701 41.8C41.9629 41.8788 42.0685 41.9361 42.1809 41.9687C42.2932 42.0013 42.4102 42.0085 42.525 41.99C42.6398 41.9714 42.7503 41.9274 42.8501 41.8605C42.95 41.7936 43.0371 41.7051 43.1068 41.6C43.1764 41.495 43.227 41.3754 43.2558 41.2482C43.2846 41.121 43.2909 40.9886 43.2745 40.8586C43.2581 40.7286 43.2193 40.6035 43.1602 40.4905C43.1011 40.3775 43.0229 40.2788 42.9301 40.2L39.3967 37.2C39.2316 37.0712 39.0342 37.0062 38.8338 37.0147C38.6334 37.0232 38.4408 37.1047 38.2846 37.247L34.7513 40.747C34.6159 40.881 34.5198 41.0586 34.4759 41.256C34.432 41.4534 34.4424 41.6613 34.5057 41.8519C34.569 42.0425 34.6822 42.2066 34.8301 42.3225C34.978 42.4383 35.1536 42.5002 35.3334 42.5ZM35.3334 50H42.4001C42.6344 50 42.859 49.8947 43.0247 49.7071C43.1904 49.5196 43.2834 49.2652 43.2834 49C43.2834 48.7348 43.1904 48.4805 43.0247 48.2929C42.859 48.1054 42.6344 48 42.4001 48H35.3334C35.0991 48 34.8745 48.1054 34.7088 48.2929C34.5431 48.4805 34.4501 48.7348 34.4501 49C34.4501 49.2652 34.5431 49.5196 34.7088 49.7071C34.8745 49.8947 35.0991 50 35.3334 50Z" fill="#12FF2A"/>
<path d="M50.35 0H2.65C1.94718 0 1.27314 0.316071 0.776167 0.87868C0.279196 1.44129 0 2.20435 0 3V57C0 57.7957 0.279196 58.5587 0.776167 59.1213C1.27314 59.6839 1.94718 60 2.65 60H50.35C51.0528 60 51.7269 59.6839 52.2238 59.1213C52.7208 58.5587 53 57.7957 53 57V3C53 2.20435 52.7208 1.44129 52.2238 0.87868C51.7269 0.316071 51.0528 0 50.35 0ZM4.38398 24.869C4.20928 24.869 4.03849 24.8104 3.89323 24.7005C3.74797 24.5906 3.63475 24.4344 3.56789 24.2517C3.50103 24.069 3.48354 23.8679 3.51762 23.6739C3.55171 23.4799 3.63584 23.3017 3.75937 23.1619C3.88291 23.022 4.0403 22.9268 4.21165 22.8882C4.383 22.8496 4.56061 22.8694 4.72202 22.9451C4.88343 23.0208 5.02139 23.149 5.11845 23.3134C5.21551 23.4779 5.26732 23.6712 5.26732 23.869C5.26732 24.1342 5.17425 24.3886 5.00859 24.5761C4.84294 24.7636 4.61826 24.869 4.38398 24.869ZM5.26732 19.869C5.26732 20.1342 5.17425 20.3886 5.00859 20.5761C4.84294 20.7636 4.61826 20.869 4.38398 20.869C4.14971 20.869 3.92503 20.7636 3.75937 20.5761C3.59372 20.3886 3.50065 20.1342 3.50065 19.869V5.216C3.50065 4.95078 3.59372 4.69643 3.75937 4.50889C3.92503 4.32136 4.14971 4.216 4.38398 4.216C4.61826 4.216 4.84294 4.32136 5.00859 4.50889C5.17425 4.69643 5.26732 4.95078 5.26732 5.216V19.869ZM22.9667 50H6.18333C5.94906 50 5.72438 49.8946 5.55872 49.7071C5.39307 49.5196 5.3 49.2652 5.3 49C5.3 48.7348 5.39307 48.4804 5.55872 48.2929C5.72438 48.1054 5.94906 48 6.18333 48H22.9667C23.2009 48 23.4256 48.1054 23.5913 48.2929C23.7569 48.4804 23.85 48.7348 23.85 49C23.85 49.2652 23.7569 49.5196 23.5913 49.7071C23.4256 49.8946 23.2009 50 22.9667 50ZM22.9667 45H6.18333C5.94906 45 5.72438 44.8946 5.55872 44.7071C5.39307 44.5196 5.3 44.2652 5.3 44C5.3 43.7348 5.39307 43.4804 5.55872 43.2929C5.72438 43.1054 5.94906 43 6.18333 43H22.9667C23.2009 43 23.4256 43.1054 23.5913 43.2929C23.7569 43.4804 23.85 43.7348 23.85 44C23.85 44.2652 23.7569 44.5196 23.5913 44.7071C23.4256 44.8946 23.2009 45 22.9667 45ZM22.9667 40H6.18333C5.94906 40 5.72438 39.8946 5.55872 39.7071C5.39307 39.5196 5.3 39.2652 5.3 39C5.3 38.7348 5.39307 38.4804 5.55872 38.2929C5.72438 38.1054 5.94906 38 6.18333 38H22.9667C23.2009 38 23.4256 38.1054 23.5913 38.2929C23.7569 38.4804 23.85 38.7348 23.85 39C23.85 39.2652 23.7569 39.5196 23.5913 39.7071C23.4256 39.8946 23.2009 40 22.9667 40ZM26.5 13C26.3498 13 26.202 13.0434 26.0707 13.126L20.0896 16.888C20.0224 16.9303 19.9466 16.952 19.8697 16.951C19.7927 16.9499 19.7174 16.9262 19.6511 16.882C19.5848 16.8379 19.5298 16.7749 19.4916 16.6993C19.4534 16.6237 19.4333 16.5381 19.4333 16.451V9.06667C19.4333 5.16386 22.5972 2 26.5 2C30.4028 2 33.5667 5.16385 33.5667 9.06666V16.451C33.5667 16.5381 33.5466 16.6237 33.5084 16.6993C33.4702 16.7749 33.4152 16.8379 33.3489 16.882C33.2826 16.9262 33.2073 16.9499 33.1303 16.951C33.0534 16.952 32.9776 16.9303 32.9104 16.888L26.9293 13.126C26.798 13.0434 26.6502 13 26.5 13ZM45.9333 44.9333C45.9333 48.8361 42.7695 52 38.8667 52C34.9639 52 31.8 48.8361 31.8 44.9333V42.0667C31.8 38.1639 34.9639 35 38.8667 35C42.7695 35 45.9333 38.1639 45.9333 42.0667V44.9333Z" fill="#141613"/>
</svg>
