<svg width="248" height="249" viewBox="0 0 248 249" fill="none" xmlns="http://www.w3.org/2000/svg">
<g style="mix-blend-mode:hard-light">
<path d="M248 81.5391C248 126.487 211.635 163.078 166.461 163.078C121.513 163.078 84.9219 126.713 84.9219 81.5391C84.9219 36.591 121.287 0 166.461 0C211.409 0 248 36.591 248 81.5391Z" fill="#12FF2A"/>
</g>
<path d="M85.1531 248.444C38.1722 248.444 0 210.273 0 163.292C0 116.311 38.1722 78.1387 85.1531 78.1387C132.134 78.1387 170.306 116.311 170.306 163.292C170.306 210.273 132.134 248.444 85.1531 248.444ZM85.1531 88.5286C44.0448 88.5286 10.39 121.957 10.39 163.292C10.39 204.4 43.8189 238.054 85.1531 238.054C126.261 238.054 159.916 204.626 159.916 163.292C159.916 122.183 126.261 88.5286 85.1531 88.5286Z" fill="#191919"/>
</svg>
