<svg width="271" height="268" viewBox="0 0 271 268" fill="none" xmlns="http://www.w3.org/2000/svg">
<g style="mix-blend-mode:hard-light">
<path d="M271 156.605C271 217.473 221.756 267.023 160.582 267.023C99.7138 267.023 50.1631 217.779 50.1631 156.605C50.1631 95.7369 99.4079 46.186 160.582 46.186C221.45 46.186 271 95.7369 271 156.605Z" fill="#12FF2A"/>
</g>
<g style="mix-blend-mode:multiply">
<path d="M115.313 230.625C51.6921 230.625 0 178.933 0 115.313C0 51.6919 51.6921 0 115.313 0C178.934 0 230.625 51.6919 230.625 115.313C230.625 178.933 178.934 230.625 115.313 230.625ZM115.313 14.0699C59.6447 14.0699 14.0699 59.3386 14.0699 115.313C14.0699 170.981 59.3388 216.555 115.313 216.555C170.981 216.555 216.555 171.287 216.555 115.313C216.555 59.6445 170.981 14.0699 115.313 14.0699Z" fill="#191919"/>
</g>
</svg>
