<svg width="144" height="135" viewBox="0 0 144 135" fill="none" xmlns="http://www.w3.org/2000/svg">
<mask id="mask0" mask-type="alpha" maskUnits="userSpaceOnUse" x="0" y="0" width="144" height="135">
<ellipse cx="72" cy="67.2941" rx="72" ry="67.2941" fill="white"/>
</mask>
<g mask="url(#mask0)">
<ellipse cx="72" cy="67.2941" rx="72" ry="67.2941" fill="white"/>
<path d="M67.7514 42.7858C67.7514 42.7858 54.4137 43.4742 48.6139 46.5376C42.8142 49.5838 35.9474 51.4596 30.2853 65.3309C24.606 79.2021 23.9865 81.7664 23.0399 86.4991C22.0934 91.2319 20.4928 100.25 21.3017 106.273C22.1106 112.297 24.193 119.301 31.5416 122.244C31.5416 122.244 34.605 123.518 37.9265 123.466C41.248 123.414 113.736 123.466 113.736 123.466C113.736 123.466 117.643 122.261 118.985 121.332C120.311 120.386 123.89 117.46 125.319 112.331C126.747 107.203 126.609 101.128 126.369 98.5117C126.128 95.8958 125.388 89.9239 124.321 85.7763C123.254 81.6287 120.104 71.406 118.366 67.5337C116.628 63.6615 113.754 57.2422 110.604 53.9207C107.455 50.5991 101.311 46.7785 97.4386 45.5738C93.5491 44.3691 87.3879 42.803 81.7603 42.8202C76.1154 42.7858 67.7514 42.7858 67.7514 42.7858Z" fill="#1A1A1A"/>
<path d="M110.019 123.483H38.9589C35.8267 123.483 33.2969 120.936 33.2969 117.821V73.8842C33.2969 70.752 35.8439 68.2222 38.9589 68.2222H110.019C113.151 68.2222 115.681 70.7692 115.681 73.8842V117.804C115.681 120.936 113.151 123.483 110.019 123.483Z" fill="#80FF6B"/>
<path d="M15.4847 107.564L16.6378 107.168L17.1713 106.118L16.7755 104.828L15.2266 104.07L-41.4975 104.38C-41.4975 104.38 -45.6278 105.878 -46.0237 108.975C-46.4195 112.09 -46.0581 122.915 -46.0581 122.915C-46.0581 122.915 -45.2148 127.803 -41.3598 128.164C-37.5047 128.526 15.8634 128.13 15.8634 128.13C15.8634 128.13 17.395 127.424 17.1713 126.116C16.9476 124.808 15.1405 124.705 15.1405 124.705L15.4847 107.564Z" fill="#80FF6B"/>
<path d="M67.063 45.4878C67.063 45.4878 67.717 42.803 67.9751 41.0132C68.2333 39.2234 68.5086 35.0414 68.5086 35.0414C68.5086 35.0414 64.7913 32.8557 64.4299 27.7271L64.1029 27.3313C64.1029 27.3313 58.8883 29.3276 58.0622 24.027C57.2361 18.7263 63.3284 19.4491 63.9996 19.9482V17.0914C63.9996 17.0914 67.8203 15.9555 70.4362 13.6494C73.0521 11.3432 74.6698 8.15938 74.6698 8.15938C74.6698 8.15938 76.5285 12.2381 79.5402 14.114C82.552 16.0071 85.4088 17.0741 85.4088 17.0741V19.931C85.4088 19.931 90.916 18.0723 91.4151 23.373C91.4151 23.373 91.656 27.2108 88.8164 27.469C85.9767 27.7271 85.1851 27.3141 85.1851 27.3141C85.1851 27.3141 84.3762 32.2189 80.9687 35.0069C80.9687 35.0069 81.3989 41.9081 81.9152 43.5775C81.9152 43.5775 82.9478 45.505 82.3626 46.6925C81.7947 47.88 79.437 50.754 74.6526 50.4959C69.8855 50.2377 68.13 48.0693 67.717 47.6907C67.3556 47.3293 67.063 45.4878 67.063 45.4878Z" fill="white"/>
<path d="M76.0982 104.019C79.3108 104.019 81.9152 101.415 81.9152 98.2019C81.9152 94.9893 79.3108 92.3849 76.0982 92.3849C72.8856 92.3849 70.2812 94.9893 70.2812 98.2019C70.2812 101.415 72.8856 104.019 76.0982 104.019Z" fill="white"/>
<path d="M-42.8745 110.025L-42.5131 108.734L-41.3428 107.736L-39.8455 107.564H15.2263V124.981H-41.2051L-42.4959 123.81L-42.8745 122.709V110.025Z" fill="white"/>
<path d="M62.1921 19.1393C62.1921 19.1393 60.953 12.6168 61.7619 9.17476C62.5535 5.73277 64.7908 1.37865 74.4801 1.13771C74.4801 1.13771 80.7789 1.2926 83.7562 3.54711C86.7163 5.81882 87.9726 8.74451 87.6629 12.634C87.3531 16.5234 87.0605 19.5352 87.0605 19.5352L85.4428 19.9654V17.1086C85.4428 17.1086 77.6639 15.1122 74.721 8.19379C74.721 8.19379 71.4339 15.8006 64.0508 17.1086L63.8271 19.8621L62.1921 19.1393Z" fill="#80FF6B"/>
<path d="M62.8468 28.0025C62.8468 28.0025 64.172 35.2134 61.3495 37.4507C58.5271 39.688 54.1558 42.3039 54.0869 44.4208C54.0869 44.4208 58.8369 43.5947 61.4872 43.3193C64.1375 43.044 67.7516 42.803 67.7516 42.803L68.7154 35.1962C68.7154 35.1962 64.6194 32.5115 64.3957 27.3829L62.8468 28.0025Z" fill="#80FF6B"/>
<path d="M86.5791 27.7271C86.5791 27.7271 85.6842 31.4444 86.4242 34.4218C87.1642 37.3991 89.5392 38.7759 91.1053 39.8429C92.6714 40.9099 94.7022 42.149 95.339 44.6445C95.339 44.6445 89.0401 43.2677 85.3916 43.0268C81.7431 42.7686 81.7431 42.7686 81.7431 42.7686L80.9858 35.0241C80.9858 35.0241 84.4967 32.6147 85.2023 27.3313L86.5791 27.7271Z" fill="#80FF6B"/>
<path d="M25.0246 14.8893C33.1569 6.75707 33.1569 -6.42786 25.0246 -14.5601C16.8924 -22.6923 3.70749 -22.6923 -4.42473 -14.5601C-12.5569 -6.42786 -12.5569 6.75707 -4.42473 14.8893C3.70749 23.0215 16.8924 23.0215 25.0246 14.8893Z" fill="#80FF6B"/>
<path d="M142.649 91.8858C142.649 91.8858 145.781 99.7852 156.331 95.3278C156.331 95.3278 154.576 100.061 147.537 99.3206C141.152 98.6494 142.649 91.8858 142.649 91.8858Z" fill="#CCCCCC"/>
<path d="M83.7395 3.56432C82.5864 2.68661 80.9342 2.13588 79.3509 1.77448C79.4198 1.8089 83.8083 3.75362 83.9116 8.57241C84.0148 13.4428 75.0312 8.19379 75.0312 8.19379C75.0312 8.19379 75.0829 8.58962 75.1689 9.22639C78.4216 15.3015 85.3916 17.1085 85.3916 17.1085V19.9654L87.0094 19.5352C87.0094 19.5352 87.3019 16.5234 87.6117 12.634C87.9731 8.76172 86.7168 5.81882 83.7395 3.56432Z" fill="white"/>
<path d="M95.3387 44.6617C94.7019 42.149 92.6711 40.9099 91.105 39.8601C89.5389 38.7931 87.1639 37.3991 86.4239 34.439C85.6839 31.4617 86.5788 27.7443 86.5788 27.7443L85.202 27.3657C84.9438 29.2932 84.3243 30.8249 83.6187 32.0124C83.481 32.9761 83.0679 36.9172 85.202 39.1029C86.1485 40.0666 86.5616 41.6327 86.7164 43.1816C90.3994 43.5947 95.3387 44.6617 95.3387 44.6617Z" fill="white"/>
<path d="M148.982 100.026C148.845 100.026 148.707 100.026 148.569 100.026C144.783 99.9057 143.234 98.0642 142.597 96.5497C141.358 93.6068 142.563 89.7346 144.439 87.6866C144.473 87.6522 145.695 86.1377 144.49 82.5064C143.699 80.1314 143.888 77.7565 145.007 76.0183C146.039 74.4177 147.76 73.454 149.998 73.2302C152.183 73.0065 154.197 73.7293 155.608 75.2954C157.054 76.896 157.742 79.2021 157.329 81.1468L157.243 81.5427C156.641 84.4167 156.451 85.2944 157.312 88.1168C157.897 90.0272 157.983 94.1231 155.746 97.0316C154.231 99.0108 151.96 100.026 148.982 100.026ZM150.824 73.9703C150.583 73.9703 150.342 73.9875 150.084 74.0047C148.087 74.2112 146.556 75.0545 145.678 76.4485C144.697 77.9802 144.542 80.097 145.248 82.2483C146.624 86.3959 145.093 88.1513 145.024 88.2201C143.355 90.0444 142.219 93.6241 143.32 96.24C144.112 98.1159 145.936 99.1657 148.586 99.2345C151.512 99.355 153.698 98.4256 155.126 96.5497C157.071 94.0199 157.123 90.2165 156.555 88.3406C155.642 85.3288 155.866 84.2446 156.469 81.3706L156.555 80.9747C156.899 79.3053 156.279 77.223 155.023 75.829C154.231 74.934 152.889 73.9703 150.824 73.9703Z" fill="black"/>
<path d="M67.9747 28.5532C65.2727 28.5532 63.0698 25.7824 63.0698 22.3748C63.0698 18.9672 65.2727 16.1964 67.9747 16.1964C70.6766 16.1964 72.8795 18.9672 72.8795 22.3748C72.8795 23.0116 72.8279 23.5106 72.6902 24.0614C72.6385 24.2679 72.432 24.4056 72.2083 24.3539C72.0018 24.3023 71.8641 24.0958 71.9157 23.8721C72.0362 23.3902 72.0706 22.9599 72.0706 22.3748C72.0706 19.3975 70.2292 16.9881 67.9574 16.9881C65.6857 16.9881 63.8443 19.3975 63.8443 22.3748C63.8443 25.3521 65.6857 27.7615 67.9574 27.7615C69.0933 27.7615 70.0571 27.2624 70.8143 26.2642C70.952 26.0921 71.1929 26.0577 71.365 26.1782C71.5371 26.3159 71.5715 26.5568 71.4511 26.7289C70.5561 27.9164 69.3515 28.5532 67.9747 28.5532Z" fill="black"/>
<path d="M81.3985 28.5532C78.6965 28.5532 76.4937 25.7824 76.4937 22.3748C76.4937 18.9672 78.6965 16.1964 81.3985 16.1964C84.1005 16.1964 86.3033 18.9672 86.3033 22.3748C86.3033 25.7824 84.1005 28.5532 81.3985 28.5532ZM81.3985 16.9709C79.1268 16.9709 77.2853 19.3803 77.2853 22.3576C77.2853 25.3349 79.1268 27.7443 81.3985 27.7443C83.6702 27.7443 85.5117 25.3349 85.5117 22.3576C85.5117 19.3975 83.6702 16.9709 81.3985 16.9709Z" fill="black"/>
<path d="M76.7173 22.7534C76.614 22.7534 76.528 22.719 76.4419 22.6502C75.7363 21.979 75.0651 21.6692 74.3767 21.7208C73.499 21.7897 72.9311 22.4781 72.9311 22.4781C72.7934 22.6502 72.5524 22.6846 72.3803 22.5469C72.2082 22.4092 72.1738 22.1683 72.3115 21.9962C72.3459 21.9618 73.086 21.0324 74.3251 20.9292C75.22 20.8603 76.1149 21.2389 76.9926 22.065C77.1475 22.2199 77.1647 22.4608 77.0099 22.6329C76.9238 22.719 76.8206 22.7534 76.7173 22.7534Z" fill="black"/>
<path d="M110.019 123.879H38.9589C35.6202 123.879 32.8838 121.16 32.8838 117.804V73.8842C32.8838 70.5455 35.603 67.8091 38.9589 67.8091H110.019C113.358 67.8091 116.094 70.5283 116.094 73.8842V117.804C116.094 121.16 113.358 123.879 110.019 123.879ZM38.9589 68.618C36.0504 68.618 33.6926 70.9758 33.6926 73.8842V117.804C33.6926 120.713 36.0504 123.07 38.9589 123.07H110.019C112.927 123.07 115.285 120.713 115.285 117.804V73.8842C115.285 70.9758 112.927 68.618 110.019 68.618H38.9589Z" fill="black"/>
<path d="M74.5834 102.418C71.1586 102.418 68.3706 99.6303 68.3706 96.2055C68.3706 92.7808 71.1586 89.9928 74.5834 89.9928C78.0082 89.9928 80.7962 92.7808 80.7962 96.2055C80.7962 99.6303 78.0082 102.418 74.5834 102.418ZM74.5834 90.8016C71.5888 90.8016 69.1622 93.2282 69.1622 96.2228C69.1622 99.2173 71.5888 101.644 74.5834 101.644C77.5779 101.644 80.0045 99.2173 80.0045 96.2228C80.0045 93.2282 77.5779 90.8016 74.5834 90.8016Z" fill="black"/>
<path d="M110.484 123.862C110.26 123.862 110.088 123.69 110.088 123.466C110.088 123.242 110.26 123.07 110.484 123.07C117.454 123.07 122.152 119.904 124.475 113.639C131.015 95.9818 116.937 59.8065 109.726 53.5765C100.416 45.5738 92.9982 43.784 81.7429 43.1816C81.5191 43.1644 81.3643 42.9751 81.3643 42.7686C81.3815 42.5449 81.5708 42.3556 81.7773 42.39C93.2047 43.0096 100.76 44.8338 110.243 52.9741C117.574 59.273 131.858 95.999 125.232 113.915C122.771 120.506 117.815 123.862 110.484 123.862Z" fill="black"/>
<path d="M38.9589 123.879C30.6293 123.879 25.0533 120.265 22.403 113.123C15.7427 95.1902 30.0786 59.4623 37.5994 52.9913C46.8239 45.0575 55.9624 43.0612 67.7168 42.4072C67.9405 42.3728 68.1298 42.5621 68.1298 42.7858C68.147 43.0096 67.9749 43.1989 67.7512 43.1989C56.1689 43.8356 47.1681 45.8148 38.0984 53.5937C30.6809 59.9786 16.5688 95.173 23.1258 112.848C25.6556 119.646 30.9563 123.088 38.9245 123.088C39.1483 123.088 39.3204 123.26 39.3204 123.483C39.3548 123.69 39.1827 123.879 38.9589 123.879Z" fill="black"/>
<path d="M62.2097 28.1918C62.1236 28.1918 62.0204 28.1918 61.9343 28.1746C60.7296 28.1057 59.611 27.555 58.8193 26.6429C58.0276 25.7307 57.6146 24.5777 57.7007 23.3558C57.7695 22.1511 58.3202 21.0496 59.2323 20.2408C60.1445 19.4491 61.2975 19.0533 62.5194 19.1221C63.0013 19.1565 63.466 19.2598 63.9134 19.4319C64.12 19.5179 64.2232 19.7417 64.1372 19.9482C64.0511 20.1547 63.8274 20.258 63.6209 20.1719C63.2595 20.0343 62.8637 19.931 62.4678 19.9138C61.4524 19.8622 60.5059 20.1719 59.7659 20.8431C59.0086 21.4971 58.5784 22.4092 58.5095 23.4074C58.4407 24.4056 58.7677 25.3693 59.4389 26.1094C60.0928 26.8666 61.005 27.2969 62.0031 27.3657C62.6743 27.4001 63.3627 27.2624 63.9651 26.9527C64.1544 26.8494 64.3953 26.9182 64.4986 27.1248C64.6019 27.3141 64.5158 27.555 64.3265 27.6583C63.6553 28.0197 62.9325 28.1918 62.2097 28.1918Z" fill="black"/>
<path d="M61.2976 26.161C61.1771 26.161 61.0566 26.1094 60.9878 26.0061C60.8501 25.834 60.8845 25.5758 61.0566 25.4554L63.3111 23.7172C63.4832 23.5795 63.7414 23.6139 63.8619 23.786C63.9995 23.9581 63.9651 24.2163 63.793 24.3367L61.5385 26.0749C61.4697 26.1266 61.3836 26.161 61.2976 26.161Z" fill="black"/>
<path d="M63.3624 23.459C63.2764 23.459 63.1903 23.4418 63.1215 23.373L60.7809 21.6348C60.6088 21.4971 60.5744 21.2562 60.6949 21.0841C60.8325 20.912 61.0735 20.8775 61.2456 20.998L63.5861 22.7362C63.7582 22.8739 63.7927 23.1148 63.6722 23.2869C63.6033 23.4074 63.4829 23.459 63.3624 23.459Z" fill="black"/>
<path d="M87.3016 28.1918C86.5788 28.1918 85.856 28.0197 85.2192 27.6755C85.0299 27.5722 84.9438 27.3313 85.0471 27.142C85.1504 26.9527 85.3913 26.8838 85.5806 26.9699C86.183 27.2796 86.8541 27.4173 87.5425 27.3829C88.5407 27.3141 89.4528 26.8666 90.1068 26.1266C90.7608 25.3865 91.105 24.4228 91.0362 23.4246C90.9673 22.4264 90.5199 21.5143 89.7798 20.8603C89.0398 20.2064 88.0761 19.8794 87.0779 19.931C86.6476 19.9654 86.2346 20.0515 85.856 20.2236C85.6494 20.3096 85.4257 20.2063 85.3397 20.017C85.2536 19.8105 85.3569 19.5868 85.5462 19.5007C86.0108 19.2942 86.51 19.191 87.0262 19.1565C88.2309 19.0877 89.4012 19.4835 90.3134 20.2752C91.2255 21.0841 91.759 22.1855 91.845 23.3902C91.9139 24.5949 91.518 25.7652 90.7264 26.6773C89.9175 27.5894 88.8161 28.1229 87.6114 28.209C87.4909 28.1918 87.4049 28.1918 87.3016 28.1918Z" fill="black"/>
<path d="M88.2135 26.161C88.1275 26.161 88.0415 26.1266 87.9726 26.0749L85.6665 24.3023C85.4944 24.1646 85.46 23.9237 85.5976 23.7516C85.7353 23.5795 85.9763 23.5451 86.1484 23.6827L88.4545 25.4554C88.6266 25.5931 88.661 25.834 88.5233 26.0061C88.4545 26.0921 88.334 26.161 88.2135 26.161Z" fill="black"/>
<path d="M85.9937 23.5795C85.8732 23.5795 85.7527 23.5279 85.6667 23.4246C85.529 23.2525 85.5806 22.9944 85.7527 22.8739L88.2654 21.0152C88.4375 20.8775 88.6956 20.9292 88.8161 21.1013C88.9537 21.2734 88.9021 21.5315 88.73 21.652L86.2174 23.5107C86.1658 23.5451 86.0797 23.5795 85.9937 23.5795Z" fill="black"/>
<path d="M74.756 37.0893C72.7597 37.0893 69.92 36.7107 67.6483 34.9037C65.8929 33.5097 64.7399 31.2724 64.1031 28.0713C63.9998 27.5722 63.9138 26.815 63.8449 25.7824C63.8277 25.5587 63.9998 25.3693 64.2063 25.3521C64.4301 25.3521 64.6194 25.507 64.6366 25.7135C64.7054 26.6945 64.7915 27.4345 64.8775 27.8992C65.4799 30.911 66.5297 32.9934 68.1302 34.2669C70.2298 35.9363 72.8802 36.2805 74.756 36.2805C74.9798 36.2805 75.1519 36.4526 75.1519 36.6763C75.1519 36.9 74.9626 37.0893 74.756 37.0893Z" fill="black"/>
<path d="M64.0856 19.8966C63.8791 19.8966 63.707 19.7417 63.6898 19.5352C63.6898 19.4835 63.6037 18.2444 63.6209 17.0913C63.6209 16.8676 63.793 16.7127 64.0168 16.6955C64.2405 16.6955 64.4126 16.8848 64.4126 17.0913C64.3954 18.1928 64.4814 19.4491 64.4814 19.4663C64.4986 19.69 64.3265 19.8794 64.12 19.8966C64.12 19.8966 64.1028 19.8966 64.0856 19.8966Z" fill="black"/>
<path d="M64.0165 17.4872C63.8444 17.4872 63.6895 17.3667 63.6379 17.1946C63.5863 16.9881 63.7067 16.7644 63.9133 16.7127C71.4512 14.6303 74.2909 8.09054 74.3081 8.0217C74.3941 7.81518 74.6351 7.72913 74.8244 7.81518C75.0309 7.90123 75.117 8.12495 75.0309 8.33147C74.9104 8.60683 72.002 15.3015 64.1026 17.4872C64.0854 17.4872 64.051 17.4872 64.0165 17.4872Z" fill="black"/>
<path d="M74.6869 37.0893C74.4631 37.0893 74.291 36.9172 74.291 36.6935C74.291 36.4698 74.4631 36.2977 74.6869 36.2977C76.5455 36.2977 79.2131 35.9535 81.3127 34.2841C82.9132 33.0106 83.9802 30.9282 84.5654 27.9164C84.6686 27.3829 84.7547 26.5912 84.8235 25.4038C84.8407 25.18 84.9956 25.0423 85.2366 25.0251C85.4603 25.0423 85.6152 25.2317 85.6152 25.4382C85.5463 26.6601 85.4431 27.4862 85.3398 28.0541C84.703 31.2552 83.55 33.4924 81.7946 34.8865C79.5229 36.7107 76.666 37.0893 74.6869 37.0893Z" fill="black"/>
<path d="M85.4085 19.9138C85.1848 19.9138 85.0127 19.7245 85.0127 19.5179C85.0299 18.5198 85.0299 17.6765 85.0127 17.1085C85.0127 16.8848 85.1848 16.7127 85.4085 16.7127C85.6667 16.7299 85.8043 16.8848 85.8043 17.1085C85.8215 17.6765 85.8215 18.537 85.8043 19.5524C85.8043 19.7417 85.6323 19.9138 85.4085 19.9138Z" fill="black"/>
<path d="M85.4089 17.4872C85.3745 17.4872 85.3401 17.4872 85.3057 17.47C77.4063 15.3015 74.4462 8.60683 74.3085 8.33147C74.2225 8.12495 74.3085 7.90123 74.515 7.81518C74.7215 7.72913 74.9453 7.81518 75.0313 8.0217C75.0657 8.09054 77.9914 14.6475 85.495 16.7127C85.7015 16.7644 85.822 16.9881 85.7703 17.1946C85.7531 17.3839 85.581 17.4872 85.4089 17.4872Z" fill="black"/>
<path d="M74.8417 50.9261C71.6407 50.9261 68.6978 49.601 67.3382 47.5358C66.6498 46.486 66.4777 45.3845 66.8907 44.4208C67.9061 42.0286 68.1126 35.093 68.1298 35.0241C68.1298 34.8004 68.302 34.6111 68.5429 34.6455C68.7666 34.6455 68.9387 34.8348 68.9215 35.0586C68.9043 35.3511 68.6978 42.2179 67.6308 44.7478C67.3382 45.4534 67.4759 46.2967 68.0094 47.1055C69.0076 48.62 71.5202 50.1345 74.859 50.1345C78.06 50.1345 80.521 49.2051 81.588 47.5702C82.1732 46.6925 82.2936 45.6599 81.8978 44.7478C80.8308 42.2351 80.6071 35.3511 80.6071 35.0586C80.6071 34.8348 80.7792 34.6627 80.9857 34.6455C81.1922 34.6111 81.3815 34.8176 81.3987 35.0241C81.3987 35.093 81.6225 42.0458 82.6378 44.4208C83.1369 45.5739 82.9821 46.8818 82.2592 47.9832C81.5192 49.0847 79.5917 50.9261 74.8417 50.9261Z" fill="black"/>
<path d="M86.9577 19.5352C86.9405 19.5352 86.9233 19.5352 86.8888 19.5352C86.6651 19.5007 86.5274 19.2942 86.5619 19.0877C87.474 13.2363 87.474 10.259 86.579 7.71192C84.9957 3.20291 79.3853 1.56796 74.6698 1.55075C74.446 1.55075 74.2739 1.37865 74.2739 1.15492C74.2739 0.931195 74.446 0.759087 74.6698 0.759087C79.6607 0.776297 85.5981 2.54893 87.3191 7.45377C88.2656 10.1557 88.2656 13.2191 87.3363 19.2082C87.3191 19.3975 87.1642 19.5352 86.9577 19.5352Z" fill="black"/>
<path d="M62.1927 19.5352C62.0034 19.5352 61.8313 19.3975 61.7969 19.191C60.8676 13.2019 60.8676 10.1213 61.8141 7.43656C63.5351 2.53172 69.4726 0.759092 74.4634 0.741882C74.6872 0.741882 74.8593 0.91398 74.8593 1.13771C74.8593 1.36144 74.6872 1.53354 74.4634 1.53354C69.7479 1.55075 64.1375 3.1857 62.5542 7.69471C61.6592 10.259 61.6592 13.2191 62.5714 19.0705C62.6058 19.2942 62.4509 19.4835 62.2444 19.5179C62.2272 19.5352 62.2099 19.5352 62.1927 19.5352Z" fill="black"/>
<path d="M68.887 16.9709C68.7321 16.9709 68.5772 16.8676 68.5255 16.7127C68.4395 16.5062 68.5428 16.2825 68.7493 16.1964C69.713 15.8178 70.8145 15.7318 71.7438 15.9383C71.9503 15.9899 72.088 16.1964 72.0364 16.4202C71.9847 16.6267 71.7782 16.7644 71.5545 16.7127C70.7973 16.5406 69.8335 16.6267 69.0246 16.9365C68.973 16.9709 68.9386 16.9709 68.887 16.9709Z" fill="black"/>
<path d="M81.1749 16.9709C81.1233 16.9709 81.0717 16.9537 81.0201 16.9364C80.2456 16.5922 79.3335 16.5234 78.4386 16.7127C78.2148 16.7644 78.0083 16.6267 77.9567 16.4201C77.9051 16.2136 78.0427 15.9899 78.2493 15.9383C79.2991 15.6973 80.3833 15.8006 81.3126 16.2136C81.5192 16.2997 81.6052 16.5406 81.5191 16.7299C81.4675 16.8848 81.3298 16.9709 81.1749 16.9709Z" fill="black"/>
<path d="M75.3063 31.5649C74.377 31.5649 73.6198 31.324 73.5681 31.3068C73.3616 31.2379 73.2411 31.0142 73.31 30.8077C73.3788 30.6012 73.6025 30.4807 73.809 30.5495C73.8263 30.5495 75.7538 31.1691 76.9929 30.3258C77.6469 29.8784 78.0083 29.0867 78.0771 27.9681C78.0943 27.7443 78.2664 27.6066 78.4901 27.5894C78.7139 27.6066 78.8688 27.796 78.8688 28.0025C78.7828 29.3793 78.3008 30.3774 77.4231 30.9626C76.7864 31.4445 75.9947 31.5649 75.3063 31.5649Z" fill="black"/>
<path d="M71.9674 27.7443C71.8642 27.7443 71.7781 27.7099 71.7093 27.6411C71.5716 27.5206 70.3497 26.3847 70.3153 25.2145C70.298 24.7842 70.453 24.3884 70.7627 24.0614C71.1241 23.7 71.5372 23.5107 72.0191 23.5107C72.5698 23.5279 73.0173 23.7344 73.3615 23.9753C73.6024 21.7897 73.7745 18.7263 73.327 18.0551C73.2065 17.8658 73.2582 17.6249 73.4475 17.5044C73.6368 17.3839 73.8777 17.4355 73.9982 17.6249C74.7899 18.8295 74.1875 23.8032 74.067 24.7842C74.0498 24.9391 73.9466 25.0596 73.7917 25.1112C73.654 25.1628 73.4819 25.1284 73.3786 25.0079C73.1893 24.8186 72.5698 24.3195 72.0018 24.3195C71.7437 24.3195 71.52 24.4228 71.3134 24.6293C71.1586 24.7842 71.0897 24.9735 71.0897 25.1972C71.1069 25.9028 71.9158 26.7806 72.2256 27.0559C72.3805 27.2108 72.3977 27.4517 72.26 27.6238C72.1739 27.7099 72.0707 27.7443 71.9674 27.7443Z" fill="black"/>
<path d="M152.149 128.887C150.737 128.887 143.716 128.801 143.716 127.218C143.716 126.994 143.888 126.822 144.112 126.822C144.301 126.822 144.473 126.96 144.507 127.149C144.886 127.545 147.76 128.096 152.149 128.096C156.658 128.096 159.601 127.528 159.91 127.132C159.91 126.908 160.083 126.77 160.289 126.77C160.513 126.77 160.668 126.994 160.668 127.218C160.668 128.801 153.56 128.887 152.149 128.887Z" fill="black"/>
<path d="M144.095 127.614C143.871 127.614 143.699 127.442 143.699 127.218V109.096C143.699 108.872 143.871 108.7 144.095 108.7C144.318 108.7 144.49 108.872 144.49 109.096V127.218C144.508 127.442 144.318 127.614 144.095 127.614Z" fill="black"/>
<path d="M152.183 111.023C151.839 111.023 143.699 111.006 143.699 109.096C143.699 107.185 151.839 107.168 152.183 107.168C152.527 107.168 160.668 107.185 160.668 109.096C160.668 110.989 152.527 111.023 152.183 111.023ZM144.508 109.096C144.835 109.509 147.554 110.232 152.183 110.232C156.916 110.232 159.67 109.492 159.876 109.079C159.67 108.734 156.916 107.977 152.183 107.977C147.571 107.96 144.835 108.666 144.508 109.096Z" fill="black"/>
<path d="M144.095 123.931H15.3641C15.1403 123.931 14.9683 123.759 14.9683 123.535C14.9683 123.311 15.1403 123.139 15.3641 123.139H144.095C144.318 123.139 144.49 123.311 144.49 123.535C144.508 123.741 144.318 123.931 144.095 123.931Z" fill="black"/>
<path d="M57.9932 29.276H23.9002C23.6765 29.276 23.5044 29.1039 23.5044 28.8802C23.5044 28.6564 23.6765 28.4843 23.9002 28.4843H57.9932C58.2169 28.4843 58.389 28.6564 58.389 28.8802C58.389 29.1039 58.2169 29.276 57.9932 29.276Z" fill="black"/>
<path d="M137.779 29.276H91.4495C91.2258 29.276 91.0537 29.1039 91.0537 28.8802C91.0537 28.6564 91.2258 28.4843 91.4495 28.4843H137.779C142.804 28.4843 146.9 24.3884 146.9 19.3631V-0.170251C146.9 -0.393981 147.072 -0.566078 147.296 -0.566078C147.52 -0.566078 147.692 -0.393981 147.692 -0.170251V19.3631C147.692 24.8358 143.252 29.276 137.779 29.276Z" fill="black"/>
<path d="M15.2264 125.376C15.0027 125.376 14.8306 125.204 14.8306 124.981V107.564C14.8306 107.34 15.0027 107.168 15.2264 107.168C15.4501 107.168 15.6222 107.34 15.6222 107.564V124.981C15.6222 125.204 15.4501 125.376 15.2264 125.376Z" fill="black"/>
<path d="M74.7903 68.618C74.5666 68.618 74.3945 68.4459 74.3945 68.2221V54.3509C74.3945 54.1272 74.5666 53.9551 74.7903 53.9551C75.0141 53.9551 75.1862 54.1272 75.1862 54.3509V68.2221C75.1862 68.4459 75.0141 68.618 74.7903 68.618Z" fill="black"/>
<path d="M54.0176 45.0575C53.9832 45.0575 53.9488 45.0575 53.9144 45.0403C53.7078 44.9887 53.5702 44.765 53.639 44.5584C54.3618 41.8737 56.2549 40.669 58.0792 39.4815C59.3527 38.6554 60.6779 37.8121 61.6244 36.4526C63.8273 33.2515 62.4333 27.9336 62.4161 27.882C62.3645 27.6755 62.4849 27.4517 62.6914 27.4001C62.9152 27.3485 63.1217 27.469 63.1733 27.6755C63.2422 27.8992 64.6706 33.3892 62.2612 36.9C61.2286 38.3973 59.8346 39.2922 58.4922 40.1527C56.7024 41.2886 55.0158 42.3728 54.379 44.765C54.3618 44.9371 54.1897 45.0575 54.0176 45.0575Z" fill="black"/>
<path d="M95.3388 45.0575C95.1667 45.0575 94.9946 44.9371 94.9602 44.765C94.3235 42.39 92.6369 41.3058 90.847 40.1699C89.5046 39.3094 88.1107 38.4145 87.0781 36.9172C84.6687 33.4064 86.1315 27.8648 86.1831 27.6411C86.2348 27.4345 86.4585 27.3141 86.665 27.3657C86.8715 27.4173 87.0092 27.6411 86.9404 27.8476C86.9232 27.8992 85.5291 33.2687 87.7148 36.4698C88.6442 37.8294 89.9693 38.6726 91.2601 39.4987C93.1015 40.669 94.9946 41.8909 95.7002 44.5584C95.7518 44.765 95.6314 44.9887 95.4249 45.0403C95.4077 45.0575 95.3733 45.0575 95.3388 45.0575Z" fill="black"/>
</g>
</svg>
