<svg width="64" height="64" viewBox="0 0 64 64" fill="none" xmlns="http://www.w3.org/2000/svg">
<rect width="64" height="64" rx="8" fill="#42F233"/>
<path d="M21.6786 38.1248C20.1877 35.6114 19.6655 32.6403 20.2102 29.7692C20.7549 26.8982 22.329 24.3247 24.6369 22.5321C26.9447 20.7394 29.8276 19.851 32.7441 20.0335C35.6607 20.216 38.4103 21.4569 40.4767 23.5233C42.5431 25.5896 43.784 28.3393 43.9666 31.2558C44.1491 34.1724 43.2606 37.0553 41.468 39.3631C39.6754 41.671 37.1019 43.2451 34.2309 43.7898C31.3598 44.3345 28.3887 43.8124 25.8753 42.3215L25.8753 42.3213L21.7308 43.5055C21.5593 43.5545 21.3778 43.5567 21.2052 43.512C21.0326 43.4673 20.875 43.3772 20.7489 43.2511C20.6228 43.125 20.5328 42.9674 20.488 42.7948C20.4433 42.6222 20.4455 42.4407 20.4945 42.2693L21.6787 38.1247L21.6786 38.1248Z" stroke="white" stroke-width="1.5" stroke-linecap="round" stroke-linejoin="round"/>
<path d="M35.0142 39C33.6986 39.0019 32.3956 38.7441 31.1797 38.2415C29.9639 37.7389 28.8592 37.0013 27.9289 36.0711C26.9987 35.1408 26.2611 34.0361 25.7585 32.8203C25.2559 31.6044 24.9981 30.3014 25 28.9858C25.003 28.0598 25.3731 27.1727 26.0293 26.5192C26.6854 25.8658 27.574 25.4992 28.5 25.5V25.5C28.6519 25.5 28.8011 25.5402 28.9325 25.6164C29.0638 25.6926 29.1727 25.8022 29.2481 25.9341L30.7094 28.4915C30.7976 28.6458 30.843 28.8207 30.8411 28.9983C30.8393 29.1759 30.7901 29.3498 30.6987 29.5022L29.5251 31.4582C30.1289 32.7982 31.2018 33.8711 32.5418 34.4749V34.4749L34.4978 33.3013C34.6502 33.2099 34.8241 33.1608 35.0017 33.1589C35.1793 33.157 35.3542 33.2024 35.5085 33.2906L38.0659 34.7519C38.1978 34.8273 38.3074 34.9362 38.3836 35.0675C38.4598 35.1989 38.5 35.3481 38.5 35.5V35.5C38.4974 36.425 38.1297 37.3115 37.477 37.9669C36.8242 38.6223 35.9392 38.9936 35.0142 39V39Z" stroke="white" stroke-linecap="round" stroke-linejoin="round"/>
</svg>
