<svg width="288" height="449" viewBox="0 0 288 449" fill="none" xmlns="http://www.w3.org/2000/svg">
<path d="M205.189 405.256L204.57 448.838L259.733 448.352L261.059 445.744L257.921 437.081L248.373 423.29L253.589 409.455L205.189 405.256Z" fill="white"/>
<path d="M211.819 193.09L228.085 199.587L247.313 206.527L252.617 207.146L265.391 203.875L268.043 222.307L271.756 260.585L275.115 301.162L276.751 327.064L267.291 364.326L251.246 415.997L230.383 415.422L217.521 417.013L205.233 420.329V359.419V311.417L205.852 238.485L205.984 216.119L209.034 218.461L216.106 208.781L217.609 201.842C217.609 201.842 211.465 195.079 211.819 193.09Z" fill="#12FF2A"/>
<path fill-rule="evenodd" clip-rule="evenodd" d="M76.2215 383.175C76.2215 383.175 91.8688 292.297 97.0846 257.29C102.698 219.586 102.123 200.182 100.974 195.585C98.499 185.772 88.7747 170.081 88.7747 170.081C88.7747 170.081 102.433 171.407 104.466 163.097C106.544 154.787 105.394 114.873 104.466 111.735C102.875 106.121 95.3607 103.823 95.3607 103.823C95.3607 103.823 91.7362 100.375 92.355 96.3528C92.9738 92.2863 96.51 71.1139 92.6645 61.4338C88.8631 51.7537 77.0172 39.2005 63.2706 45.2119C49.524 51.2233 36.131 61.699 35.91 68.1524C35.689 74.65 37.7222 81.8106 32.7275 85.1699C27.7327 88.5292 21.3236 89.4574 19.7765 96.5738C18.2295 103.69 18.4063 104.044 17.3455 104.707C16.2404 105.37 4.48289 110.674 2.93585 116.774C1.3446 122.829 2.0518 129.636 2.1402 129.946C2.18441 130.299 16.5498 131.802 16.5498 131.802C16.5498 131.802 12.5717 134.985 13.2789 136.93C13.9861 138.874 15.4006 138.079 15.4006 138.079C15.4006 138.079 12.5717 140.908 13.4557 141.659C14.2955 142.411 16.7266 142.543 16.7266 142.543C16.7266 142.543 14.605 144.93 15.4448 145.637C16.2846 146.344 19.2019 146.61 19.2019 146.61C19.2019 146.61 17.9201 147.45 18.5389 148.334C19.1577 149.218 19.9091 149.085 19.9091 149.085C19.9091 149.085 16.2846 156.688 20.7047 161.55C23.8872 164.997 28.0864 164.732 32.5949 164.069C37.8549 163.318 43.2474 161.859 43.2474 161.859C43.2474 161.859 26.2299 176.357 22.9148 198.988C19.5997 221.619 28.8378 289.247 31.4457 301.093C34.0978 312.939 57.5686 377.871 57.5686 377.871C57.5686 377.871 57.9664 387.374 56.2868 396.259C54.6071 405.143 52.0434 415.574 49.7008 419.199C47.3581 422.868 44.1314 426.139 43.6894 428.172C43.2474 430.161 41.3467 432.636 43.7778 433.211C46.2089 433.785 66.4973 433.962 66.4973 433.962L67.7791 432.327L69.0168 433.564L71.5362 432.901L72.9949 429.056L81.9677 428.791C81.9677 428.791 86.3879 420.437 86.5205 417.652C86.6531 414.823 85.4596 408.546 85.4596 408.546L90.587 415.398L94.0789 411.331C94.0789 411.331 90.5428 405.143 90.6754 402.624C90.808 400.104 89.4377 394.358 86.5205 391.131C83.559 387.949 76.2215 383.175 76.2215 383.175Z" fill="white"/>
<path fill-rule="evenodd" clip-rule="evenodd" d="M58.9385 72.0421C59.8667 72.0421 60.6623 72.7935 60.6623 73.7659V75.976C60.6623 76.9042 59.9109 77.6998 58.9385 77.6998C58.0102 77.6998 57.2146 76.9484 57.2146 75.976V73.7659C57.2146 72.8377 57.966 72.0421 58.9385 72.0421Z" fill="#191919"/>
<path fill-rule="evenodd" clip-rule="evenodd" d="M70.8286 69.7878C71.7568 69.7878 72.5525 70.5392 72.5525 71.5116V73.7217C72.5525 74.6499 71.801 75.4455 70.8286 75.4455C69.9004 75.4455 69.1047 74.6941 69.1047 73.7217V71.5116C69.1047 70.5392 69.8562 69.7878 70.8286 69.7878Z" fill="#191919"/>
<path fill-rule="evenodd" clip-rule="evenodd" d="M96.3327 104.486C96.3327 104.486 92.7524 103.248 87.4482 103.734C82.1441 104.221 79.7572 107.226 78.3428 102.011C76.9283 96.839 77.4588 87.1147 77.4588 87.1147L80.7297 81.8105C80.7297 81.8105 84.6635 81.8106 85.9454 79.2911C87.183 76.7716 87.4925 71.2906 84.7078 71.6442C81.9673 71.9979 79.7572 73.7659 79.7572 73.7659C79.7572 73.7659 75.2929 67.7987 66.983 64.8815C58.6732 61.9642 54.1205 60.2403 54.1205 60.2403C54.1205 60.2403 47.2693 78.0534 53.3249 84.8162C59.3362 91.579 62.8723 92.8609 62.8723 92.8609C62.8723 92.8609 65.215 103.292 63.6237 103.867C61.9883 104.442 50.5402 104.574 46.0317 104.618C41.5231 104.663 35.0697 105.856 32.8597 110.144C30.6496 114.431 26.0968 128.708 26.0968 128.708L19.1131 131.051L2.49339 130.741C2.49339 130.741 -0.114504 119.514 5.67586 113.547C11.6872 107.315 17.7428 105.37 19.2899 103.116C20.9695 100.685 17.345 97.1484 21.721 92.9493C26.0969 88.7502 35.7327 84.8162 36.4399 80.5729C37.1914 76.3296 34.0531 67.4893 39.534 61.4337C45.015 55.3782 60.8832 42.2062 69.1931 43.6648C77.5029 45.1235 91.2053 49.632 93.2828 61.9642C95.3602 74.2963 94.2552 87.9103 93.9458 92.021C93.6364 96.0876 92.7524 96.9274 93.6364 98.6954C94.3436 100.552 96.3327 104.486 96.3327 104.486Z" fill="white"/>
<path fill-rule="evenodd" clip-rule="evenodd" d="M96.8188 108.464C96.8188 108.464 93.2827 103.867 87.9786 104.397C82.6744 104.884 79.5804 105.635 78.2101 100.419C76.7957 95.2478 77.4587 87.3357 77.4587 87.3357L81.923 81.457C81.923 81.457 85.1939 80.9708 86.4315 78.4513C87.6692 75.9318 87.7134 72.2189 84.9729 72.5725C82.2325 72.9261 80.4644 73.5891 80.4644 73.5891C80.4644 73.5891 76.8841 68.5944 68.5743 65.6771C60.2644 62.7598 53.8552 60.9918 53.8552 60.9918C53.8552 60.9918 47.2692 79.4679 53.2806 86.2307C59.292 92.9935 63.4027 92.0211 63.4027 92.0211C63.4027 92.0211 64.9939 103.558 63.3585 104.088C61.723 104.663 50.4517 104.53 45.9432 104.574C41.4346 104.618 33.2132 109.083 31.0032 113.414C28.7931 117.702 25.9642 128.664 25.9642 128.664L20.1296 131.404L2.80273 131.051C2.80273 131.051 0.23908 123.492 6.02945 117.525C12.0408 111.293 18.0964 109.348 19.6434 107.094C21.3231 104.663 17.6986 101.127 22.0745 96.9274C26.4504 92.7283 36.0863 88.7944 36.7935 84.5511C37.545 80.3077 34.4067 71.4675 39.8876 65.4119C45.3686 59.3563 61.2368 46.1843 69.5467 47.643C77.8565 49.1016 91.5589 53.6102 93.6364 65.9423C95.7138 78.2745 94.6088 91.8885 94.2994 95.9992C93.99 100.066 93.106 100.906 93.99 102.674C94.8298 104.53 96.8188 108.464 96.8188 108.464Z" fill="#191919"/>
<path fill-rule="evenodd" clip-rule="evenodd" d="M43.8216 161.329C42.4514 161.417 41.3021 162.566 39.9319 162.566C41.3021 162.566 42.4514 161.417 43.8216 161.329C44.2636 161.284 44.7056 161.284 45.1477 161.284C47.8439 160.356 50.5844 159.605 53.3691 158.853C50.6286 159.605 47.8439 160.356 45.1477 161.284C49.0816 161.24 52.7945 162.257 56.6842 162.699C60.5297 163.185 64.11 163.981 67.9997 164.732C70.2098 165.218 72.3756 165.484 74.4973 166.102C79.3594 167.605 84.3984 167.915 89.2163 169.152C89.1721 169.064 92.7966 169.992 99.1174 169.064C105.394 168.136 105.924 155.45 105.394 146.831C104.864 138.211 105.394 117.083 103.449 109.127C101.504 101.215 86.7411 103.823 86.7411 103.823C86.7411 103.823 77.7682 115.448 69.9888 118.232C62.1651 121.017 57.6566 118.984 55.0929 114.475C52.5293 109.967 55.8885 105.016 55.8885 105.016C55.8885 105.016 43.8216 102.939 36.8378 105.9C29.854 108.906 25.1244 129.415 25.1244 129.415C25.1244 129.415 30.075 126.94 34.1415 131.625C38.2522 136.267 42.363 146.123 42.363 146.123L31.1358 148.245L29.7656 146.3L18.6269 149.881C18.6269 149.881 17.8754 157.483 19.5993 160.71C21.3231 163.937 23.8868 163.848 28.9699 163.981C33.5669 164.069 41.3463 162.389 42.805 162.08C43.6006 161.771 44.352 161.461 45.1477 161.196C44.7056 161.284 44.2636 161.284 43.8216 161.329ZM80.8181 140.466C83.2049 140.289 87.6693 141.836 87.6693 141.836L87.4041 151.693L76.3979 153.549C76.3979 153.549 76.9726 150.102 76.7958 147.052C76.619 143.958 72.9502 142.101 72.9502 142.101C72.9502 142.101 78.4312 140.642 80.8181 140.466Z" fill="white"/>
<path fill-rule="evenodd" clip-rule="evenodd" d="M74.5412 166.147C72.4195 165.484 70.2094 165.263 68.0436 164.776C64.1539 164.025 60.5736 163.229 56.7281 162.743C52.8383 162.301 49.0813 161.285 45.1915 161.329C44.3959 161.594 43.6003 161.903 42.8488 162.213C42.9815 162.169 43.0699 162.169 43.0699 162.169C43.0699 162.169 30.0747 175.164 24.4169 192.844C18.7592 210.525 23.2677 237.664 27.3342 269.533C31.4007 301.403 32.2405 304.806 32.2405 304.806L88.8182 306.618C88.8182 306.618 102.123 221.354 102.83 206.944C103.493 193.021 90.1884 170.744 89.2602 169.241C84.3981 167.959 79.3591 167.65 74.5412 166.147Z" fill="#191919"/>
<path fill-rule="evenodd" clip-rule="evenodd" d="M91.4706 170.788C93.7249 175.075 95.9792 179.495 97.9682 184.225C99.9573 188.91 101.99 193.817 102.786 199.43C103.626 205.618 102.963 212.248 102.477 218.481C100.93 236.824 98.366 254.24 95.8907 271.964C94.3437 283.015 92.5314 293.667 90.5866 304.276C90.454 304.894 90.5424 305.602 90.4098 306.22C90.2772 306.972 89.8793 307.679 89.7467 308.43C85.2824 332.432 81.7021 357.936 77.4588 382.202C78.2986 383.263 79.5363 383.97 80.6413 384.899C81.6579 385.739 82.6745 386.667 83.7354 387.595C86.6085 390.159 90.233 392.767 91.0728 397.761C91.338 399.397 91.338 401.165 91.8242 402.8C92.222 404.259 92.9293 405.497 93.6365 406.867C94.2995 408.193 95.3603 410.093 95.0067 411.685C94.7857 412.657 94.1227 413.674 93.1945 414.602C92.443 415.353 91.2054 416.635 90.2772 416.547C89.3932 416.458 89.0395 415.309 88.6417 414.602C88.1555 413.718 87.8019 413.011 87.3599 412.303C88.7302 417.431 86.2991 422.381 84.531 426.227C84.089 427.155 83.1607 429.719 82.2325 429.896C79.6688 430.426 76.5306 429.851 73.5249 430.161C72.9945 431.487 73.5249 433.166 72.5525 434.006C71.5801 434.846 68.6186 434.448 67.5135 434.493C66.7179 435.023 65.6571 434.89 64.6846 434.89C59.5573 434.89 54.2089 435.288 48.6395 435.067C46.2085 434.979 42.8492 435.2 42.0536 433.697C41.0812 431.84 42.7608 428.393 43.6006 426.846C44.7057 424.857 46.0759 423.265 47.1809 421.542C48.3302 419.729 49.5678 417.961 50.4518 415.928C51.3359 413.851 52.0431 411.64 52.6619 409.254C53.7669 404.745 54.7394 399.529 55.5792 394.446C56.1538 390.91 56.5074 386.49 56.7284 382.247C56.7726 380.788 56.9936 379.064 56.8168 377.915C56.6842 377.075 55.977 375.97 55.5792 374.909C49.7888 359.571 43.9984 344.013 38.4732 328.586C35.4676 320.232 32.7271 311.834 30.738 302.463C28.7932 293.225 27.4672 283.368 26.1853 273.246C24.9477 263.434 23.7101 253.223 22.605 242.968C21.5 232.537 20.3065 222.061 20.3065 211.453C20.3065 206.193 21.3674 201.287 22.5166 196.734C23.6658 192.181 25.0361 187.894 26.5831 183.96C28.1744 179.893 29.8982 175.871 32.1967 172.644C34.5393 169.329 37.2798 166.633 39.9319 163.671C34.672 164.688 29.1468 166.456 24.0636 165.218C19.0689 163.981 16.7704 160.003 17.2124 153.505C17.3008 152.444 17.5661 151.428 17.7871 150.588C18.0081 149.66 18.2733 148.908 17.6986 147.98C15.135 148.068 13.4111 145.593 14.693 143.339C12.8365 143.25 12.3945 140.51 13.5438 139.272C12.4829 138.521 11.9967 136.532 12.6597 135.117C13.1901 134.012 14.6045 133.614 15.2676 132.907C12.3945 132.686 8.1512 132.509 4.7035 132.244C3.46586 132.156 1.6978 132.2 1.21159 131.67C0.415965 130.786 0.548536 127.912 0.460134 126.454C0.371731 124.774 0.415976 122.52 0.725385 121.017C1.3442 117.658 2.80285 115.094 4.48249 113.061C7.22297 109.613 10.0519 107.403 14.4278 105.326C15.7538 104.707 17.5219 103.955 17.8313 102.895C18.2291 101.569 17.5661 100.331 17.5661 98.828C17.6103 96.1759 18.9363 93.8333 20.2623 92.242C24.3289 87.2915 33.6553 86.5401 35.2466 79.3795C35.5118 78.186 35.2023 76.2854 35.1581 74.8267C34.9813 70.5834 35.114 66.6937 36.5284 63.688C38.2081 60.1519 41.8326 57.3672 44.7499 54.9804C47.7555 52.5051 51.0706 50.0298 54.6067 47.8198C57.6566 45.9191 62.342 43.0902 66.8063 42.7808C70.6076 42.5156 73.5249 43.2228 76.2653 44.1511C78.9616 45.0793 81.3927 46.3169 83.5144 47.7313C87.8461 50.6486 91.4706 54.3615 93.3713 59.4447C94.3437 62.0526 94.9183 65.1025 95.4045 68.2407C96.6864 76.5506 95.3161 84.993 94.4321 93.0819C94.2553 94.7615 93.9459 96.6622 94.1227 98.1208C94.4321 100.463 96.1559 101.745 97.2168 103.646C100.134 104.707 102.388 106.077 104.068 108.376C105.792 110.718 106.101 113.901 106.366 117.658C107.074 128.752 106.853 140.2 106.853 151.87C106.853 155.759 106.941 159.693 106.057 162.61C104.024 168.533 100.178 172.07 91.4706 170.788ZM91.8242 99.27C91.4264 97.8114 91.6474 95.6897 91.8242 93.8775C92.3104 89.3248 92.9734 84.5068 93.2828 80.1309C93.7691 73.6775 93.1945 67.4451 91.559 61.9642C90.012 56.7042 87.0505 53.3007 82.9398 50.3392C79.1827 47.643 74.1879 44.9025 67.8671 45.0351C64.4636 45.1235 61.5021 46.6263 58.8943 48.0408C53.6343 50.9138 49.4352 53.9637 45.0592 57.6324C43.1144 59.2679 40.7276 61.3011 39.1805 63.5112C37.8987 65.3677 37.4124 67.9313 37.3682 70.8486C37.324 73.8101 37.8103 76.9042 37.4566 79.6447C37.103 82.1641 35.2466 84.7278 33.5669 86.1423C30.6938 88.6175 26.2737 90.2088 23.0028 92.6398C21.5883 93.7007 20.0413 96.4854 19.9087 98.5628C19.7761 100.419 20.4833 102.497 19.9087 103.955C19.6877 104.486 19.2015 105.149 18.6711 105.591C16.7704 107.226 14.2952 107.801 12.0851 109.083C10.096 110.232 8.28381 112 6.69256 113.812C3.59847 117.437 1.74199 122.785 3.02383 129.681C7.62076 130.078 12.6597 130.123 17.1682 130.476C17.6987 130.52 18.2291 130.697 18.7153 130.874C20.5275 129.902 22.5608 129.106 24.6383 128.443C25.0803 125.923 26.0527 123.448 26.8483 120.973C27.644 118.453 28.3512 115.89 29.3678 113.547C31.2684 109.304 34.8045 105.06 39.5341 103.867C42.8492 103.027 47.5345 103.381 51.2474 103.558C55.2255 103.734 59.2036 104.088 62.5629 103.071C63.005 99.6679 62.0326 96.3086 61.5905 93.2145C55.8002 91.5348 51.4684 87.6009 49.9656 81.5895C48.1975 74.5615 50.717 67.6219 52.3083 61.7874C51.2474 61.4779 49.833 61.4779 49.8772 60.2403C49.9214 58.4723 52.6619 59.4447 53.7227 59.6657C55.4465 60.0635 56.7726 60.4171 58.1871 60.8149C67.1157 63.2018 75.0277 66.8263 80.4203 72.1305C84.3542 69.6994 88.1113 72.6167 88.0671 76.1086C88.0671 78.6722 86.2107 81.0591 84.4868 81.9873C83.7796 82.3851 82.8956 82.4293 82.1441 82.8714C81.5253 83.225 80.6413 84.5068 80.0225 85.214C79.4036 85.9655 78.2102 87.0705 78.0776 87.8219C77.9008 88.7501 78.2102 90.2972 78.3428 91.4906C78.5196 94.0101 78.7848 96.2643 79.0942 98.5628C79.2268 99.7562 79.2269 100.994 79.6689 101.922C80.9065 104.53 84.8404 103.69 87.9787 103.292C89.8793 103.071 91.6474 102.983 93.6807 103.027C93.106 101.79 92.222 100.729 91.8242 99.27ZM53.1481 68.1523C52.6619 70.0972 52.0873 72.042 51.9104 74.0311C51.5568 78.4954 52.3525 82.5178 54.5183 85.6118C55.535 87.0705 56.6842 88.0871 58.1871 89.1037C59.6899 90.1204 61.8116 91.3138 64.1984 91.137C65.3919 91.0486 69.591 88.6617 69.3258 91.3138C69.149 92.7724 65.657 93.2587 64.11 93.5239C64.4636 96.3086 65.4802 99.9331 65.1708 102.895C64.773 106.519 60.3529 105.9 56.5516 106.254C56.0212 108.376 54.7393 110.232 55.1814 113.105C55.535 115.404 58.0102 117.835 59.8225 118.542C62.1652 119.47 65.6571 118.807 67.9555 118.144C72.8177 116.774 75.9559 114.431 79.0942 111.558C80.7297 110.055 82.3652 108.42 83.8238 106.917C83.9564 106.784 84.31 106.519 84.2216 106.254C80.5529 106.21 78.3428 105.149 77.3704 102.762C76.619 100.861 76.5306 97.9882 76.3096 95.5129C76.177 94.2753 76.0886 92.9493 76.0001 91.6674C75.9117 90.3414 75.6023 88.8827 75.735 87.6893C75.956 86.0981 77.4588 84.772 78.3428 83.7112C79.2711 82.6062 80.1109 81.3243 81.0391 80.8823C81.9231 80.4403 83.1166 80.3961 83.9564 79.7331C84.973 78.9817 85.9897 77.302 85.6802 75.5781C85.2824 73.5007 83.0723 73.4123 81.3485 74.3405C80.6855 74.6941 79.8457 75.1803 79.4037 75.4898C78.9175 75.8434 77.7682 77.7882 76.7958 77.523C75.6908 77.2136 76.619 73.0145 76.3096 71.9094C74.4089 70.1414 72.1104 68.7712 69.6352 67.5777C69.0605 68.0639 68.2207 68.5502 67.3367 69.1248C66.5411 69.6552 65.7013 70.5834 64.8173 70.495C64.2868 70.4508 63.7564 69.9646 63.7564 69.2574C63.8006 67.7545 66.4527 67.3125 67.1157 66.4285C63.3586 64.7488 59.2037 63.4228 54.7393 62.4504C54.0763 64.0416 53.6343 66.1191 53.1481 68.1523ZM87.0063 167.782C90.1888 168.357 96.1559 169.373 99.2058 167.959C101.814 166.721 103.405 163.494 104.024 160.4C104.377 158.632 104.245 156.511 104.333 154.389C104.422 152.312 104.333 150.102 104.333 148.024C104.333 139.537 104.201 130.874 104.024 122.785C103.935 119.028 104.068 113.856 102.875 111.16C101.725 108.464 98.1892 105.812 94.8299 105.458C93.3712 105.326 91.3822 105.37 90.1888 105.458C89.7025 105.502 88.6859 105.547 88.3323 105.723C87.8019 105.944 87.1389 106.917 86.5201 107.536C84.6194 109.436 82.8514 111.249 80.9949 112.972C78.6522 115.183 75.7791 117.702 72.464 119.072C69.0605 120.487 64.4636 121.989 60.3529 121.105C56.9494 120.398 53.8553 117.569 52.9271 113.856C52.2199 111.028 53.3691 108.464 54.0763 106.121C49.7004 106.121 44.6173 105.37 40.7276 106.121C36.44 106.917 33.1249 111.204 31.622 114.74C29.8098 118.94 28.7932 123.758 27.2462 128.089C29.1468 127.78 31.0032 128.31 32.1967 129.062C34.893 130.786 36.7052 133.747 38.4732 136.532C40.3297 139.449 42.0094 142.543 43.3796 145.505C44.5289 145.328 45.5897 145.107 46.7831 145.018C46.5621 144.046 46.1201 143.295 45.8107 142.41C41.8326 139.979 37.8986 135.648 38.3849 128.885C38.4733 127.47 38.8269 125.968 39.4457 124.642C39.9761 123.581 41.9652 120.663 43.2912 120.796C43.9542 120.884 44.2195 121.371 44.2637 121.857C44.3079 122.653 43.3796 123.316 43.026 123.713C42.1862 124.597 41.6557 125.349 41.3021 126.321C39.5341 131.537 42.0978 136.532 45.1477 138.919C45.8549 139.493 47.2693 140.112 47.8439 140.952C48.5954 142.145 48.4186 143.029 49.2142 144.532C57.9218 143.427 66.9831 141.482 75.3371 139.803C78.9616 139.095 83.5144 138.256 86.3875 139.979C86.3875 136.267 86.3875 131.846 86.3875 127.868C86.3875 126.498 86.1664 124.951 87.5367 124.951C88.7743 124.907 88.7743 126.1 88.7743 127.736C88.7743 134.764 88.6859 141.084 89.0395 147.538C89.1279 149.483 90.012 154.035 88.2881 154.212C87.4925 154.301 87.1831 153.417 86.7411 153.417C86.2991 153.372 85.4151 153.726 84.7078 153.903C74.0111 156.29 63.5354 158.588 52.9713 160.975C64.1542 163.273 75.2045 165.705 87.0063 167.782ZM33.6111 133.614C32.0199 131.67 30.6939 129.99 27.2462 130.255C23.5333 130.565 19.6877 132.863 16.9914 134.498C16.0632 135.073 14.5162 135.515 14.5604 136.93C15.0466 137.106 15.8422 136.753 16.2842 136.841C18.3617 135.692 21.4999 134.764 24.1078 133.924C25.1245 133.614 27.8649 132.244 27.8649 134.233C27.8649 135.382 25.8317 135.648 24.7708 136.045C23.6216 136.443 22.163 136.885 21.1022 137.283C18.6269 138.123 16.1958 138.963 15.1792 141.129C18.0081 141.261 19.8203 140.333 22.5166 139.405C23.3122 139.14 24.2404 138.742 25.2129 138.432C26.4063 138.035 29.1026 136.797 29.0584 138.742C29.0142 139.803 27.2903 140.156 26.6273 140.377C23.3564 141.526 20.4833 142.499 17.2566 143.383C17.124 144.046 16.3726 144.267 16.5052 145.018C16.7704 146.256 19.0689 145.107 19.9971 144.753C22.2072 144.002 24.0194 143.471 26.0969 142.72C27.2903 142.278 30.1192 140.819 30.075 142.897C30.075 143.737 29.0584 144.09 28.0417 144.444C25.0361 145.505 22.605 146.3 19.8203 147.228C19.9529 147.626 20.0413 148.024 20.2181 148.378C22.6492 147.847 25.6107 146.875 28.1302 146.035C29.4562 145.593 31.2684 144.665 31.622 146.123C31.7546 146.61 31.4011 146.963 31.4453 147.273C34.6278 146.831 37.8103 146.344 40.9486 145.902C38.9595 141.615 36.4842 137.151 33.6111 133.614ZM74.8951 142.41C77.4588 144.444 79.2268 148.775 77.8124 152.975C80.8181 152.4 83.5586 151.472 86.7853 151.118C86.6969 148.333 86.4759 145.681 86.4759 142.808C83.6912 140.554 78.4312 141.526 74.8951 142.41ZM75.2046 146.61C74.4973 145.239 72.8619 143.516 71.7126 143.029C71.6242 142.985 71.4916 143.073 71.4032 143.118C60.8833 145.372 46.9599 147.494 35.335 149.041C34.0531 149.217 30.959 149.969 30.0308 149.439C29.412 149.085 29.5888 148.245 29.5446 147.803C26.4947 148.82 23.5332 149.881 20.174 150.588C19.2015 153.549 19.2899 158.367 20.837 160.621C22.163 162.566 25.6107 163.583 28.97 163.318C30.8706 163.185 32.9039 162.655 34.8488 162.257C48.286 159.561 62.1652 156.467 74.9836 153.638C75.8676 151.516 76.3096 148.775 75.2046 146.61ZM98.3218 235.543C99.0732 229.664 99.6921 223.741 100.178 217.464C100.665 211.232 101.283 204.557 100.178 198.635C98.145 187.628 93.0177 179.098 88.4649 170.478C74.4089 168.003 60.9275 165.042 47.2693 162.168C46.5179 162.168 45.4571 162.566 44.4847 162.655C40.7276 166.235 37.0588 169.683 34.0531 173.97C31.0916 178.258 29.0584 183.562 27.2019 188.954C25.3455 194.48 23.7542 200.093 22.9586 206.458C22.2072 212.735 22.7818 220.072 23.3564 227.056C24.4615 240.228 25.9201 253.4 27.5997 266.395C29.2794 279.346 30.738 292.253 33.3901 304.187C51.5126 304.541 69.7678 304.806 88.0229 304.983C92.2663 282.971 95.3161 258.969 98.3218 235.543ZM34.0974 306.751C36.9262 318.332 41.037 328.984 44.9267 339.637C48.8164 350.289 52.7945 360.809 56.8168 371.461C57.2588 350.112 57.4356 328.454 57.7008 306.883C49.7888 306.795 41.9652 306.618 34.0974 306.486C33.9648 306.53 34.009 306.751 34.0974 306.751ZM60.0435 307.237C59.9551 317.182 59.8225 327.304 59.7341 337.427C59.6457 347.504 59.6457 357.671 59.2478 367.572C59.0268 372.699 59.2037 377.738 58.9827 382.556C58.7616 387.374 58.2313 391.927 57.524 396.391C56.198 404.48 54.6951 412.967 51.5126 419.022C51.3358 419.376 50.9822 419.729 51.0264 420.171C55.4465 418.934 58.7174 422.028 63.4028 421.453C64.552 421.321 65.4361 420.702 66.1875 420.083C67.6903 418.801 68.8838 417.298 70.6518 415.353C71.359 414.558 72.1104 413.806 72.8619 412.922C73.4807 412.171 74.7183 410.933 74.8067 410.226C74.8509 409.828 74.6299 409.254 74.5415 408.679C74.0995 404.612 73.7459 400.723 73.5691 396.7C73.3481 392.015 74.0553 387.507 74.8509 383.352C76.4864 375.174 77.724 366.423 79.0942 358.024C81.8789 340.786 84.4868 324.078 87.5809 307.325C78.4755 307.149 69.2815 307.104 60.1319 307.016C60.0435 307.016 60.0435 307.149 60.0435 307.237ZM76.0001 397.85C76.7958 393.872 78.387 390.645 79.8899 387.418C78.8733 386.667 77.9892 385.739 76.8842 385.076C76.177 388.833 75.5581 393.385 76.0001 397.85ZM92.6198 411.154C92.7082 410.182 91.6474 408.414 91.0728 407.265C90.454 406.027 89.8793 404.745 89.5257 403.375C88.8627 400.811 88.9954 396.833 87.4041 394.579C85.8571 392.413 83.4702 390.777 81.8789 389.186C81.8789 389.142 81.8789 389.098 81.7905 389.098C80.6855 391.706 79.1826 394.579 78.4312 397.894C78.0776 399.441 77.8566 401.209 77.6356 402.933C77.3704 404.657 76.8842 406.469 76.8842 408.149C76.8842 409.165 77.1052 410.27 77.1936 411.331C77.4588 414.646 77.7682 418.315 76.619 421.1C76.177 422.16 75.3371 423 74.8951 424.017C74.3647 425.254 74.3647 426.492 73.9227 427.862C76.3096 427.774 78.7849 427.774 81.1717 427.686C82.321 424.326 85.0172 420.79 85.3266 416.679C85.4592 415.132 85.0614 413.409 84.752 411.95C84.3984 410.359 83.0282 406.513 85.415 406.513C86.8737 406.513 87.8019 408.635 88.4207 409.696C89.2605 411.066 90.012 412.259 90.7192 413.585C91.4264 412.967 92.4872 412.348 92.6198 411.154ZM69.9888 419.685C68.2649 421.586 66.5411 423.31 63.9774 423.84C60.3529 424.547 57.4798 422.647 53.9437 422.381C52.0872 422.249 50.6728 422.779 49.0816 423.044C47.1367 425.873 44.7498 428.26 44.131 432.415C50.938 433.034 58.9385 432.68 65.9665 432.503C67.1157 430.293 68.5301 427.244 69.812 424.591C70.3424 423.442 71.0938 421.63 72.4199 422.735C72.5967 422.868 72.6851 423.221 72.8177 423.133C74.3647 421.011 75.5582 418.094 75.0277 414.16C73.4807 416.061 71.801 417.696 69.9888 419.685ZM72.1105 425.21C71.5359 426.36 71.0496 427.42 70.475 428.57C69.9446 429.63 69.1048 430.78 69.2374 432.15C69.812 432.194 70.1656 432.017 70.696 432.061C71.138 429.851 71.8011 426.978 72.1105 425.21Z" fill="#191919"/>
<path fill-rule="evenodd" clip-rule="evenodd" d="M59.9112 81.1032C59.9996 81.6336 60.4859 81.8989 60.3975 82.4735C60.1765 84.4625 57.1266 82.7829 57.0382 81.5011C56.994 80.7496 58.0106 79.6888 58.4084 78.9816C58.8947 78.186 59.5134 77.2577 59.646 76.3737C59.9555 74.2078 58.983 71.6884 56.9498 71.3348C55.7563 71.1138 53.2811 72.484 53.1927 70.5833C53.1485 69.3015 55.0049 68.9037 56.2868 68.8595C59.9997 68.7711 62.3865 72.5724 61.9887 76.4179C61.8119 78.3186 60.7069 79.6004 59.9112 81.1032Z" fill="#191919"/>
<path fill-rule="evenodd" clip-rule="evenodd" d="M67.7348 82.8713C68.0442 82.8271 68.8398 82.9597 68.9724 83.6669C69.1934 84.8162 67.5137 85.877 66.2761 86.3632C65.2153 86.761 62.7842 87.0262 62.7842 85.4792C62.7842 84.1973 64.1987 84.5067 65.3037 84.1531C66.1877 83.8879 66.6297 82.9597 67.7348 82.8713Z" fill="#191919"/>
<path fill-rule="evenodd" clip-rule="evenodd" d="M73.7018 429.188L82.6746 428.879C82.6746 428.879 85.3709 422.912 86.3433 419.906C87.3158 416.9 86.4317 408.591 86.4317 408.591L91.2497 416.326L94.2554 411.508C94.2554 411.508 91.0287 403.286 90.7635 400.944C90.4982 398.557 89.3932 393.783 87.4925 391.75C85.5919 389.717 81.7906 387.33 81.7906 387.33C81.7906 387.33 80.0225 390.556 78.3871 395.242C76.7074 399.927 76.2654 410.977 76.2654 410.977C76.2654 410.977 68.486 424.238 63.4028 423.089C58.3197 421.984 53.767 420.834 52.3083 420.879C50.8939 420.923 48.4186 422.028 48.4186 422.028C48.4186 422.028 44.9709 425.608 44.1753 428.393C43.3797 431.177 43.2913 433.609 43.2913 433.609L66.6738 434.006L68.2208 431.973L68.8838 433.83L72.3757 433.432L73.7018 429.188Z" fill="#191919"/>
<path fill-rule="evenodd" clip-rule="evenodd" d="M220.229 174.324C217.975 172.733 216.56 169.683 215.278 166.368C215.19 167.296 215.102 167.87 215.102 167.87L207.764 159.826L209.223 139.714C209.223 139.714 212.228 141.836 214.527 148.82C216.339 154.345 215.632 162.92 215.278 166.368C216.56 169.638 217.975 172.688 220.229 174.324C220.406 174.456 220.583 174.589 220.804 174.722C222.439 171.893 223.942 168.931 225.224 165.837C223.942 168.931 222.439 171.893 220.804 174.722C237.158 186.435 255.944 192.269 275.702 187.319C277.823 186.833 279.945 186.435 282.067 186.037C279.901 175.031 273.182 156.864 273.182 156.864C273.182 156.864 276.099 100.154 272.431 89.5457C269.955 82.3851 244.274 76.9926 244.274 76.9926C244.274 76.9926 243.788 76.2411 242.551 73.8101C241.313 71.379 239.28 69.0805 239.28 69.0805L238.882 59.8867C238.882 59.8867 240.517 59.5773 244.009 56.5274C247.501 53.4775 249.048 46.6705 249.048 46.6705C249.048 46.6705 249.446 47.1567 251.17 45.6981C252.894 44.2394 253.115 39.6425 252.717 37.565C252.319 35.4875 249.534 37.7418 249.534 37.7418C249.534 37.7418 249.667 32.1283 249.137 28.1943C248.606 24.2604 247.015 21.1221 247.015 21.1221L249.225 14.5361L243.832 12.0167L249.137 6.62412C249.137 6.62412 247.236 5.69589 241.888 6.31471C236.539 6.88933 231.147 9.4088 231.147 9.4088L229.909 6.57991C229.909 6.57991 213.864 13.4753 209.002 19.7519C204.095 26.0727 211.61 43.3554 211.61 43.3554C211.61 43.3554 210.46 45.5654 210.549 47.8197C210.637 50.1182 214.085 52.063 215.853 51.7094C217.577 51.4 219.124 51.7094 219.124 51.7094L223.014 55.7759L220.671 64.7488L216.428 68.6385C216.428 68.6385 197.73 74.9151 193.62 76.5947C189.509 78.2744 185.133 84.2416 184.072 89.5457C183.056 94.8499 181.641 148.466 181.774 158.588C181.951 168.71 184.559 170.876 189.509 175.782C192.426 178.7 201.222 186.214 207.853 191.872C212.671 186.523 217.135 180.91 220.759 174.677C220.583 174.589 220.406 174.456 220.229 174.324Z" fill="white"/>
<path fill-rule="evenodd" clip-rule="evenodd" d="M273.094 154.168C273.094 154.168 277.116 95.6897 271.724 87.8219C267.525 81.7221 245.026 76.9042 245.026 76.9042L245.424 80.2635C245.424 80.2635 246.706 82.2525 246.662 83.7554C246.573 85.3024 246.087 90.8276 243.479 91.8884C240.871 92.9493 231.456 91.2254 225.224 86.7611C218.992 82.2967 209.356 71.8652 209.356 71.8652C209.356 71.8652 200.515 73.4123 190.614 79.0258C180.713 84.6394 183.454 110.63 182.702 140.024C181.907 170.125 183.763 168.622 192.382 176.976C201.046 185.374 218.771 200.403 218.771 200.403C218.771 200.403 225.003 195.01 226.594 191.297C228.185 187.584 227.964 185.286 227.964 185.286L222.086 176.887L228.848 179.982C228.848 179.982 254.662 189.573 260.452 190.811C266.243 192.049 275.525 185.993 275.525 185.993C275.525 185.993 276.365 192.093 276.586 195.452C276.807 198.767 279.415 206.105 279.415 206.105C279.415 206.105 282.509 197.618 282.774 190.943C283.039 184.313 273.094 154.168 273.094 154.168ZM215.102 167.87L207.764 159.826L209.223 139.714C209.223 139.714 212.229 141.836 214.527 148.82C216.826 155.803 215.102 167.87 215.102 167.87Z" fill="white"/>
<path fill-rule="evenodd" clip-rule="evenodd" d="M220.317 202.126L221.378 208.005L220.14 402.579C220.14 402.579 218.902 404.038 218.902 407.044C218.902 408.502 219.698 410.933 219.698 410.933L220.317 202.126Z" fill="white"/>
<path d="M219.742 411.994C219.3 411.994 218.903 411.729 218.77 411.287C218.682 411.022 217.93 408.635 217.886 407.088C217.842 404.524 218.682 402.933 219.124 402.27L220.361 208.094L219.3 202.347C219.212 201.773 219.566 201.242 220.14 201.154C220.715 201.066 221.245 201.419 221.334 201.994L222.395 207.873C222.395 207.917 222.395 208.005 222.395 208.049L221.157 402.624C221.157 402.845 221.068 403.11 220.892 403.287C220.847 403.331 219.875 404.568 219.919 407.088C219.919 408.149 220.494 410.049 220.671 410.712C220.847 411.243 220.538 411.817 220.008 411.994C219.963 411.95 219.831 411.994 219.742 411.994Z" fill="white"/>
<path d="M241.932 390.291C241.888 390.291 241.799 390.291 241.711 390.291C241.181 390.203 240.783 389.628 240.915 389.098L256.739 309.314L249.358 257.466C249.269 256.892 249.667 256.406 250.242 256.317C250.816 256.229 251.303 256.627 251.391 257.201L258.817 309.226C258.817 309.359 258.817 309.447 258.817 309.58L242.949 389.496C242.86 389.982 242.418 390.291 241.932 390.291Z" fill="white"/>
<path d="M261.911 400.856C261.867 400.856 261.823 400.856 261.734 400.856C261.69 400.856 255.855 400.06 251.48 400.148C246.927 400.193 240.518 400.325 240.518 400.325L240.473 397.894C240.473 397.894 246.927 397.761 251.48 397.717C256.032 397.717 261.823 398.425 262.088 398.469C262.751 398.557 263.237 399.176 263.149 399.839C263.016 400.369 262.486 400.856 261.911 400.856Z" fill="#191919"/>
<path d="M215.411 406.159C215.146 406.159 214.881 406.071 214.615 405.894C214.173 405.541 213.997 404.966 214.129 404.391C214.35 403.463 215.234 402.358 222.704 400.9C231.633 399.132 239.987 397.54 239.987 397.54C240.65 397.408 241.269 397.85 241.401 398.513C241.534 399.176 241.092 399.795 240.429 399.927C240.429 399.927 232.075 401.518 223.191 403.286C218.682 404.17 217.091 404.833 216.605 405.143C216.56 405.364 216.472 405.541 216.339 405.717C216.118 405.983 215.765 406.159 215.411 406.159Z" fill="#191919"/>
<path fill-rule="evenodd" clip-rule="evenodd" d="M210.726 43.709C210.726 43.709 212.229 42.0293 213.643 43.046C215.102 44.1068 216.428 44.8582 216.428 44.8582L215.544 29.4762C215.544 29.4762 214.306 23.6416 219.876 24.6582C225.401 25.7191 230.396 26.2053 233.888 23.8626C237.379 21.4757 240.739 19.1773 242.374 20.1939C243.965 21.2105 246.087 23.509 246.75 25.9843C247.413 28.4153 248.209 34.5151 248.209 34.5151C248.209 34.5151 249.844 31.9956 249.004 28.4153C248.165 24.835 247.059 22.7134 247.059 22.7134C247.059 22.7134 249.093 17.0998 248.43 15.8622C247.767 14.6245 243.789 13.5637 243.789 13.5637C243.789 13.5637 248.828 7.95015 248.165 7.28713C247.502 6.62411 241.446 6.93352 237.91 8.03855C234.374 9.09938 230.926 10.3812 230.926 10.3812L229.777 7.46393C229.777 7.46393 222.218 10.0276 217.577 12.8565C212.936 15.6854 206.571 19.1773 207.234 27.2661C207.897 35.3549 210.726 43.709 210.726 43.709Z" fill="white"/>
<path fill-rule="evenodd" clip-rule="evenodd" d="M235.478 74.031L236.362 86.2306L237.335 88.4406L234.815 91.7999C234.815 91.7999 239.678 94.3194 242.064 93.347C244.451 92.3745 244.363 92.1093 244.363 92.1093L242.241 89.1036L243.125 85.6117L235.478 74.031Z" fill="#191919"/>
<path fill-rule="evenodd" clip-rule="evenodd" d="M245.91 12.3261C247.192 12.7239 248.739 13.4311 249.269 14.6687C249.711 15.7296 249.49 17.0556 249.269 18.249C249.048 19.3099 248.43 20.4591 248.474 21.4315C248.474 22.3156 249.137 23.5532 249.446 24.7024C250.374 27.9291 250.861 31.9514 250.419 36.1948C251.082 36.3274 251.7 35.5317 252.629 35.8853C253.955 36.3274 254.529 38.891 254.352 41.1895C254.176 43.2228 252.805 46.0958 251.745 46.9799C251.082 47.5103 249.888 47.8197 249.048 47.8639C248.297 53.7869 244.982 57.1904 241.092 59.975C240.827 61.8757 240.606 63.5553 240.296 65.5002C240.208 66.0748 239.899 66.7378 239.987 67.2241C240.075 67.7987 240.915 68.6827 241.269 69.2573C242.595 71.3348 243.877 73.5006 244.584 75.9317C251.921 78.0092 259.657 79.8656 265.845 82.6945C269.16 84.1973 271.856 85.9654 273.403 89.1479C274.906 92.1536 274.906 96.5295 275.215 101.347C275.746 110.143 275.569 119.691 275.127 128.796C274.818 135.427 274.862 142.631 274.641 149.306C274.552 151.604 274.287 154.035 274.464 156.157C274.464 156.201 274.464 156.29 274.464 156.334C274.818 158.411 275.834 160.445 276.497 162.522C278.531 168.622 280.475 175.164 282.111 181.396C282.641 183.473 283.216 185.728 283.569 188.159C284.277 193.198 282.951 198.237 281.846 202.392C281.448 203.85 281.05 205.574 280.475 207.121C280.299 207.607 279.945 208.049 279.901 208.403C279.812 209.287 280.166 210.525 280.299 211.674C281.227 219.276 281.846 227.498 282.509 235.101C284.1 253.532 285.647 270.727 286.84 289.38C287.415 298.574 288.564 307.988 287.15 316.917C286.531 321.028 285.426 324.962 284.454 328.896C281.58 340.344 277.868 351.659 274.42 362.842C272.121 370.312 269.867 377.782 267.48 385.252C265.138 392.634 262.972 400.104 260.01 407.088C262.795 411.022 265.182 414.425 267.922 418.403C269.735 421.099 272.121 423.663 272.254 428.481C272.298 430.691 272.652 433.034 270.619 433.211C268.32 433.387 265.977 433.211 263.679 433.299C252.54 433.785 240.473 433.211 228.937 433.211C225.666 433.211 222.086 433.122 218.505 433.122C216.87 433.122 215.411 433.255 214.925 432.724C214.218 431.929 214.439 427.376 214.35 425.873C214.262 423.398 214.129 421.055 214.041 418.889C213.864 413.983 214.041 409.121 214.041 404.303C214.041 384.589 214.35 365.494 214.35 345.869C214.35 298.441 215.234 251.057 215.234 203.408C215.234 202.171 215.5 200.668 215.323 199.828C215.146 199.121 212.759 197.308 212.14 196.822C204.626 190.325 196.581 183.12 189.2 176.534C184.647 172.512 180.713 169.02 180.713 160.312C180.713 156.201 181.111 152.312 181.111 148.333C181.111 136.266 181.774 124.73 181.774 112.044C181.774 108.243 181.995 104.132 182.172 100.066C182.349 96.3085 182.216 91.8884 183.233 88.8385C185.222 82.7387 189.244 78.1418 194.813 75.7549C200.427 73.3238 206.748 71.7326 213.466 69.7435C214.439 69.4783 215.411 68.2849 216.295 67.4451C217.002 66.782 217.931 66.119 218.417 65.4118C218.682 65.014 218.815 64.351 219.168 63.7764C219.522 63.1575 220.052 63.0691 220.317 62.4061C221.069 60.5497 221.157 58.428 221.953 56.6157C221.202 55.2455 219.964 54.3173 219.124 53.0354C217.886 53.6101 215.942 53.7427 214.66 53.2123C212.936 52.4608 209.577 49.2341 209.356 47.0241C209.223 45.698 209.842 44.814 210.328 43.7532C208.737 39.7751 207.72 35.2665 207.013 30.5812C206.615 27.9291 206.306 25.4096 206.925 23.1112C208.56 16.8788 213.422 13.0775 219.389 10.8232C222.13 9.76239 224.914 8.30375 227.876 6.93351C228.716 6.5357 230.086 5.65167 230.793 5.96108C231.81 6.3589 231.147 7.68493 231.545 8.74577C235.258 7.46393 239.766 5.65167 244.893 5.34226C247.059 5.20966 249.667 5.29806 249.844 7.15452C249.977 9.27618 246.794 10.9116 245.91 12.3261ZM214.792 34.8687C214.527 30.8022 213.378 24.835 216.826 23.6416C218.417 23.067 221.069 23.73 222.616 23.9068C224.34 24.0836 226.108 24.2162 227.832 24.2162C233.755 24.2162 236.23 20.0171 240.694 18.8237C244.938 17.7186 245.645 22.1387 246.882 24.3488C247.192 24.6582 246.882 24.0836 246.882 24.0394C246.661 23.2438 246.175 22.3156 246.131 21.6083C246.043 19.7077 247.59 17.7628 247.192 15.597C246.661 14.0941 242.728 14.7129 242.551 12.9891C242.462 11.8399 244.142 10.9116 244.982 10.1602C245.468 9.71819 245.822 9.27618 246.219 8.87836C246.617 8.43635 247.148 7.99434 247.103 7.50813C242.507 7.15452 238.175 8.61316 234.55 9.9392C233.445 10.337 231.721 11.3978 230.661 11.1768C229.732 10.9558 229.467 9.58559 229.025 8.74577C226.903 9.71819 224.87 10.7348 222.66 11.7514C220.539 12.7239 218.24 13.3869 216.163 14.5803C212.671 16.5694 208.737 20.6359 208.693 25.8959C208.648 31.642 210.593 36.9462 211.875 41.8525C212.45 41.6757 212.847 41.5431 213.422 41.5873C214.262 41.7199 214.925 42.5597 215.367 42.3829C215.102 39.7751 214.969 37.3882 214.792 34.8687ZM218.549 49.7203C219.61 49.6319 221.069 51.9304 221.732 52.726C222.704 53.8753 223.677 55.0687 224.649 55.9969C226.948 58.1628 230.837 60.1961 235.479 59.754C239.191 59.4004 242.772 56.0853 244.496 53.6543C246.485 50.8254 246.971 47.0683 247.28 42.825C247.545 39.0678 247.236 35.1339 246.485 30.537C245.998 27.7081 245.026 25.3212 243.788 22.9786C243.258 21.9619 242.683 20.5917 241.181 21.1221C237.733 22.3156 235.39 24.9676 231.324 26.0727C226.948 27.3103 222.97 25.7633 217.577 25.8075C216.074 27.0893 216.693 29.4762 216.826 32.084C216.914 33.4985 217.047 35.0013 217.135 36.46C217.356 39.554 218.019 43.7532 217.533 46.2284C217.312 47.4661 217.135 47.5103 215.323 47.5103C213.776 47.5103 212.273 47.6429 212.317 46.3611C212.361 45.256 213.51 45.3886 215.013 45.3886C214.66 44.9024 213.864 44.151 213.068 43.8416C212.405 44.593 211.345 45.5212 211.433 46.6263C211.477 47.4661 212.538 48.3943 213.245 49.1457C214.35 50.3392 215.367 51.6652 217.489 51.179C217.665 50.516 217.71 49.7645 218.549 49.7203ZM250.153 39.4215C251.126 39.1562 252.098 39.5099 251.966 40.5707C251.877 41.3221 250.109 42.6039 249.623 42.8691C249.623 43.7532 249.314 44.814 249.446 45.5654C249.623 45.3886 249.932 45.477 250.198 45.3002C251.435 44.5046 252.761 40.1729 251.745 38.228C251.214 38.67 250.463 38.8468 250.153 39.4215ZM222.218 63.7764C226.727 66.9589 231.324 70.0087 235.876 73.0586C236.053 72.7492 236.363 72.6166 236.628 72.3956C237.335 68.7269 237.954 64.9256 238.573 61.1685C233.268 63.1575 226.771 60.9033 223.677 58.1628C223.235 60.1076 222.66 61.8757 222.218 63.7764ZM224.251 67.9313C223.323 67.3125 221.688 66.0306 220.759 65.6328C219.787 67.5335 217.886 68.5059 216.605 70.0971C222.307 75.9317 228.804 80.9264 236.142 85.0814C235.567 81.6337 234.992 78.186 234.418 74.7383C231.103 72.5724 227.699 70.2297 224.251 67.9313ZM237.6 74.2963C239.28 77.2135 240.827 80.3076 242.551 83.1807C243.391 78.2302 241.888 74.1194 239.766 71.379C239.412 72.6608 238.396 73.368 237.6 74.2963ZM238.086 83.0923C238.263 84.2415 239.015 86.982 238.573 87.8219C237.777 89.3689 235.39 87.2914 234.418 86.6726C233.268 85.9654 232.252 85.3908 231.324 84.8162C226.064 81.5453 221.599 78.0092 217.312 73.9869C216.472 73.1912 215.5 71.9536 214.615 71.6442C213.997 71.379 212.45 72.5724 211.919 72.3956C215.721 76.5505 220.185 80.8381 224.693 84.5952C228.053 87.3798 232.296 89.5015 237.379 90.7833C238.705 91.137 241.357 91.9768 242.904 91.4464C244.717 90.8275 245.689 85.4792 244.717 83.4017C244.407 84.993 244.805 87.9103 243.081 87.8661C242.33 87.8661 241.711 86.6284 241.269 85.8328C239.899 83.3133 238.44 80.4844 237.202 78.407C237.468 79.7772 237.777 81.2359 238.086 83.0923ZM200.073 75.9759C197.244 77.0809 194.195 78.0534 192.029 79.8214C188.802 82.4293 185.973 86.098 185.089 90.6507C184.78 92.242 184.735 94.01 184.603 96.0875C183.409 114.475 183.896 134.675 183.144 153.903C183.012 157.704 182.525 161.947 183.409 165.041C185.001 170.788 190.128 174.412 194.15 177.992C202.416 185.33 211.035 192.888 219.478 200.137C222.307 196.911 225.18 193.463 226.417 188.424C226.594 187.761 226.992 186.744 226.903 186.214C226.859 185.816 226.108 185.153 225.666 184.578C219.964 177.462 214.881 170.832 209.4 163.76C208.604 162.743 207.146 161.373 206.969 160.4C206.836 159.605 207.013 158.456 207.057 157.395C207.366 143.913 208.162 130.874 208.427 117.658C208.472 116.022 208.118 112.575 209.665 112.53C211.477 112.486 210.682 116.553 210.637 118.232C210.461 123.89 210.24 129.238 210.063 134.764C210.019 135.913 209.798 137.195 209.974 138.079C210.107 138.786 210.814 139.714 211.256 140.598C211.698 141.482 212.184 142.366 212.538 143.118C213.466 144.841 214.571 146.565 215.146 148.157C217.223 154.212 217.002 161.947 216.958 169.815C217.665 170.655 218.417 171.716 219.257 172.732C220.008 173.705 220.936 175.252 221.688 175.738C222.439 176.224 223.765 176.534 224.87 176.976C234.462 180.821 243.744 184.578 253.601 187.894C255.811 188.645 258.154 189.529 260.452 189.838C264.209 190.369 268.497 188.645 271.282 187.628C272.387 187.231 273.536 186.921 274.376 186.258C272.121 162.434 270.619 137.195 268.851 112.575C268.762 111.116 268.541 109.436 268.674 107.182C268.762 106.077 268.497 102.85 269.956 102.806C271.591 102.762 270.972 104.972 270.928 106.165C270.84 107.757 270.84 109.392 270.928 110.541C271.547 118.542 272.033 126.012 272.563 133.968C272.608 134.41 272.74 136.045 272.74 136.09C272.917 135.913 272.829 133.614 272.829 132.996C272.829 121.061 273.359 109.348 272.829 97.8113C272.608 93.568 272.077 89.9435 269.911 87.7334C268.585 86.3632 266.552 85.435 264.519 84.551C258.419 81.8547 251.789 80.1308 245.159 78.2744C245.91 80.0424 247.501 82.2525 247.501 85.1256C247.545 89.1479 245.954 93.5238 242.286 93.6564C238.617 93.789 234.639 92.2862 231.545 91.0485C222.262 87.2914 215.809 78.8048 209.488 72.9702C209.444 72.9702 209.4 72.9702 209.311 72.9702C206.261 74.031 203.123 74.7825 200.073 75.9759ZM209.09 159.826C210.637 161.859 212.494 164.157 214.041 166.191C214.262 166.5 214.483 167.031 214.704 166.854C214.748 161.638 214.704 156.953 213.908 152.842C213.643 151.427 213.422 149.88 213.024 148.775C212.671 147.803 211.919 146.831 211.389 145.858C210.814 144.753 210.328 143.515 209.753 142.764C209.488 148.378 209.4 154.256 209.09 159.826ZM279.194 203.585C280.122 199.297 281.713 195.054 281.492 190.059C281.359 187.805 280.785 185.462 280.254 183.297C278.707 176.932 276.586 170.611 274.818 164.732C274.818 164.688 274.818 164.644 274.729 164.644C275.613 178.213 276.807 191.518 279.194 203.585ZM227.345 183.031C227.345 182.147 227.567 181.44 227.522 180.512C226.417 180.247 225.356 179.495 224.34 179.363C225.401 180.512 226.24 181.926 227.345 183.031ZM229.688 181.661C229.114 187.231 228.274 191.872 225.71 195.761C224.03 198.325 221.776 200.977 219.61 203.231C219.08 203.806 217.577 205.044 217.4 205.574C217.223 206.281 217.4 207.563 217.4 208.757C217.4 233.156 216.914 257.908 216.914 282.352C216.914 291.015 217.002 299.634 216.737 308.077C216.516 316.652 217.047 325.315 216.649 333.802C216.251 342.377 216.56 350.996 216.472 359.527C216.295 376.721 216.251 393.872 216.163 410.889C223.898 408.37 231.81 406.027 239.368 403.331C241.49 371.196 243.612 339.195 245.733 306.044C246.75 290.043 247.855 274.042 248.916 257.511C249.8 243.852 251.037 228.912 251.745 215.033C251.833 213.309 251.7 210.348 252.142 208.933C252.363 208.27 253.336 207.74 253.955 207.209C255.369 205.972 256.253 205.132 257.712 203.85C258.198 203.452 259.303 202.48 260.054 203.099C261.425 204.292 258.331 206.325 257.712 206.856C257.226 207.298 256.518 207.784 255.9 208.315C255.369 208.801 254.441 209.42 254.264 209.95C254.043 210.657 254.176 211.939 254.087 213.044C254.043 214.149 253.91 215.254 253.822 216.138C252.098 238.99 250.993 262.417 249.358 284.783C249.181 286.949 249.093 288.849 249.358 290.883C250.109 296.85 250.993 302.728 251.7 308.563C251.7 308.651 251.7 308.784 251.7 308.872C251.656 310.64 251.17 312.63 250.905 314.574C248.872 327.967 247.192 341.537 245.026 354.709C244.363 358.643 244.275 362.665 243.965 366.776C243.214 377.075 242.639 387.462 241.932 397.629C241.799 399.662 241.623 401.651 241.667 403.64C247.501 403.375 253.292 403.11 259.082 402.844C262.088 395.286 264.43 387.286 266.906 379.241C269.337 371.285 271.9 363.284 274.331 355.24C276.718 347.328 279.326 339.239 281.492 330.973C282.597 326.818 283.702 322.663 284.498 318.287C285.338 313.779 285.603 309.005 285.382 303.701C284.984 293.844 284.1 284.031 283.348 274.307C282.597 264.539 281.801 254.858 281.006 245.178C280.21 235.454 279.503 225.73 278.486 216.271C277.47 206.856 275.746 197.75 274.508 188.733C270.884 190.192 267.436 191.562 263.193 192.048C260.983 192.314 258.817 191.916 256.784 191.297C247.324 188.601 238.528 184.578 229.777 181.44C229.777 181.352 229.688 181.529 229.688 181.661ZM217.4 202.259C217.71 202.215 217.71 201.905 217.886 201.773C217.71 201.684 217.577 201.552 217.4 201.463C217.4 201.729 217.4 201.994 217.4 202.259ZM246.573 329.603C247.28 324.475 248.032 319.127 248.783 314.044C249.048 312.276 249.49 310.508 249.535 308.828C249.535 306.044 248.65 303.347 248.385 300.518C247.811 310.243 246.971 320.055 246.573 329.603ZM241.446 406.027C241.49 406.778 241.357 407.309 241.357 407.972C244.186 410.491 246.971 413.099 249.844 415.619C253.513 414.779 258.463 414.911 262.883 415.044C261.955 413.408 260.187 411.154 258.905 409.342C258.463 408.767 257.712 407.839 257.668 407.22C257.623 406.469 258.242 405.85 258.419 405.099C252.761 405.452 246.882 405.541 241.446 406.027ZM233.755 408.546C232.119 408.723 230.395 408.812 229.025 409.121C226.771 409.651 224.693 410.535 222.572 411.154C220.406 411.817 218.328 412.657 216.118 413.276C216.118 414.116 215.986 414.823 216.03 415.707C217.577 417.033 218.77 419.022 219.787 421.011C220.627 422.735 221.246 424.724 221.644 426.801C223.721 426.625 225.887 426.536 228.097 426.492C229.998 418.757 236.539 415.663 245.291 414.779C244.407 413.806 243.391 412.878 242.286 411.861C241.402 411.066 239.678 410.005 239.191 409.033C239.059 408.723 239.191 408.237 238.794 408.06C237.247 408.237 235.434 408.369 233.755 408.546ZM253.292 422.647C252.496 421.541 251.524 420.657 250.463 419.552C249.623 418.713 248.385 417.033 247.369 416.724C247.236 416.679 247.148 416.768 247.059 416.812C243.7 417.298 240.738 417.475 238.086 418.624C235.744 419.641 233.18 421.188 231.81 423.177C231.279 423.928 231.014 424.945 230.661 426.006C230.44 426.713 230.174 427.995 229.688 428.348C228.937 428.923 226.461 428.746 225.135 428.835C224.296 428.879 223.5 428.879 222.704 428.923C221.953 428.967 220.936 429.188 220.362 428.923C219.743 428.658 219.61 427.42 219.389 426.492C218.77 423.928 218.063 422.16 216.958 420.392C216.737 420.039 216.516 419.464 216.295 419.597C216.428 423.398 216.649 427.111 216.781 430.912C230.13 430.956 243.391 431.045 256.695 431.177C255.679 428.083 255.148 425.21 253.292 422.647ZM267.082 421.011C266.773 420.525 266.287 419.862 265.801 419.155C265.403 418.536 264.828 417.519 264.43 417.342C263.591 416.989 261.469 417.254 260.099 417.254C256.828 417.254 254.573 417.077 251.877 417.519C252.452 418.536 253.38 419.331 254.176 420.215C256.607 423.044 257.933 426.846 258.994 431.045C262.574 430.912 266.419 431.045 270 430.868C270.574 426.315 268.718 423.442 267.082 421.011Z" fill="#191919"/>
<path fill-rule="evenodd" clip-rule="evenodd" d="M237.512 45.0793C234.595 43.7974 233.269 41.6758 233.136 37.7419C232.959 32.1725 235.39 28.1502 240.783 28.0618C242.242 28.0618 245.336 28.2386 245.026 29.9182C244.805 31.2443 242.595 30.4044 241.446 30.316C237.424 30.0508 235.479 32.5703 235.346 36.3274C235.302 38.0071 235.39 39.9519 236.098 41.1453C236.451 41.8084 237.38 42.3388 238.131 42.7808C238.838 43.1786 240.12 43.488 240.253 44.3278C240.429 45.3003 238.794 47.7755 238.043 47.8197C236.319 47.9966 236.761 45.9633 237.512 45.0793Z" fill="#191919"/>
<path fill-rule="evenodd" clip-rule="evenodd" d="M225.047 31.6863C226.197 31.5537 231.28 31.5537 229.777 33.808C229.158 34.7362 227.257 33.8522 226.373 33.808C224.252 33.7196 222.793 34.471 221.644 35.5318C221.158 35.9738 219.611 37.0347 219.301 35.6202C218.992 34.3384 221.29 32.7913 221.997 32.4377C222.881 31.9957 223.721 31.8189 225.047 31.6863Z" fill="#191919"/>
<path fill-rule="evenodd" clip-rule="evenodd" d="M229.467 50.2509C230.749 49.9415 231.103 51.0907 232.959 51.3117C234.55 51.4885 236.584 50.6487 237.202 51.5769C238.573 53.6544 234.594 53.9196 232.959 53.787C231.81 53.6986 228.583 52.8588 228.583 51.4443C228.539 50.7371 228.981 50.3835 229.467 50.2509Z" fill="#191919"/>
<path fill-rule="evenodd" clip-rule="evenodd" d="M215.5 412.701L215.809 416.591C215.809 416.591 218.284 418.448 219.213 421.321C220.141 424.194 220.583 427.111 220.583 427.111L229.688 427.023C229.688 427.023 230.528 420.525 235.567 418.536C240.606 416.547 248.209 416.105 248.209 416.105L250.021 417.652C250.021 417.652 255.546 416.856 258.817 416.503C262.088 416.149 265.757 416.68 265.757 416.68L258.684 407.088L260.143 404.303L241.49 403.729L240.208 406.999L230.042 407.309L215.5 412.701Z" fill="#191919"/>
<path fill-rule="evenodd" clip-rule="evenodd" d="M238.352 34.6478C239.28 34.471 240.164 35.0898 240.341 36.0622L240.694 38.2281C240.871 39.1563 240.252 40.0403 239.28 40.2171C238.352 40.3939 237.467 39.7751 237.291 38.8027L236.937 36.6368C236.804 35.6644 237.423 34.7804 238.352 34.6478Z" fill="#191919"/>
<path fill-rule="evenodd" clip-rule="evenodd" d="M224.118 37.0789C225.047 36.9021 225.931 37.5209 226.107 38.4491L226.461 40.615C226.638 41.5432 226.019 42.4272 225.047 42.604C224.118 42.7808 223.234 42.162 223.058 41.1896L222.66 39.0237C222.571 38.1397 223.19 37.2557 224.118 37.0789Z" fill="#191919"/>
<path fill-rule="evenodd" clip-rule="evenodd" d="M120.467 64.572C122.765 63.8648 124.445 61.1243 126.655 60.1077C128.865 59.0911 130.235 59.7099 130.235 59.7099L134.7 56.3064L134.435 48.1734C134.435 48.1734 132.843 45.6981 131.738 44.1069C130.633 42.5156 130.103 40.3497 130.103 40.3497C130.103 40.3497 127.141 40.7476 126.125 39.0679C125.108 37.3441 124.887 35.3108 124.887 35.3108C124.887 35.3108 116.047 20.6802 120.644 14.713C123.605 10.8675 126.081 11.1327 126.081 11.1327C126.081 11.1327 133.374 0.347585 143.496 1.85043C153.618 3.35327 155.607 5.91695 158.966 8.34802C162.326 10.7791 166.878 12.5913 166.878 12.5913L163.784 15.8622L170.149 19.7077C170.149 19.7077 168.381 24.8793 165.818 24.6583C163.254 24.4373 161.176 24.0837 161.176 24.0837C161.176 24.0837 162.547 33.6312 159.718 40.5266C155.74 50.2066 149.154 50.5602 149.154 50.5602L149.463 56.5716L150.833 60.0635L154.104 61.92L155.077 63.2018C155.077 63.2018 178.238 63.9532 184.78 76.1528C191.322 88.3523 202.637 119.779 204.007 127.382C205.378 134.94 203.565 142.853 198.394 144.709C193.178 146.565 175.365 144.532 175.365 144.532L183.41 416.9C183.41 416.9 190.614 420.083 194.239 425.52C197.863 431.001 198.792 433.078 198.792 433.078L155.961 432.415L155.209 403.684L153.574 402.8L147.076 249.245L132.578 402.402L130.28 402.889L128.998 432.504L87.8906 432.592C87.8906 432.592 90.8963 424.591 95.0512 421.011C99.2061 417.431 103.273 416.591 103.273 416.591L115.649 197.883C115.649 197.883 117.019 177.064 118.345 170.523C120.202 161.063 122.235 152.135 122.235 152.135C122.235 152.135 111.008 155.096 105.306 152.798C99.604 150.455 91.2941 142.19 91.6477 117.216C92.0455 92.2421 92.5318 76.5506 98.9409 70.8928C108.444 62.6272 118.168 65.2793 120.467 64.572Z" fill="white"/>
<path fill-rule="evenodd" clip-rule="evenodd" d="M152.823 75.0478L148.844 66.9147L146.855 64.7047L144.336 66.9147L142.524 74.2521C142.524 74.2521 145.087 75.5782 145.132 76.2854C145.176 77.0368 150.347 155.273 150.657 155.008L159.143 162.345L162.635 155.008L151.143 77.081L152.823 75.0478Z" fill="#12FF2A"/>
<path fill-rule="evenodd" clip-rule="evenodd" d="M129.617 59.5331C129.617 59.5331 132.136 67.2683 136.114 75.755C140.136 84.2416 140.844 92.7282 142.479 100.994C144.115 109.26 145.264 118.895 145.264 118.895L137.838 121.238C137.838 121.238 129.617 109.746 126.92 106.254C124.224 102.762 117.417 100.994 112.997 102.187C108.577 103.381 103.449 109.26 103.052 111.16C102.654 113.061 103.538 115.669 105.836 113.989C108.135 112.309 112.908 108.066 112.908 108.066L116.754 108.729C116.754 108.729 110.743 113.282 109.682 117.437C108.621 121.592 108.798 126.321 111.317 129.15C113.837 131.979 116.4 132.951 118.876 130.962C121.395 128.929 123.34 125.084 123.34 125.084H130.412C130.412 125.084 143.805 118.453 154.59 115.625C165.375 112.796 164.27 113.282 164.27 113.282C164.27 113.282 163.607 90.6508 161.972 82.1199C160.381 73.5449 155.298 62.0967 155.298 62.0967C155.298 62.0967 179.078 64.9256 184.028 74.7825C189.023 84.6836 197.51 105.723 201.797 118.1C206.041 130.476 205.157 140.819 199.455 144.002C189.686 149.438 175.851 144.311 175.851 144.311C175.851 144.311 177.619 160.577 177.708 171.849C177.796 183.12 177.973 190.678 177.973 190.678L165.287 190.59L164.624 142.455L159.585 140.024L145.352 146.3L147.076 189.617L115.737 191.253C115.737 191.253 119.229 170.567 119.627 165.528C120.069 160.489 121.351 152.975 121.351 152.975C121.351 152.975 112.82 157.395 102.3 151.737C91.7803 146.079 92.5759 129.15 92.2665 114.696C92.0013 100.242 92.7969 77.2136 100.002 71.5558C109.549 64.0858 121.749 64.8814 121.749 64.8814C121.749 64.8814 123.119 63.6438 124.445 62.0967C125.683 60.5497 129.617 59.5331 129.617 59.5331Z" fill="#191919"/>
<path fill-rule="evenodd" clip-rule="evenodd" d="M172.36 112.575C172.36 112.575 174.747 112.309 177.089 117.127C179.432 121.945 179.122 125.172 179.122 125.172L182.482 121.415C182.482 121.415 183.498 115.404 180.625 113.503C177.664 111.646 172.36 112.575 172.36 112.575Z" fill="#191919"/>
<path fill-rule="evenodd" clip-rule="evenodd" d="M124.489 35.576C124.489 35.576 125.992 31.6421 127.318 31.8189C128.644 31.9957 130.015 33.3659 130.015 33.3659C130.015 33.3659 129.573 25.6749 130.28 22.3598C130.987 19.0447 132.49 15.0224 132.49 15.0224C132.49 15.0224 142.214 16.1716 148.623 18.2933C157.022 21.078 162.591 26.1169 165.376 24.8793C168.16 23.6416 170.414 20.2381 170.414 20.2381L163.917 17.2324L166.923 13.3869C166.923 13.3869 162.06 11.7515 160.425 9.98343C158.79 8.17118 147.253 -0.890077 138.766 2.33662C130.28 5.56331 126.965 10.8675 126.965 10.8675C126.965 10.8675 119.937 13.0333 119.716 18.4259C119.495 23.8626 124.489 35.576 124.489 35.576Z" fill="white"/>
<path fill-rule="evenodd" clip-rule="evenodd" d="M211.345 43.5322C211.345 43.5322 212.494 42.0736 213.953 43.1344C215.411 44.1952 216.56 41.8968 216.56 41.8968L216.03 32.9681C216.03 32.9681 213.687 23.509 219.257 24.5699C224.782 25.6307 230.705 25.6749 234.241 23.288C237.733 20.9012 241.844 19.1773 243.435 20.2381C245.026 21.2548 246.573 27.0009 247.236 29.4762C247.899 31.9073 248.695 38.007 248.695 38.007C248.695 38.007 250.33 35.4876 249.49 31.9073C248.651 28.327 247.546 26.2053 247.546 26.2053C247.546 26.2053 248.43 20.1939 247.811 19.0005C247.148 17.7629 244.319 17.0998 244.319 17.0998C244.319 17.0998 245.645 15.597 246.883 14.0942C247.369 13.4753 245.247 13.2543 245.07 12.5913C244.849 11.7515 246.485 10.5139 245.556 10.5139C243.346 10.6023 240.518 10.9559 238.484 11.5747C234.948 12.6355 231.5 13.9174 231.5 13.9174L230.351 11.0001C230.351 11.0001 222.793 13.5637 218.152 16.3926C213.511 19.2215 207.146 22.7134 207.809 30.8022C208.427 38.8469 211.345 43.5322 211.345 43.5322Z" fill="#191919"/>
<path fill-rule="evenodd" clip-rule="evenodd" d="M125.594 37.8744C125.594 37.8744 126.522 32.2167 127.848 32.3935C129.174 32.5703 130.898 33.4101 130.898 33.4101C130.898 33.4101 130.103 29.211 130.81 25.8959C131.517 22.5808 133.02 15.5528 133.02 15.5528C133.02 15.5528 142.744 15.6854 149.153 17.807C157.552 20.5917 161.795 26.2053 164.58 24.9676C167.364 23.73 169.132 22.9344 169.132 22.9344L164.491 20.7685L167.497 16.923C167.497 16.923 162.635 15.2876 160.999 13.5195C159.364 11.7073 147.827 2.64599 139.341 5.87269C130.854 9.09938 127.539 14.4035 127.539 14.4035C127.539 14.4035 120.511 16.5694 120.29 21.962C119.981 27.3545 125.594 37.8744 125.594 37.8744Z" fill="#191919"/>
<path fill-rule="evenodd" clip-rule="evenodd" d="M115.781 191.253L147.12 189.883V181.573L164.712 182.324V190.457L177.265 190.634L182.879 403.242L155.12 402.756L146.987 251.809L133.639 402.093L104.554 401.342L115.781 191.253Z" fill="white"/>
<path fill-rule="evenodd" clip-rule="evenodd" d="M104.245 410.668L104.333 416.193L101.814 418.801C101.814 418.801 109.991 417.077 113.704 420.437C117.417 423.796 119.229 426.802 119.229 426.802L123.473 427.111C123.473 427.111 123.119 424.768 125.594 421.984C128.07 419.199 129.97 417.917 129.97 417.917L130.368 411.64L104.245 410.668Z" fill="#191919"/>
<path fill-rule="evenodd" clip-rule="evenodd" d="M156.844 412.834L156.446 420.348C156.446 420.348 158.568 420.039 159.938 423.133C161.308 426.227 162.236 428.349 162.236 428.349L180.492 428.039C180.492 428.039 181.508 426.183 183.762 423.796C186.017 421.409 188.801 420.039 188.801 420.039L183.276 417.21L183.188 412.878H156.844V412.834Z" fill="#191919"/>
<path fill-rule="evenodd" clip-rule="evenodd" d="M165.773 16.3042C166.746 16.6137 167.895 17.3651 169.133 17.9397C170.105 18.3817 171.961 18.8237 172.138 19.8845C172.359 21.2106 170.503 22.7134 169.796 23.3765C168.735 24.3047 167.453 25.1445 166.038 25.4981C163.21 26.2053 160.734 25.1003 159.055 24.0395C158.259 23.5533 157.817 22.9344 156.845 22.7134C152.778 21.8736 150.126 23.067 149.198 26.2053C148.27 29.3436 149.375 32.3935 150.435 34.6036C150.833 35.3992 151.496 36.0622 151.496 36.902C151.496 37.6535 150.877 38.3165 150.524 38.9353C150.082 39.6867 149.684 40.3939 148.888 40.3055C147.12 40.0845 148.358 37.6977 149.065 36.902C147.562 34.3826 146.192 30.8023 146.767 26.9567C147.341 23.3764 149.242 21.0338 152.557 20.2824C147.341 17.9397 140.623 17.0999 133.595 16.5252C132.18 19.6193 131.119 24.7025 131.385 30.1392C131.473 31.5537 132.136 34.4268 131.65 35.0898C131.031 35.8854 127.451 36.5926 127.274 35.2666C127.097 34.1174 128.158 34.1174 128.909 33.7196C127.716 31.2885 126.655 34.8246 126.788 35.9296C126.92 37.0346 127.804 38.2281 128.644 38.8469C129.44 39.4215 130.633 39.5541 131.34 40.3055C131.915 40.9244 132.136 42.162 132.49 42.825C133.285 44.4163 134.302 45.6539 135.893 46.7147C136.424 47.0683 137.794 47.3335 137.75 48.527C137.705 49.4994 136.733 49.5878 136.114 49.6762C136.424 51.4443 135.672 52.8587 136.114 54.3174C136.291 54.892 137.705 55.6876 138.324 56.1296C140.578 57.6766 143.717 59.1795 146.325 60.0193C146.988 59.3563 147.916 58.5165 148.137 57.323C148.446 55.7318 147.828 53.8753 147.96 52.1073C147.076 52.1073 145.352 52.0631 143.894 51.7979C142.744 51.5769 140.667 51.3559 141.286 49.853C141.86 48.4386 144.07 49.6762 145.441 49.7646C147.651 49.9414 149.021 49.6762 150.347 49.19C156.624 46.8915 159.629 40.1287 160.027 31.3769C160.115 29.9182 159.32 26.8242 161.176 27.0452C163.121 27.2662 162.193 33.4101 161.972 35.0014C160.867 43.3112 157.419 49.0574 150.347 51.5327C150.524 53.3891 150.214 54.892 150.524 56.439C150.789 57.9419 152.203 59.0911 152.557 60.4171C153.972 60.8591 155.74 60.9033 156.314 62.2294C159.452 62.0968 162.502 62.6714 165.331 63.2902C173.685 65.1025 180.802 68.4618 185.178 74.4289C188.095 78.4071 189.421 83.7554 191.454 88.927C196.316 101.392 202.151 112.53 204.98 127.205C205.554 130.211 206.085 133.438 205.775 136.576C205.157 142.764 201.09 145.858 195.609 147.096C189.642 148.422 183.144 146.742 177.133 145.858C177.84 156.511 178.945 167.428 178.945 178.744C178.945 187.231 179.166 195.85 179.431 204.381C179.873 218.437 180.05 232.714 180.315 246.858C180.536 258.218 180.581 269.622 181.067 280.893C181.288 286.507 181.465 292.253 181.465 297.911C181.465 303.613 181.862 309.27 181.862 314.928C181.862 326.288 182.658 337.603 182.658 348.875C182.658 360.19 183.542 371.462 183.542 382.733C183.542 394.004 184.47 405.276 184.603 416.414C191.233 419.332 196.051 423.708 199.101 430.559C199.676 431.885 200.913 434.095 198.703 434.404C197.024 434.625 195.167 434.316 193.311 434.316C188.095 434.316 182.923 434.095 177.442 434.051C171.696 434.006 167.232 434.051 161.574 433.785C159.673 433.697 156.314 434.095 155.651 433.122C155.298 432.636 155.342 430.868 155.342 429.719C155.298 422.47 154.988 415.663 154.679 408.37C154.634 407.088 154.856 405.585 154.59 404.789C154.369 404.082 153.574 404.126 153.353 403.419C153.043 402.314 153.264 400.634 153.176 399.087C151.098 355.593 148.756 310.375 146.811 267.102C143.452 300.519 140.711 335.305 137.44 369.428C136.512 378.932 135.584 389.275 134.656 399.22C134.435 401.518 134.877 404.082 132.711 404.347C132.003 413.143 131.473 421.188 130.766 430.161C130.633 431.62 130.722 433.255 129.793 433.653C128.865 434.006 125.859 433.83 124.666 433.83C114.279 433.83 103.98 433.918 93.5041 433.918C91.6034 433.918 88.7304 434.272 88.2 433.255C87.8021 432.504 88.3768 431.001 88.6862 430.073C89.7028 427.155 91.2498 424.459 93.0621 422.602C95.7584 419.818 99.1177 418.138 102.565 416.326C104.068 394.402 104.952 372.257 106.455 350.157C107.958 328.1 108.798 305.955 110.212 283.899C111.582 262.108 112.599 239.167 113.571 217.155C113.837 211.365 114.058 205.707 114.058 200.137C114.058 194.701 114.898 189.308 115.605 184.181C117.063 173.793 118.655 163.892 120.423 153.991C114.544 155.185 108.135 155.538 103.803 153.593C99.6039 151.693 96.554 147.803 94.6091 143.56C88.2 129.592 90.8963 108.95 92.0013 91.5348C92.3991 85.2583 92.7527 79.3353 95.007 75.313C98.6757 68.7712 107.118 64.1742 117.063 63.7322C118.655 63.6438 120.688 63.7322 121.97 63.0692C123.517 62.2736 124.18 60.5939 125.462 59.6657C126.611 58.8259 127.628 58.5165 129.351 58.3839C129.793 58.3397 130.456 58.4723 130.987 58.2955C131.473 58.1629 131.959 57.1462 132.357 56.5716C132.887 55.8644 133.462 55.4224 133.639 54.6268C133.816 53.9195 133.683 52.5935 133.727 51.3559C133.771 50.295 133.993 48.9248 133.816 48.1734C133.683 47.7314 133.02 47.3336 132.534 46.8031C131.208 45.4329 130.28 43.709 129.617 41.8526C127.407 40.8802 126.169 40.0845 125.241 38.3607C124.931 37.8303 124.887 37.1673 124.578 36.5484C124.312 36.018 123.826 35.7086 123.517 35.1782C121.572 31.8189 119.627 27.4872 119.141 22.625C118.61 17.7187 120.025 14.1826 122.721 11.9725C123.561 11.2653 124.622 10.8675 125.638 10.1161C126.876 9.18784 127.804 7.7734 128.998 6.75677C131.385 4.72351 133.948 2.95546 137.308 1.85042C144.291 -0.403842 152.115 1.58521 157.331 5.03291C159.939 6.75676 162.06 9.27624 165.375 10.6465C166.348 11.0443 168.16 11.4421 168.293 12.2819C168.558 14.0942 166.083 15.155 165.773 16.3042ZM155.386 6.80097C152.159 4.81191 147.474 3.08806 142.258 3.44167C135.761 3.92789 131.738 7.02198 128.423 10.6023C127.937 11.0885 127.495 11.7957 126.965 12.1493C125.506 13.166 124.18 13.5638 123.119 14.7572C121.042 17.0999 120.997 20.7686 121.66 24.2163C122.323 27.5756 123.428 30.095 124.754 32.9239C125.506 32.0399 126.213 30.5813 127.672 30.4929C128.158 30.4486 128.821 30.8023 129.042 30.6697C128.865 26.9126 129.042 23.7743 129.838 20.415C130.191 18.8679 130.987 14.7572 132.357 14.3152C133.639 13.9174 135.849 14.4478 137.087 14.5804C145.131 15.3318 151.85 16.8789 157.287 20.1056C159.32 21.3432 161.353 23.4648 164.27 23.4206C166.436 23.3764 168.116 21.8736 169.177 20.5034C168.116 20.1498 166.967 19.4425 165.773 18.8679C164.757 18.3817 162.9 17.8955 162.856 16.7463C162.768 15.155 164.757 14.6246 165.154 13.2544C161.265 11.9725 158.789 8.87843 155.386 6.80097ZM135.186 56.8368C133.948 58.2071 133.418 60.2845 131.34 60.8149C132.49 64.7489 133.506 68.7712 135.098 72.3073C137.263 73.6775 138.943 75.534 141.109 76.9484C142.568 71.9979 144.07 67.1799 145.485 62.2294C141.463 61.036 138.192 59.0469 135.186 56.8368ZM147.783 62.141C150.126 66.3843 152.203 70.937 154.635 75.092C156.447 71.7327 155.342 66.2959 153.971 63.2902C152.822 62.804 151.585 63.025 150.789 62.3178C150.082 61.6548 150.126 60.5497 149.33 59.9751C149.021 60.8591 148.225 61.3012 147.783 62.141ZM123.384 65.1467C121.439 66.3401 118.61 66.0749 115.914 66.2959C113.881 66.4727 111.494 66.9589 109.726 67.5335C102.212 69.832 96.5098 74.2963 95.1396 82.6946C94.4766 86.8053 94.3882 91.7116 94.0787 96.5296C93.5041 105.591 92.4875 115.183 92.9295 124.951C93.3273 133.924 95.3606 142.278 99.9133 147.759C102.212 150.499 105.306 152.488 109.77 152.709C114.544 152.93 118.831 152.002 123.031 151.074C131.164 149.306 138.81 146.786 145.573 143.913C158.745 138.344 170.635 131.758 179.608 122.166C180.05 121.68 181.244 120.752 181.332 120.133C181.42 119.205 180.757 117.172 180.183 116.243C179.697 115.448 178.901 114.652 178.238 114.298C176.514 113.414 172.757 113.768 170.591 114.033C168.646 114.298 166.48 114.785 164.712 115.183C154.944 117.348 146.192 120.398 137.838 123.492C136.07 124.155 134.213 124.597 132.622 125.349C131.915 125.702 131.782 126.189 131.164 126.321C130.235 126.542 129.042 126.365 127.893 126.41C126.832 126.454 125.417 126.233 124.622 126.498C124.268 126.586 124.003 127.161 123.738 127.559C122.854 128.752 121.749 129.813 120.821 130.653C119.362 131.935 117.992 133.172 115.384 133.172C114.014 133.172 112.864 132.642 112.024 132.112C108.621 129.946 106.499 124.951 107.472 119.912C108.312 115.492 110.787 112.265 113.66 109.967C113.793 109.878 114.19 109.834 114.058 109.569C113.041 109.127 112.378 110.099 111.759 110.63C111.14 111.16 110.433 111.735 109.814 112.265C108.488 113.37 107.207 114.829 105.659 115.271C103.626 115.846 102.035 114.917 101.505 113.414C100.93 111.646 102.565 109.569 103.361 108.464C106.278 104.397 109.593 101.127 115.826 100.64C115.163 99.8447 114.279 99.2701 113.129 98.4302C112.422 97.8998 110.522 96.9716 110.698 95.8224C110.919 94.4079 112.599 95.2478 113.129 95.6456C114.898 96.9274 115.958 97.8114 117.594 99.1375C118.301 99.7121 119.185 100.64 119.804 100.906C120.378 101.171 121.086 101.127 121.572 101.303C125.241 102.585 127.009 105.06 129.13 107.889C132.313 112.133 135.451 116.509 138.589 120.575C140.136 119.956 141.772 119.426 143.407 118.851C141.684 108.155 140.313 97.7672 138.103 87.8219C137.042 82.9598 135.23 78.6723 133.374 74.3847C131.959 71.0696 130.81 67.9313 129.793 64.3068C129.484 63.2018 129.219 61.9642 128.644 60.9033C125.727 61.3896 125.462 63.909 123.384 65.1467ZM157.066 64.7489C159.364 71.5116 162.237 78.1419 163.077 86.5843C163.917 94.8499 164.447 103.69 164.933 112.619C168.249 111.956 171.608 111.293 175.586 111.337C176.558 107.271 177.221 102.939 176.956 97.4136C176.868 95.2036 176.47 92.6841 176.293 90.4298C176.161 88.8386 175.144 84.1974 177.045 84.0648C177.089 84.0648 177.133 84.0648 177.221 84.0648C178.901 84.1974 178.547 88.4849 178.68 90.4298C178.857 92.7283 179.255 95.2477 179.343 97.5904C179.52 103.204 178.989 107.668 177.973 111.691C181.376 112.663 182.923 115.536 183.586 119.249C185.089 119.426 189.951 117.437 189.951 119.824C189.951 121.371 186.769 121.282 185.487 121.459C184.912 121.548 184.028 121.415 183.542 121.636C182.879 121.857 181.686 123.492 181.023 124.155C175.188 129.99 167.939 135.383 160.69 139.361C168.204 141.438 176.161 143.648 184.78 144.753C194.504 145.991 203.433 144.532 203.433 134.808C203.433 130.565 202.416 126.189 201.399 122.343C198.35 110.718 193.62 101.038 189.509 90.5182C188.051 86.8053 186.901 83.1366 185.531 79.9541C181.244 69.9646 170.149 65.8097 157.11 64.572C156.977 64.5278 156.977 64.7489 157.066 64.7489ZM143.584 77.2136C143.231 78.4071 142.877 80.2193 141.728 80.2193C140.888 80.2193 139.96 79.2469 139.385 78.7607C138.589 78.1418 138.059 77.523 137.263 77.0368C142.214 88.6618 143.319 104.088 145.883 118.056C151.275 116.288 156.756 114.52 162.591 113.193C161.663 99.3585 161.751 84.551 157.773 73.8101C157.287 74.6941 157.066 75.7108 156.535 76.7274C156.137 77.523 155.651 78.8933 154.502 78.8491C153.485 78.8049 152.822 76.9926 152.292 76.0202C150.568 72.5725 148.623 68.9922 147.164 65.9423C147.076 65.9423 147.076 65.8981 146.988 65.8539C145.971 68.948 144.689 73.4123 143.584 77.2136ZM130.545 113.37C129.572 112.044 128.512 110.718 127.539 109.392C126.522 107.978 125.594 106.431 124.445 105.414C122.633 103.779 119.627 102.541 116.224 102.718C112.864 102.895 110.345 104.221 108.223 106.21C106.367 108.022 104.245 110.055 103.67 112.884C104.687 113.68 105.615 112.928 106.278 112.398C107.781 111.204 108.975 110.144 110.433 108.906C111.14 108.331 111.848 107.447 112.643 107.27C114.058 106.961 116.091 107.713 117.859 107.757C118.743 107.403 123.075 105.326 122.81 107.757C122.721 108.641 121.439 108.773 120.511 109.039C114.235 110.939 109.726 115.271 109.461 122.653C112.024 119.072 115.34 114.829 119.981 112.619C120.821 112.221 126.169 109.702 126.08 112.133C126.036 112.972 124.843 113.193 123.782 113.503C117.903 115.315 114.632 118.984 111.582 123.581C111.096 124.288 110.212 125.26 110.212 125.923C110.212 126.852 111.096 127.47 111.494 128.355C114.456 124.023 117.859 120.133 122.721 117.835C124.357 117.083 126.125 116.155 128.158 116.022C128.556 116.376 128.909 116.553 128.821 117.26C128.733 118.056 127.539 118.232 126.611 118.542C120.378 120.663 115.914 125.039 113.085 130.034C116.842 132.377 120.113 128.531 121.97 126.189C122.589 125.437 122.942 124.553 123.605 124.332C125.55 123.713 127.362 124.553 129.307 124.067C130.456 123.802 131.606 123.095 132.711 122.697C133.904 122.255 135.009 121.769 136.291 121.415C134.877 118.851 132.622 116.155 130.545 113.37ZM157.64 140.863C154.148 142.72 150.48 144.4 146.722 145.991C147.209 157.66 147.518 169.506 148.093 181.087C153.308 181.087 158.347 181.263 163.475 181.308C163.475 168.312 163.254 155.538 163.21 142.543C161.442 141.969 159.497 141.438 157.64 140.863ZM165.641 143.471C165.862 158.677 165.862 174.059 166.038 189.308C169.619 189.264 172.978 189.441 176.558 189.396C176.249 181.661 176.47 174.235 176.161 166.677C175.851 159.516 174.79 152.267 174.437 145.284C171.431 144.709 168.646 143.913 165.729 143.25C165.596 143.25 165.641 143.383 165.641 143.471ZM122.986 153.505C120.953 165.351 118.876 177.197 117.373 189.573C126.876 189.175 136.468 188.866 145.927 188.424C145.308 174.677 144.999 160.666 144.291 147.007C137.661 149.615 130.589 151.825 122.986 153.505ZM148.137 183.871C148.225 184.932 148.27 186.037 148.314 187.275C148.358 188.38 148.623 189.839 148.004 190.457C147.474 190.944 145.352 190.899 144.159 190.944C135.319 191.253 125.196 191.695 117.152 192.004C116.356 200.712 116.312 209.596 116.003 218.393C115.074 244.825 113.439 270.948 112.024 296.938C110.08 331.725 108.002 366.29 106.013 400.988C114.677 401.253 123.296 401.518 131.915 401.784C137.617 339.327 143.452 275.943 149.109 213.088C149.198 211.983 149.198 210.79 149.419 210.083C149.64 209.508 150.303 208.889 150.789 208.27C151.275 207.652 151.761 207.077 152.248 206.502C152.822 205.795 154.325 203.055 155.828 203.718C156.977 204.204 156.226 205.663 155.74 206.237C154.635 207.607 154.06 208.226 153.043 209.508C152.601 210.083 151.894 210.657 151.761 211.232C151.54 211.983 151.629 213.088 151.496 214.061C150.48 224.802 149.551 235.322 148.667 245.797C148.314 249.731 148.623 253.886 148.844 257.776C151.364 305.867 153.353 354.665 155.784 402.049C164.403 401.96 173.066 401.916 181.686 401.784C179.52 332.299 178.15 262.019 176.735 191.828C174.923 191.828 172.845 191.739 170.459 191.739C168.867 191.739 165.331 192.181 164.27 191.474C163.431 190.944 163.696 188.999 163.696 187.628C163.696 186.258 163.696 185.021 163.696 183.783C158.568 183.739 153.529 183.562 148.314 183.518C148.093 183.606 148.137 183.739 148.137 183.871ZM105.792 403.729C105.659 405.541 105.527 407.397 105.483 409.254C113.572 409.386 121.66 409.519 129.838 409.563C129.882 407.751 130.191 405.762 130.147 404.171C122.014 403.95 114.014 403.64 105.88 403.419C105.792 403.508 105.792 403.64 105.792 403.729ZM156.933 404.568C157.066 406.911 157.066 409.43 157.198 411.817C165.508 411.685 173.818 412.038 181.951 411.817C181.818 409.342 181.73 406.867 181.686 404.347C173.42 404.436 165.154 404.436 156.933 404.568ZM105.306 412.038C105.129 413.63 105.085 415.353 104.996 416.989C113.306 416.724 117.505 420.613 119.804 426.36C120.644 426.448 121.616 426.448 122.589 426.448C124.224 422.558 126.346 419.199 129.263 416.591C129.396 415.088 129.528 413.674 129.572 412.127C121.484 412.038 113.439 411.95 105.394 411.817C105.306 411.817 105.306 411.95 105.306 412.038ZM157.242 414.558C157.552 416.237 156.977 417.519 157.331 418.978C157.463 419.508 158.347 420.437 158.789 421.011C160.425 423.089 161.839 424.989 162.856 427.465C168.293 427.465 173.774 427.465 179.21 427.465C181.155 424.592 183.542 422.16 186.371 420.216C185.31 419.155 182.879 419.287 182.216 417.873C181.818 416.989 182.084 415.84 181.951 414.469C173.553 414.514 165.773 414.337 157.287 414.381C157.242 414.337 157.242 414.469 157.242 414.558ZM126.213 424.592C125.727 425.564 124.799 428.481 123.87 428.923C123.384 429.144 122.323 429.012 121.263 429.012C118.699 428.967 118.168 428.879 117.373 427.244C116.4 425.343 115.295 423.133 113.969 421.939C112.113 420.304 108.665 419.464 105.085 419.597C103.361 419.641 100.974 419.95 99.6481 420.392C97.438 421.188 95.6258 423.31 94.2556 425.034C92.7527 426.934 91.6034 429.144 90.852 431.62C103.361 431.531 115.826 431.531 128.158 431.443C128.467 427.907 128.733 424.371 128.954 420.79C127.937 421.718 126.964 423.133 126.213 424.592ZM182.658 427.111C181.995 427.951 181.023 429.63 180.315 429.896C179.21 430.249 177.177 429.984 175.674 429.984C172.138 429.984 169.751 429.984 166.215 429.984C164.801 429.984 162.723 430.338 161.663 429.896C160.69 429.498 160.204 427.597 159.629 426.536C159.143 425.608 158.613 424.813 158.082 424.105C157.95 423.929 157.773 423.531 157.508 423.619C157.64 426.139 157.64 428.746 157.773 431.266C170.768 431.531 183.852 431.752 196.935 431.929C195.123 427.641 192.559 424.105 188.802 421.763C186.504 423.089 184.338 424.901 182.658 427.111Z" fill="#191919"/>
<path fill-rule="evenodd" clip-rule="evenodd" d="M138.501 20.2382C140.534 19.973 144.247 21.1664 143.938 23.067C143.85 23.6417 143.496 23.9069 143.142 23.9511C141.816 24.2163 140.976 22.4482 139.474 22.404C138.501 22.3598 137.485 22.8018 136.777 23.1555C136.026 23.5091 135.496 24.4373 134.435 24.1279C134.037 24.0395 133.727 23.3765 133.683 23.1555C133.595 22.0062 134.965 21.5642 135.628 21.2106C136.689 20.6802 137.352 20.3708 138.501 20.2382Z" fill="#191919"/>
<path fill-rule="evenodd" clip-rule="evenodd" d="M138.678 39.5983C139.385 39.5099 140.004 40.2614 140.225 40.394C141.242 41.2338 142.789 42.0736 144.778 42.2062C145.883 42.2946 147.165 41.9852 147.474 42.9576C148.314 45.6097 142.347 44.2837 141.198 43.7533C140.314 43.3554 137.617 41.9852 137.706 40.5708C137.75 39.9962 138.015 39.6867 138.678 39.5983Z" fill="#191919"/>
<path fill-rule="evenodd" clip-rule="evenodd" d="M152.159 27.7966C153.088 27.7966 153.883 28.548 153.883 29.5205V31.7305C153.883 32.6588 153.132 33.4544 152.159 33.4544C151.187 33.4544 150.436 32.703 150.436 31.7305V29.5205C150.48 28.548 151.231 27.7966 152.159 27.7966Z" fill="#191919"/>
<path fill-rule="evenodd" clip-rule="evenodd" d="M138.899 26.9568C139.827 26.9568 140.623 27.7083 140.623 28.6807V30.8908C140.623 31.819 139.871 32.6146 138.899 32.6146C137.926 32.6146 137.175 31.8632 137.175 30.8908V28.6807C137.175 27.7525 137.971 26.9568 138.899 26.9568Z" fill="#191919"/>
<path fill-rule="evenodd" clip-rule="evenodd" d="M236.263 345.805C236.97 340.678 237.721 335.33 238.473 330.246C238.738 328.478 239.18 326.71 239.224 325.031C239.224 322.246 238.34 319.55 238.075 316.721C237.5 326.445 236.661 336.258 236.263 345.805Z" fill="#191919"/>
</svg>
