<svg width="619" height="517" viewBox="0 0 619 517" fill="none" xmlns="http://www.w3.org/2000/svg">
<path d="M531.48 517C548.951 490.697 593.988 378.692 603.546 343.654C620.725 280.708 626.18 197.997 604.114 133.97C560.383 7.08156 405.08 -30.1183 300.193 24.2793C241.081 54.9413 194.215 131.706 163.606 193.148C149.807 220.837 134.518 249.303 113.836 271.957C93.1074 294.662 63.1439 305.407 39.4498 323.939C20.9493 338.417 7.4427 360.227 2.26441 384.756C-2.82169 408.847 1.12734 434.407 9.45563 457.382C17.7839 480.358 27.7717 496.491 40.341 517L531.48 517Z" fill="#CCFEBA"/>
</svg>
