<svg width="292" height="322" viewBox="0 0 292 322" fill="none" xmlns="http://www.w3.org/2000/svg">
<path d="M35.5941 302.774C35.4865 302.774 35.6863 302.789 35.5941 302.774C33.8113 302.605 32.1976 301.022 32.3667 299.239C32.6894 295.827 39.0674 237.165 50.4095 202.355C57.5405 180.485 81.2237 148.011 82.238 146.644C83.2984 145.199 85.3117 144.892 86.7564 145.952C88.201 147.012 88.5084 149.041 87.448 150.47C87.2021 150.793 63.3499 183.482 56.557 204.353C45.4454 238.471 38.883 298.993 38.8061 299.823C38.6525 301.514 37.2386 302.774 35.5941 302.774Z" fill="#131314"/>
<path d="M32.997 306.139L24.283 312.379L21.532 309.597L30.7378 303.266L32.997 306.139Z" fill="#131314"/>
<path d="M34.4107 280.228C24.1291 279.675 15.2767 288.466 14.662 299.869C14.0473 311.288 21.8853 320.986 32.1669 321.554C42.4486 322.108 51.2855 313.317 51.9003 301.898C52.515 290.494 44.6924 280.781 34.4107 280.228ZM23.4375 310.397C21.5625 307.338 20.6558 303.512 21.1168 299.485C21.5779 295.566 23.2531 292.123 25.666 289.603C28.0635 287.098 32.0901 285.576 35.6249 285.376C35.6402 285.361 35.6402 285.361 35.6402 285.361C35.671 285.361 35.671 285.346 35.7017 285.346C35.8093 285.346 35.9169 285.33 36.0091 285.33H36.0706C42.8789 287.067 47.4587 294.352 46.5212 302.436C45.5838 310.535 39.4209 316.575 32.4282 316.667C29.1239 315.668 25.1742 313.255 23.4375 310.397Z" fill="#131314"/>
<path d="M35.6406 282.948C26.6192 282.456 18.8734 290.171 18.3355 300.192C17.7976 310.197 24.652 318.711 33.6735 319.203C42.6795 319.695 50.4406 311.98 50.9785 301.975C51.5318 291.939 44.662 283.425 35.6406 282.948ZM32.4286 316.682C29.1397 315.668 25.1746 313.271 23.4379 310.412C21.5629 307.354 20.6562 303.527 21.1172 299.5C21.5783 295.581 23.2535 292.139 25.6664 289.618C28.0639 287.113 32.0905 285.592 35.6253 285.392C35.6406 285.376 35.6406 285.376 35.6406 285.376C35.6714 285.376 35.6714 285.361 35.7021 285.361C35.8097 285.361 35.9173 285.346 36.0095 285.346H36.0709C42.8793 287.082 47.4591 294.367 46.5216 302.451C45.5841 310.535 39.4213 316.59 32.4286 316.682Z" fill="#3D3B33"/>
<path d="M40.1283 301.698L47.4284 303.634L46.3218 307.369L38.7144 305.064L40.1283 301.698Z" fill="#131314"/>
<path d="M34.98 317.574C33.6275 317.574 32.398 317.359 31.4144 317.021C31.1992 316.944 31.0917 316.713 31.1531 316.498C31.23 316.283 31.4605 316.175 31.6757 316.237C33.9349 317.005 37.5772 317.113 41.0352 315.115C43.6325 313.624 47.0136 310.366 48.3968 303.358C49.6263 297.164 46.5986 291.555 43.6325 288.635C41.4194 286.452 38.9758 285.407 37.0855 285.791C36.8549 285.838 36.6398 285.699 36.5937 285.469C36.5476 285.254 36.6859 285.023 36.9164 284.977C39.0834 284.516 41.819 285.668 44.2165 288.035C47.321 291.109 50.5023 296.995 49.2113 303.496C47.7667 310.812 44.2011 314.223 41.4501 315.806C39.2524 317.097 36.9779 317.574 34.98 317.574Z" fill="#131314"/>
<path d="M29.8615 300.499C30.2303 297.272 32.843 294.936 35.6709 295.259C38.4987 295.581 40.4966 298.471 40.1278 301.698C39.7589 304.925 37.1462 307.262 34.3184 306.939C32.9045 306.77 31.7057 305.971 30.8912 304.818C30.092 303.65 29.6771 302.128 29.8615 300.499Z" fill="#3D3B33"/>
<path d="M118.196 236.262C118.602 228.786 114.823 222.503 109.754 222.228C104.686 221.953 100.249 227.789 99.8425 235.264C99.4364 242.74 103.216 249.022 108.284 249.298C113.352 249.573 117.79 243.737 118.196 236.262Z" fill="#3D3B33"/>
<path d="M124.178 247.047L108.087 242.898C108.087 242.898 103.984 241.837 104.645 234.967C105.229 228.927 109.609 228.728 109.609 228.728L125.946 232.969L124.178 247.047Z" fill="#131314"/>
<path d="M112.806 166.469C83.7898 164.886 58.539 194.993 56.4335 233.722C54.328 272.451 76.1669 305.11 105.183 306.677C134.199 308.26 159.434 278.153 161.54 239.424C163.645 200.711 141.837 168.052 112.806 166.469ZM116.986 296.073C80.5316 298.44 75.8134 255.07 76.8277 236.52C78.257 210.208 93.1185 187.97 109.425 181.899C111.115 181.653 112.837 181.577 114.558 181.669C135.628 182.806 151.304 209.578 149.583 241.438C148.092 268.84 134.214 291.078 116.986 296.073Z" fill="#131314"/>
<path d="M153.133 240.669C151.55 269.916 135.843 293.307 116.971 296.073C134.214 291.078 148.077 268.84 149.567 241.453C151.304 209.578 135.613 182.821 114.542 181.684C112.806 181.592 111.084 181.669 109.409 181.915C112.222 181.1 115.142 180.747 118.108 180.9C139.194 182.038 154.87 208.794 153.133 240.669Z" fill="#131314"/>
<path d="M117.708 175.629C94.1636 174.353 73.5082 201.694 71.6024 236.719C69.6967 271.745 87.2631 301.16 110.808 302.451C134.368 303.727 155.024 276.386 156.929 241.361C158.835 206.336 141.269 176.92 117.708 175.629ZM116.986 296.073C80.5316 298.44 75.8135 255.07 76.8278 236.52C78.2571 210.208 93.1186 187.97 109.425 181.899C111.115 181.653 112.837 181.577 114.558 181.669C135.628 182.806 151.304 209.578 149.583 241.438C148.092 268.84 134.214 291.078 116.986 296.073Z" fill="#3D3B33"/>
<path d="M130.371 240.423C130.587 236.457 128.597 233.124 125.927 232.979C123.258 232.834 120.919 235.932 120.703 239.898C120.488 243.865 122.477 247.198 125.147 247.343C127.817 247.488 130.156 244.39 130.371 240.423Z" fill="#3D3B33"/>
<path d="M125.905 247.136L124.437 247.536L134.91 285.94L136.378 285.54L125.905 247.136Z" fill="#3D3B33"/>
<path d="M113.479 180.453L111.987 180.752L122.651 233.99L124.143 233.692L113.479 180.453Z" fill="#3D3B33"/>
<path d="M130.203 238.625C129.942 238.625 129.696 238.502 129.557 238.272C129.342 237.918 129.45 237.442 129.803 237.226L152.026 223.349C152.38 223.133 152.856 223.241 153.071 223.594C153.302 223.948 153.179 224.424 152.826 224.64L130.602 238.517C130.48 238.594 130.341 238.625 130.203 238.625Z" fill="#3D3B33"/>
<path d="M127.611 243.53L126.851 244.848L149.031 257.64L149.792 256.322L127.611 243.53Z" fill="#3D3B33"/>
<path d="M112.91 247.829L111.508 248.42L128.764 289.298L130.165 288.706L112.91 247.829Z" fill="#3D3B33"/>
<path d="M107.597 248.52L105.039 295.202L106.558 295.285L109.116 248.604L107.597 248.52Z" fill="#3D3B33"/>
<path d="M127.344 234.122C127.283 234.122 127.221 234.107 127.144 234.091C126.745 233.984 126.499 233.569 126.607 233.169L136.473 195.577L116.31 226.023C116.079 226.376 115.603 226.468 115.249 226.238C114.896 226.007 114.803 225.531 115.034 225.178L137.733 190.89C137.933 190.583 138.348 190.46 138.686 190.613C139.024 190.767 139.209 191.136 139.117 191.505L128.082 233.538C128.005 233.907 127.682 234.122 127.344 234.122Z" fill="#3D3B33"/>
<path d="M116.848 230.864L116.125 229.511L149.491 211.684L150.213 213.036L116.848 230.864Z" fill="#3D3B33"/>
<path d="M84.5531 206.067L83.6277 207.275L122.118 236.765L123.043 235.558L84.5531 206.067Z" fill="#3D3B33"/>
<path d="M121.562 241.951L80.5288 265.089L81.2762 266.415L122.309 243.277L121.562 241.951Z" fill="#3D3B33"/>
<path d="M76.8827 235.763L76.7666 237.28L120.67 240.638L120.786 239.121L76.8827 235.763Z" fill="#3D3B33"/>
<path d="M122.181 245.186L101.879 293.999L103.284 294.583L123.585 245.77L122.181 245.186Z" fill="#3D3B33"/>
<path d="M115.526 297.856C115.249 297.856 115.003 297.641 114.988 297.349C114.972 297.057 115.188 296.796 115.495 296.78C140.131 295.09 152.195 262.293 152.595 240.654C153.056 215.449 146.724 197.268 134.276 188.078C123.671 180.24 112.221 181.423 110.562 181.961C110.285 182.053 109.978 181.899 109.885 181.623C109.793 181.346 109.947 181.039 110.224 180.947C112.068 180.347 123.794 178.995 134.906 187.217C147.831 196.761 154.132 214.758 153.655 240.685C153.256 262.723 140.869 296.135 115.556 297.871C115.556 297.856 115.541 297.856 115.526 297.856Z" fill="#131314"/>
<path d="M236.646 107.238C236.646 107.238 240.242 96.0039 243.685 95.7887C247.127 95.5736 262.158 104.195 258.623 108.422C256.579 110.865 246.497 101.844 246.497 101.844L242.885 110.558L236.646 107.238Z" fill="#3D3B33"/>
<path d="M143.958 106.731C143.958 106.731 147.554 95.4967 150.997 95.2815C154.439 95.0664 169.47 103.688 165.935 107.915C163.891 110.358 153.809 101.337 153.809 101.337L150.198 110.051L143.958 106.731Z" fill="#3D3B33"/>
<path d="M226.81 203.538C226.364 211.73 182.579 216.002 143.497 213.882C104.414 211.761 73.1081 203.4 73.5538 195.209C73.9995 187.017 106.028 182.099 145.11 184.22C184.177 186.356 227.256 195.347 226.81 203.538Z" fill="#090808"/>
<path d="M128.113 190.644C128.113 190.644 133.369 107.238 144.174 104.026C154.993 100.814 240.612 103.504 243.086 106.793C245.561 110.082 227.549 201.156 227.549 201.156L128.113 190.644Z" fill="#090808"/>
<path d="M135.275 316.944C135.152 316.944 135.014 316.944 134.891 316.928C133.108 316.713 131.848 315.099 132.063 313.332L137.78 265.889C137.826 265.52 137.934 265.167 138.103 264.844L166.658 207.365C167.457 205.767 169.393 205.106 170.992 205.905C172.59 206.704 173.251 208.641 172.452 210.239L144.143 267.226L138.487 314.101C138.287 315.73 136.889 316.944 135.275 316.944Z" fill="#131314"/>
<path d="M130.725 145.722C130.71 145.722 130.679 145.722 130.664 145.722L101.586 145.199C99.8036 145.168 98.3743 143.693 98.405 141.91C98.4358 140.127 99.9726 138.713 101.694 138.729L130.771 139.251C132.554 139.282 133.983 140.757 133.953 142.54C133.937 144.308 132.493 145.722 130.725 145.722Z" fill="#131314"/>
<path d="M132.232 140.189C132.232 140.189 135.106 136.116 131.602 135.148C128.097 134.18 90.3213 132.904 90.3213 132.904C90.3213 132.904 85.2957 143.155 89.7526 143.401C94.2096 143.647 103.938 138.729 103.938 138.729L132.232 140.189Z" fill="#3D3B33"/>
<path d="M135.874 310.381L134.753 317.897L82.6989 317.543L82.5605 311.565L98.0983 311.38L101.018 309.521L135.874 310.381Z" fill="#3D3B33"/>
<path d="M11.8792 310.059L13.0164 317.574L65.0547 317.22L65.2084 311.242L49.6553 311.058L46.7506 309.198L11.8792 310.059Z" fill="#3D3B33"/>
<path d="M239.351 196.377C238.706 196.561 238.091 196.761 237.461 196.991C237.507 196.884 237.584 196.776 237.63 196.669C238.214 196.576 238.782 196.453 239.351 196.377Z" fill="#3D3B33"/>
<path d="M248.167 250.73C248.573 243.255 244.794 236.972 239.726 236.697C234.657 236.421 230.22 242.258 229.814 249.733C229.408 257.208 233.187 263.491 238.255 263.766C243.323 264.042 247.761 258.205 248.167 250.73Z" fill="#3D3B33"/>
<path d="M254.151 261.509L238.06 257.359C238.06 257.359 233.956 256.299 234.617 249.429C235.201 243.389 239.581 243.19 239.581 243.19L255.918 247.431L254.151 261.509Z" fill="#131314"/>
<path d="M242.778 180.947C213.762 179.364 188.512 209.471 186.406 248.2C184.301 286.929 206.14 319.587 235.156 321.155C264.172 322.738 289.407 292.631 291.512 253.902C293.618 215.173 271.81 182.514 242.778 180.947ZM246.959 310.535C210.504 312.902 205.786 269.531 206.8 250.981C208.23 224.67 223.091 202.432 239.397 196.361C241.088 196.115 242.809 196.039 244.53 196.131C265.601 197.268 281.292 224.04 279.556 255.899C278.065 283.302 264.187 305.54 246.959 310.535Z" fill="#131314"/>
<path d="M283.106 255.131C281.523 284.378 265.816 307.769 246.943 310.535C264.187 305.54 278.049 283.302 279.54 255.915C281.277 224.04 265.585 197.283 244.515 196.146C242.778 196.054 241.057 196.131 239.382 196.377C242.194 195.562 245.114 195.209 248.08 195.362C269.166 196.5 284.842 223.256 283.106 255.131Z" fill="#131314"/>
<path d="M247.681 190.106C224.136 188.831 203.481 216.171 201.575 251.197C199.669 286.222 217.236 315.637 240.781 316.928C264.341 318.204 284.996 290.863 286.902 255.838C288.808 220.797 271.241 191.382 247.681 190.106ZM246.959 310.535C210.504 312.902 205.786 269.531 206.8 250.981C208.23 224.67 223.091 202.432 239.397 196.361C241.088 196.115 242.809 196.039 244.531 196.131C265.601 197.268 281.292 224.04 279.556 255.899C278.065 283.302 264.187 305.54 246.959 310.535Z" fill="#3D3B33"/>
<path d="M260.343 254.892C260.559 250.926 258.569 247.593 255.899 247.448C253.23 247.303 250.891 250.401 250.675 254.367C250.46 258.333 252.449 261.666 255.119 261.811C257.789 261.956 260.128 258.858 260.343 254.892Z" fill="#3D3B33"/>
<path d="M255.882 261.599L254.414 261.999L264.886 300.403L266.354 300.003L255.882 261.599Z" fill="#3D3B33"/>
<path d="M243.449 194.918L241.957 195.217L252.621 248.455L254.113 248.156L243.449 194.918Z" fill="#3D3B33"/>
<path d="M260.175 253.102C259.929 253.102 259.668 252.979 259.53 252.749C259.299 252.395 259.422 251.919 259.776 251.704L281.999 237.826C282.352 237.611 282.829 237.718 283.044 238.072C283.274 238.425 283.151 238.902 282.798 239.117L260.575 252.979C260.452 253.056 260.314 253.102 260.175 253.102Z" fill="#3D3B33"/>
<path d="M257.524 258.023L256.764 259.341L278.942 272.133L279.702 270.815L257.524 258.023Z" fill="#3D3B33"/>
<path d="M242.882 262.293L241.48 262.885L258.735 303.762L260.137 303.171L242.882 262.293Z" fill="#3D3B33"/>
<path d="M237.57 262.986L235.012 309.667L236.531 309.75L239.089 263.069L237.57 262.986Z" fill="#3D3B33"/>
<path d="M257.317 248.584C257.255 248.584 257.194 248.569 257.117 248.553C256.702 248.446 256.472 248.031 256.579 247.631L266.446 210.039L246.282 240.485C246.052 240.838 245.575 240.93 245.222 240.7C244.868 240.469 244.776 239.993 245.007 239.639L267.706 205.352C267.921 205.045 268.321 204.922 268.659 205.075C268.997 205.229 269.181 205.598 269.089 205.967L258.055 248C257.978 248.369 257.655 248.584 257.317 248.584Z" fill="#3D3B33"/>
<path d="M279.486 226.164L246.119 243.974L246.835 245.317L280.202 227.506L279.486 226.164Z" fill="#3D3B33"/>
<path d="M214.527 220.531L213.602 221.739L252.092 251.229L253.017 250.021L214.527 220.531Z" fill="#3D3B33"/>
<path d="M251.516 256.475L210.464 279.576L211.21 280.902L252.262 257.801L251.516 256.475Z" fill="#3D3B33"/>
<path d="M206.854 250.224L206.738 251.742L250.642 255.101L250.758 253.584L206.854 250.224Z" fill="#3D3B33"/>
<path d="M252.139 259.586L231.858 308.41L233.263 308.993L253.544 260.17L252.139 259.586Z" fill="#3D3B33"/>
<path d="M245.514 312.333C245.237 312.333 244.991 312.118 244.976 311.826C244.961 311.534 245.176 311.273 245.483 311.257C270.119 309.567 282.184 276.77 282.583 255.131C283.044 229.926 276.712 211.745 264.264 202.555C253.659 194.717 242.21 195.9 240.55 196.438C240.258 196.53 239.966 196.377 239.874 196.1C239.782 195.823 239.935 195.516 240.212 195.424C242.056 194.824 253.782 193.487 264.894 201.694C277.819 211.238 284.12 229.235 283.659 255.162C283.259 277.2 270.872 310.612 245.56 312.348C245.529 312.333 245.514 312.333 245.514 312.333Z" fill="#131314"/>
<path d="M33.7028 278.184L30.2602 293.168L3.47266 311.288L55.7876 310.781L56.7404 282.349L33.7028 278.184Z" fill="white"/>
<path d="M60.7671 308.307L36.1927 307.507C36.1927 307.507 36.5462 294.352 20.2247 292.169C13.3241 291.247 5.47071 297.81 1.13675 303.742C-1.3376 307.123 0.998448 311.18 0.998448 311.18L43.8309 311.15L60.3676 311.104L60.7671 308.307Z" fill="#090808"/>
<path d="M128.789 128.585C124.363 136.439 89.8909 145.537 89.061 146.475C87.4166 148.35 80.1319 150.578 77.0889 152.914C76.0745 153.698 70.8338 160.691 70.5111 159.031C70.05 156.649 75.4444 150.809 75.137 150.593C74.7989 150.363 68.9127 154.436 65.8236 157.002C64.087 158.447 62.089 163.641 59.876 163.165C59.1536 163.011 61.8892 156.418 64.2714 153.99C65.3626 152.868 70.0807 148.134 70.0346 148.073C69.7887 147.75 64.3021 151.946 60.6444 155.388C57.2633 158.57 55.2807 164.302 53.8361 163.595C53.2674 163.319 54.2203 160.014 54.374 159.553C55.4498 156.418 58.8155 151.439 61.9507 149.041C62.5655 148.565 66.838 144.968 66.8226 144.953C65.3472 143.954 54.543 150.624 53.3289 152.007C52.0687 153.437 51.0543 157.294 49.4713 156.234C49.2408 156.08 49.5482 155.696 49.579 155.419C49.9939 152.269 52.5758 148.795 54.4815 146.398C54.9119 145.86 55.5727 144.938 56.1721 144.569C62.0737 140.804 68.2826 137.515 74.3532 134.026C76.5509 132.766 105.89 117.904 107.888 114.923C113.559 106.47 110.331 86.2755 112.514 87.0747L137.18 80.1127C140.346 81.3575 135.643 116.429 128.789 128.585Z" fill="white"/>
<path d="M97.6981 148.964C97.6981 148.964 56.9251 155.911 46.7357 173.861C36.5463 191.812 33.3035 278.461 33.3035 278.461L60.8749 284.039C60.8749 284.039 70.5264 206.674 84.8039 196.469C99.066 186.264 133.999 186.464 147.047 176.659C160.095 166.869 142.452 145.353 142.452 145.353L97.6981 148.964Z" fill="#101010"/>
<g opacity="0.49">
<path opacity="0.49" d="M151.089 46.071C151.089 46.071 147.37 56.5986 154.762 57.9203C162.155 59.2266 172.728 49.9132 172.728 49.9132L169.977 39.7084C169.977 39.7084 169.209 41.9215 162.616 44.027C156.038 46.1172 151.089 46.071 151.089 46.071Z" fill="white"/>
</g>
<path d="M57.0329 278.845C56.9868 278.845 56.956 278.845 56.9099 278.829C56.495 278.753 56.2183 278.368 56.2798 277.953L69.8349 197.329C69.8964 196.961 70.2192 196.699 70.588 196.699H75.1986L72.171 190.429C72.0481 190.183 72.0788 189.906 72.2171 189.676C72.3708 189.445 72.6167 189.322 72.8779 189.338L79.6248 189.614L83.1442 185.957C83.2364 185.864 83.3286 185.803 83.4516 185.757L110.608 176.536C111.008 176.397 111.438 176.612 111.576 177.012C111.715 177.412 111.499 177.842 111.1 177.98L84.1124 187.155L80.4854 190.936C80.3317 191.09 80.1166 191.182 79.9014 191.167L74.0767 190.921L77.0736 197.13C77.1812 197.36 77.1658 197.637 77.0275 197.867C76.8892 198.082 76.6433 198.221 76.382 198.221H71.2028L57.7552 278.199C57.7244 278.584 57.4017 278.845 57.0329 278.845Z" fill="white"/>
<path d="M151.212 148.934C151.212 148.934 110.439 155.88 100.25 173.831C90.0603 191.781 86.3564 277.877 86.3564 277.877L114.589 283.286C114.589 283.286 121.074 206.858 135.336 196.653C149.599 186.448 187.528 186.433 200.576 176.643C213.624 166.853 202.989 148.211 202.989 148.211L151.212 148.934Z" fill="#17191F"/>
<path d="M90.3679 148.257L73.0935 134.733L107.596 111.818C107.596 111.818 113.851 62.2082 124.701 53.7861C135.567 45.3795 145.418 40.4154 170.654 44.611C185.869 45.6407 204.28 50.0516 211.227 57.9971C223.092 71.583 224.29 105.855 224.29 105.855C224.29 105.855 229.854 135.686 224.306 144.292C218.435 153.39 178.953 166.715 178.953 166.715C178.953 166.715 139.563 167.975 124.84 160.276C110.117 152.576 119.199 143.109 119.199 143.109L116.771 148.795L123.503 135.302L90.3679 148.257Z" fill="#282A2F"/>
<path d="M149.798 46.1787L155.377 68.7092L177.907 48.0537C177.907 48.0537 174.572 40.062 163.599 42.3826C152.657 44.7341 149.798 46.1787 149.798 46.1787Z" fill="#F0FEEC"/>
<path d="M167.641 0.0265651C152.734 -0.711131 150.628 14.135 149.26 17.1934C144.834 27.0908 144.819 40.3386 154.178 47.3006C156.545 49.068 160.218 49.0526 162.954 48.776C174.88 47.6079 182.38 35.3284 182.088 23.7097C182.042 22.2189 189.357 3.65357 167.641 0.0265651Z" fill="white"/>
<path d="M176.371 40.6306C176.371 40.6306 189.034 29.934 186.084 25.6461C183.117 21.3583 179.429 30.1953 179.429 30.1953L176.371 40.6306Z" fill="white"/>
<path d="M168.425 29.9954C167.564 29.9032 167.011 28.4739 167.18 26.7833C167.349 25.0928 168.179 23.8018 169.039 23.8787C169.9 23.9709 170.453 25.4002 170.284 27.0907C170.115 28.7813 169.285 30.0722 168.425 29.9954Z" fill="#3D3B33"/>
<path d="M154.025 27.183C153.164 27.0908 152.611 25.6615 152.78 23.971C152.949 22.2804 153.779 20.9895 154.639 21.0663C155.5 21.1585 156.053 22.5878 155.884 24.2784C155.715 25.9689 154.885 27.2753 154.025 27.183Z" fill="#3D3B33"/>
<path d="M170.53 21.512C168.932 20.5899 167.902 19.3757 168.225 18.7917C168.547 18.2231 170.13 18.5151 171.729 19.4372C173.327 20.3593 174.357 21.5888 174.034 22.1575C173.696 22.7261 172.128 22.4341 170.53 21.512Z" fill="#131314"/>
<path d="M155.945 18.6841C154.101 18.761 152.564 18.2846 152.549 17.6237C152.518 16.9628 153.993 16.3635 155.853 16.2866C157.697 16.2098 159.234 16.6862 159.25 17.3471C159.28 18.0079 157.805 18.6073 155.945 18.6841Z" fill="#131314"/>
<path d="M161.57 34.9134L157.067 32.9616C156.883 32.8848 156.729 32.7157 156.652 32.5159C156.576 32.3161 156.591 32.1009 156.683 31.9165L160.833 23.6482L162.201 24.3398L158.42 31.8858L162.185 33.5149L161.57 34.9134Z" fill="#141613"/>
<path d="M181.319 30.641C181.212 30.641 181.089 30.6102 180.981 30.5641C180.597 30.3797 180.443 29.9186 180.628 29.5498C180.751 29.3039 181.811 27.1369 183.133 26.1687C183.794 25.6769 184.362 25.7384 184.701 25.8767C185.577 26.2302 185.822 27.3521 185.869 27.5672C185.945 27.9822 185.669 28.3818 185.254 28.4586C184.854 28.5201 184.439 28.2588 184.362 27.8439C184.316 27.6441 184.224 27.4135 184.147 27.306C184.132 27.3213 184.086 27.3521 184.024 27.3828C183.164 28.0129 182.257 29.6266 181.996 30.1953C181.873 30.4873 181.611 30.641 181.319 30.641Z" fill="#141613"/>
<path d="M184.193 30.6717C183.932 30.6717 183.671 30.5334 183.533 30.2875L182.18 27.9053C181.98 27.5365 182.103 27.0754 182.472 26.8756C182.826 26.6758 183.302 26.7988 183.502 27.1676L184.854 29.5498C185.054 29.9186 184.931 30.3797 184.562 30.5795C184.439 30.641 184.316 30.6717 184.193 30.6717Z" fill="#141613"/>
<path d="M153.532 12.7672C151.949 15.3952 150.197 18.1308 148.107 20.4054C146.586 22.0652 146.155 21.4658 145.771 19.222C145.402 17.0243 145.51 14.7497 146.079 12.5981C146.278 11.845 146.678 10.9844 147.446 10.8614C147.708 10.8153 148.015 10.8614 148.23 10.6924C148.369 10.5694 148.43 10.385 148.461 10.2006C148.722 9.04795 148.783 7.86457 149.152 6.74265C149.521 5.62074 150.305 4.54492 151.458 4.26828C153.717 3.71501 155.961 5.46704 155.822 7.63402C155.73 9.37068 154.823 11.553 153.532 12.7672Z" fill="#0E0F0E"/>
<path d="M163.139 152.084C161.125 153.129 159.727 153.867 159.312 154.113C153.241 157.617 147.032 160.89 141.131 164.656C140.531 165.04 139.87 165.947 139.44 166.485C137.534 168.882 134.952 172.34 134.537 175.506C134.507 175.783 134.199 176.167 134.43 176.32C136.013 177.396 137.027 173.539 138.287 172.094C139.502 170.711 150.306 164.041 151.781 165.04C151.796 165.055 147.524 168.652 146.909 169.128C143.774 171.525 140.408 176.505 139.332 179.64C139.179 180.101 138.226 183.405 138.795 183.682C140.239 184.389 142.222 178.641 145.603 175.475C149.261 172.033 154.747 167.837 154.993 168.16C155.039 168.221 150.321 172.955 149.23 174.077C146.848 176.505 144.112 183.098 144.834 183.252C147.048 183.728 149.045 178.534 150.782 177.089C153.871 174.507 159.757 170.45 160.096 170.68C160.403 170.895 155.009 176.735 155.47 179.118C155.792 180.777 161.033 173.769 162.047 173.001C165.09 170.665 172.375 168.452 174.02 166.561C174.112 166.454 174.68 166.162 175.572 165.747C175.449 165.609 164.86 156.018 163.139 152.084Z" fill="white"/>
<path d="M88.3692 278.261L83.8816 293.061L57.094 311.18L111.514 310.658L112.606 282.687L88.3692 278.261Z" fill="white"/>
<path d="M114.373 308.199L89.7984 307.4C89.7984 307.4 90.1518 294.244 73.8303 292.062C66.9298 291.14 59.0764 297.702 54.7425 303.635C52.2681 307.016 54.6042 311.073 54.6042 311.073L97.4366 311.042L113.973 310.996L114.373 308.199Z" fill="#090808"/>
<path d="M122.933 135.348C122.58 128.601 123.548 92.6689 125.223 85.9221C125.899 83.2172 126.775 79.2213 127.621 75.3484C128.466 71.4755 129.342 67.4797 130.018 64.7748L131.063 65.036C130.387 67.7256 129.526 71.7214 128.681 75.5789C127.836 79.4518 126.96 83.4631 126.284 86.1833C124.608 92.8687 123.671 128.585 124.024 135.286L122.933 135.348Z" fill="white"/>
<path d="M198.286 126.357C196.488 116.782 190.863 80.2203 193.107 71.5984L194.152 71.8751C191.954 80.3279 197.564 116.644 199.347 126.173L198.286 126.357Z" fill="white"/>
<path d="M196.965 61.532L195.536 61.0094C196.212 59.1652 197.134 57.3978 198.287 55.7841C198.901 54.9235 199.885 53.7554 201.299 53.694L201.36 55.2155C200.792 55.2462 200.208 55.6919 199.531 56.6601C198.456 58.1662 197.595 59.8107 196.965 61.532Z" fill="white"/>
<path d="M87.8123 269.68L87.5266 271.175L114.215 276.278L114.5 274.783L87.8123 269.68Z" fill="white"/>
<path d="M107.673 278.829C107.627 278.829 107.596 278.829 107.55 278.814C107.135 278.737 106.858 278.353 106.92 277.938L120.475 197.314C120.536 196.945 120.859 196.684 121.228 196.684H125.839L122.811 190.413C122.688 190.168 122.719 189.891 122.857 189.66C123.011 189.43 123.257 189.307 123.518 189.322L130.265 189.599L133.784 185.941C133.876 185.849 133.969 185.788 134.091 185.741L161.248 176.52C161.647 176.382 162.078 176.597 162.216 176.997C162.354 177.396 162.139 177.827 161.74 177.965L134.752 187.14L131.125 190.921C130.972 191.074 130.756 191.167 130.541 191.151L124.717 190.905L127.713 197.114C127.821 197.345 127.806 197.621 127.667 197.852C127.529 198.067 127.283 198.205 127.022 198.205H121.843L108.395 278.184C108.349 278.568 108.026 278.829 107.673 278.829Z" fill="white"/>
<path d="M177.6 8.66374C174.803 12.0141 173.005 17.762 175.387 21.5119C176.447 23.1871 178.291 23.141 178.983 25.1236C179.198 25.7537 179.152 28.812 179.859 29.0733C180.013 29.1348 180.12 28.8582 180.228 28.7352C181.411 27.183 181.227 26.9371 182.871 25.0775C183.471 24.4012 185.438 24.1246 186.083 25.6615C187.313 28.6737 183.378 31.9012 182.502 34.5599C185.023 34.898 188.512 32.9462 190.048 30.9176C190.832 29.8725 191.539 28.7198 191.893 27.4596C192.139 26.5529 192.215 25.6 192.215 24.6471C192.231 22.8029 192.246 20.2671 191.478 18.5458C190.924 17.3009 190.064 16.6708 189.833 15.2108C189.557 13.5049 187.497 10.0777 188.066 8.66374C186.237 7.14224 183.778 5.35946 181.258 6.03568C180.366 6.26621 179.598 6.78875 178.891 7.38813C178.43 7.74161 178.015 8.17194 177.6 8.66374Z" fill="#0E0F0E"/>
<path d="M158.112 43.7965L157.959 42.275L158.712 42.1982C160.971 41.9677 163.184 41.2146 165.105 40.0005L165.751 39.6009L166.565 40.8919L165.92 41.2914C163.799 42.6285 161.355 43.4584 158.865 43.7043L158.112 43.7965Z" fill="#141613"/>
<path d="M164.106 63.6682C163.891 63.6221 163.691 63.4837 163.522 63.2378C163.23 62.8075 163.153 62.285 163.061 61.7625C162.446 57.9357 160.94 54.0474 159.926 50.2821L174.28 43.3969C174.28 43.3969 181.011 45.7944 180.996 45.8098C178.583 48.4993 176.155 51.1888 173.742 53.8783C171.913 55.907 170.084 57.951 168.255 59.9797C167.564 60.7789 165.443 63.9602 164.106 63.6682Z" fill="white"/>
<path d="M149.537 60.5176C149.829 60.579 150.197 60.4407 150.659 59.9797C151.366 59.2881 159.634 50.0515 159.941 50.282C159.926 50.282 149.46 42.1367 149.46 42.1367C149.46 42.1367 143.712 43.7504 143.697 43.7657C143.743 43.7504 145.986 50.8661 146.14 51.3271C146.755 53.2482 147.37 55.1693 148 57.0904C148.338 58.1662 148.615 60.3331 149.537 60.5176Z" fill="white"/>
<path d="M156.96 52.6182C156.96 53.3098 156.96 54.0014 156.976 54.693C156.976 54.8313 156.976 54.9696 157.037 55.1079C157.145 55.3231 157.406 55.4153 157.636 55.4768C158.789 55.7841 159.972 56.03 161.156 56.1991C161.325 56.2298 161.525 56.2452 161.663 56.153C161.801 56.0761 161.863 55.9225 161.924 55.7688C162.109 55.2923 162.216 54.7852 162.339 54.2934C162.478 53.6786 162.616 53.0485 162.554 52.4338C162.478 51.8036 162.139 51.1735 161.571 50.9276C160.802 50.5895 159.404 50.7432 158.559 50.6817C157.16 50.5588 156.945 51.4194 156.96 52.6182Z" fill="#12FF2A"/>
<path d="M169.377 48.0691C169.838 47.9001 170.392 47.7464 170.822 48.0077C172.021 48.73 171.006 51.9728 170.868 53.0332C170.837 53.3099 170.791 53.6019 170.853 53.8785C170.899 54.1244 171.022 54.3549 171.114 54.5854C171.621 55.8764 171.298 57.2903 170.868 58.5506C170.315 60.2258 170.1 60.195 168.594 59.5495C166.027 58.4584 163.476 57.3364 160.971 56.0916C160.817 56.0147 160.663 55.9379 160.587 55.7842C160.525 55.6613 160.556 55.5076 160.587 55.3692C160.756 54.4779 160.925 53.5865 161.094 52.7105C161.37 51.2043 163.122 50.7433 164.352 50.1593C165.996 49.3755 167.672 48.6839 169.377 48.0691Z" fill="#12FF2A"/>
<path d="M150.321 45.902C148.692 45.2566 147.339 45.4564 147.385 48.0998C147.401 49.0987 147.477 50.0977 147.6 51.0813C147.693 51.7882 147.816 52.4952 147.723 53.2175C147.631 54.0782 147.232 54.8927 147.185 55.7687C147.016 58.3353 149.229 57.4285 150.766 57.0443C152.964 56.491 155.162 55.8763 157.329 55.2154C157.482 55.1693 157.667 55.1079 157.759 54.9695C157.836 54.8466 157.836 54.6929 157.836 54.5546C157.805 53.6479 157.79 52.7411 157.759 51.8497C157.713 50.3282 156.068 49.5905 154.947 48.8067C153.902 48.069 151.965 46.5629 150.321 45.902Z" fill="#12FF2A"/>
<path d="M160.541 50.1131C160.079 50.1131 159.618 50.0824 159.142 50.0363C155.73 49.6674 152.38 46.9625 151.442 46.148C151.12 45.8714 151.089 45.3949 151.365 45.0722C151.642 44.7494 152.118 44.7187 152.441 44.9953C154.731 46.9779 157.313 48.2996 159.311 48.5148C161.647 48.776 163.829 48.2689 166.381 47.4236C166.78 47.2853 167.21 47.5158 167.349 47.9154C167.487 48.315 167.257 48.7453 166.857 48.8836C164.598 49.6213 162.615 50.1131 160.541 50.1131Z" fill="#141613"/>
<path d="M193.091 24.6933C192.984 24.6933 192.876 24.6626 192.784 24.6011C192.538 24.432 192.477 24.0939 192.646 23.848C192.661 23.8327 193.952 21.8655 193.138 19.9598C192.4 18.2385 188.819 19.2835 188.788 19.2989C188.588 19.3604 188.358 19.2989 188.22 19.1299C188.081 18.9608 188.05 18.7303 188.143 18.5458C188.22 18.4075 189.803 15.011 187.144 13.4895C184.454 11.9527 182.441 14.9188 182.349 15.0418C182.21 15.257 181.934 15.3338 181.703 15.2416C181.473 15.1494 181.334 14.9035 181.38 14.6422C181.473 14.1197 181.596 12.5828 181.027 11.8605C180.843 11.6146 180.581 11.4916 180.243 11.4609C178.261 11.2918 177.8 13.551 177.784 13.6432C177.723 13.9352 177.446 14.1197 177.154 14.0736C176.862 14.0121 176.662 13.7355 176.724 13.4434C176.939 12.3062 177.953 10.2007 180.32 10.3851C180.966 10.4312 181.503 10.7078 181.872 11.1996C182.318 11.7683 182.472 12.5521 182.518 13.2436C183.732 12.1832 185.607 11.3687 187.682 12.5521C190.002 13.8891 189.987 16.3481 189.495 18.0233C190.894 17.7774 193.322 17.6545 194.136 19.5294C195.197 21.9884 193.614 24.3552 193.552 24.4628C193.43 24.6011 193.26 24.6933 193.091 24.6933Z" fill="white"/>
<path d="M188.081 30.3643C188.004 30.3643 187.928 30.3489 187.851 30.3182C187.574 30.1952 187.466 29.8725 187.589 29.6112C187.605 29.5651 189.341 25.6922 187.267 23.7558C185.238 21.8654 181.857 24.4627 181.826 24.4935C181.626 24.6472 181.35 24.6472 181.165 24.4935C180.966 24.3398 180.904 24.0785 181.012 23.848C181.073 23.6943 182.61 20.1902 180.166 18.6995C178.614 17.762 176.801 19.8214 176.785 19.8521C176.585 20.0827 176.247 20.098 176.017 19.9136C175.786 19.7138 175.771 19.3757 175.955 19.1605C176.048 19.053 178.384 16.3788 180.72 17.7927C182.671 18.9761 182.81 21.1585 182.456 22.849C183.886 22.096 186.237 21.3275 188.004 22.9873C190.648 25.4463 188.665 29.8879 188.573 30.0877C188.481 30.2567 188.281 30.3643 188.081 30.3643Z" fill="white"/>
<path d="M146.37 11.1842C146.14 11.1842 145.925 11.0305 145.863 10.8C145.848 10.7385 145.448 9.40143 146.171 8.11047C146.693 7.17298 147.661 6.52749 149.045 6.18938C150.366 5.86664 151.427 6.00496 152.195 6.63508C153.379 7.58794 153.332 9.2785 153.332 9.35534C153.317 9.64735 153.102 9.86249 152.779 9.87786C152.487 9.87786 152.241 9.6166 152.257 9.32459C152.257 9.30923 152.272 8.07974 151.519 7.46499C151.027 7.0654 150.289 6.98856 149.306 7.23446C148.23 7.49573 147.492 7.97215 147.123 8.633C146.616 9.50902 146.908 10.4619 146.908 10.4772C147 10.7692 146.831 11.0613 146.555 11.1535C146.478 11.1842 146.416 11.1842 146.37 11.1842Z" fill="white"/>
<path d="M144.403 18.0387C144.158 18.0387 143.927 17.8696 143.881 17.6084C143.604 16.2867 143.712 13.6432 146.109 12.9978C147.062 12.7365 147.892 12.8594 148.568 13.3359C149.921 14.2734 150.136 16.3174 150.136 16.3942C150.167 16.6862 149.952 16.9475 149.644 16.9782C149.321 17.009 149.091 16.7938 149.06 16.4864C149.06 16.4711 148.891 14.8574 147.954 14.2119C147.539 13.9199 147.031 13.8738 146.386 14.0428C144.357 14.5807 144.911 17.2702 144.941 17.3932C145.003 17.6852 144.818 17.9772 144.526 18.0387C144.48 18.0387 144.434 18.0387 144.403 18.0387Z" fill="white"/>
<path d="M168.363 33.73C164.736 33.73 161.785 30.7792 161.785 27.1522C161.785 23.5252 164.736 20.5745 168.363 20.5745C171.99 20.5745 174.941 23.5252 174.941 27.1522C174.941 30.7792 172.005 33.73 168.363 33.73ZM168.363 22.0959C165.566 22.0959 163.307 24.3705 163.307 27.1522C163.307 29.934 165.581 32.2085 168.363 32.2085C171.145 32.2085 173.419 29.934 173.419 27.1522C173.419 25.7998 172.897 24.5396 171.944 23.5714C170.991 22.6185 169.715 22.0959 168.363 22.0959Z" fill="#3D3B33"/>
<path d="M152.795 31.0251C149.168 31.0251 146.217 28.0743 146.217 24.4473C146.217 20.8203 149.168 17.8695 152.795 17.8695C156.422 17.8695 159.372 20.8203 159.372 24.4473C159.372 28.0743 156.422 31.0251 152.795 31.0251ZM152.795 19.391C149.997 19.391 147.738 21.6656 147.738 24.4473C147.738 25.7997 148.261 27.06 149.214 28.0282C150.167 28.9811 151.442 29.5036 152.795 29.5036C155.576 29.5036 157.851 27.229 157.851 24.4473C157.851 21.6656 155.576 19.391 152.795 19.391Z" fill="#3D3B33"/>
<path d="M163.061 24.5089L162.969 23.7558C162.969 23.6943 162.739 22.2189 161.233 21.804C160.679 21.6503 160.234 21.6657 159.895 21.8501C159.48 22.0806 159.342 22.5263 159.342 22.5417L159.142 23.2794L157.667 22.8798L157.867 22.1421C157.898 22.0345 158.174 21.0817 159.142 20.5284C159.834 20.1288 160.679 20.0673 161.647 20.3286C164.137 21.0202 164.475 23.4484 164.491 23.556L164.583 24.3091L163.061 24.5089Z" fill="#3D3B33"/>
<path d="M175.571 26.2147L175.494 25.7844L175.709 25.7383C176.401 25.6 177.108 25.5539 177.815 25.6153L178.03 25.6307L177.999 26.061L177.784 26.0457C177.123 25.9996 176.447 26.0303 175.802 26.1686L175.571 26.2147Z" fill="#141613"/>
<path d="M178.153 28.3971C177.293 28.3971 176.447 28.3049 175.602 28.1358L175.387 28.0897L175.479 27.6594L175.694 27.7055C176.54 27.8746 177.4 27.9361 178.246 27.9514H178.461V28.3817H178.246C178.215 28.3971 178.184 28.3971 178.153 28.3971Z" fill="#141613"/>
<path d="M177.831 30.8715L177.646 30.7639C176.955 30.3643 176.125 30.1799 175.31 30.2567L175.095 30.2721L175.064 29.8418L175.28 29.8264C176.186 29.7496 177.093 29.9493 177.862 30.395L178.046 30.5026L177.831 30.8715Z" fill="#141613"/>
<path d="M169.885 42.7822L169.716 42.6593C168.487 41.7525 167.887 40.2925 167.303 38.8786C166.704 37.4339 166.151 36.0661 164.967 35.2362L164.783 35.1133L165.029 34.7598L165.213 34.8827C166.504 35.7741 167.119 37.2649 167.703 38.7095C168.287 40.1234 168.84 41.4605 169.962 42.3058L170.131 42.4287L169.885 42.7822Z" fill="#141613"/>
<path d="M152.78 41.7217L152.396 41.5373L152.488 41.3375C153.302 39.6777 154.225 38.064 155.224 36.5117C155.685 35.8048 156.207 35.0671 157.006 34.729L157.206 34.6368L157.375 35.0364L157.175 35.1286C156.484 35.4206 156.007 36.0968 155.592 36.7576C154.593 38.2945 153.687 39.8928 152.872 41.5373L152.78 41.7217Z" fill="#141613"/>
<path d="M170.085 15.8102L169.885 15.7333C169.27 15.5028 168.579 15.4413 167.903 15.3645C166.965 15.2723 165.982 15.18 165.167 14.6421C165.044 14.5653 164.921 14.4577 164.798 14.3655C164.583 14.1965 164.383 14.0428 164.153 13.9506C163.815 13.8276 163.446 13.843 163.046 13.8583C162.785 13.8737 162.493 13.8891 162.216 13.8583C161.724 13.7969 161.279 13.5817 160.833 13.3819C160.618 13.2897 160.418 13.1821 160.203 13.1053C159.342 12.7825 158.389 12.7518 157.498 13.0131L157.298 13.0746L157.175 12.6596L157.375 12.5981C158.343 12.3061 159.404 12.3522 160.357 12.7057C160.587 12.7825 160.802 12.8901 161.017 12.9977C161.432 13.1975 161.832 13.3819 162.262 13.428C162.508 13.4588 162.754 13.4434 163.015 13.428C163.43 13.4127 163.876 13.3819 164.291 13.551C164.583 13.6586 164.829 13.843 165.059 14.0274C165.167 14.1196 165.29 14.1965 165.398 14.2733C166.12 14.7497 166.996 14.8419 167.933 14.9188C168.64 14.9803 169.363 15.0571 170.024 15.303L170.223 15.3798L170.085 15.8102Z" fill="#141613"/>
<path d="M169.347 12.7673L169.147 12.6751C168.855 12.5368 168.517 12.5521 168.164 12.5521C167.733 12.5675 167.303 12.5521 166.919 12.337C166.704 12.214 166.535 12.045 166.381 11.8913C166.335 11.8452 166.273 11.7837 166.227 11.7376C165.705 11.2304 164.982 10.9077 164.245 10.8462C164.029 10.8308 163.83 10.8308 163.615 10.8308C163.384 10.8308 163.138 10.8308 162.892 10.8155C162.185 10.754 161.54 10.4774 160.91 10.2161C160.741 10.1546 160.587 10.0778 160.418 10.0163C159.803 9.77039 158.881 9.4784 158.082 9.75503L157.882 9.81651L157.744 9.40155L157.943 9.34007C158.881 9.01733 159.895 9.34008 160.572 9.61671C160.741 9.67819 160.91 9.75504 161.079 9.81651C161.709 10.0778 162.293 10.3237 162.923 10.3851C163.138 10.4005 163.353 10.4005 163.599 10.4005C163.814 10.4005 164.045 10.4005 164.275 10.4159C165.121 10.4927 165.904 10.8462 166.519 11.4302C166.581 11.4763 166.627 11.5378 166.688 11.5993C166.827 11.753 166.965 11.8913 167.134 11.9835C167.426 12.1525 167.779 12.1525 168.179 12.1372C168.563 12.1372 168.978 12.1372 169.347 12.3062L169.547 12.3984L169.347 12.7673Z" fill="#141613"/>
<path d="M162.8 150.163L162.185 149.272L183.686 134.502C185.545 133.227 187.466 131.905 189.526 130.814C195.535 127.648 202.512 126.649 209.182 127.986L208.967 129.046C202.543 127.756 195.812 128.724 190.018 131.767C188.004 132.827 186.114 134.133 184.285 135.378L162.8 150.163Z" fill="white"/>
<path d="M140.392 116.49L140.223 115.43C155.315 112.986 169.27 103.873 177.584 91.0398L178.491 91.6238C170.023 104.703 155.776 114.001 140.392 116.49Z" fill="white"/>
<path d="M138.194 136.562L137.933 135.517C155.284 131.106 170.438 118.919 178.445 102.904L179.413 103.381C171.252 119.672 155.853 132.074 138.194 136.562Z" fill="white"/>
<path d="M96.0539 145.03C90.5981 140.496 85.0039 135.932 79.4097 131.459L80.0859 130.614C85.6801 135.086 91.2897 139.651 96.7455 144.2L96.0539 145.03Z" fill="white"/>
<path d="M183.01 163.964C180.735 162.658 178.891 160.798 177.047 158.846C173.527 155.112 170.1 151.208 166.888 147.243L167.733 146.567C170.946 150.517 174.342 154.405 177.846 158.109C179.629 159.999 181.412 161.797 183.563 163.027L183.01 163.964Z" fill="white"/>
<path d="M237.906 151.546C237.891 151.546 237.86 151.546 237.845 151.546L208.767 151.024C206.984 150.993 205.555 149.518 205.586 147.735C205.617 145.952 207.123 144.461 208.89 144.553L237.968 145.076C239.75 145.107 241.18 146.582 241.149 148.365C241.103 150.132 239.658 151.546 237.906 151.546Z" fill="#131314"/>
<path d="M239.397 146.013C239.397 146.013 242.271 141.941 238.767 140.973C235.263 140.004 197.487 138.729 197.487 138.729C197.487 138.729 192.461 148.98 196.918 149.225C201.375 149.471 211.103 144.553 211.103 144.553L239.397 146.013Z" fill="#3D3B33"/>
<path d="M173.988 302.774C173.881 302.774 174.081 302.789 173.988 302.774C172.206 302.605 170.592 301.022 170.761 299.239C171.084 295.827 177.462 237.165 188.804 202.355C195.935 180.485 219.618 148.011 220.632 146.644C221.693 145.199 223.706 144.892 225.151 145.952C226.595 147.012 226.903 149.041 225.842 150.47C225.596 150.793 201.744 183.482 194.951 204.353C183.84 238.471 177.277 298.993 177.2 299.823C177.047 301.514 175.633 302.774 173.988 302.774Z" fill="#131314"/>
<path d="M171.391 306.139L162.677 312.379L159.926 309.597L169.132 303.266L171.391 306.139Z" fill="#131314"/>
<path d="M172.805 280.228C162.523 279.675 153.671 288.466 153.056 299.869C152.442 311.288 160.28 320.986 170.561 321.554C180.843 322.108 189.68 313.317 190.295 301.898C190.909 290.494 183.087 280.781 172.805 280.228ZM161.832 310.397C159.957 307.338 159.05 303.511 159.511 299.485C159.972 295.566 161.647 292.123 164.06 289.603C166.458 287.098 170.484 285.576 174.019 285.376C174.035 285.361 174.035 285.361 174.035 285.361C174.065 285.361 174.065 285.346 174.096 285.346C174.204 285.346 174.311 285.33 174.403 285.33H174.465C181.273 287.067 185.853 294.352 184.916 302.436C183.978 310.535 177.815 316.575 170.822 316.667C167.518 315.668 163.568 313.255 161.832 310.397Z" fill="#131314"/>
<path d="M174.035 282.948C165.013 282.456 157.267 290.171 156.73 300.192C156.192 310.197 163.046 318.711 172.067 319.203C181.074 319.695 188.835 311.98 189.373 301.975C189.926 291.939 183.056 283.425 174.035 282.948ZM170.823 316.682C167.534 315.668 163.569 313.271 161.832 310.412C159.957 307.354 159.05 303.527 159.511 299.5C159.972 295.581 161.648 292.139 164.06 289.618C166.458 287.113 170.485 285.592 174.019 285.392C174.035 285.376 174.035 285.376 174.035 285.376C174.065 285.376 174.065 285.361 174.096 285.361C174.204 285.361 174.311 285.346 174.404 285.346H174.465C181.273 287.082 185.853 294.367 184.916 302.451C183.978 310.535 177.815 316.59 170.823 316.682Z" fill="#3D3B33"/>
<path d="M178.522 301.698L185.822 303.634L184.716 307.369L177.093 305.064L178.522 301.698Z" fill="#131314"/>
<path d="M173.374 317.574C172.022 317.574 170.792 317.359 169.808 317.021C169.593 316.944 169.486 316.713 169.547 316.498C169.624 316.283 169.855 316.175 170.07 316.237C172.329 317.005 175.971 317.113 179.429 315.115C182.027 313.624 185.408 310.366 186.791 303.358C188.02 297.164 184.993 291.555 182.027 288.635C179.813 286.452 177.37 285.407 175.48 285.791C175.249 285.838 175.034 285.699 174.988 285.469C174.942 285.254 175.08 285.023 175.31 284.977C177.477 284.516 180.213 285.669 182.611 288.035C185.715 291.109 188.896 296.995 187.605 303.496C186.161 310.812 182.595 314.224 179.844 315.806C177.646 317.097 175.372 317.574 173.374 317.574Z" fill="#131314"/>
<path d="M168.255 300.499C168.624 297.272 171.237 294.936 174.065 295.258C176.892 295.581 178.89 298.471 178.522 301.698C178.153 304.925 175.54 307.261 172.712 306.939C171.298 306.77 170.1 305.97 169.285 304.818C168.486 303.65 168.071 302.128 168.255 300.499Z" fill="#3D3B33"/>
<path d="M33.8258 269.9L32.7346 269.823C32.9959 266.319 39.1894 183.82 46.2898 173.554C53.4977 163.134 76.9964 151.469 87.3702 149.932L87.5239 151.008C82.483 151.746 74.0917 155.035 66.1768 159.353C57.2476 164.225 50.3318 169.635 47.1965 174.153C40.2499 184.189 33.8873 269.04 33.8258 269.9Z" fill="white"/>
</svg>
