<svg width="652" height="534" viewBox="0 0 652 534" fill="none" xmlns="http://www.w3.org/2000/svg">
<path fill-rule="evenodd" clip-rule="evenodd" d="M92.0694 178.753C109.758 135.909 139.852 94.1022 191.382 84.5677C241.865 75.227 297.914 112.233 352.636 130.541C405.63 148.27 461.737 154.787 506.104 189.861C554.885 228.424 605.42 280.247 606.909 331.551C608.384 382.406 549.26 403.787 513.255 436.265C486.221 460.65 461.198 485.806 423.297 497.178C384.596 508.79 341.094 516.189 296.85 501.198C253.189 486.404 222.212 449.512 188.747 417.704C153.563 384.263 114.139 352.746 97.5683 311.789C78.9872 265.864 75.7566 218.263 92.0694 178.753Z" fill="#CCFEBA"/>
<path fill-rule="evenodd" clip-rule="evenodd" d="M476.318 161.944C477.584 161.944 478.535 162.958 478.535 164.31C478.535 165.662 477.584 166.676 476.318 166.676C475.051 166.676 474.102 165.662 474.102 164.31C474.102 162.958 475.21 161.944 476.318 161.944Z" fill="#191919"/>
<path fill-rule="evenodd" clip-rule="evenodd" d="M468.876 161.944C470.143 161.944 471.093 162.958 471.093 164.31C471.093 165.662 470.143 166.676 468.876 166.676C467.61 166.676 466.66 165.662 466.66 164.31C466.66 162.958 467.768 161.944 468.876 161.944Z" fill="#191919"/>
<path fill-rule="evenodd" clip-rule="evenodd" d="M461.435 161.944C462.702 161.944 463.651 162.958 463.651 164.31C463.651 165.662 462.702 166.676 461.435 166.676C460.169 166.676 459.219 165.662 459.219 164.31C459.219 162.958 460.169 161.944 461.435 161.944Z" fill="#191919"/>
<path fill-rule="evenodd" clip-rule="evenodd" d="M461.435 161.944C462.702 161.944 463.651 162.958 463.651 164.31C463.651 165.662 462.702 166.676 461.435 166.676C460.169 166.676 459.219 165.662 459.219 164.31C459.219 162.958 460.169 161.944 461.435 161.944Z" fill="#191919"/>
<path fill-rule="evenodd" clip-rule="evenodd" d="M453.996 161.944C455.263 161.944 456.212 162.958 456.212 164.31C456.212 165.662 455.263 166.676 453.996 166.676C452.729 166.676 451.779 165.662 451.779 164.31C451.779 162.958 452.729 161.944 453.996 161.944Z" fill="#191919"/>
<path fill-rule="evenodd" clip-rule="evenodd" d="M446.555 161.944C447.821 161.944 448.771 162.958 448.771 164.31C448.771 165.662 447.821 166.676 446.555 166.676C445.288 166.676 444.338 165.662 444.338 164.31C444.338 162.958 445.288 161.944 446.555 161.944Z" fill="#191919"/>
<path fill-rule="evenodd" clip-rule="evenodd" d="M438.955 161.944C440.222 161.944 441.171 162.958 441.171 164.31C441.171 165.662 440.222 166.677 438.955 166.677C437.688 166.677 436.738 165.662 436.738 164.31C436.738 162.958 437.847 161.944 438.955 161.944Z" fill="#191919"/>
<path fill-rule="evenodd" clip-rule="evenodd" d="M476.318 161.944C477.584 161.944 478.535 162.958 478.535 164.31C478.535 165.662 477.584 166.676 476.318 166.676C475.051 166.676 474.102 165.662 474.102 164.31C474.102 162.958 475.21 161.944 476.318 161.944Z" fill="#191919"/>
<path fill-rule="evenodd" clip-rule="evenodd" d="M468.876 161.944C470.143 161.944 471.093 162.958 471.093 164.31C471.093 165.662 470.143 166.676 468.876 166.676C467.61 166.676 466.66 165.662 466.66 164.31C466.66 162.958 467.768 161.944 468.876 161.944Z" fill="#191919"/>
<path fill-rule="evenodd" clip-rule="evenodd" d="M461.435 161.944C462.702 161.944 463.651 162.958 463.651 164.31C463.651 165.662 462.702 166.676 461.435 166.676C460.169 166.676 459.219 165.662 459.219 164.31C459.219 162.958 460.169 161.944 461.435 161.944Z" fill="#191919"/>
<path fill-rule="evenodd" clip-rule="evenodd" d="M461.435 161.944C462.702 161.944 463.651 162.958 463.651 164.31C463.651 165.662 462.702 166.676 461.435 166.676C460.169 166.676 459.219 165.662 459.219 164.31C459.219 162.958 460.169 161.944 461.435 161.944Z" fill="#191919"/>
<path fill-rule="evenodd" clip-rule="evenodd" d="M453.996 161.944C455.263 161.944 456.212 162.958 456.212 164.31C456.212 165.662 455.263 166.676 453.996 166.676C452.729 166.676 451.779 165.662 451.779 164.31C451.779 162.958 452.729 161.944 453.996 161.944Z" fill="#191919"/>
<path fill-rule="evenodd" clip-rule="evenodd" d="M446.555 161.944C447.821 161.944 448.771 162.958 448.771 164.31C448.771 165.662 447.821 166.676 446.555 166.676C445.288 166.676 444.338 165.662 444.338 164.31C444.338 162.958 445.288 161.944 446.555 161.944Z" fill="#191919"/>
<path fill-rule="evenodd" clip-rule="evenodd" d="M438.955 161.944C440.222 161.944 441.171 162.958 441.171 164.31C441.171 165.662 440.222 166.677 438.955 166.677C437.688 166.677 436.738 165.662 436.738 164.31C436.738 162.958 437.847 161.944 438.955 161.944Z" fill="#191919"/>
<path fill-rule="evenodd" clip-rule="evenodd" d="M476.318 169.887C477.584 169.887 478.535 170.901 478.535 172.253C478.535 173.606 477.584 174.62 476.318 174.62C475.051 174.62 474.102 173.606 474.102 172.253C474.26 170.901 475.21 169.887 476.318 169.887Z" fill="#191919"/>
<path fill-rule="evenodd" clip-rule="evenodd" d="M468.876 169.887C470.143 169.887 471.093 170.901 471.093 172.253C471.093 173.606 470.143 174.62 468.876 174.62C467.61 174.62 466.66 173.606 466.66 172.253C466.66 170.901 467.768 169.887 468.876 169.887Z" fill="#191919"/>
<path fill-rule="evenodd" clip-rule="evenodd" d="M461.435 169.887C462.702 169.887 463.651 170.901 463.651 172.253C463.651 173.606 462.702 174.62 461.435 174.62C460.169 174.62 459.219 173.606 459.219 172.253C459.219 170.901 460.169 169.887 461.435 169.887Z" fill="#191919"/>
<path fill-rule="evenodd" clip-rule="evenodd" d="M461.435 169.887C462.702 169.887 463.651 170.901 463.651 172.253C463.651 173.606 462.702 174.62 461.435 174.62C460.169 174.62 459.219 173.606 459.219 172.253C459.219 170.901 460.169 169.887 461.435 169.887Z" fill="#191919"/>
<path fill-rule="evenodd" clip-rule="evenodd" d="M453.996 169.887C455.263 169.887 456.212 170.901 456.212 172.253C456.212 173.606 455.263 174.62 453.996 174.62C452.729 174.62 451.779 173.606 451.779 172.253C451.779 170.901 452.729 169.887 453.996 169.887Z" fill="#191919"/>
<path fill-rule="evenodd" clip-rule="evenodd" d="M446.555 169.887C447.821 169.887 448.771 170.901 448.771 172.253C448.771 173.606 447.821 174.62 446.555 174.62C445.288 174.62 444.338 173.606 444.338 172.253C444.338 170.901 445.288 169.887 446.555 169.887Z" fill="#191919"/>
<path fill-rule="evenodd" clip-rule="evenodd" d="M438.955 169.887C440.222 169.887 441.171 170.901 441.171 172.253C441.171 173.606 440.222 174.62 438.955 174.62C437.688 174.62 436.738 173.606 436.738 172.253C436.897 170.901 437.847 169.887 438.955 169.887Z" fill="#191919"/>
<path d="M186.96 165.031L171.959 181.046L175.765 185.109L190.766 169.094L186.96 165.031Z" fill="#33FF12"/>
<path d="M175.72 164.931L171.914 168.995L186.915 185.009L190.721 180.946L175.72 164.931Z" fill="#33FF12"/>
<path fill-rule="evenodd" clip-rule="evenodd" d="M273.67 389.269C273.67 389.269 209.393 397.551 182.796 360.03C156.357 322.847 172.822 245.776 191.978 218.226C222.692 173.944 446.87 166.17 467.135 226.339C487.4 286.677 273.67 389.269 273.67 389.269Z" fill="#33FF12"/>
<path fill-rule="evenodd" clip-rule="evenodd" d="M475.682 344.819C479.957 341.777 484.707 330.622 477.424 322.847C470.141 315.072 465.233 313.551 465.233 309.833C465.392 306.115 466.975 295.467 460.642 292.931C454.309 290.396 448.135 291.917 446.394 298.34C444.494 304.763 445.127 317.27 450.51 320.819C455.893 324.368 459.692 323.523 460.642 328.763C461.434 334.171 462.226 342.622 467.133 343.467C472.2 344.143 473.624 346.509 475.682 344.819Z" fill="white"/>
<path fill-rule="evenodd" clip-rule="evenodd" d="M472.516 349.044C474.733 347.523 483.282 335.692 475.999 328.086C468.717 320.312 462.067 317.777 462.067 314.058C462.226 310.34 463.809 299.692 457.476 297.157C451.302 294.621 444.969 296.143 443.228 302.565C441.328 308.988 441.961 321.495 447.344 325.044C452.727 328.593 456.526 327.748 457.476 333.157C458.268 338.565 459.059 347.016 463.967 347.861C468.875 348.368 470.142 350.397 472.516 349.044Z" fill="#33FF12"/>
<path fill-rule="evenodd" clip-rule="evenodd" d="M443.859 312.368C443.701 311.522 443.701 310.508 443.543 309.663C443.226 304.255 444.334 298.677 447.026 295.297C449.559 291.917 455.258 289.382 460.166 291.072C461.908 291.748 463.333 292.762 464.599 294.452C465.549 295.973 466.657 297.832 466.974 300.03C467.449 303.748 466.024 308.649 468.082 311.861C469.824 314.565 472.99 315.41 475.365 317.607C478.531 320.48 482.014 327.41 482.173 334.002C482.173 335.523 481.856 337.213 481.539 338.903C481.222 340.424 481.223 342.79 479.323 342.621C477.581 342.621 478.215 339.917 478.531 338.734C478.848 337.382 479.164 335.692 479.164 334.002C479.006 328.931 476.315 323.015 474.415 320.649C471.09 316.762 465.549 316.255 464.283 310.001C463.491 306.283 464.599 303.072 463.966 299.861C463.491 297.325 461.591 294.621 459.85 293.776C457 292.593 453.2 293.607 451.142 295.128C448.609 296.987 447.184 300.368 446.709 304.424C446.234 308.48 446.551 313.551 448.609 316.762C450.509 319.804 455.258 320.142 457.95 322.17C460.008 323.692 461.275 326.227 461.908 329.438C462.383 331.297 462.541 334.002 463.333 335.692C465.232 339.748 469.349 342.621 474.415 342.452C473.307 330.452 467.924 326.058 461.591 321.325C458.742 319.297 455.575 317.607 454.942 312.537C454.625 310.339 454.309 304.931 456.367 304.762C458.108 304.762 457.791 307.128 457.791 308.987C457.791 310.846 457.792 313.213 458.425 314.565C459.375 316.593 461.908 317.776 463.649 318.959C469.19 323.015 474.256 327.241 476.315 336.199C477.581 341.776 478.056 349.382 479.006 355.466C479.481 358.678 479.798 362.058 480.114 365.438C480.431 367.804 481.698 373.551 479.323 373.889C477.265 374.058 477.581 370.002 477.265 367.973C476.315 360.03 475.523 352.931 474.415 345.664C471.09 345.833 468.241 344.987 465.866 343.297C463.808 341.776 461.433 339.579 460.325 336.875C458.9 333.325 459.058 328.086 456.683 325.551C454.783 323.354 450.984 322.847 448.451 321.156C445.918 319.635 444.809 316.931 443.859 312.368Z" fill="#191919"/>
<path d="M496.583 351.917C498.483 351.917 505.766 350.227 510.515 342.96C515.265 335.692 512.574 327.748 515.74 325.382C518.906 322.847 523.972 322.678 526.189 319.804C528.405 316.931 534.105 309.326 529.989 302.058C525.872 294.79 518.748 291.072 514.79 294.114C510.832 297.157 509.249 302.903 506.557 305.438C503.866 308.142 498.958 309.664 497.058 314.396C495.159 319.128 496.267 325.213 494.684 328.255C493.1 331.467 491.676 332.143 491.676 338.058C491.676 344.143 494.684 351.917 496.583 351.917Z" fill="white"/>
<path fill-rule="evenodd" clip-rule="evenodd" d="M492.941 348.706C494.841 348.706 502.123 347.016 506.873 339.748C511.622 332.481 508.931 324.537 512.097 322.171C515.264 319.636 520.33 319.467 522.547 316.593C524.763 313.72 530.462 306.114 526.346 298.847C522.23 291.579 515.105 287.861 511.147 290.903C507.189 293.945 505.606 299.523 502.915 302.227C500.223 304.931 495.316 306.452 493.416 311.185C491.516 315.917 492.624 322.002 491.041 325.044C489.458 328.255 488.033 328.931 488.033 334.847C488.033 340.932 490.883 348.875 492.941 348.706Z" fill="#33FF12"/>
<path fill-rule="evenodd" clip-rule="evenodd" d="M490.25 340.086C490.25 338.903 490.25 337.551 490.25 336.368C490.883 331.974 492.941 329.946 493.891 326.396C494.683 323.523 494.367 320.819 494.841 318.114C495.633 312.706 498.641 310.002 501.966 307.297C503.549 305.945 505.607 304.931 506.873 303.241C508.615 300.875 508.932 298.002 510.673 295.973C514.156 292.086 520.489 290.396 525.238 293.438C527.613 294.959 529.513 297.326 531.096 300.03C532.679 302.734 533.629 306.452 532.521 310.34C531.254 314.734 528.246 320.143 524.763 322.509C522.389 324.199 517.164 324.368 515.739 326.903C513.365 330.96 514.631 338.396 512.573 342.791C511.465 344.988 509.09 347.016 507.032 348.537C504.024 350.565 501.016 352.086 496.741 352.594C496.425 364.256 496.583 376.087 497.058 387.58C497.058 389.27 497.216 390.96 495.475 390.791C494.366 390.622 494.208 389.777 494.208 387.918C494.05 383.692 493.733 378.96 493.733 375.411C493.733 369.664 493.258 364.256 493.575 358.509C493.733 352.594 493.733 347.692 495.633 343.636C497.533 339.748 500.541 337.044 502.124 333.326C503.707 329.776 503.074 324.368 504.341 320.819C505.29 317.945 507.348 316.086 509.565 314.565C510.673 313.72 512.098 313.213 513.365 312.03C514.156 311.354 514.789 310.171 515.581 308.819C516.214 307.804 516.689 306.114 518.114 306.283C520.806 306.452 518.906 309.833 517.956 311.354C517.322 312.537 516.531 313.72 515.581 314.565C512.731 317.1 508.932 317.946 507.507 320.988C506.24 323.523 506.557 327.241 506.082 329.777C504.657 338.227 498.324 340.932 496.899 349.044C500.066 348.706 502.124 347.692 504.341 346.34C506.399 345.157 508.773 343.298 509.723 341.27C511.94 336.875 510.357 329.777 512.573 325.382C513.206 324.199 514.156 323.185 515.264 322.509C517.481 321.157 520.805 320.819 522.705 319.636C524.288 318.622 525.713 316.424 526.822 314.734C527.93 312.706 529.038 310.847 529.513 308.481C530.305 303.748 527.138 299.861 524.922 297.664C524.13 296.988 523.339 296.143 522.389 295.805C518.589 294.114 514.314 296.312 512.573 298.509C510.99 300.368 510.673 303.072 509.248 305.1C506.557 309.157 501.174 310.509 498.641 315.072C497.058 317.946 497.533 323.016 496.583 327.072C495.633 330.622 493.575 333.157 493.1 336.199C492.625 338.396 492.941 340.593 493.416 343.298C493.575 344.65 494.366 347.185 492.625 347.354C490.092 347.185 490.883 342.284 490.25 340.086Z" fill="#191919"/>
<path d="M488.033 312.368C485.975 314.565 484.55 320.142 480.592 316.255C476.634 312.368 474.418 306.621 474.26 299.523C474.101 292.593 472.993 290.058 468.877 285.156C464.602 280.255 457.795 269.438 459.219 259.466C460.644 249.494 466.185 241.381 463.81 235.804C461.436 230.057 456.686 223.635 459.536 219.916C462.386 216.198 468.243 206.733 472.518 207.578C476.793 208.423 490.566 217.381 493.099 232.424C495.632 247.466 493.099 255.072 491.675 258.621C490.25 262.17 488.508 269.438 491.041 275.184C493.416 280.931 498.799 287.523 496.899 297.494C495.157 307.297 490.091 310.17 488.033 312.368Z" fill="white"/>
<path fill-rule="evenodd" clip-rule="evenodd" d="M483.44 315.072C481.382 317.269 479.957 322.846 475.999 318.959C472.041 315.072 469.825 309.325 469.666 302.226C469.508 295.297 468.4 292.762 464.284 287.86C460.009 282.959 453.201 272.142 454.626 262.17C456.051 252.198 461.592 244.085 459.217 238.508C456.843 232.761 452.093 226.339 454.784 222.62C457.634 218.902 463.65 209.437 467.766 210.282C471.883 211.127 485.815 220.085 488.506 235.127C491.039 250.17 488.506 257.775 487.081 261.325C485.656 264.874 483.915 271.973 486.448 277.888C488.823 283.804 494.206 290.226 492.464 300.198C490.723 310.001 485.656 313.043 483.44 315.072Z" fill="#33FF12"/>
<path fill-rule="evenodd" clip-rule="evenodd" d="M457.635 226.846C457.635 226.17 457.635 225.663 457.635 224.987C458.426 220.93 460.009 217.719 461.909 214.677C463.651 211.804 465.709 208.423 468.559 206.902C473.466 204.367 479.007 209.437 481.857 212.142C485.34 215.353 488.665 218.733 490.882 223.297C494.048 229.719 496.264 238.508 496.264 248.48C496.264 257.945 489.615 264.198 491.99 273.663C493.256 279.241 496.264 282.452 498.164 287.86C500.064 293.438 498.639 301.043 497.056 305.269C495.314 309.494 492.623 312.537 489.456 315.241C488.823 315.748 488.348 315.917 488.19 316.424C487.715 317.607 487.873 319.466 487.557 320.987C486.132 331.973 484.865 342.79 484.865 355.297C484.865 367.804 485.498 378.621 486.29 390.79C486.448 392.65 486.448 394.509 485.023 394.509C483.757 394.509 483.44 392.819 483.282 390.959C482.491 378.959 481.857 367.804 481.857 355.466C481.857 340.762 483.44 328.762 485.023 316.424C485.815 310.17 486.765 303.072 486.449 296.987C485.974 287.184 481.699 280.762 478.374 273.832C477.266 271.466 476.316 268.931 476.158 265.55C476 262.17 476.633 259.297 477.424 256.592C478.216 254.057 479.324 251.184 479.324 247.973C479.324 245.099 478.691 242.226 478.216 239.522C477.899 237.832 475.841 232.93 477.899 232.423C479.166 232.085 479.641 233.268 480.116 235.128C481.066 239.015 482.332 243.409 482.174 248.311C481.857 255.41 478.374 258.79 478.849 265.55C479.166 269.945 481.541 273.325 483.124 276.874C486.132 282.959 489.298 289.213 489.298 298.17C489.298 302.565 488.982 306.959 488.507 311.015C488.823 311.184 489.14 310.677 489.298 310.508C491.515 308.48 493.256 306.114 494.364 302.903C495.631 299.522 496.581 294.283 495.473 289.889C494.523 286.001 492.465 283.128 490.882 279.748C489.457 276.536 488.032 273.156 488.348 268.086C488.507 263.691 490.09 260.311 491.356 256.931C492.623 253.381 493.414 250.001 493.098 244.761C492.781 236.142 490.565 228.367 487.082 222.451C485.34 219.578 483.124 217.381 480.591 215.015C478.374 212.818 475.525 209.944 472.516 209.268C472.042 209.099 471.408 209.099 470.933 209.099C468.084 209.437 465.709 213.494 464.126 216.029C463.176 217.55 462.543 218.902 461.909 220.423C461.276 222.114 460.484 223.973 460.484 225.832C460.642 228.029 462.384 230.057 463.334 231.578C464.442 233.268 465.392 235.297 465.551 237.832C465.709 240.705 464.759 243.578 463.967 246.114C463.176 248.649 462.226 251.184 461.593 253.55C460.01 259.128 460.801 265.719 462.384 270.79C464.601 277.719 469.825 283.128 473.467 288.874C474.733 290.903 476.158 293.269 476.316 295.804C476.633 299.522 475.525 302.734 476.158 305.776C476.949 309.663 479.483 312.706 481.699 315.41C482.491 316.424 483.282 317.945 482.332 318.79C481.066 319.804 479.799 318.283 479.008 317.1C478.216 315.917 477.424 314.903 476.791 313.889C475.683 312.198 474.1 309.663 473.308 306.79C472.516 303.579 473.625 300.029 473.467 296.818C473.308 293.269 471.25 290.903 469.667 288.536C465.709 282.621 461.434 278.057 459.059 270.114C457.635 265.212 457.318 258.114 458.743 252.874C459.376 250.508 460.168 248.142 460.959 245.438C461.751 243.071 462.859 240.029 462.542 237.156C462.226 233.437 458.11 231.409 457.635 226.846Z" fill="#191919"/>
<path d="M499.748 365.438H473.942C471.25 365.438 469.667 369.326 470.142 373.72L473.625 401.777C473.942 404.481 475.842 406.509 477.742 406.678L496.106 406.34C498.006 406.34 499.906 404.312 500.223 401.608L503.547 373.889C504.339 369.326 502.597 365.438 499.748 365.438Z" fill="white"/>
<path d="M477.9 408.199C475.209 408.199 472.834 405.326 472.359 401.946L468.876 373.889C468.401 370.509 469.193 367.467 470.618 365.607C471.568 364.424 472.676 363.917 474.101 363.917H499.907C501.173 363.917 502.44 364.593 503.39 365.777C504.973 367.636 505.606 370.847 505.289 374.227L501.965 401.946C501.49 405.495 498.957 408.03 496.424 408.03L477.9 408.199ZM474.101 367.129C473.626 367.129 473.309 367.298 472.993 367.805C472.043 368.988 471.568 371.185 471.885 373.551L475.368 401.608C475.684 403.636 476.951 404.988 478.059 405.157L496.424 404.819C497.532 404.819 498.799 403.467 499.115 401.439L502.44 373.72C502.756 371.354 502.281 368.988 501.332 367.805C500.857 367.298 500.54 367.129 500.065 367.129H474.101Z" fill="#191919"/>
<path fill-rule="evenodd" clip-rule="evenodd" d="M503.389 359.354L470.776 359.185C468.401 359.185 466.026 361.382 465.393 364.255L465.077 365.776C464.443 368.818 466.027 371.523 468.718 371.523H505.606C508.297 371.523 509.881 368.818 509.089 365.776L508.772 364.255C508.139 361.551 505.764 359.354 503.389 359.354Z" fill="white"/>
<path d="M505.449 373.213H468.561C466.978 373.213 465.395 372.537 464.445 371.185C463.336 369.663 463.02 367.635 463.495 365.438L463.812 363.917C464.603 360.367 467.611 357.663 470.619 357.663L503.233 357.832C506.241 357.832 509.249 360.537 510.04 364.086L510.357 365.607C510.832 367.635 510.515 369.832 509.407 371.185C508.457 372.537 507.032 373.213 505.449 373.213ZM470.777 360.875C469.036 360.875 467.294 362.565 466.819 364.593L466.503 366.114C466.186 367.297 466.345 368.311 466.978 369.156C467.453 369.663 467.928 370.002 468.72 370.002H505.607C506.241 370.002 506.874 369.663 507.349 369.156C507.824 368.48 507.982 367.297 507.824 366.114L507.507 364.593C507.032 362.565 505.291 360.875 503.549 360.875H470.777Z" fill="#191919"/>
<path fill-rule="evenodd" clip-rule="evenodd" d="M317.842 405.326H456.529C456.529 405.326 474.894 402.283 474.102 389.269C473.311 376.255 466.345 365.269 460.012 358.509C453.679 351.748 451.463 347.692 451.463 347.692C451.463 347.692 456.054 339.241 453.996 333.663C451.938 328.086 444.18 324.368 444.18 324.368C444.18 324.368 448.771 311.184 444.813 306.452C440.855 301.719 431.831 298.001 427.082 296.311C422.491 294.621 415.683 290.903 418.058 280.762C420.432 270.621 415.524 259.128 407.925 252.536C400.326 245.945 390.035 242.057 385.603 243.24C381.17 244.423 378.003 246.79 375.628 245.945C373.254 245.099 370.72 241.55 366.446 242.902C359.955 244.93 358.372 251.691 358.372 251.691C358.372 251.691 353.306 249.325 349.031 252.198C344.756 255.071 340.323 259.973 340.957 265.888C341.59 271.804 346.181 276.367 346.181 276.367C346.181 276.367 340.165 292.593 331.299 296.987C322.275 301.381 313.726 311.353 314.201 319.128C314.676 326.903 324.175 341.607 324.175 341.607L303.594 382.171L317.842 405.326Z" fill="white"/>
<path fill-rule="evenodd" clip-rule="evenodd" d="M322.116 341.269C322.116 341.269 329.715 330.79 333.04 328.255C339.848 322.847 346.181 325.551 346.181 325.551L353.463 314.903C353.463 314.903 348.872 311.185 345.705 310.171C342.539 309.157 340.323 308.649 340.639 306.452C340.956 304.255 341.748 293.776 343.331 292.762C344.756 291.748 346.181 292.762 346.181 292.762C346.181 292.762 346.814 286.508 348.714 287.015C350.614 287.353 352.197 289.382 352.197 289.382C352.197 289.382 354.097 284.987 357.105 282.283C360.113 279.579 362.171 278.565 362.171 278.565L363.279 270.621C363.279 270.621 370.403 263.015 371.195 262.001C371.986 260.987 381.169 264.537 386.393 271.466C391.618 278.396 395.259 280.931 395.259 280.931L397.476 281.1L394.626 290.396C394.626 290.396 401.275 289.551 400.8 293.776C400.484 298.001 400.642 300.199 396.526 300.537C392.568 300.875 389.718 301.213 389.718 301.213L386.71 303.748L388.135 318.452C388.135 318.452 403.333 313.213 411.882 315.241C420.273 317.1 422.806 317.607 428.031 322.678C433.255 327.748 450.354 347.016 450.354 347.016C450.354 347.016 456.37 338.734 452.887 331.804C449.404 325.044 444.18 325.213 444.18 325.213C444.18 325.213 447.346 311.354 444.338 306.283C441.171 301.213 433.73 298.847 427.081 295.804C420.432 292.762 416.949 290.565 417.424 283.297C417.74 276.03 420.748 263.86 410.299 254.734C399.85 245.438 393.518 243.579 387.343 243.748C381.169 243.917 377.527 247.297 374.678 245.945C371.828 244.593 368.662 242.058 363.912 244.593C359.163 247.128 357.579 252.537 357.579 252.537C357.579 252.537 351.722 248.311 346.339 254.565C340.956 260.987 339.373 264.198 340.798 268.255C342.223 272.311 345.864 277.551 345.864 277.551C345.864 277.551 340.165 293.438 333.99 296.142C327.816 299.016 314.359 308.311 313.725 317.269C312.3 332.65 322.116 341.269 322.116 341.269Z" fill="#191919"/>
<path fill-rule="evenodd" clip-rule="evenodd" d="M424.547 361.213C424.547 361.213 427.713 356.48 431.196 352.424C438.953 343.466 447.819 344.649 447.819 344.649C447.819 344.649 429.138 321.663 422.172 319.297C415.364 316.762 407.923 316.593 407.923 316.593C407.923 316.593 401.907 321.325 399.691 326.903C397.474 332.48 395.1 345.495 395.1 345.495C395.1 345.495 399.849 339.917 403.016 339.579C406.182 339.241 413.306 342.452 414.414 343.297C415.681 344.48 424.547 361.213 424.547 361.213Z" fill="#33FF12"/>
<path fill-rule="evenodd" clip-rule="evenodd" d="M371.352 328.762C372.46 328.424 390.667 324.198 390.667 324.198L386.075 337.551L363.119 342.621C363.277 342.452 370.244 328.931 371.352 328.762Z" fill="#33FF12"/>
<path fill-rule="evenodd" clip-rule="evenodd" d="M446.238 324.874C450.829 326.227 453.996 328.931 455.579 333.494C457.32 338.565 454.787 343.635 453.046 347.691C457.795 353.776 462.703 359.354 467.453 365.776C469.669 368.818 471.727 372.03 473.31 376.255C474.735 380.311 476.16 384.875 475.844 390.283C475.369 397.044 471.252 401.269 466.503 403.805C460.961 406.678 454.312 406.002 448.138 404.142C442.28 402.452 437.372 400.086 433.098 396.706C428.982 393.326 425.498 389.438 421.857 385.213C415.049 385.044 412.675 380.311 409.35 376.424C405.709 375.579 403.334 373.382 401.592 370.677C398.584 369.325 393.201 368.48 390.827 366.283C389.402 365.1 387.977 361.889 389.085 359.522C390.035 357.494 392.727 357.494 395.102 356.818C390.035 356.649 392.093 347.861 394.468 345.832C394.943 339.41 395.576 333.663 397.476 328.593C399.218 323.691 402.859 320.311 405.55 316.931C403.334 317.269 401.117 317.1 399.218 317.776C398.109 318.283 396.051 319.973 395.102 320.818C393.043 322.846 391.619 326.734 390.352 329.945C389.877 331.128 389.402 332.48 388.769 333.832C388.294 335.015 387.819 337.044 387.027 337.551C386.077 338.227 382.594 338.734 381.328 338.903C375.311 340.086 369.77 341.438 363.596 342.452C359.321 348.537 355.522 354.283 351.406 360.537C350.931 361.382 350.298 362.734 349.189 362.565C348.398 362.565 347.923 362.058 347.764 361.551C347.448 360.03 350.139 356.987 350.773 356.142C357.58 346.001 363.913 336.029 370.879 325.719C371.987 324.029 373.412 322.001 374.045 320.48C375.312 316.931 374.52 313.381 372.62 311.522C369.295 308.311 363.913 306.283 359.48 304.086C358.055 303.41 355.522 302.395 355.364 301.381C355.047 300.198 356.155 299.015 356.472 298.001C357.263 296.142 358.213 294.79 357.422 292.255C355.68 293.269 355.205 295.128 353.939 296.987C353.147 298.339 350.772 300.367 350.931 302.226C351.089 303.409 352.672 304.424 354.097 305.269C355.364 306.114 358.846 307.128 357.263 309.156C356.63 309.832 355.047 309.663 354.73 308.987C354.097 309.494 354.097 310.001 353.305 310.001C352.355 310.17 351.089 309.325 350.297 308.987C351.406 310.001 353.147 311.015 355.047 312.198C356.314 313.043 359.321 314.565 359.163 316.255C359.005 318.114 356.63 317.776 355.839 316.593C342.54 331.804 329.874 347.184 316.892 363.072C313.726 366.959 310.56 371.016 307.552 375.072C305.177 378.283 303.435 380.987 302.486 385.72C300.744 394.171 304.702 400.424 310.718 402.283C310.876 402.283 311.509 402.452 311.668 402.452C315.467 402.959 318.634 401.945 322.592 401.1C324.492 400.762 325.6 400.424 327.658 399.917C328.925 399.579 331.616 398.734 331.774 400.593C331.933 402.79 327.499 403.128 325.916 403.466C323.383 404.142 321.167 404.481 318.792 404.988C316.417 405.326 313.251 405.833 311.035 405.495C308.818 405.157 306.76 403.973 305.177 402.79C302.011 400.424 299.319 396.537 299.002 391.466C298.686 386.058 300.427 381.156 302.327 376.931C303.752 373.889 305.494 371.015 307.235 368.142C312.143 359.522 316.892 351.072 322.117 342.452C318.159 337.044 315.151 331.973 313.726 324.198C312.143 315.41 315.943 309.325 319.901 304.593C321.959 302.057 324.017 300.029 326.708 298.339C329.399 296.649 332.408 295.635 334.941 293.438C337.157 291.409 338.899 288.367 340.482 285.663C342.223 282.79 343.648 279.917 345.231 277.043C343.49 273.325 340.482 270.114 340.323 265.212C340.165 261.156 342.223 257.269 344.44 254.226C347.29 250.339 352.356 248.311 357.422 250.508C358.53 246.113 362.805 242.564 367.237 241.719C370.879 241.043 372.62 243.747 375.628 244.085C377.37 244.254 378.953 243.578 380.536 243.071C382.119 242.564 383.702 242.395 385.444 242.057C389.244 241.55 392.093 242.226 395.26 243.24C400.959 244.93 406.184 248.142 410.142 251.86C414.416 255.747 417.424 260.142 419.482 266.226C420.591 269.438 420.907 272.818 420.432 276.705C419.957 280.254 418.374 285.663 419.799 289.212C421.699 293.438 427.557 294.621 432.306 296.142C433.889 296.649 435.314 297.494 436.581 298.17C439.747 299.691 442.122 300.874 444.18 303.579C446.08 305.945 447.663 308.987 447.979 312.874C447.979 317.776 446.871 321.156 446.238 324.874ZM453.204 337.889C453.521 334.001 450.987 330.79 449.088 329.607C448.296 329.1 447.03 328.593 445.763 328.255C444.338 327.748 443.072 327.41 442.913 326.396C442.755 325.212 443.705 322.677 444.022 320.987C444.338 319.128 444.813 316.931 444.813 315.072C444.813 308.649 440.697 304.593 436.264 302.565C434.681 301.888 432.939 300.874 431.515 300.367C424.549 297.832 416.474 296.48 415.841 288.198C415.524 281.945 417.899 276.705 416.949 271.297C416.157 266.564 413.624 262.001 411.091 258.79C408.4 255.578 405.234 252.705 401.276 250.508C397.476 248.311 392.885 246.452 387.66 246.113C382.911 245.775 379.903 248.311 375.47 248.142C374.045 248.142 372.937 247.635 371.828 247.128C370.404 246.451 369.137 245.437 367.237 245.606C365.179 245.944 361.38 248.649 360.588 250.17C359.955 251.353 360.43 254.564 358.688 254.902C358.055 255.071 357.263 254.564 356.472 254.226C353.305 253.043 349.506 253.55 347.448 255.747C345.548 257.606 343.648 261.156 343.173 264.367C342.54 268.762 345.231 272.48 346.815 275.015C347.29 275.86 348.081 276.874 348.081 277.719C348.081 279.071 346.656 280.931 346.181 282.114C345.389 283.466 344.598 284.987 343.965 286.17C340.64 291.916 337.632 296.818 331.932 299.522C329.083 300.874 326.55 302.226 324.333 304.593C320.375 308.818 315.467 313.72 316.101 321.832C316.734 329.438 319.9 335.015 323.542 340.086C326.55 335.522 328.291 330.959 332.091 327.748C334.941 325.382 338.582 323.86 342.698 323.015C343.965 322.846 345.864 322.846 346.973 322.339C348.081 321.832 349.189 319.973 349.981 318.959C351.089 317.607 352.039 316.593 352.83 315.41C351.089 314.565 349.664 313.043 347.448 311.86C345.39 310.846 342.856 310.677 341.115 309.325C337.79 306.959 339.69 300.705 340.798 296.818C341.59 294.283 342.382 289.55 345.865 290.226C346.339 287.015 349.664 284.649 352.989 286.508C353.939 283.466 356.314 280.931 358.688 279.24C359.48 278.733 360.588 277.381 362.013 277.55C362.804 277.719 363.121 278.564 363.121 279.24C362.963 280.254 361.696 280.931 360.746 281.607C359.796 282.283 358.688 282.959 358.055 283.635C356.155 285.663 355.68 288.367 354.414 290.564C355.205 289.381 357.263 289.043 358.371 289.55C361.538 291.24 359.955 298.17 358.213 300.367C361.221 301.888 364.704 303.241 367.871 305.1C368.979 305.776 370.087 306.79 370.879 306.959C371.829 307.128 372.937 306.621 374.045 306.452C376.578 306.114 378.003 305.607 379.903 304.762C381.169 304.255 384.019 302.564 383.861 305.438C383.702 307.128 381.011 307.635 379.744 308.142C378.003 308.818 376.262 309.325 374.362 309.663C374.678 310.508 375.47 311.184 375.945 312.029C376.578 313.212 376.895 314.565 377.053 315.917C377.37 319.635 376.103 322.17 374.837 324.198C374.52 324.874 373.887 325.551 373.887 326.058C379.744 325.72 384.652 324.367 389.718 323.184C390.193 322.001 391.143 320.818 391.46 319.973C390.194 320.311 389.244 320.987 387.502 320.987C386.394 320.48 386.552 318.959 386.394 317.607C386.236 314.734 386.077 312.029 385.919 308.987C385.761 307.466 385.444 305.945 385.761 304.931C385.919 304.255 386.71 303.241 387.344 302.396C387.819 301.719 388.61 300.536 389.243 300.367C390.035 300.198 391.143 300.536 392.252 300.536C393.36 300.705 394.468 300.705 395.418 300.705C397.001 300.536 399.376 298.339 399.534 296.649C399.692 294.959 398.901 293.776 398.109 293.438C396.526 292.593 393.043 293.607 392.885 291.41C392.885 290.734 393.202 289.888 393.518 289.212C394.468 287.015 395.418 285.156 396.051 282.959C393.201 282.452 392.252 280.592 390.352 278.564C389.56 277.719 387.66 275.184 386.552 274.846C384.652 274.339 381.803 275.522 381.961 272.987C381.961 272.142 382.594 271.635 383.544 271.635C381.803 269.099 378.478 266.902 375.312 265.55C373.254 264.536 371.829 263.691 369.771 264.874C369.296 265.212 368.504 265.888 368.662 266.226C374.52 265.55 378.161 269.776 378.003 275.691C378.003 281.438 374.045 286.339 368.187 286.001C368.504 287.522 369.454 290.395 367.237 290.395C366.288 290.395 365.812 289.381 365.496 287.86C365.179 286.677 364.546 285.325 364.704 284.311C365.021 282.79 366.763 283.128 368.187 283.128C369.296 283.128 370.562 282.959 371.67 282.452C374.52 280.931 376.262 274.677 373.57 271.466C372.779 270.452 371.354 269.607 369.771 269.607C368.346 269.607 367.237 270.452 366.129 271.128C365.338 271.466 364.229 272.48 363.121 272.311C360.905 271.973 362.488 269.438 363.121 268.593C364.388 266.733 365.971 264.198 367.712 263.015C368.662 262.339 371.037 261.325 372.304 261.494C373.412 261.663 374.837 262.508 375.786 263.015C377.053 263.522 378.161 264.198 379.111 264.874C384.336 267.916 388.452 273.156 392.41 277.381C393.36 278.395 394.151 279.578 394.943 280.085C396.526 280.931 397.951 280.762 398.426 282.283C399.218 284.987 396.526 288.029 396.051 290.564C399.851 290.564 402.7 294.114 401.909 298.17C400.959 302.734 395.735 305.945 389.877 304.255C389.244 304.931 388.61 305.776 388.135 306.621C388.452 310.339 388.61 314.395 388.927 318.114C395.26 316.255 401.751 314.734 409.033 315.241C415.999 315.748 422.174 317.945 426.765 321.156C431.198 324.367 434.681 329.269 438.48 333.325C442.438 337.551 446.08 342.114 449.879 346.17C451.621 342.452 452.887 340.762 453.204 337.889ZM348.872 291.24C347.922 293.776 346.973 295.973 346.181 298.508C345.864 299.691 345.073 301.55 345.231 302.565C345.39 303.917 348.239 305.438 349.189 305.607C346.973 303.917 348.398 300.198 349.347 298.677C349.664 298.001 350.297 297.325 350.614 296.649C351.089 295.466 351.247 293.945 351.406 292.931C351.564 291.747 352.039 290.226 351.247 289.043C349.822 288.705 349.347 290.057 348.872 291.24ZM346.023 307.804C346.656 307.973 346.339 307.804 345.865 307.466C344.598 306.621 343.806 305.945 342.54 303.917C341.59 306.621 344.598 307.635 346.023 307.804ZM405.075 322.508C403.65 324.198 402.384 325.889 401.276 327.748C398.901 331.804 398.426 336.706 397.476 342.452C397.951 342.79 398.109 342.114 398.426 341.776C399.376 340.762 400.643 339.748 401.751 339.241C404.759 338.058 408.084 339.748 410.933 340.424C413.308 341.1 415.524 341.607 417.108 342.452C419.957 347.522 422.807 352.762 425.657 358.001C427.873 354.621 430.565 351.579 433.731 349.044C436.739 346.677 440.064 343.804 444.972 343.635C440.539 338.058 435.472 332.818 430.565 327.41C425.657 321.832 419.166 318.452 409.825 317.776C408.083 318.959 406.658 320.649 405.075 322.508ZM331.774 332.311C330.191 334.339 328.924 336.874 327.499 339.241C323.225 346.339 319.109 354.114 314.993 361.044C314.834 361.551 315.626 360.537 315.626 360.368C324.808 349.044 334.149 337.889 343.49 326.903C343.806 326.565 344.281 326.057 344.123 325.888C339.057 326.903 334.624 328.762 331.774 332.311ZM371.987 329.607C369.929 332.987 367.712 336.029 365.654 339.41C372.145 338.058 378.478 336.706 384.969 335.353C386.077 332.48 387.502 329.438 388.452 326.734C383.386 328.255 378.003 329.269 371.987 329.607ZM429.298 364.593C438.797 367.804 448.138 370.846 457.795 374.058C459.062 374.565 460.962 374.903 461.12 376.086C461.437 379.297 457.32 377.269 455.737 376.762C447.346 374.058 439.747 371.354 431.515 368.649C430.248 368.142 428.348 367.804 427.398 367.297C426.923 366.959 426.131 365.438 425.657 364.593C421.857 357.832 418.374 351.241 414.733 344.818C413.15 344.311 411.408 343.804 409.667 343.297C407.925 342.79 406.025 341.945 404.442 341.776C401.909 341.438 400.009 343.973 398.584 345.663C396.526 347.861 394.31 350.058 394.785 353.945C396.051 354.621 396.685 353.269 397.476 352.762C398.426 352.086 399.534 351.748 400.801 351.241C401.909 350.227 402.384 347.692 404.126 347.354C404.917 347.184 406.659 347.353 407.608 347.522C408.4 347.691 408.717 348.199 409.192 348.199C410.458 348.199 415.683 344.818 415.366 348.368C415.208 349.889 412.991 350.058 411.566 350.565C408.4 351.579 405.708 352.593 402.7 353.776C401.592 354.283 399.059 354.959 398.584 355.804C397.951 357.325 398.901 359.016 399.218 360.706C402.859 359.185 406.975 357.325 410.933 355.804C412.2 355.297 416.157 352.762 416.157 355.804C416.157 357.156 413.783 358.001 412.833 358.339C408.558 360.199 404.601 361.72 400.643 363.579C401.118 364.593 401.434 365.776 402.384 366.283C405.709 364.931 409.825 363.241 413.466 361.72C414.733 361.213 418.532 359.015 418.374 362.058C418.216 363.41 416.157 363.917 415.366 364.255C411.408 365.945 407.767 367.466 404.126 368.987C404.759 370.001 405.55 371.523 407.133 372.368C408.717 373.213 411.725 374.396 413.308 373.889C414.1 373.551 414.574 372.368 415.049 371.523C414.099 370.508 412.041 370.677 412.041 368.818C412.041 366.621 414.416 367.466 415.524 368.142C416.158 368.48 416.949 368.818 417.424 369.325C418.057 370.002 418.374 371.354 418.691 372.199C419.324 373.551 419.957 374.396 419.799 375.41C419.482 377.438 416.632 376.762 416.632 374.903C415.683 375.579 415.208 376.762 413.783 376.931C415.366 379.297 417.108 381.326 420.432 382.002C421.382 382.171 422.49 382.001 423.44 382.34C424.548 382.847 425.815 385.044 426.765 386.058C430.09 389.945 433.731 393.833 437.847 396.368C440.539 398.058 444.18 399.579 447.663 400.762C451.146 401.945 455.104 402.959 459.695 402.621C463.494 402.283 466.661 400.424 469.036 398.227C471.411 396.03 473.152 392.987 473.152 388.424C473.152 383.185 471.411 378.452 469.827 374.565C469.036 372.706 467.769 371.016 466.661 369.325C461.437 361.889 455.737 355.128 449.879 348.199C449.246 347.523 448.296 346.339 447.663 346.17C447.03 346.001 445.763 346.17 444.813 346.339C441.647 346.677 440.064 347.86 437.847 349.551C433.731 352.593 429.931 356.311 427.715 360.875C428.031 362.227 428.665 363.579 429.298 364.593ZM391.46 361.551C391.618 365.776 396.051 365.776 398.901 366.959C397.793 364.931 396.685 362.903 395.893 360.368C394.31 360.537 392.727 360.875 391.46 361.551Z" fill="#191919"/>
<path fill-rule="evenodd" clip-rule="evenodd" d="M380.219 292.93C381.169 292.761 381.96 293.1 382.119 294.114C382.435 296.48 377.211 298.17 374.994 298.17C373.253 298.339 371.195 298.001 371.036 296.48C370.878 294.283 373.411 295.128 374.994 294.959C377.052 294.79 378.478 293.606 380.061 292.93H380.219Z" fill="#191919"/>
<path fill-rule="evenodd" clip-rule="evenodd" d="M394.624 294.452C396.049 294.452 398.107 293.945 398.265 295.466C398.424 296.987 396.524 296.818 394.624 296.987C393.041 296.987 390.507 297.663 390.824 295.635C390.982 293.945 392.882 294.621 394.624 294.452Z" fill="#191919"/>
<path d="M279.685 394.678H400.165C402.856 394.678 405.073 397.044 405.073 399.917V401.438C405.073 404.312 402.856 406.678 400.165 406.678H279.685C276.994 406.678 274.777 404.312 274.777 401.438V399.917C274.777 397.044 276.994 394.678 279.685 394.678Z" fill="white"/>
<path d="M400.164 408.368H279.684C276.201 408.368 273.193 405.326 273.193 401.439V399.918C273.193 396.199 276.043 392.988 279.684 392.988H400.164C403.647 392.988 406.655 396.03 406.655 399.918V401.439C406.655 405.326 403.806 408.368 400.164 408.368ZM279.684 396.199C277.784 396.199 276.201 397.889 276.201 399.918V401.439C276.201 403.467 277.784 405.157 279.684 405.157H400.164C402.064 405.157 403.647 403.467 403.647 401.439V399.918C403.647 397.889 402.064 396.199 400.164 396.199H279.684Z" fill="#191919"/>
<path d="M204.804 407.354H522.39C525.081 407.354 527.298 409.72 527.298 412.593V414.115C527.298 416.988 525.081 419.354 522.39 419.354H204.804C202.113 419.354 199.897 416.988 199.897 414.115V412.593C199.738 409.551 201.955 407.354 204.804 407.354Z" fill="white"/>
<path d="M522.231 421.045H204.645C201.162 421.045 198.154 418.002 198.154 414.115V412.594C198.154 408.876 201.004 405.664 204.645 405.664H522.231C525.714 405.664 528.722 408.707 528.722 412.594V414.115C528.722 417.833 525.872 421.045 522.231 421.045ZM204.804 408.876C202.904 408.876 201.321 410.566 201.321 412.594V414.115C201.321 416.143 202.904 417.833 204.804 417.833H522.389C524.289 417.833 525.872 416.143 525.872 414.115V412.594C525.872 410.566 524.289 408.876 522.389 408.876H204.804Z" fill="#191919"/>
<path d="M259.106 332.48H347.764C350.455 332.48 353.305 334.508 354.097 337.044L370.087 391.804C370.878 394.34 367.079 399.072 364.387 399.072H275.729C273.038 399.072 270.188 397.044 269.397 394.509L253.407 339.917C252.773 337.212 256.414 332.48 259.106 332.48Z" fill="white"/>
<path d="M364.228 400.424H275.57C272.246 400.424 268.763 397.889 267.971 394.847L251.981 340.255C251.506 338.733 251.981 336.705 253.406 334.677C254.672 332.818 256.731 330.959 258.947 330.959H347.605C350.93 330.959 354.412 333.494 355.204 336.536L371.194 391.297C371.669 392.818 371.194 394.846 369.77 396.875C368.661 398.565 366.445 400.424 364.228 400.424ZM259.105 334.001C258.314 334.001 256.889 335.015 255.939 336.536C254.989 337.888 254.831 338.902 254.989 339.241L270.979 393.832C271.454 395.692 273.671 397.213 275.887 397.213H364.545C365.495 397.213 366.761 396.199 367.869 394.678C368.819 393.325 368.978 392.311 368.819 391.973L352.829 337.212C352.354 335.353 350.138 333.832 347.922 333.832H259.105V334.001Z" fill="#191919"/>
<path fill-rule="evenodd" clip-rule="evenodd" d="M308.024 362.565C311.824 362.565 315.624 365.776 316.732 369.664C317.84 373.551 315.624 376.763 311.824 376.763C308.024 376.763 304.225 373.551 303.116 369.664C302.167 365.607 304.383 362.565 308.024 362.565Z" fill="#191919"/>
<path fill-rule="evenodd" clip-rule="evenodd" d="M387.026 276.705C388.292 277.043 389.084 278.395 388.767 279.748L387.817 283.466C387.501 284.818 386.234 285.663 384.967 285.325C383.701 284.987 382.909 283.635 383.226 282.283L384.176 278.564C384.492 277.212 385.759 276.367 387.026 276.705Z" fill="#191919"/>
<path fill-rule="evenodd" clip-rule="evenodd" d="M403.334 285.664C407.767 288.03 408.875 294.621 405.867 300.199C402.859 305.776 396.843 308.312 392.568 305.776C388.135 303.41 387.027 296.818 390.035 291.241C393.043 285.832 398.901 283.297 403.334 285.664Z" fill="#33FF12"/>
<path fill-rule="evenodd" clip-rule="evenodd" d="M374.518 244.762C374.518 244.762 403.806 245.945 403.331 265.72C403.015 284.311 400.323 288.537 400.323 288.537L403.964 290.565C403.964 290.565 410.139 280.762 409.981 265.382C409.822 248.818 390.982 244.255 390.982 244.255C390.982 244.255 386.074 243.241 383.7 243.41C381.483 243.579 374.518 244.762 374.518 244.762Z" fill="#33FF12"/>
<path fill-rule="evenodd" clip-rule="evenodd" d="M371.826 275.86C373.093 276.198 373.885 277.551 373.568 278.903L372.618 282.621C372.301 283.973 371.035 284.818 369.768 284.48C368.502 284.142 367.71 282.79 368.027 281.438L368.977 277.719C369.294 276.198 370.56 275.353 371.826 275.86Z" fill="#191919"/>
<path d="M255.781 160.591H404.442C410.933 160.591 415.524 166 414.574 172.591L405.867 231.916C404.917 238.507 398.743 243.916 392.251 243.916H243.591C237.1 243.916 232.509 238.507 233.459 231.916L242.166 172.591C243.116 166 249.132 160.591 255.781 160.591Z" fill="white"/>
<path d="M391.933 245.437H243.273C239.631 245.437 236.307 243.916 234.09 241.212C232.032 238.677 231.082 235.127 231.715 231.578L240.423 172.254C241.531 164.817 248.339 158.902 255.463 158.902H404.124C407.765 158.902 411.09 160.423 413.306 163.127C415.365 165.662 416.314 169.211 415.681 172.761L406.974 232.085C406.024 239.522 399.216 245.437 391.933 245.437ZM255.78 162.113C249.922 162.113 244.539 166.845 243.589 172.761L234.882 232.085C234.565 234.789 235.04 237.156 236.623 239.184C238.207 241.212 240.74 242.395 243.431 242.395H392.092C397.949 242.395 403.332 237.663 404.282 231.747L412.989 172.423C413.306 169.719 412.831 167.352 411.248 165.324C409.665 163.296 407.132 162.113 404.282 162.113H255.78Z" fill="#191919"/>
<path fill-rule="evenodd" clip-rule="evenodd" d="M223.007 150.113H436.42L431.829 181.043H218.416L223.007 150.113Z" fill="#191919"/>
<path fill-rule="evenodd" clip-rule="evenodd" d="M369.926 168.198C371.668 168.198 372.934 169.719 372.776 171.578C372.459 173.437 370.876 174.958 368.976 174.958C367.235 174.958 365.968 173.437 366.127 171.578C366.443 169.719 368.026 168.198 369.926 168.198Z" fill="white"/>
<path fill-rule="evenodd" clip-rule="evenodd" d="M382.592 168.197C384.334 168.197 385.6 169.718 385.442 171.578C385.125 173.437 383.542 174.958 381.642 174.958C379.901 174.958 378.634 173.437 378.793 171.578C379.109 169.718 380.851 168.197 382.592 168.197Z" fill="white"/>
<path fill-rule="evenodd" clip-rule="evenodd" d="M394.782 168.197C396.523 168.197 397.79 169.718 397.631 171.578C397.315 173.437 395.732 174.958 393.832 174.958C392.09 174.958 390.824 173.437 390.982 171.578C391.299 169.718 393.04 168.197 394.782 168.197Z" fill="white"/>
<path d="M146.855 225.156H295.516C302.007 225.156 306.598 230.564 305.648 237.156L289.183 348.368C288.233 354.959 282.059 360.368 275.568 360.368H126.907C120.416 360.368 115.825 354.959 116.775 348.368L133.24 237.156C134.19 230.564 140.364 225.156 146.855 225.156Z" fill="white"/>
<path d="M213.667 260.649H140.999C140.208 260.649 139.574 259.973 139.574 259.128C139.574 258.283 140.208 257.607 140.999 257.607H213.667C214.459 257.607 215.092 258.283 215.092 259.128C215.25 259.973 214.459 260.649 213.667 260.649Z" fill="#191919"/>
<path d="M210.817 271.804H189.603C188.811 271.804 188.178 271.128 188.178 270.283C188.178 269.438 188.811 268.762 189.603 268.762H210.817C211.609 268.762 212.242 269.438 212.242 270.283C212.242 271.128 211.609 271.804 210.817 271.804Z" fill="#191919"/>
<path d="M181.371 271.804H138.15C137.358 271.804 136.725 271.128 136.725 270.283C136.725 269.438 137.358 268.762 138.15 268.762H181.371C182.162 268.762 182.795 269.438 182.795 270.283C182.795 271.128 182.162 271.804 181.371 271.804Z" fill="#191919"/>
<path d="M208.598 282.283H136.089C135.297 282.283 134.664 281.607 134.664 280.762C134.664 279.917 135.297 279.24 136.089 279.24H208.757C209.548 279.24 210.182 279.917 210.182 280.762C210.182 281.607 209.548 282.283 208.598 282.283Z" fill="#191919"/>
<path d="M206.067 293.945H133.4C132.608 293.945 131.975 293.269 131.975 292.424C131.975 291.578 132.608 290.902 133.4 290.902H206.067C206.859 290.902 207.493 291.578 207.493 292.424C207.493 293.269 207.017 293.945 206.067 293.945Z" fill="#191919"/>
<path d="M225.068 255.747H290.295C293.145 255.747 295.203 258.113 294.728 260.986L287.446 309.832C286.971 312.705 284.279 315.071 281.429 315.071H216.202C213.353 315.071 211.295 312.705 211.769 309.832L219.052 260.986C219.527 258.113 222.218 255.747 225.068 255.747Z" fill="white"/>
<path d="M281.585 316.762H216.358C214.458 316.762 212.875 315.917 211.767 314.565C210.659 313.212 210.184 311.522 210.501 309.663L217.783 260.818C218.258 257.099 221.583 254.226 225.224 254.226H290.451C292.351 254.226 293.934 255.071 295.042 256.423C296.15 257.776 296.625 259.466 296.309 261.325L289.026 310.17C288.551 313.889 285.226 316.762 281.585 316.762ZM225.066 257.437C223.008 257.437 220.791 259.297 220.475 261.325L213.192 310.17C213.034 311.015 213.192 311.86 213.825 312.536C214.3 313.213 215.25 313.551 216.2 313.551H281.427C283.485 313.551 285.702 311.691 286.018 309.663L293.301 260.818C293.459 259.973 293.301 259.128 292.667 258.452C292.192 257.776 291.243 257.437 290.293 257.437H225.066Z" fill="#191919"/>
<path fill-rule="evenodd" clip-rule="evenodd" d="M252.139 186.62H299.634C301.693 186.62 303.117 188.31 302.801 190.508L297.576 226.17C297.26 228.367 295.36 230.057 293.143 230.057H245.648C243.59 230.057 242.165 228.367 242.482 226.17L247.706 190.508C248.023 188.31 250.081 186.62 252.139 186.62Z" fill="#33FF12"/>
<path d="M399.217 193.212H308.818C308.026 193.212 307.393 192.536 307.393 191.691C307.393 190.846 308.026 190.17 308.818 190.17H399.217C400.009 190.17 400.642 190.846 400.642 191.691C400.642 192.536 400.009 193.212 399.217 193.212Z" fill="#33FF12"/>
<path d="M397.157 203.86H370.718C369.926 203.86 369.293 203.184 369.293 202.339C369.293 201.493 369.926 200.817 370.718 200.817H397.157C397.948 200.817 398.582 201.493 398.582 202.339C398.582 203.184 397.948 203.86 397.157 203.86Z" fill="#33FF12"/>
<path d="M360.587 203.86H306.917C306.125 203.86 305.492 203.184 305.492 202.339C305.492 201.493 306.125 200.817 306.917 200.817H360.587C361.378 200.817 362.012 201.493 362.012 202.339C362.012 203.184 361.378 203.86 360.587 203.86Z" fill="#33FF12"/>
<path d="M395.893 213.832H305.493C304.701 213.832 304.068 213.156 304.068 212.311C304.068 211.466 304.701 210.79 305.493 210.79H395.893C396.684 210.79 397.317 211.466 397.317 212.311C397.317 213.156 396.684 213.832 395.893 213.832Z" fill="#33FF12"/>
<path d="M394.309 224.818H303.909C303.117 224.818 302.484 224.142 302.484 223.297C302.484 222.451 303.117 221.775 303.909 221.775H394.309C395.1 221.775 395.733 222.451 395.733 223.297C395.733 224.142 395.1 224.818 394.309 224.818Z" fill="#33FF12"/>
<path d="M275.412 361.889H126.751C123.11 361.889 119.785 360.368 117.569 357.664C115.511 355.128 114.561 351.579 115.194 348.03L131.659 236.818C132.767 229.55 139.575 223.466 146.699 223.466H295.36C299.001 223.466 302.326 224.987 304.542 227.691C306.6 230.226 307.55 233.776 306.917 237.325L290.452 348.537C289.502 355.973 282.694 361.889 275.412 361.889ZM146.858 226.677C141 226.677 135.617 231.409 134.667 237.325L118.202 348.537C117.885 351.241 118.36 353.607 119.944 355.635C121.527 357.664 124.06 358.847 126.751 358.847H275.412C281.269 358.847 286.652 354.114 287.602 348.199L304.067 236.987C304.384 234.283 303.909 231.916 302.326 229.888C300.742 227.86 298.209 226.677 295.518 226.677H146.858Z" fill="#191919"/>
<path fill-rule="evenodd" clip-rule="evenodd" d="M121.213 214.677H334.625L330.034 245.607H116.621L121.213 214.677Z" fill="#191919"/>
<path d="M283.643 325.551H211.134C210.342 325.551 209.709 324.875 209.709 324.03C209.709 323.185 210.342 322.509 211.134 322.509H283.643C284.435 322.509 285.068 323.185 285.068 324.03C285.068 324.875 284.435 325.551 283.643 325.551Z" fill="#191919"/>
<path d="M281.588 333.664H260.374C259.582 333.664 258.949 332.988 258.949 332.143C258.949 331.298 259.582 330.622 260.374 330.622H281.588C282.38 330.622 283.013 331.298 283.013 332.143C283.013 332.988 282.38 333.664 281.588 333.664Z" fill="#191919"/>
<path d="M252.14 333.664H209.077C208.286 333.664 207.652 332.988 207.652 332.143C207.652 331.298 208.286 330.622 209.077 330.622H252.14C252.931 330.622 253.565 331.298 253.565 332.143C253.565 332.988 252.931 333.664 252.14 333.664Z" fill="#191919"/>
<path d="M280.32 341.439H207.81C207.018 341.439 206.385 340.763 206.385 339.917C206.385 339.072 207.018 338.396 207.81 338.396H280.32C281.111 338.396 281.744 339.072 281.744 339.917C281.744 340.763 281.111 341.439 280.32 341.439Z" fill="#191919"/>
<path d="M278.579 349.89H206.069C205.278 349.89 204.645 349.213 204.645 348.368C204.645 347.523 205.278 346.847 206.069 346.847H278.579C279.37 346.847 280.004 347.523 280.004 348.368C280.004 349.213 279.37 349.89 278.579 349.89Z" fill="#191919"/>
<path d="M160.79 348.368H136.092L148.441 325.551L160.79 348.368Z" fill="#191919"/>
<path d="M191.977 318.622L183.745 333.833H167.279L159.047 318.622L167.279 303.41H183.745L191.977 318.622Z" fill="#33FF12"/>
<path d="M440.38 243.578L436.422 244.761L433.572 241.719L434.681 237.494L438.639 236.311L441.488 239.353L440.38 243.578Z" fill="#191919"/>
<path d="M444.972 217.212L430.248 226.339V208.085L444.972 217.212Z" fill="#191919"/>
<path fill-rule="evenodd" clip-rule="evenodd" d="M324.015 274.339L329.399 280.086L324.015 285.832L318.633 280.086L324.015 274.339Z" fill="#191919"/>
<path fill-rule="evenodd" clip-rule="evenodd" d="M260.846 232.931C262.588 232.931 263.854 234.452 263.696 236.311C263.379 238.17 261.796 239.691 259.896 239.691C257.996 239.691 256.888 238.17 257.046 236.311C257.363 234.452 259.105 232.931 260.846 232.931Z" fill="white"/>
<path fill-rule="evenodd" clip-rule="evenodd" d="M273.67 232.931C275.411 232.931 276.678 234.452 276.52 236.311C276.203 238.17 274.62 239.692 272.72 239.692C270.82 239.692 269.712 238.17 269.87 236.311C270.029 234.452 271.77 232.931 273.67 232.931Z" fill="white"/>
<path fill-rule="evenodd" clip-rule="evenodd" d="M285.862 232.931C287.603 232.931 288.869 234.452 288.711 236.311C288.394 238.17 286.811 239.692 284.912 239.692C283.012 239.692 281.904 238.17 282.062 236.311C282.378 234.452 283.962 232.931 285.862 232.931Z" fill="white"/>
<path fill-rule="evenodd" clip-rule="evenodd" d="M366.129 109.718L352.514 124.253L366.129 138.788L379.744 124.253L366.129 109.718Z" fill="#191919"/>
<path d="M261.48 114.789L296.944 138.789L298.685 94L261.48 114.789Z" fill="#33FF12"/>
</svg>
