<svg width="460" height="344" viewBox="0 0 460 344" fill="none" xmlns="http://www.w3.org/2000/svg">
<path fill-rule="evenodd" clip-rule="evenodd" d="M48.3719 1.83823H346.407C353.118 1.83823 358.545 7.26483 358.545 13.9767V217.117C358.545 223.829 353.118 229.256 346.407 229.256H48.3719C41.66 229.256 36.2334 223.829 36.2334 217.117V13.9767C36.2334 7.26483 41.66 1.83823 48.3719 1.83823Z" fill="white"/>
<path d="M346.408 230.969H48.3732C40.7331 230.969 34.521 224.757 34.521 217.117V13.9767C34.521 6.3366 40.7331 0.124573 48.3732 0.124573H346.408C354.048 0.124573 360.26 6.3366 360.26 13.9767V217.117C360.26 224.757 354.048 230.969 346.408 230.969ZM48.3732 3.55191C42.661 3.55191 38.0198 8.19309 38.0198 13.9053V217.046C38.0198 222.758 42.661 227.399 48.3732 227.399H346.408C352.12 227.399 356.761 222.758 356.761 217.046V13.9767C356.761 8.26447 352.12 3.6233 346.408 3.6233H48.3732V3.55191Z" fill="#B0B0B0"/>
<path d="M231.878 54.3193H55.0847C54.1565 54.3193 53.3711 53.5338 53.3711 52.6056C53.3711 51.6774 54.1565 50.8919 55.0847 50.8919H231.878C232.806 50.8919 233.591 51.6774 233.591 52.6056C233.591 53.5338 232.806 54.3193 231.878 54.3193Z" fill="#DEDEDE"/>
<path d="M176.255 78.5248H55.0131C54.0849 78.5248 53.2993 77.7393 53.2993 76.8111C53.2993 75.8828 54.0849 75.0974 55.0131 75.0974H176.255C177.183 75.0974 177.968 75.8828 177.968 76.8111C177.968 77.7393 177.254 78.5248 176.255 78.5248Z" fill="#DEDEDE"/>
<path d="M231.878 103.302H55.0847C54.1565 103.302 53.3711 102.516 53.3711 101.588C53.3711 100.66 54.1565 99.8743 55.0847 99.8743H231.878C232.806 99.8743 233.591 100.66 233.591 101.588C233.591 102.516 232.806 103.302 231.878 103.302Z" fill="#DEDEDE"/>
<path d="M231.878 127.578H55.0847C54.1565 127.578 53.3711 126.793 53.3711 125.865C53.3711 124.937 54.1565 124.151 55.0847 124.151H231.878C232.806 124.151 233.591 124.937 233.591 125.865C233.591 126.793 232.806 127.578 231.878 127.578Z" fill="#DEDEDE"/>
<path d="M231.876 152.712H184.822C183.894 152.712 183.108 151.927 183.108 150.998C183.108 150.07 183.894 149.285 184.822 149.285H231.876C232.805 149.285 233.59 150.07 233.59 150.998C233.59 151.927 232.805 152.712 231.876 152.712Z" fill="#DEDEDE"/>
<path d="M231.878 176.918H55.0847C54.1565 176.918 53.3711 176.132 53.3711 175.204C53.3711 174.276 54.1565 173.49 55.0847 173.49H231.878C232.806 173.49 233.591 174.276 233.591 175.204C233.591 176.132 232.806 176.918 231.878 176.918Z" fill="#DEDEDE"/>
<path d="M231.878 54.3193H55.0847C54.1565 54.3193 53.3711 53.5338 53.3711 52.6056C53.3711 51.6774 54.1565 50.8919 55.0847 50.8919H231.878C232.806 50.8919 233.591 51.6774 233.591 52.6056C233.591 53.5338 232.806 54.3193 231.878 54.3193Z" fill="#DEDEDE"/>
<path d="M231.876 78.5248H187.677C186.749 78.5248 185.964 77.7393 185.964 76.8111C185.964 75.8828 186.749 75.0974 187.677 75.0974H231.876C232.804 75.0974 233.589 75.8828 233.589 76.8111C233.589 77.7393 232.804 78.5248 231.876 78.5248Z" fill="#DEDEDE"/>
<path d="M231.878 103.302H55.0847C54.1565 103.302 53.3711 102.516 53.3711 101.588C53.3711 100.66 54.1565 99.8743 55.0847 99.8743H231.878C232.806 99.8743 233.591 100.66 233.591 101.588C233.591 102.516 232.806 103.302 231.878 103.302Z" fill="#DEDEDE"/>
<path d="M231.878 127.578H55.0847C54.1565 127.578 53.3711 126.793 53.3711 125.865C53.3711 124.937 54.1565 124.151 55.0847 124.151H231.878C232.806 124.151 233.591 124.937 233.591 125.865C233.591 126.793 232.806 127.578 231.878 127.578Z" fill="#DEDEDE"/>
<path d="M162.546 152.712H55.0847C54.1565 152.712 53.3711 151.927 53.3711 150.998C53.3711 150.07 54.1565 149.285 55.0847 149.285H162.546C163.474 149.285 164.259 150.07 164.259 150.998C164.259 151.927 163.474 152.712 162.546 152.712Z" fill="#DEDEDE"/>
<path d="M231.878 176.918H55.0847C54.1565 176.918 53.3711 176.132 53.3711 175.204C53.3711 174.276 54.1565 173.49 55.0847 173.49H231.878C232.806 173.49 233.591 174.276 233.591 175.204C233.591 176.132 232.806 176.918 231.878 176.918Z" fill="#DEDEDE"/>
<path d="M401.816 25.4725H266.365C265.437 25.4725 264.651 24.6871 264.651 23.7589C264.651 22.8306 265.437 22.0452 266.365 22.0452H401.816C402.744 22.0452 403.53 22.8306 403.53 23.7589C403.601 24.6871 402.816 25.4725 401.816 25.4725Z" fill="#B0B0B0"/>
<path d="M247.015 25.4725H36.7341C35.8059 25.4725 35.0205 24.6871 35.0205 23.7589C35.0205 22.8306 35.8059 22.0452 36.7341 22.0452H247.015C247.943 22.0452 248.729 22.8306 248.729 23.7589C248.729 24.6871 247.943 25.4725 247.015 25.4725Z" fill="#B0B0B0"/>
<path fill-rule="evenodd" clip-rule="evenodd" d="M258.939 41.4667H342.48V146.214H258.939V41.4667Z" fill="#F2F2F2"/>
<path d="M113.277 162.423C112.277 162.423 111.421 161.78 111.064 160.781C110.207 157.925 109.636 155.14 109.207 152.284C109.136 151.927 109.136 151.641 109.136 151.427C109.279 150.213 110.421 149.285 111.635 149.428C112.277 149.499 113.42 149.927 113.634 151.641C113.991 154.212 114.562 156.854 115.348 159.424C115.705 160.638 114.991 161.923 113.777 162.209C113.706 162.352 113.491 162.423 113.277 162.423Z" fill="#9EFFA2"/>
<path d="M151.121 192.626C146.265 192.626 141.696 191.984 137.554 190.627C136.34 190.27 135.698 188.985 136.055 187.771C136.412 186.557 137.697 185.914 138.911 186.271C142.91 187.557 147.408 188.199 152.263 188.056C153.191 188.056 154.048 187.914 154.905 187.771C156.119 187.557 157.333 188.342 157.547 189.556C157.761 190.77 156.976 191.984 155.762 192.198C154.691 192.412 153.548 192.555 152.406 192.555C152.049 192.626 151.621 192.626 151.121 192.626ZM164.973 187.342C164.33 187.342 163.759 187.128 163.259 186.628C162.402 185.7 162.474 184.272 163.402 183.415C166.686 180.416 169.685 175.989 172.542 169.849C173.041 168.706 174.398 168.206 175.54 168.778C176.683 169.278 177.183 170.634 176.611 171.777C173.47 178.488 170.114 183.415 166.401 186.771C166.044 187.128 165.544 187.342 164.973 187.342ZM128.558 185.772C128.058 185.772 127.629 185.629 127.201 185.343C122.488 181.844 118.49 177.203 115.419 171.42C114.848 170.349 115.277 168.921 116.348 168.349C117.419 167.778 118.847 168.207 119.418 169.278C122.203 174.419 125.701 178.631 129.914 181.702C130.914 182.416 131.128 183.844 130.414 184.843C129.914 185.415 129.272 185.772 128.558 185.772ZM312.705 185.415C312.491 185.415 312.277 185.415 312.062 185.343C306.065 183.487 301.352 179.917 298.067 174.776C297.853 174.419 297.639 174.062 297.425 173.705C296.854 172.562 297.282 171.205 298.424 170.634C299.567 170.063 300.924 170.491 301.495 171.634C301.638 171.919 301.78 172.134 301.923 172.348C304.636 176.561 308.492 179.488 313.419 181.059C314.633 181.416 315.276 182.701 314.919 183.915C314.562 184.772 313.705 185.415 312.705 185.415ZM296.782 164.279C295.64 164.279 294.64 163.423 294.497 162.28C293.855 156.853 293.569 150.356 293.426 144.644C293.426 143.358 294.355 142.359 295.64 142.287C296.854 142.216 297.925 143.216 297.996 144.501C298.139 150.07 298.353 156.425 298.996 161.709C299.139 162.923 298.282 164.065 296.996 164.208C296.996 164.208 296.854 164.279 296.782 164.279ZM178.825 162.851C178.539 162.851 178.325 162.78 178.039 162.708C176.897 162.28 176.254 160.995 176.683 159.781C178.754 154.14 180.61 148.071 182.038 143.358C182.395 142.145 183.68 141.502 184.894 141.859C186.108 142.216 186.751 143.501 186.394 144.715C184.966 149.499 183.038 155.711 180.967 161.423C180.61 162.28 179.753 162.851 178.825 162.851ZM295.497 135.861C294.283 135.861 293.283 134.861 293.212 133.648C293.141 128.435 292.998 122.366 292.641 116.297C292.569 115.012 293.569 114.012 294.783 113.94C296.068 113.94 297.068 114.869 297.139 116.083C297.425 122.223 297.568 128.364 297.71 133.576C297.853 134.79 296.854 135.79 295.497 135.861C295.568 135.861 295.568 135.861 295.497 135.861ZM187.393 135.718C187.179 135.718 186.965 135.718 186.751 135.647C185.537 135.29 184.894 134.005 185.251 132.791C186.751 127.721 188.536 121.866 190.392 116.083C190.749 114.869 192.034 114.226 193.248 114.655C194.462 115.012 195.105 116.297 194.676 117.511C192.82 123.223 191.035 129.078 189.535 134.147C189.25 135.076 188.322 135.718 187.393 135.718ZM196.104 108.657C195.819 108.657 195.605 108.585 195.319 108.514C194.177 108.085 193.534 106.8 193.962 105.586C196.247 99.5171 198.461 94.1619 200.817 89.3066C201.388 88.1641 202.745 87.7357 203.887 88.3069C205.03 88.8781 205.458 90.2348 204.887 91.3772C202.602 96.0898 200.389 101.231 198.175 107.157C197.89 108.085 197.033 108.657 196.104 108.657ZM294.212 107.443C293.069 107.443 292.07 106.586 291.927 105.372C291.356 98.9459 290.499 93.4479 289.428 88.4497C289.142 87.2359 289.928 86.022 291.141 85.7364C292.355 85.4508 293.569 86.2363 293.855 87.4501C294.997 92.6625 295.854 98.3747 296.497 104.944C296.639 106.158 295.711 107.3 294.426 107.443C294.354 107.443 294.283 107.443 294.212 107.443ZM208.243 83.0231C207.814 83.0231 207.386 82.8803 207.029 82.6661C205.958 82.0235 205.672 80.5954 206.315 79.5244C209.742 74.0978 213.455 69.3852 217.454 65.5295C218.382 64.6726 219.81 64.6726 220.667 65.6009C221.524 66.5291 221.524 67.9572 220.596 68.814C216.883 72.3841 213.384 76.8111 210.171 81.9521C209.671 82.6661 208.957 83.0231 208.243 83.0231ZM288.642 79.5958C287.714 79.5958 286.857 79.0246 286.5 78.0963C284.358 72.2413 281.645 67.4574 278.36 63.8872C277.503 62.959 277.575 61.5309 278.503 60.6741C279.431 59.8173 280.859 59.8887 281.716 60.8169C285.429 64.8154 288.499 70.0992 290.856 76.5255C291.284 77.6679 290.713 79.0246 289.499 79.453C289.142 79.5958 288.857 79.5958 288.642 79.5958ZM227.522 62.6734C226.736 62.6734 226.022 62.3164 225.594 61.6023C224.951 60.5313 225.237 59.1746 226.308 58.4606C231.377 55.2475 237.018 52.9626 243.016 51.7488C244.23 51.4632 245.444 52.2486 245.729 53.5338C246.015 54.7477 245.158 55.9615 243.944 56.2471C238.446 57.3896 233.377 59.4602 228.735 62.3164C228.378 62.5306 227.95 62.6734 227.522 62.6734ZM271.291 58.175C270.934 58.175 270.649 58.1036 270.292 57.9608C267.079 56.4613 263.509 55.5331 259.51 55.2475C258.011 55.1761 256.44 55.1047 254.94 55.1047H254.369C253.084 55.1047 252.084 54.1051 252.084 52.8198C252.084 51.5346 253.084 50.5349 254.369 50.5349H255.012C256.582 50.5349 258.225 50.6063 259.867 50.6777C264.365 50.9633 268.578 52.0344 272.291 53.8194C273.433 54.3907 273.933 55.7473 273.362 56.8183C272.934 57.7466 272.148 58.175 271.291 58.175Z" fill="#9EFFA2"/>
<path d="M323.986 186.7C322.772 186.7 321.773 185.772 321.701 184.558C321.63 183.272 322.63 182.273 323.843 182.201C328.413 181.987 331.769 181.059 331.841 181.059C333.054 180.702 334.268 181.416 334.625 182.63C334.982 183.844 334.268 185.058 333.054 185.415C332.912 185.486 329.127 186.557 323.986 186.771C324.058 186.7 324.058 186.7 323.986 186.7Z" fill="#9EFFA2"/>
<path fill-rule="evenodd" clip-rule="evenodd" d="M329.056 104.944H426.52C426.52 104.944 413.811 118.724 413.811 138.003C413.811 165.279 413.811 203.551 413.811 229.184C413.811 245.464 426.52 256.603 426.52 256.603H329.056C329.056 256.603 316.346 244.179 316.346 226.471C316.346 199.624 316.346 160.638 316.346 134.076C316.346 116.868 329.056 104.944 329.056 104.944Z" fill="white"/>
<path d="M426.52 258.388H329.056C328.627 258.388 328.199 258.245 327.842 257.888C327.271 257.388 314.632 244.75 314.632 226.543V134.147C314.632 116.368 327.342 104.23 327.913 103.658C328.27 103.373 328.627 103.159 329.127 103.159H426.592C427.306 103.159 427.877 103.587 428.163 104.23C428.448 104.872 428.305 105.586 427.877 106.086C427.734 106.229 415.596 119.653 415.596 138.003V229.184C415.596 244.465 427.591 255.175 427.734 255.318C428.305 255.818 428.448 256.532 428.234 257.246C427.877 257.888 427.234 258.388 426.52 258.388ZM329.77 254.889H422.379C418.452 250.391 412.026 241.18 412.026 229.184V138.003C412.026 123.294 419.023 111.798 422.879 106.657H329.77C327.556 109.014 318.06 119.724 318.06 134.076V226.471C318.06 241.323 327.556 252.462 329.77 254.889Z" fill="#A9A9A9"/>
<path d="M401.744 148.928H326.629C325.7 148.928 324.915 148.142 324.915 147.214C324.915 146.286 325.7 145.5 326.629 145.5H401.744C402.672 145.5 403.458 146.286 403.458 147.214C403.529 148.142 402.744 148.928 401.744 148.928Z" fill="#A9A9A9"/>
<path d="M364.329 134.647H326.771C325.842 134.647 325.057 133.862 325.057 132.934C325.057 132.005 325.842 131.22 326.771 131.22H364.329C365.257 131.22 366.042 132.005 366.042 132.934C366.042 133.933 365.257 134.647 364.329 134.647Z" fill="#A9A9A9"/>
<path d="M386.392 164.065H326.771C325.842 164.065 325.057 163.28 325.057 162.352C325.057 161.423 325.842 160.638 326.771 160.638H386.392C387.32 160.638 388.106 161.423 388.106 162.352C388.177 163.28 387.392 164.065 386.392 164.065Z" fill="#A9A9A9"/>
<path d="M401.744 179.274H326.629C325.7 179.274 324.915 178.489 324.915 177.56C324.915 176.632 325.7 175.847 326.629 175.847H401.744C402.672 175.847 403.458 176.632 403.458 177.56C403.529 178.489 402.744 179.274 401.744 179.274Z" fill="#A9A9A9"/>
<path d="M406.314 121.009H331.198C330.27 121.009 329.485 120.224 329.485 119.296C329.485 118.367 330.27 117.582 331.198 117.582H406.314C407.242 117.582 408.028 118.367 408.028 119.296C408.028 120.224 407.242 121.009 406.314 121.009Z" fill="#A9A9A9"/>
<path d="M401.744 148.928H326.629C325.7 148.928 324.915 148.142 324.915 147.214C324.915 146.286 325.7 145.5 326.629 145.5H401.744C402.672 145.5 403.458 146.286 403.458 147.214C403.529 148.142 402.744 148.928 401.744 148.928Z" fill="#A9A9A9"/>
<path d="M401.672 134.647H378.038C377.11 134.647 376.324 133.862 376.324 132.934C376.324 132.005 377.11 131.22 378.038 131.22H401.672C402.6 131.22 403.386 132.005 403.386 132.934C403.457 133.933 402.672 134.647 401.672 134.647Z" fill="#A9A9A9"/>
<path d="M401.673 164.065H393.533C392.605 164.065 391.819 163.28 391.819 162.352C391.819 161.423 392.605 160.638 393.533 160.638H401.673C402.601 160.638 403.387 161.423 403.387 162.352C403.458 163.28 402.673 164.065 401.673 164.065Z" fill="#A9A9A9"/>
<path d="M401.744 179.274H326.629C325.7 179.274 324.915 178.489 324.915 177.56C324.915 176.632 325.7 175.847 326.629 175.847H401.744C402.672 175.847 403.458 176.632 403.458 177.56C403.529 178.489 402.744 179.274 401.744 179.274Z" fill="#A9A9A9"/>
<path d="M421.523 155.925L438.303 170.134V141.645L421.523 155.925Z" fill="#9EFFA2"/>
<path fill-rule="evenodd" clip-rule="evenodd" d="M375.324 275.382C382.893 284.093 404.385 299.016 412.596 281.308C420.736 263.529 406.099 253.461 414.738 245.464C423.378 237.467 447.869 202.837 437.159 194.483C426.449 186.129 403.885 214.547 397.173 224.472C390.533 234.397 373.682 236.61 366.256 247.463C358.83 258.245 367.756 266.671 375.324 275.382Z" fill="#F2F2F2"/>
<path d="M400.672 291.305C390.676 291.305 379.251 282.522 374.039 276.524C373.468 275.81 372.825 275.168 372.254 274.454C365.256 266.528 357.259 257.531 364.828 246.392C368.827 240.466 375.324 237.039 381.536 233.754C387.248 230.755 392.675 227.899 395.674 223.401C401.243 215.118 418.38 193.269 430.733 191.269C433.589 190.841 436.088 191.412 438.158 192.983C440.229 194.625 441.372 197.053 441.443 200.195C442.014 214.332 422.45 240.537 415.809 246.678C412.596 249.605 413.31 252.747 414.881 258.459C416.595 264.6 418.666 272.169 414.096 282.022C411.668 287.377 407.884 290.448 402.886 291.162C402.243 291.305 401.457 291.305 400.672 291.305ZM432.589 194.625C432.161 194.625 431.732 194.697 431.304 194.768C421.45 196.339 406.027 214.404 398.601 225.4C395.103 230.612 389.033 233.825 383.178 236.896C377.323 240.037 371.254 243.179 367.684 248.392C361.615 257.317 367.755 264.172 374.824 272.169C375.467 272.883 376.038 273.525 376.681 274.239C382.179 280.594 393.817 288.948 402.457 287.734C406.241 287.163 409.026 284.878 411.025 280.594C415.024 271.883 413.168 265.243 411.597 259.388C410.097 253.89 408.669 248.677 413.525 244.179C420.808 237.396 438.516 212.619 438.016 200.409C437.944 198.267 437.302 196.767 436.016 195.768C435.088 194.982 433.946 194.625 432.589 194.625Z" fill="#A9A9A9"/>
<path d="M375.681 310.869C374.753 310.869 373.968 310.084 373.968 309.155C373.968 307.87 373.896 276.81 386.249 259.245C398.316 242.037 428.234 205.336 428.591 204.979C429.162 204.265 430.304 204.122 431.018 204.765C431.732 205.407 431.875 206.478 431.233 207.192C430.947 207.549 401.029 244.179 389.105 261.316C377.395 278.024 377.466 308.87 377.466 309.227C377.395 310.084 376.61 310.869 375.681 310.869Z" fill="#A9A9A9"/>
<path fill-rule="evenodd" clip-rule="evenodd" d="M362.187 269.812C374.183 278.238 390.748 255.889 379.324 238.181C370.541 224.615 376.967 204.265 372.326 189.913C367.685 175.561 354.69 178.131 354.476 197.124C354.19 216.046 349.406 260.816 362.187 269.812Z" fill="#F2F2F2"/>
<path d="M367.756 273.383C365.471 273.383 363.186 272.669 361.187 271.24C349.906 263.315 351.262 232.04 352.262 209.192C352.476 204.479 352.619 200.409 352.69 197.053C352.833 184.843 357.974 179.702 362.33 179.06C366.114 178.488 371.255 180.916 373.968 189.342C375.968 195.625 375.968 203.051 375.968 210.263C375.968 219.902 375.968 229.827 380.752 237.253C388.177 248.749 384.679 262.172 377.538 269.027C374.54 271.883 371.112 273.383 367.756 273.383ZM363.186 268.384C366.828 270.955 371.255 270.241 375.182 266.457C381.251 260.602 384.25 249.034 377.824 239.109C372.469 230.827 372.469 220.33 372.469 210.191C372.469 202.98 372.469 196.125 370.612 190.413C368.899 185.129 365.828 182.059 362.829 182.487C359.545 182.987 356.26 187.699 356.118 197.125C356.046 200.552 355.903 204.622 355.689 209.406C354.832 230.113 353.404 261.53 363.186 268.384Z" fill="#A9A9A9"/>
<path d="M372.469 314.939C371.541 314.939 370.756 314.225 370.756 313.225C370.756 312.726 369.256 264.1 365.615 242.894C362.045 222.33 362.973 193.911 363.044 193.626C363.044 192.698 363.83 191.984 364.829 191.912C365.757 191.912 366.543 192.769 366.543 193.697C366.543 193.983 365.615 222.044 369.113 242.251C372.826 263.672 374.254 312.511 374.254 313.011C374.254 314.154 373.469 314.939 372.469 314.939C372.541 314.939 372.469 314.939 372.469 314.939Z" fill="#A9A9A9"/>
<path fill-rule="evenodd" clip-rule="evenodd" d="M323.129 208.763C331.055 205.193 338.552 217.26 345.692 227.542C352.833 237.824 367.756 239.609 374.825 254.247C382.965 271.098 370.755 277.952 360.044 282.022C343.336 288.377 334.625 283.807 330.055 270.812C325.485 257.817 334.482 251.176 328.413 239.752C322.344 228.399 315.203 212.333 323.129 208.763Z" fill="#F2F2F2"/>
<path d="M347.049 286.592C344.122 286.592 341.48 286.021 339.195 284.95C334.411 282.736 330.912 278.309 328.484 271.383C326.128 264.672 327.128 259.531 328.056 254.889C328.984 250.105 329.841 245.964 326.913 240.537C319.416 226.471 316.632 216.975 318.488 211.548C319.202 209.477 320.487 207.978 322.415 207.121C331.126 203.194 338.552 213.976 345.764 224.472L347.192 226.471C350.048 230.613 354.404 233.326 358.973 236.253C365.185 240.18 372.183 244.607 376.467 253.39C379.537 259.673 380.108 265.243 378.181 270.027C375.324 277.238 367.327 281.094 360.758 283.593C355.475 285.664 350.976 286.592 347.049 286.592ZM325.985 209.906C325.271 209.906 324.557 210.049 323.843 210.334C322.772 210.834 322.129 211.548 321.772 212.69C320.773 215.761 321.344 222.758 329.984 238.967C333.482 245.464 332.412 250.605 331.483 255.603C330.626 259.959 329.77 264.457 331.769 270.241C333.839 276.239 336.767 280.023 340.694 281.808C345.264 283.95 351.405 283.451 359.545 280.38C365.471 278.095 372.611 274.739 374.967 268.742C376.467 264.957 375.896 260.316 373.325 254.961C369.541 247.107 363.186 243.108 357.117 239.252C352.19 236.182 347.62 233.254 344.336 228.47L342.908 226.471C337.481 218.688 331.483 209.906 325.985 209.906Z" fill="#A9A9A9"/>
<path d="M367.184 314.653C366.328 314.653 365.542 314.011 365.471 313.082C365.471 312.797 361.901 283.736 352.333 263.172C342.693 242.537 328.127 223.758 327.984 223.544C327.413 222.758 327.556 221.687 328.27 221.116C329.055 220.545 330.126 220.687 330.698 221.401C330.84 221.616 345.621 240.752 355.403 261.673C365.257 282.736 368.755 311.44 368.898 312.583C369.041 313.511 368.327 314.368 367.399 314.511C367.327 314.653 367.256 314.653 367.184 314.653Z" fill="#A9A9A9"/>
<path fill-rule="evenodd" clip-rule="evenodd" d="M349.549 299.659H401.673C405.029 299.659 407.742 302.372 407.742 305.728V320.151C407.742 330.219 399.602 338.288 389.606 338.288H361.688C351.62 338.288 343.551 330.148 343.551 320.151V305.728C343.48 302.372 346.193 299.659 349.549 299.659Z" fill="#F2F2F2"/>
<path d="M389.534 340.073H361.616C350.62 340.073 341.694 331.147 341.694 320.151V305.728C341.694 301.444 345.193 297.945 349.477 297.945H401.601C405.885 297.945 409.384 301.444 409.384 305.728V320.151C409.455 331.147 400.53 340.073 389.534 340.073ZM349.549 301.373C347.192 301.373 345.264 303.3 345.264 305.657V320.08C345.264 329.148 352.619 336.503 361.687 336.503H389.605C398.674 336.503 406.028 329.148 406.028 320.08V305.657C406.028 303.3 404.1 301.373 401.744 301.373H349.549Z" fill="#A9A9A9"/>
<path d="M342.505 6.28621L333.572 15.2265L336.047 17.6994L344.98 8.75911L342.505 6.28621Z" fill="#A9A9A9"/>
<path d="M335.96 6.17807L333.486 8.6521L342.422 17.5886L344.896 15.1146L335.96 6.17807Z" fill="#A9A9A9"/>
<path fill-rule="evenodd" clip-rule="evenodd" d="M95.2839 168.635C95.2839 168.635 93.0705 162.566 90.7142 159.567C88.3579 156.568 84.0737 152.141 87.5011 149.999C90.9284 147.928 95.1411 149.428 99.9251 156.211C109.35 169.563 105.994 178.917 105.994 178.917C105.994 178.917 108.065 179.345 110.064 184.986C112.063 190.627 113.063 193.34 113.063 193.34C113.063 193.34 117.562 210.834 123.845 221.33C130.057 231.898 135.198 239.681 135.198 239.681C135.198 239.681 159.332 218.688 168.329 212.119C177.326 205.55 193.034 193.84 205.601 194.411C218.168 194.983 225.594 196.411 225.594 196.411L231.806 192.341L231.02 188.556C231.02 188.556 218.382 192.269 211.527 180.702C204.673 169.135 208.314 152.212 208.314 152.212L209.1 139.788C209.1 139.788 206.958 132.148 205.601 128.864C204.316 125.579 202.888 119.296 205.601 120.724C208.314 122.08 210.171 123.151 210.171 123.151C210.171 123.151 211.313 112.37 213.67 113.441C216.026 114.512 215.169 117.939 220.953 117.511C226.665 117.154 259.153 109.299 269.578 121.438C280.003 133.576 282.216 148.499 279.717 156.996C274.505 174.99 256.225 180.631 256.225 180.631C256.225 180.631 253.798 185.272 255.654 190.199C257.439 195.125 260.795 199.267 260.795 199.267C260.795 199.267 294.426 199.838 308.778 207.264C323.13 214.69 335.482 239.538 344.622 264.457C353.833 289.377 363.544 313.939 363.258 320.294C362.901 326.649 360.117 335.86 343.123 338.43C320.202 341.929 227.95 339.787 227.95 339.787C227.95 339.787 194.319 335.646 186.465 329.648C178.611 323.579 180.539 322.293 176.754 320.437C173.041 318.581 165.259 316.153 166.33 311.226C167.329 306.228 172.684 309.155 176.04 311.369C179.325 313.582 177.54 311.654 177.54 311.654L178.111 301.944C178.111 301.944 174.541 299.659 174.469 298.017C174.398 296.374 174.898 293.661 174.898 293.661C174.898 293.661 171.256 293.732 170.685 291.876C170.114 289.948 171.613 287.306 171.613 287.306C171.613 287.306 165.758 289.163 166.33 285.95C166.901 282.736 166.972 278.952 171.042 279.166C175.041 279.309 181.824 280.38 181.824 280.38L182.11 264.457C182.11 264.457 158.689 285.521 140.767 290.376C122.917 295.16 109.564 278.238 95.4981 245.893C81.4318 213.476 74.0059 200.481 74.0059 200.481C74.0059 200.481 63.7952 188.128 67.0084 183.558C70.2929 178.917 71.721 181.273 71.721 181.273C71.721 181.273 71.2925 174.204 77.0047 171.919C82.717 169.563 87.1441 169.063 87.1441 169.063L95.2839 168.635Z" fill="white"/>
<path fill-rule="evenodd" clip-rule="evenodd" d="M250.798 154.426C250.798 154.426 257.938 156.354 264.293 161.066C270.576 165.779 273.361 169.563 273.361 169.563C273.361 169.563 288.856 148.285 275.646 128.078C262.365 107.943 243.515 114.869 238.588 115.226C233.59 115.583 222.38 119.653 219.666 118.439C216.953 117.225 216.31 114.226 214.383 114.797C212.455 115.369 211.812 123.437 211.812 123.437L206.029 121.652C206.029 121.652 205.314 124.722 206.457 128.935C207.671 133.148 209.67 136.932 209.67 136.932L214.954 131.934L216.025 134.79L223.736 131.291L224.807 134.933L234.947 135.504L233.447 140.359C233.447 140.359 244.8 138.503 247.656 143.858C250.441 149.142 250.798 154.426 250.798 154.426Z" fill="black"/>
<path fill-rule="evenodd" clip-rule="evenodd" d="M227.593 210.763L235.59 204.693L239.374 215.903L235.304 218.76L231.805 270.098L225.736 278.881L218.453 281.451L210.742 266.457L230.306 217.546L227.593 210.763Z" fill="#35FD3D"/>
<path fill-rule="evenodd" clip-rule="evenodd" d="M200.675 289.02C200.675 289.02 201.746 239.966 207.458 223.187C213.17 206.407 226.665 196.411 226.665 196.411C226.665 196.411 195.819 190.698 179.896 202.908C163.973 215.118 137.483 239.681 137.483 239.681C137.483 239.681 129.272 229.541 126.916 225.9C124.559 222.258 121.632 215.475 121.632 215.475C121.632 215.475 119.418 230.97 110.707 233.326C102.067 235.754 88.2866 229.256 88.2866 229.256C88.2866 229.256 96.5694 246.036 102.067 258.46C107.565 270.884 125.559 290.377 137.197 289.52C148.836 288.663 182.752 263.815 182.752 263.815L181.253 279.523L200.675 289.02Z" fill="#35FD3D"/>
<path fill-rule="evenodd" clip-rule="evenodd" d="M243.515 302.8C243.515 302.8 243.444 257.888 247.728 237.253C252.94 212.119 269.648 200.623 269.648 200.623C269.648 200.623 315.132 203.765 322.058 214.547C328.984 225.329 339.48 254.461 349.12 274.025C358.83 293.59 366.542 319.009 362.115 328.505C357.759 338.002 346.835 338.787 338.98 339.858C331.055 340.93 252.083 340.787 252.083 340.787C252.083 340.787 265.293 326.935 262.222 318.081C259.152 309.227 251.441 304.586 251.441 304.586L243.301 304.3L243.515 302.8Z" fill="#35FD3D"/>
<path fill-rule="evenodd" clip-rule="evenodd" d="M257.225 183.701C257.724 188.913 259.152 193.198 261.437 196.553C269.934 197.696 278.074 198.981 286.571 200.338C294.997 201.623 303.279 202.551 310.348 205.336C323.701 210.62 330.841 222.83 336.839 236.396C342.622 249.606 347.335 264.529 352.547 278.309C355.046 285.021 357.902 291.947 360.259 299.373C362.544 306.585 365.257 314.725 364.614 323.722C364.257 329.434 361.544 333.718 357.831 336.288C348.406 342.715 330.555 342.786 314.418 342.786C298.21 342.786 281.216 343.072 264.936 343.072C248.442 343.072 232.091 342.358 217.382 340.787C209.67 340.001 202.673 339.073 196.461 336.717C190.392 334.361 185.608 331.147 181.181 327.149C181.324 329.005 181.681 331.719 181.966 334.718C182.18 337.002 183.18 341.072 180.324 341.072C177.254 340.358 177.896 335.86 177.611 332.718C177.325 329.291 176.825 325.792 176.682 322.722C173.898 320.08 166.972 319.937 164.901 315.939C163.187 312.583 164.258 308.227 167.329 307.156C170.47 306.085 173.327 307.727 175.826 308.513C175.683 306.656 176.54 305.014 176.111 303.657C175.897 302.872 174.183 301.73 173.684 300.801C172.898 299.23 172.684 298.159 172.898 295.803C170.47 294.732 167.9 293.233 168.685 289.448C161.688 288.877 164.473 281.237 168.828 279.024C172.041 277.381 176.04 277.738 179.253 278.452C179.824 275.096 180.11 271.598 180.61 268.17C170.399 276.453 160.188 285.021 146.408 289.663C138.91 292.162 129.628 292.59 123.273 289.091C117.418 285.807 113.205 280.666 109.35 275.025C101.781 263.958 95.7833 251.248 89.9996 238.395C84.1446 225.329 77.2185 213.333 72.5773 199.981C67.1507 197.624 60.7959 185.772 67.1508 180.274C68.2218 179.345 69.5784 178.703 71.3635 178.274C72.2917 174.918 73.7198 172.277 76.2189 170.563C80.4316 167.707 87.0721 167.421 93.4983 166.636C92.2845 160.852 84.2159 159.852 84.7157 152.712C84.8585 150.142 86.2153 148.142 88.9286 147.857C92.3559 147.571 95.7832 149.927 97.9967 151.784C104.28 157.211 107.85 165.85 108.778 176.489C108.85 177.346 108.636 178.489 108.778 179.345C108.921 179.988 109.85 180.845 110.278 181.63C111.706 184.058 112.206 187.128 113.277 189.77C113.491 190.413 114.062 190.841 114.348 191.412C115.276 193.34 115.776 195.625 116.633 197.624C122.059 211.262 129.128 225.329 136.483 237.11C149.478 227.614 160.26 215.404 172.97 205.764C185.251 196.482 201.173 191.412 223.38 193.197C225.879 193.412 228.021 194.34 228.806 191.984C229.663 191.698 230.663 191.412 230.02 190.341C229.52 189.485 227.664 190.341 225.95 190.341C215.597 190.341 209.599 183.844 206.743 176.703C204.244 170.563 204.101 162.851 205.672 155.497C206.172 153.212 206.386 150.213 208.671 150.356C211.955 150.499 210.027 154.354 209.456 157.639C206.957 170.92 211.027 182.416 221.238 185.343C228.806 187.485 234.019 184.344 238.517 180.988C240.088 179.845 241.73 177.917 243.23 178.132C243.944 178.203 244.801 179.06 244.872 179.917C245.086 182.13 241.302 184.129 240.017 185.058C238.16 186.414 236.161 187.771 233.805 188.699C234.304 190.698 234.661 192.769 235.018 194.911C243.729 194.411 249.156 190.627 253.369 185.557C252.94 181.345 252.012 178.346 253.369 175.847C255.368 172.062 261.223 172.134 263.365 168.135C265.65 163.851 262.651 159.924 257.582 162.066C256.296 162.637 255.083 163.494 253.94 164.494C252.94 165.422 251.727 166.993 250.441 166.921C248.157 166.779 248.656 164.494 248.799 162.209C249.156 156.211 249.085 148.357 245.8 145.072C241.802 141.145 229.449 145.715 231.234 137.646C227.45 137.718 222.951 137.361 222.166 134.005C219.81 134.79 216.168 137.146 213.669 135.076C212.669 136.29 212.098 137.718 211.67 139.931C211.313 141.859 211.313 144.287 209.528 144.501C206.315 144.929 206.957 140.074 207.885 137.718C206.6 135.504 205.101 132.505 203.815 128.935C202.816 126.222 200.959 120.652 203.958 119.224C205.529 118.439 207.814 119.082 209.099 119.796C210.242 116.939 210.028 111.941 213.169 111.441C216.739 110.87 217.239 115.083 219.667 115.797C222.237 116.582 226.164 115.226 228.592 114.726C237.018 113.084 246.657 111.513 256.296 113.369C267.292 115.511 274.647 122.437 279.002 131.363C283.644 141.002 284.215 154.926 278.86 164.494C274.076 173.205 266.079 178.774 257.225 183.701ZM210.956 125.079C209.028 125.222 208.385 123.58 206.6 123.294C207.385 126.722 208.742 129.578 209.956 132.648C211.17 132.077 212.312 129.506 214.526 129.649C215.811 129.721 216.24 130.72 217.096 131.648C219.31 130.934 223.523 128.221 225.593 130.435C226.164 131.077 226.022 132.148 226.664 133.005C229.663 134.79 236.661 131.006 236.946 135.004C237.089 136.575 235.661 137.075 235.447 138.646C240.873 139.074 245.515 139.146 248.442 141.859C252.512 145.501 253.083 151.927 253.155 159.71C258.867 155.354 268.578 157.282 268.578 164.993C268.578 170.848 264.365 174.062 260.581 175.918C259.295 176.561 257.01 176.989 256.939 179.131C268.435 172.205 279.788 164.708 278.717 145.858C277.86 130.577 266.935 117.868 251.155 117.082C245.729 116.797 240.731 117.296 236.018 118.01C231.663 118.653 227.236 120.153 222.38 120.438C218.025 120.724 216.168 118.867 214.24 117.082C212.884 119.581 213.955 124.865 210.956 125.079ZM95.9259 155.068C94.2837 153.498 91.0705 150.927 88.7857 151.855C87.9288 153.712 89 155.354 89.9996 156.425C91.6419 158.21 93.9266 159.852 95.5689 162.637C96.2829 163.78 96.997 165.136 97.5682 166.564C98.068 167.921 99.0676 169.92 98.782 171.42C98.6392 172.277 97.9253 172.419 97.8539 173.062C99.282 173.133 100.567 173.776 101.781 174.276C102.995 174.847 104.28 175.704 104.994 175.632C104.494 167.707 100.781 159.71 95.9259 155.068ZM84.7157 173.062C78.4323 177.989 79.5034 192.912 89.9996 191.055C90.4281 188.913 91.2135 187.128 92.1417 185.486C86.6437 187.057 79.8605 184.486 82.1453 179.274C83.9304 175.204 90.2137 172.491 95.9259 172.776C95.4261 172.134 95.2833 171.205 94.7121 170.634C90.7136 170.777 87.3576 170.991 84.7157 173.062ZM80.9314 192.912C77.504 189.984 75.5763 183.13 77.2899 177.346C77.7183 176.061 78.5038 174.99 78.361 174.133C73.22 178.203 74.6479 191.198 80.9314 192.912ZM83.9304 215.761C92.8557 219.688 104.352 217.903 109.635 211.976C112.42 208.906 113.348 203.265 112.349 198.053C111.992 196.125 110.564 194.197 109.921 192.269C109.278 190.199 109.064 188.342 108.421 186.7C106.494 181.416 102.852 177.703 96.7829 176.561C91.5705 175.632 87.429 178.06 85.4298 181.273C87.0006 182.273 88.1432 182.344 89.9996 182.202C92.7843 181.916 98.0681 178.06 98.4965 181.916C98.6393 183.344 96.283 186.057 95.4976 187.485C94.5694 189.199 93.2127 191.769 93.4983 194.269C93.8553 196.982 96.0689 198.695 97.8539 200.195C99.282 201.337 100.924 202.123 100.853 203.551C100.71 207.407 95.5689 203.408 94.4979 202.48C92.1416 200.409 90.7137 198.053 89.6426 195.34C87.1435 195.125 86.2152 196.054 84.216 196.553C83.0735 199.124 79.7176 199.481 76.9329 200.481C79.075 205.764 81.2885 211.048 83.9304 215.761ZM77.1472 196.125C76.7187 195.268 75.5762 194.697 74.8621 193.84C72.7201 191.27 71.2921 187.557 71.0779 183.13C71.0065 183.13 70.8636 183.13 70.935 182.987C70.935 182.916 70.935 182.773 70.7922 182.844C65.8654 186.057 70.9351 196.91 77.1472 196.125ZM250.584 208.335C251.798 207.121 253.297 205.764 254.654 204.122C255.868 202.694 257.796 200.409 257.653 198.696C257.582 197.839 256.511 196.411 255.868 195.054C255.082 193.483 254.511 191.627 254.083 190.841C251.155 194.34 245.158 197.624 239.088 198.696C235.447 199.338 230.449 200.338 230.163 196.91C226.878 201.409 223.737 206.121 222.023 212.191C224.094 210.62 225.95 209.192 228.235 207.335C229.52 206.264 232.734 202.623 234.733 202.765C236.875 202.98 238.089 207.407 238.946 209.263C240.231 211.976 241.445 213.976 242.444 216.546C245.086 214.69 247.514 211.619 250.584 208.335ZM210.956 197.267C191.534 198.196 180.467 204.479 169.614 213.761C159.26 222.615 149.692 232.255 138.91 240.823C140.267 242.394 141.124 244.179 142.695 246.392C143.623 247.678 146.55 250.391 146.336 252.319C146.265 253.319 145.122 254.175 144.194 254.104C142.909 254.033 141.481 251.819 140.696 250.748C133.984 241.323 127.557 230.47 122.416 220.616C120.274 230.113 112.777 237.324 100.639 236.325C97.6397 236.111 95.3547 235.111 92.927 234.04C97.6396 244.25 101.353 253.247 106.993 263.101C111.849 271.598 117.989 282.379 127.129 286.092C134.484 289.091 143.337 286.449 149.407 283.807C160.188 279.166 168.685 272.811 177.111 265.457C178.539 264.172 181.109 262.244 181.681 260.744C182.395 258.745 182.537 255.603 182.894 253.033C183.68 247.392 184.322 242.965 185.179 237.324C185.608 234.754 185.608 231.041 188.035 231.112C191.106 231.255 189.678 235.539 189.249 238.253C187.107 251.891 185.179 265.885 183.466 279.238C187.75 281.094 192.534 282.879 196.318 285.164C197.032 285.593 197.603 286.449 198.46 286.235C201.102 251.605 200.102 213.333 221.952 197.839C222.237 197.839 223.237 197.267 222.523 197.267C218.739 196.982 214.597 197.125 210.956 197.267ZM206.243 242.251C204.315 257.174 203.03 273.811 202.316 289.591C204.744 292.019 207.957 293.732 210.956 296.089C212.17 297.017 213.669 298.017 215.311 299.302C216.739 300.373 218.167 302.301 219.524 302.658C221.095 303.015 223.237 302.515 224.951 302.515C230.734 302.444 236.09 302.087 241.73 302.087C241.873 271.598 242.658 240.537 252.155 219.259C255.083 212.833 258.867 207.764 263.222 203.051C263.794 202.48 264.936 201.694 264.579 201.052C263.508 200.909 262.58 200.766 261.58 200.623C259.295 205.764 255.868 209.192 251.584 213.476C250.227 214.833 248.799 216.403 247.014 218.188C245.586 219.616 243.658 222.473 241.73 222.258C239.66 222.044 239.588 219.259 238.374 218.331C236.232 219.188 236.875 221.901 236.732 223.758C235.732 237.324 234.947 250.748 234.019 264.172C233.876 266.599 234.09 269.17 233.59 270.955C233.233 272.097 231.734 273.74 230.734 274.882C229.592 276.167 228.449 277.31 227.378 278.381C225.45 280.309 222.237 283.879 218.596 283.379C215.668 282.951 214.026 278.524 212.669 275.81C211.884 274.168 211.384 272.883 210.67 271.241C210.028 269.598 208.956 267.885 209.028 266.385C209.099 264.814 210.527 262.101 211.313 260.03C216.168 247.392 220.881 235.325 225.879 222.83C226.593 220.973 228.307 218.117 228.307 216.618C228.307 215.547 227.164 214.475 227.236 213.404C225.593 214.404 224.522 215.547 222.88 216.903C221.737 217.831 219.81 220.116 218.024 219.902C214.597 219.545 217.025 213.976 217.882 211.262C218.739 208.549 219.738 205.836 220.167 204.765C211.455 213.476 208.242 227.257 206.243 242.251ZM266.15 206.264C264.865 207.621 263.651 208.906 262.508 210.334C246.443 230.327 246.514 265.885 246.014 301.944C261.866 301.444 278.003 301.158 293.854 300.587C294.426 296.446 294.997 292.519 295.496 288.663C295.711 287.306 296.21 285.735 296.068 284.593C295.996 283.593 294.997 281.88 294.425 280.523C290.927 272.097 287.856 264.315 284.429 256.032C283.786 254.39 282.073 250.677 285.357 250.748C287.214 250.748 288.213 254.175 288.999 256.032C289.999 258.46 290.855 260.53 291.569 262.387C296.853 275.239 301.851 288.234 307.278 300.373C310.919 300.373 313.847 300.301 317.845 300.23C320.059 300.159 326.414 298.873 326.342 302.229C326.271 304.657 322.487 304.371 319.345 304.371C298.424 304.371 276.146 305.799 256.368 306.014C259.795 309.084 263.579 312.654 264.079 318.866C264.65 326.649 260.866 332.933 257.724 337.217C257.225 337.859 256.225 338.502 256.511 339.002C274.504 339.359 292.569 338.859 310.991 338.859C319.702 338.859 329.27 338.859 337.624 337.931C345.335 337.074 354.118 335.36 357.902 330.648C362.544 324.864 359.687 312.583 357.617 305.371C355.475 298.088 352.976 291.662 350.476 285.236C345.335 271.812 340.837 258.317 335.768 245.393C330.627 232.398 324.771 219.331 314.418 212.262C303.636 204.908 284.572 205.55 270.077 202.123C268.863 203.337 267.435 204.908 266.15 206.264ZM86.5008 221.187C87.6432 223.115 88.5714 225.257 89.4997 227.399C96.4257 233.54 109.778 234.397 115.562 226.328C116.633 224.829 117.347 222.972 117.989 220.902C118.561 219.045 119.632 216.261 119.346 214.261C119.06 211.976 116.918 210.12 116.347 207.764C113.919 218.902 99.7817 224.4 86.5008 221.187ZM230.734 210.62C231.448 212.548 231.663 214.975 233.162 216.046C234.733 215.904 235.661 215.118 236.803 214.547C235.875 212.262 234.804 210.12 233.59 208.049C232.805 209.049 231.591 209.62 230.734 210.62ZM213.383 266.457C215.168 271.026 216.668 275.81 219.595 279.166C221.595 278.238 223.451 276.81 225.165 274.954C226.45 273.525 229.021 271.169 229.52 269.527C230.02 267.956 229.806 265.528 229.949 263.458C230.663 253.104 231.377 242.394 231.948 232.255C232.162 228.042 232.876 223.972 232.519 220.116C232.091 220.259 232.091 219.831 231.591 219.973C225.45 235.396 219.595 251.105 213.383 266.457ZM168.685 285.093C172.113 285.307 173.184 283.236 175.183 282.094C171.97 282.022 169.614 282.808 168.685 285.093ZM172.827 290.876C173.255 291.376 173.898 291.733 174.826 291.805C177.825 288.949 182.609 286.592 188.749 286.378C182.894 283.45 174.183 284.95 172.827 290.876ZM178.11 294.446C177.111 295.589 176.611 297.445 177.539 299.016C181.181 295.303 186.25 292.019 193.605 293.447C195.247 293.732 197.246 293.947 199.031 293.304C193.819 289.948 182.109 289.734 178.11 294.446ZM298.138 300.516C299.709 300.444 301.28 300.444 302.708 300.23C301.423 297.66 300.566 294.661 299.209 292.233C298.924 295.089 298.495 297.731 298.138 300.516ZM230.306 310.941C230.306 314.582 226.165 312.083 224.379 311.083C222.809 310.155 221.666 309.512 220.452 308.656C216.668 306.085 214.883 303.872 211.67 302.444C209.171 299.23 203.744 297.16 197.889 297.588C192.32 298.017 186.036 300.659 186.108 305.942C188.821 304.514 190.963 301.944 195.676 302.015C198.96 302.087 202.244 303.515 204.458 304.728C206.314 305.728 210.67 308.013 210.527 310.298C210.456 311.155 209.742 312.012 208.742 312.083C207.314 312.226 206.529 311.012 205.529 310.298C202.602 308.084 199.032 306.228 194.605 306.228C198.889 312.44 196.175 321.937 187.607 319.366C181.181 317.438 175.826 311.226 168.685 311.012C167.257 315.367 171.756 315.653 174.469 316.581C177.254 317.581 179.396 319.295 181.609 321.437C185.608 325.435 190.106 329.005 195.533 331.576C204.529 335.86 219.024 336.788 231.377 337.788C233.162 337.931 235.875 338.431 237.16 338.074C237.946 337.859 239.231 336.146 239.874 335.36C242.23 332.504 244.729 328.434 245.015 324.15C245.372 318.723 243.587 314.725 241.088 312.012C239.303 310.155 235.018 306.871 232.305 306.442C229.877 306.014 227.95 306.585 225.308 306.728C226.736 308.37 230.306 308.37 230.306 310.941ZM180.395 302.372C180.253 305.157 180.038 307.87 179.967 310.726C181.252 311.512 183.109 312.511 185.108 313.582C186.75 314.439 189.249 316.224 191.177 315.724C193.819 315.01 192.034 309.727 190.891 308.299C189.249 308.727 188.25 310.798 185.893 310.726C183.251 310.655 181.752 307.513 181.823 304.943C181.895 302.515 183.252 300.73 184.251 299.516C184.537 299.23 185.108 298.873 184.822 298.445C183.037 299.516 181.823 301.016 180.395 302.372ZM260.009 318.509C259.509 313.654 255.939 310.583 252.583 308.37C251.37 307.585 249.727 306.157 248.371 305.942C246.086 305.585 242.944 306.371 240.516 306.371C245.729 309.727 249.799 315.724 249.299 324.079C248.942 329.505 246.371 333.932 244.015 337.074C243.73 337.431 242.944 337.859 243.23 338.431C245.515 338.716 248.442 338.359 250.656 338.716C254.94 334.004 260.938 327.577 260.009 318.509Z" fill="black"/>
<path fill-rule="evenodd" clip-rule="evenodd" d="M238.66 147.928C239.374 149.428 242.659 151.141 242.016 153.997C241.873 154.64 241.016 155.568 239.588 155.354C238.089 155.14 237.875 153.498 236.875 152.141C236.018 151.07 234.876 149.856 233.876 149.428C231.448 148.428 228.021 149.927 227.95 147.143C227.95 145.929 228.807 145.286 229.949 145.001C234.019 144.001 236.804 146.357 238.66 147.928Z" fill="black"/>
<path fill-rule="evenodd" clip-rule="evenodd" d="M214.598 167.635C215.812 168.849 217.811 173.205 214.598 173.419C212.741 173.49 209.528 168.992 209.742 166.921C209.957 164.922 213.241 163.423 214.455 162.066C215.383 161.066 217.525 158.353 217.811 155.997C218.097 152.998 216.311 150.784 214.598 149.927C213.313 149.285 206.672 149.642 209.171 146C210.242 144.358 214.812 145.286 216.74 146.286C219.667 147.857 222.024 151.427 222.024 155.211C222.024 161.709 218.025 163.637 214.598 167.635Z" fill="black"/>
<path fill-rule="evenodd" clip-rule="evenodd" d="M215.454 160.495C214.883 161.209 213.812 161.423 213.027 161.066C210.813 160.281 211.099 153.069 214.098 153.212C216.311 153.355 216.811 158.853 215.454 160.495Z" fill="black"/>
<path fill-rule="evenodd" clip-rule="evenodd" d="M232.448 153.569C235.232 153.141 234.732 156.497 234.447 158.282C234.233 159.71 234.018 161.495 232.805 161.78C231.662 162.066 230.377 161.423 230.091 160.281C229.663 158.496 230.734 154.497 231.448 153.926C231.591 153.712 232.019 153.64 232.448 153.569Z" fill="black"/>
<path fill-rule="evenodd" clip-rule="evenodd" d="M257.582 163.708C258.439 163.494 259.867 163.494 260.153 165.065C260.438 166.85 258.653 167.992 257.725 168.992C256.583 170.206 255.654 171.777 254.084 171.705C253.012 171.634 252.227 170.92 252.298 169.563C252.298 168.207 256.369 163.994 257.582 163.708Z" fill="black"/>
<path fill-rule="evenodd" clip-rule="evenodd" d="M231.092 172.776C232.948 172.205 233.876 173.205 233.948 174.419C234.019 176.418 230.021 178.56 227.879 178.774C224.88 179.131 221.666 178.703 221.809 176.346C221.952 173.705 225.594 174.99 227.593 174.561C229.235 174.204 229.806 173.276 231.092 172.776Z" fill="black"/>
<path fill-rule="evenodd" clip-rule="evenodd" d="M41.4457 325.721H222.237C223.665 325.721 224.808 326.863 224.808 328.291L223.594 335.146C222.523 338.645 220.167 341.572 216.668 341.572H47.0865C43.5878 341.572 40.8744 338.645 39.732 335.003L38.8037 328.22C38.8751 326.863 40.0177 325.721 41.4457 325.721Z" fill="#F5F5F5"/>
<path d="M216.669 343.357H47.0872C43.0886 343.357 39.5184 340.287 38.0904 335.574C38.0904 335.503 38.0191 335.36 38.0191 335.289L37.0908 328.505C37.0908 328.434 37.0908 328.363 37.0908 328.291C37.0908 325.935 39.0187 324.007 41.375 324.007H222.167C224.523 324.007 226.451 325.935 226.451 328.291C226.451 328.363 226.451 328.505 226.451 328.577L225.237 335.431C223.88 340.43 220.596 343.357 216.669 343.357ZM41.4465 334.717C42.2319 337.145 44.1597 339.93 47.0872 339.93H216.669C220.024 339.93 221.524 336.145 221.881 334.86L223.023 328.291C222.952 327.863 222.595 327.577 222.238 327.577H41.4465C41.018 327.577 40.6609 327.934 40.5895 328.291L41.4465 334.717Z" fill="black"/>
<path fill-rule="evenodd" clip-rule="evenodd" d="M9.17152 245.821H124.059C127.843 245.821 132.056 248.677 133.484 252.247L162.116 322.151C163.544 325.721 158.617 332.29 154.833 332.29H39.9461C36.1618 332.29 31.9491 329.434 30.521 325.864L1.88849 255.96C0.460432 252.319 5.45858 245.821 9.17152 245.821Z" fill="#F5F5F5"/>
<path d="M154.905 334.003H40.018C35.5196 334.003 30.7356 330.719 29.0219 326.506L0.389527 256.603C-0.467305 254.532 0.103882 251.748 1.96035 249.034C3.45981 246.749 6.31595 244.107 9.31486 244.107H124.202C128.7 244.107 133.484 247.392 135.198 251.605L163.83 321.508C164.687 323.579 164.116 326.363 162.259 329.077C160.688 331.29 157.904 334.003 154.905 334.003ZM9.17192 247.535C7.95807 247.535 6.03023 248.963 4.74499 250.962C3.67395 252.604 3.17416 254.318 3.53118 255.246L32.1637 325.149C33.3776 328.006 36.9476 330.505 39.9465 330.505H154.833C156.047 330.505 157.975 329.077 159.26 327.149C160.403 325.506 160.831 323.721 160.474 322.793L131.842 252.89C130.628 250.034 127.058 247.535 124.059 247.535H9.17192Z" fill="black"/>
<path fill-rule="evenodd" clip-rule="evenodd" d="M71.9362 287.735C65.6528 287.806 62.7252 292.304 65.4385 297.802C68.1518 303.3 75.3634 307.656 81.6469 307.584C87.9303 307.513 90.8579 303.015 88.1446 297.517C85.5027 292.019 78.2196 287.592 71.9362 287.735Z" fill="#D6D6D6"/>
<path d="M457.866 343.786H16.3117C15.3835 343.786 14.5981 343 14.5981 342.072C14.5981 341.144 15.3835 340.358 16.3117 340.358H457.866C458.794 340.358 459.58 341.144 459.58 342.072C459.58 343 458.794 343.786 457.866 343.786Z" fill="black"/>
<path fill-rule="evenodd" clip-rule="evenodd" d="M13.8853 95.2329H138.911V161.709H13.8853V95.2329Z" fill="#9EFFA2"/>
<path d="M138.911 163.422H13.8845C12.9563 163.422 12.1709 162.637 12.1709 161.709V95.2329C12.1709 94.3047 12.9563 93.5193 13.8845 93.5193H138.911C139.839 93.5193 140.624 94.3047 140.624 95.2329V161.709C140.624 162.637 139.839 163.422 138.911 163.422ZM15.5981 159.924H137.126V96.9466H15.5981V159.924Z" fill="black"/>
<path d="M22.2393 152.855C21.5967 152.855 21.0255 152.498 20.6685 151.927C20.2401 151.07 20.5257 149.999 21.3825 149.57L65.0096 126.15C65.8665 125.722 66.9374 126.007 67.3658 126.864C67.7942 127.721 67.5086 128.792 66.6518 129.221L23.0248 152.641C22.8106 152.783 22.5249 152.855 22.2393 152.855Z" fill="white"/>
<path d="M77.5043 135.504L19.7395 104.515C18.8826 104.087 18.597 103.016 19.0254 102.159C19.4539 101.302 20.5249 101.017 21.3818 101.445L77.4329 131.577L130.199 102.23C131.056 101.731 132.127 102.088 132.556 102.873C133.056 103.73 132.699 104.801 131.913 105.229L77.5043 135.504Z" fill="white"/>
<path fill-rule="evenodd" clip-rule="evenodd" d="M88.2857 159.995H93.5696C92.3557 158.639 91.0705 157.568 89.9995 156.497C88.9998 155.425 87.9286 153.855 88.7855 151.927C90.999 150.927 94.2121 153.498 95.9257 155.14C97.3538 156.497 98.7105 158.139 99.9244 160.067H104.423C102.78 156.854 100.638 154.069 98.0678 151.855C95.8543 149.999 92.3556 147.643 88.9997 147.928C86.2864 148.142 84.9298 150.213 84.787 152.784C84.5014 156.14 86.2864 158.139 88.2857 159.995Z" fill="#34731E"/>
<path d="M133.269 153.569C132.983 153.569 132.697 153.498 132.483 153.355L88.8562 129.935C87.9993 129.506 87.7137 128.435 88.1421 127.578C88.5706 126.722 89.6416 126.436 90.4985 126.864L134.125 150.284C134.982 150.713 135.268 151.784 134.839 152.641C134.482 153.212 133.911 153.569 133.269 153.569Z" fill="white"/>
</svg>
