<svg width="529" height="670" viewBox="0 0 529 670" fill="none" xmlns="http://www.w3.org/2000/svg">
<path d="M404.917 705.583C427.037 672.28 484.06 530.468 496.161 486.107C517.912 406.41 524.818 301.688 496.881 220.622C441.512 59.9661 244.88 12.8667 112.08 81.7405C37.2367 120.562 -22.1011 217.756 -60.8554 295.549C-78.326 330.606 -97.6838 366.647 -123.87 395.33C-150.115 424.078 -188.052 437.681 -218.052 461.145C-241.476 479.476 -258.577 507.09 -265.133 538.147C-271.573 568.649 -266.573 601.011 -256.028 630.1C-245.483 659.19 -232.838 679.617 -216.923 705.583L404.917 705.583Z" fill="#CCFEBA"/>
<path d="M107.532 598.649C107.532 598.649 110.56 638.28 111.121 647.141C111.682 656.002 112.243 669.761 99.2694 669.835C86.4454 669.91 89.4737 648.711 89.4737 648.711L92.8012 598.649H107.532Z" fill="#282A2F"/>
<path d="M432.991 598.574C432.991 598.574 436.019 638.205 436.58 647.066C437.141 655.927 437.702 669.686 424.728 669.761C411.904 669.835 414.932 648.637 414.932 648.637L418.26 598.574H432.991Z" fill="#282A2F"/>
<path d="M306.022 598.574C306.022 598.574 309.051 638.205 309.612 647.066C310.172 655.927 310.733 669.686 297.76 669.761C284.936 669.835 287.964 648.637 287.964 648.637L291.292 598.574H306.022Z" fill="#282A2F"/>
<path d="M458.489 598.574H74.3688C74.3688 598.574 70.5927 410.29 72.4994 386.736C74.3688 363.182 14.1374 225.745 57.4323 200.322C100.727 174.898 84.7251 207.837 117.701 209.743C150.64 211.613 291.853 227.615 291.853 227.615C291.853 227.615 329.502 200.322 350.215 224.773C370.927 249.262 332.343 349.05 332.343 349.05C332.343 349.05 310.696 383.895 325.763 397.99C340.83 412.122 431.196 393.279 464.172 419.637C497.073 446.07 458.489 598.574 458.489 598.574Z" fill="#221F1F"/>
<path d="M227.915 552.219L227.887 554.649L432.975 557.054L433.003 554.624L227.915 552.219Z" fill="white"/>
<path d="M274.729 366.472C282.095 379.483 339.186 394.55 340.569 396.083C343.298 399.186 355.374 402.888 360.422 406.738C362.104 408.01 370.815 419.637 371.339 416.87C372.087 412.907 363.151 403.224 363.674 402.888C364.235 402.514 373.993 409.243 379.116 413.506C381.994 415.898 385.322 424.498 388.986 423.712C390.182 423.451 385.658 412.534 381.695 408.496C379.863 406.626 372.049 398.812 372.124 398.7C372.535 398.177 381.62 405.131 387.677 410.814C393.285 416.085 396.576 425.582 398.968 424.423C399.903 423.974 398.333 418.478 398.071 417.73C396.276 412.534 390.706 404.271 385.509 400.308C384.499 399.523 377.396 393.578 377.433 393.541C379.863 391.896 397.809 402.925 399.791 405.206C401.885 407.561 403.567 413.954 406.184 412.197C406.558 411.935 406.072 411.3 405.997 410.851C405.287 405.617 401.025 399.897 397.847 395.896C397.136 394.999 396.052 393.503 395.043 392.868C385.247 386.624 374.966 381.203 364.908 375.408C361.282 373.314 312.64 348.713 309.313 343.778C299.928 329.795 305.238 296.295 301.611 297.641L260.746 286.126C255.549 288.257 263.363 346.357 274.729 366.472Z" fill="white"/>
<path d="M326.249 400.233C326.249 400.233 393.808 411.711 410.708 441.434C427.607 471.157 433.028 614.763 433.028 614.763L387.34 624.035C387.34 624.035 371.301 495.833 347.635 478.971C323.968 462.072 266.092 462.409 244.482 446.182C222.872 429.956 252.072 394.288 252.072 394.288L326.249 400.233Z" fill="#121513"/>
<path opacity="0.49" d="M237.715 229.745C237.715 229.745 243.884 247.206 231.621 249.374C219.358 251.542 201.86 236.101 201.86 236.101L206.421 219.202C206.421 219.202 207.693 222.866 218.61 226.343C229.527 229.858 237.715 229.745 237.715 229.745Z" fill="white"/>
<path d="M393.734 615.399C393.809 615.399 393.883 615.399 393.921 615.399C394.594 615.287 395.042 614.651 394.93 613.978L372.423 480.392C372.311 479.794 371.825 479.383 371.226 479.383H363.525L368.534 468.952C368.721 468.578 368.684 468.092 368.46 467.755C368.235 467.381 367.824 467.195 367.376 467.195L356.197 467.681L350.327 461.624C350.177 461.474 350.028 461.362 349.841 461.325L304.826 446.071C304.19 445.846 303.48 446.183 303.256 446.818C303.032 447.454 303.368 448.164 304.004 448.389L348.719 463.568L354.738 469.812C355 470.073 355.337 470.186 355.673 470.186L365.394 469.774L360.421 480.131C360.235 480.505 360.272 480.953 360.496 481.327C360.72 481.701 361.094 481.888 361.543 481.888H370.142L392.5 614.464C392.612 614.95 393.136 615.399 393.734 615.399Z" fill="white"/>
<path d="M237.603 400.233C237.603 400.233 305.162 411.711 322.062 441.434C338.961 471.157 345.167 613.829 345.167 613.829L298.395 622.802C298.395 622.802 287.59 496.17 263.961 479.27C240.295 462.371 177.484 462.371 155.836 446.145C134.226 429.919 151.836 399.037 151.836 399.037L237.603 400.233Z" fill="#282A2F"/>
<path d="M338.437 399.074L367.076 376.679L309.873 338.73C309.873 338.73 299.479 256.515 281.496 242.569C263.513 228.624 247.137 220.436 205.337 227.39C180.138 229.11 149.63 236.401 138.114 249.598C118.449 272.106 116.504 328.935 116.504 328.935C116.504 328.935 107.307 378.361 116.504 392.606C126.263 407.673 191.691 429.732 191.691 429.732C191.691 429.732 256.97 431.788 281.346 419.002C305.723 406.215 290.693 390.55 290.693 390.55L294.731 399.971L283.59 377.614L338.437 399.074Z" fill="#282A2F"/>
<path d="M239.884 229.97L230.649 267.32L193.299 233.111C193.299 233.111 198.832 219.875 217.002 223.726C235.135 227.54 239.884 229.97 239.884 229.97Z" fill="#38A63C"/>
<path d="M224.816 530.865C224.816 530.865 244.033 451.529 212.553 442.406C181.073 433.284 123.795 422.516 120.131 420.759C116.467 419.002 111.644 414.066 110.26 410.515C108.914 406.963 100.203 495.048 100.203 495.048L224.816 530.865Z" fill="#221F1F"/>
<path d="M210.273 153.475C234.948 152.241 238.463 176.842 240.743 181.89C248.071 198.265 248.109 220.249 232.63 231.765C228.705 234.681 222.648 234.681 218.087 234.232C198.308 232.288 185.896 211.987 186.382 192.695C186.419 190.265 174.306 159.495 210.273 153.475Z" fill="white"/>
<path d="M195.841 220.773C195.841 220.773 174.829 203.051 179.727 195.948C184.625 188.844 190.756 203.462 190.756 203.462L195.841 220.773Z" fill="white"/>
<path d="M209.001 203.125C210.422 202.976 211.357 200.583 211.058 197.816C210.796 195.012 209.413 192.881 207.954 192.993C206.534 193.143 205.599 195.536 205.898 198.302C206.197 201.144 207.581 203.275 209.001 203.125Z" fill="#121513"/>
<path d="M232.855 198.489C234.275 198.34 235.21 195.947 234.911 193.18C234.649 190.376 233.266 188.245 231.845 188.357C230.425 188.507 229.49 190.9 229.789 193.666C230.051 196.47 231.434 198.639 232.855 198.489Z" fill="#121513"/>
<path d="M205.487 189.105C208.142 187.573 209.862 185.554 209.301 184.619C208.74 183.684 206.16 184.133 203.506 185.703C200.851 187.236 199.131 189.255 199.692 190.19C200.253 191.124 202.833 190.638 205.487 189.105Z" fill="#282A2F"/>
<path d="M229.677 184.394C232.742 184.507 235.285 183.721 235.322 182.637C235.36 181.553 232.929 180.543 229.864 180.431C226.798 180.319 224.255 181.104 224.218 182.189C224.143 183.273 226.573 184.282 229.677 184.394Z" fill="#282A2F"/>
<path d="M220.368 211.239L227.808 208.024C228.107 207.874 228.369 207.65 228.481 207.313C228.593 207.014 228.593 206.64 228.406 206.341L221.564 192.695L219.396 193.779L225.677 206.266L219.433 208.958L220.368 211.239Z" fill="#0E0E0E"/>
<path d="M187.615 204.21C187.802 204.21 187.989 204.173 188.139 204.098C188.737 203.799 188.999 203.088 188.7 202.453C188.625 202.303 186.756 198.49 184.55 196.882C183.466 196.097 182.568 196.172 181.97 196.396C180.549 196.957 180.138 198.826 180.063 199.163C179.951 199.836 180.362 200.471 181.035 200.583C181.708 200.695 182.344 200.284 182.456 199.611C182.531 199.275 182.718 198.826 182.867 198.677C182.905 198.714 182.979 198.751 183.092 198.826C184.512 199.873 186.008 202.565 186.494 203.499C186.718 203.948 187.167 204.21 187.615 204.21Z" fill="#0E0E0E"/>
<path d="M182.867 204.247C183.279 204.247 183.69 204.023 183.914 203.612L186.158 199.649C186.494 199.05 186.27 198.303 185.709 197.966C185.148 197.63 184.363 197.854 184.026 198.415L181.783 202.378C181.447 202.976 181.671 203.724 182.232 204.06C182.456 204.21 182.681 204.247 182.867 204.247Z" fill="#0E0E0E"/>
<path d="M233.64 174.599C236.257 178.973 239.173 183.497 242.65 187.236C245.192 189.965 245.903 188.993 246.501 185.292C247.099 181.665 246.95 177.889 245.978 174.3C245.641 173.029 244.968 171.608 243.697 171.421C243.248 171.346 242.762 171.421 242.388 171.159C242.164 170.972 242.052 170.636 242.014 170.337C241.603 168.43 241.491 166.448 240.855 164.616C240.22 162.784 238.949 160.99 237.042 160.504C233.303 159.569 229.602 162.485 229.789 166.075C230.013 168.953 231.509 172.58 233.64 174.599Z" fill="#252629"/>
<path d="M217.825 405.43C221.153 407.15 223.471 408.384 224.181 408.795C234.239 414.59 244.52 420.011 254.316 426.255C255.288 426.89 256.409 428.386 257.12 429.283C260.298 433.246 264.56 439.004 265.27 444.238C265.345 444.687 265.831 445.322 265.457 445.584C262.84 447.341 261.158 440.948 259.064 438.593C257.045 436.312 239.136 425.245 236.706 426.928C236.669 426.965 243.772 432.91 244.782 433.695C249.979 437.658 255.549 445.921 257.344 451.118C257.606 451.865 259.176 457.361 258.241 457.81C255.848 458.969 252.558 449.473 246.95 444.201C240.894 438.518 231.808 431.564 231.397 432.087C231.322 432.199 239.136 440.051 240.968 441.883C244.931 445.921 249.455 456.838 248.259 457.1C244.595 457.885 241.267 449.286 238.389 446.893C233.266 442.631 223.508 435.901 222.947 436.275C222.424 436.611 231.36 446.295 230.612 450.258C230.088 453.024 221.377 441.397 219.695 440.126C214.647 436.275 202.571 432.573 199.842 429.47C199.692 429.283 198.758 428.835 197.262 428.124C197.449 427.862 214.984 411.973 217.825 405.43Z" fill="white"/>
<path d="M429.028 614.165L434.748 638.991L479.127 669.013L392.425 668.19L390.817 621.082L429.028 614.165Z" fill="white"/>
<path d="M384.237 664.078L424.953 662.732C424.953 662.732 424.354 640.935 451.386 637.308C462.826 635.775 475.837 646.618 483.015 656.451C487.128 662.059 483.24 668.788 483.24 668.788L412.278 668.751L384.873 668.676L384.237 664.078Z" fill="#221F1F"/>
<path d="M341.839 614.465L349.279 638.991L393.658 669.013L303.479 668.191L301.647 621.83L341.839 614.465Z" fill="white"/>
<path d="M298.731 664.078L339.447 662.732C339.447 662.732 338.848 640.935 365.88 637.308C377.32 635.775 390.331 646.618 397.509 656.451C401.622 662.059 397.734 668.788 397.734 668.788L326.772 668.751L299.367 668.676L298.731 664.078Z" fill="#221F1F"/>
<path d="M284.412 377.688C285.011 366.51 283.366 306.988 280.599 295.81C279.477 291.36 278.019 284.743 276.636 278.312C275.252 271.881 273.794 265.264 272.673 260.777L270.99 261.189C272.112 265.638 273.57 272.255 274.953 278.686C276.337 285.117 277.795 291.734 278.916 296.221C281.683 307.288 283.291 366.472 282.693 377.614L284.412 377.688Z" fill="white"/>
<path d="M159.538 362.846C162.491 346.993 171.801 286.388 168.062 272.106L166.38 272.555C170.044 286.575 160.771 346.769 157.818 362.547L159.538 362.846Z" fill="white"/>
<path d="M161.781 255.394L164.062 254.534C162.94 251.468 161.408 248.552 159.501 245.897C158.491 244.476 156.884 242.57 154.528 242.458L154.416 244.888C155.388 244.925 156.36 245.71 157.482 247.281C159.276 249.823 160.697 252.552 161.781 255.394Z" fill="white"/>
<path d="M215.358 591.845C216.853 586.311 251.624 456.352 208.666 440.275C186.569 432.013 168.848 429.433 153.22 427.19C139.386 425.171 127.422 423.451 117.066 417.955C101.887 409.954 97.4746 318.953 94.8575 264.591C93.7733 242.42 92.9881 226.418 91.8665 221.857C87.7913 205.519 77.0237 201.182 76.575 200.995L75.6777 203.275C75.7899 203.313 85.735 207.388 89.4737 222.455C90.558 226.792 91.3806 243.542 92.3901 264.741C95.9793 338.992 100.765 412.16 115.907 420.161C126.637 425.844 138.788 427.601 152.846 429.62C168.362 431.863 185.934 434.406 207.806 442.593C248.708 457.885 213.376 589.901 213.002 591.247L215.358 591.845Z" fill="white"/>
<path d="M435.047 598.686L437.477 598.499C433.29 547.017 426.373 447.042 430.112 437.359C434.673 425.47 446.151 420.198 446.264 420.123L445.254 417.88C444.731 418.104 432.766 423.6 427.831 436.462C422.971 449.099 434.524 592.592 435.047 598.686Z" fill="white"/>
<path d="M320.603 339.179C321.912 336.001 352.308 261.114 342.101 240.588C331.632 219.576 309.686 227.241 309.461 227.353L310.284 229.634C311.107 229.335 330.436 222.642 339.895 241.672C349.616 261.226 318.659 337.46 318.322 338.245L320.603 339.179Z" fill="white"/>
<path d="M183.129 590.424L185.559 590.125C185.41 588.854 169.969 464.727 190.308 446.108C192.364 444.201 194.719 443.603 197.411 444.201L197.935 441.808C194.42 441.023 191.317 441.883 188.663 444.313C167.389 463.755 182.456 585.265 183.129 590.424Z" fill="white"/>
<path d="M209.562 598.574C209.562 598.574 212.591 638.205 213.152 647.066C213.712 655.927 214.273 669.686 201.3 669.761C188.476 669.835 191.504 648.637 191.504 648.637L194.832 598.574H209.562Z" fill="#282A2F"/>
<path d="M342.696 600.166L298.488 608.638L298.945 611.024L343.154 602.553L342.696 600.166Z" fill="white"/>
<path d="M432.301 600.285L385.275 608.756L385.706 611.148L432.732 602.676L432.301 600.285Z" fill="white"/>
<path d="M309.836 615.399C309.911 615.399 309.985 615.399 310.023 615.399C310.696 615.287 311.144 614.651 311.032 613.978L288.525 480.392C288.413 479.794 287.927 479.383 287.329 479.383H279.627L284.637 468.952C284.824 468.578 284.786 468.092 284.562 467.755C284.338 467.381 283.926 467.195 283.478 467.195L272.299 467.681L266.466 461.624C266.317 461.474 266.167 461.362 265.98 461.325L220.966 446.071C220.33 445.846 219.62 446.183 219.395 446.818C219.171 447.454 219.507 448.164 220.143 448.389L264.859 463.568L270.878 469.812C271.14 470.073 271.476 470.186 271.813 470.186L281.534 469.774L276.561 480.131C276.374 480.505 276.411 480.953 276.636 481.327C276.86 481.701 277.234 481.888 277.682 481.888H286.282L308.64 614.464C308.752 614.95 309.238 615.399 309.836 615.399Z" fill="white"/>
<path d="M193.785 167.794C198.421 173.365 201.412 182.862 197.449 189.068C195.691 191.835 192.625 191.76 191.504 195.05C191.13 196.097 191.242 201.182 190.046 201.593C189.784 201.705 189.597 201.256 189.448 201.032C187.503 198.452 187.803 198.078 185.073 194.975C184.064 193.854 180.811 193.405 179.764 195.947C177.745 200.92 184.251 206.266 185.709 210.678C181.521 211.239 175.764 208.024 173.221 204.659C171.913 202.901 170.754 201.032 170.156 198.938C169.744 197.443 169.632 195.835 169.632 194.265C169.595 191.199 169.595 187.012 170.829 184.17C171.726 182.114 173.184 181.067 173.558 178.637C174.006 175.795 177.446 170.112 176.474 167.794C179.503 165.252 183.578 162.336 187.765 163.42C189.223 163.794 190.532 164.654 191.691 165.663C192.401 166.262 193.112 167.009 193.785 167.794Z" fill="#252629"/>
<path d="M229.564 223.091L229.041 220.698C229.041 220.698 221.04 227.054 215.432 220.586C215.432 220.586 214.422 222.53 214.871 222.979C221.002 229.484 229.564 223.091 229.564 223.091Z" fill="#0E0E0E"/>
<path d="M216.18 258.945C216.554 258.871 216.853 258.646 217.152 258.235C217.638 257.525 217.75 256.665 217.9 255.805C218.909 249.486 221.414 243.018 223.097 236.775L199.318 225.371L188.177 229.372C192.177 233.821 196.215 238.27 200.216 242.757C203.244 246.121 206.272 249.486 209.301 252.889C210.46 254.16 213.937 259.431 216.18 258.945Z" fill="white"/>
<path d="M240.295 253.711C239.809 253.823 239.21 253.561 238.425 252.813C237.266 251.654 223.545 236.363 223.022 236.774L240.37 223.277L249.903 225.969C249.829 225.932 246.127 237.746 245.866 238.494C244.856 241.672 243.809 244.85 242.8 248.028C242.276 249.822 241.828 253.412 240.295 253.711Z" fill="white"/>
<path d="M228.032 240.626C228.032 241.785 228.032 242.906 228.032 244.065C228.032 244.29 228.032 244.551 227.92 244.738C227.733 245.112 227.322 245.224 226.911 245.336C225.004 245.86 223.06 246.234 221.078 246.533C220.779 246.57 220.48 246.608 220.218 246.458C219.994 246.309 219.882 246.084 219.807 245.823C219.508 245.037 219.321 244.215 219.134 243.392C218.91 242.383 218.648 241.336 218.797 240.327C218.91 239.28 219.471 238.233 220.443 237.822C221.714 237.261 224.032 237.522 225.452 237.41C227.658 237.223 228.032 238.644 228.032 240.626Z" fill="#267E2F"/>
<path d="M207.431 233.11C206.646 232.849 205.749 232.587 205.039 232.998C203.057 234.195 204.739 239.578 204.964 241.336C205.038 241.822 205.076 242.27 205.001 242.756C204.926 243.168 204.702 243.542 204.553 243.953C203.693 246.084 204.253 248.439 204.964 250.533C205.898 253.3 206.235 253.262 208.74 252.178C213.002 250.346 217.227 248.514 221.377 246.458C221.639 246.346 221.9 246.196 222.012 245.934C222.087 245.71 222.05 245.486 222.012 245.224C221.751 243.766 221.452 242.27 221.19 240.812C220.704 238.307 217.825 237.559 215.769 236.587C213.04 235.241 210.273 234.12 207.431 233.11Z" fill="#12FF2A"/>
<path d="M238.986 229.522C241.678 228.438 243.922 228.774 243.847 233.186C243.809 234.831 243.697 236.476 243.473 238.121C243.323 239.28 243.137 240.476 243.249 241.635C243.398 243.056 244.071 244.402 244.146 245.86C244.408 250.122 240.781 248.589 238.239 247.954C234.575 247.057 230.948 246.047 227.359 244.925C227.097 244.851 226.798 244.739 226.648 244.514C226.536 244.327 226.536 244.066 226.536 243.841C226.574 242.346 226.611 240.85 226.648 239.355C226.723 236.812 229.453 235.616 231.322 234.307C233.079 233.111 236.257 230.569 238.986 229.522Z" fill="#12FF2A"/>
<path d="M222.05 236.438C222.835 236.438 223.583 236.4 224.405 236.326C230.051 235.728 235.584 231.241 237.155 229.895C237.678 229.446 237.716 228.699 237.267 228.175C236.818 227.652 236.07 227.614 235.547 228.063C231.733 231.353 227.471 233.559 224.144 233.896C220.255 234.307 216.629 233.484 212.404 232.101C211.769 231.877 211.058 232.25 210.871 232.886C210.647 233.522 211.021 234.232 211.656 234.419C215.32 235.615 218.61 236.438 222.05 236.438Z" fill="#0E0E0E"/>
<path d="M168.099 194.339C168.249 194.339 168.436 194.302 168.585 194.19C168.997 193.928 169.072 193.367 168.81 192.993C168.772 192.956 166.641 189.703 167.987 186.525C169.221 183.647 175.166 185.404 175.24 185.404C175.577 185.516 175.913 185.404 176.138 185.142C176.362 184.88 176.399 184.506 176.25 184.207C176.138 183.983 173.483 178.337 177.932 175.795C182.381 173.253 185.784 178.188 185.896 178.375C186.12 178.711 186.569 178.861 186.943 178.711C187.317 178.562 187.541 178.151 187.466 177.777C187.317 176.917 187.13 174.337 188.064 173.141C188.401 172.729 188.812 172.505 189.373 172.468C192.738 172.169 193.448 175.945 193.486 176.094C193.56 176.58 194.046 176.879 194.495 176.767C194.981 176.692 195.28 176.244 195.206 175.758C194.869 173.888 193.186 170.449 189.261 170.71C188.214 170.785 187.317 171.234 186.718 172.056C185.971 173.028 185.709 174.337 185.634 175.496C183.615 173.739 180.512 172.355 177.073 174.3C173.222 176.505 173.259 180.618 174.082 183.385C171.763 182.974 167.726 182.749 166.38 185.852C164.622 189.928 167.24 193.816 167.352 194.003C167.576 194.227 167.838 194.339 168.099 194.339Z" fill="white"/>
<path d="M176.436 203.762C176.549 203.762 176.698 203.724 176.81 203.687C177.259 203.5 177.446 202.977 177.222 202.528C177.184 202.453 174.305 196.022 177.745 192.807C181.11 189.667 186.755 193.966 186.793 194.004C187.092 194.265 187.541 194.265 187.877 194.004C188.176 193.742 188.288 193.331 188.139 192.957C188.027 192.695 185.484 186.862 189.56 184.395C192.139 182.825 195.168 186.264 195.205 186.302C195.504 186.676 196.065 186.713 196.439 186.376C196.813 186.077 196.85 185.517 196.514 185.143C196.364 184.956 192.513 180.581 188.662 182.899C185.41 184.881 185.223 188.508 185.821 191.312C183.465 190.078 179.54 188.732 176.586 191.499C172.212 195.574 175.502 202.902 175.651 203.238C175.763 203.575 176.1 203.762 176.436 203.762Z" fill="white"/>
<path d="M248.782 183.273C249.193 183.273 249.529 183.011 249.641 182.6C250.09 180.431 249.941 176.057 245.978 175.01C244.407 174.599 243.061 174.786 241.902 175.571C239.659 177.141 239.323 180.469 239.323 180.618C239.285 181.104 239.622 181.516 240.108 181.553C240.631 181.59 241.005 181.254 241.042 180.768C241.042 180.731 241.341 178.039 242.912 176.954C243.622 176.468 244.482 176.356 245.529 176.655C248.894 177.553 247.996 182.039 247.959 182.226C247.847 182.712 248.146 183.161 248.632 183.236C248.67 183.273 248.744 183.273 248.782 183.273Z" fill="white"/>
<path d="M244.108 171.72C244.52 171.72 244.856 171.458 244.968 171.047C245.417 168.879 245.267 164.504 241.304 163.457C239.734 163.046 238.388 163.233 237.229 164.018C234.986 165.588 234.649 168.916 234.649 169.065C234.612 169.551 234.948 169.963 235.434 170C235.958 170.038 236.332 169.701 236.369 169.215C236.369 169.178 236.668 166.486 238.238 165.401C238.949 164.915 239.809 164.803 240.856 165.102C244.22 166 243.323 170.486 243.286 170.673C243.174 171.159 243.473 171.608 243.959 171.683C243.996 171.683 244.034 171.72 244.108 171.72Z" fill="white"/>
<path d="M198.234 198.453C198.234 192.47 203.094 187.61 209.076 187.61C215.058 187.61 219.919 192.47 219.919 198.453C219.919 204.435 215.058 209.295 209.076 209.295C203.094 209.295 198.234 204.435 198.234 198.453ZM200.664 198.453C200.664 203.089 204.44 206.865 209.076 206.865C213.712 206.865 217.489 203.089 217.489 198.453C217.489 193.816 213.712 190.04 209.076 190.04C204.44 190.003 200.664 193.779 200.664 198.453Z" fill="#121513"/>
<path d="M224.031 193.966C224.031 187.984 228.892 183.124 234.874 183.124C240.856 183.124 245.716 187.984 245.716 193.966C245.716 199.948 240.856 204.808 234.874 204.808C228.892 204.808 224.031 199.948 224.031 193.966ZM226.461 193.966C226.461 198.602 230.238 202.378 234.874 202.378C239.51 202.378 243.286 198.602 243.286 193.966C243.286 189.33 239.51 185.554 234.874 185.554C230.238 185.516 226.461 189.293 226.461 193.966Z" fill="#121513"/>
<path d="M217.974 192.769C217.974 192.657 218.348 190.189 220.89 189.479C223.321 188.806 223.956 190.302 224.106 190.75L226.461 190.115C226.424 189.928 225.938 188.357 224.368 187.46C223.246 186.824 221.863 186.712 220.255 187.124C216.18 188.245 215.619 192.246 215.582 192.433L217.974 192.769Z" fill="#121513"/>
<path d="M197.112 196.882L197.262 196.209L196.925 196.134C195.766 195.91 194.607 195.835 193.448 195.91L193.112 195.947L193.149 196.62L193.485 196.583C194.57 196.508 195.691 196.583 196.775 196.77L197.112 196.882Z" fill="#0E0E0E"/>
<path d="M192.85 200.471C194.271 200.471 195.692 200.322 197.112 200.06L197.449 199.985L197.299 199.312L196.963 199.387C195.617 199.649 194.234 199.798 192.85 199.798C192.813 199.798 192.775 199.798 192.701 199.798H192.364V200.509H192.701C192.738 200.471 192.813 200.471 192.85 200.471Z" fill="#0E0E0E"/>
<path d="M193.411 204.584L193.71 204.397C194.869 203.724 196.252 203.425 197.598 203.537L197.935 203.574L198.009 202.864L197.673 202.827C196.215 202.715 194.682 203.051 193.411 203.761L193.112 203.948L193.411 204.584Z" fill="#0E0E0E"/>
<path d="M206.609 224.324L206.87 224.1C208.889 222.605 209.899 220.174 210.871 217.856C211.843 215.463 212.777 213.183 214.759 211.837L215.058 211.65L214.647 211.089L214.348 211.276C212.217 212.772 211.207 215.239 210.235 217.632C209.263 219.987 208.366 222.193 206.459 223.614L206.197 223.801L206.609 224.324Z" fill="#0E0E0E"/>
<path d="M234.948 222.529L235.584 222.23L235.434 221.931C234.088 219.202 232.555 216.51 230.873 213.93C230.125 212.734 229.265 211.537 227.919 210.977L227.62 210.827L227.359 211.463L227.658 211.612C228.817 212.098 229.602 213.22 230.312 214.304C231.957 216.847 233.453 219.501 234.799 222.23L234.948 222.529Z" fill="#0E0E0E"/>
<path d="M206.235 179.647L206.571 179.535C207.581 179.161 208.739 179.048 209.861 178.936C211.431 178.787 213.039 178.637 214.385 177.74C214.609 177.59 214.796 177.441 214.983 177.291C215.357 177.03 215.694 176.73 216.067 176.581C216.628 176.357 217.226 176.394 217.899 176.431C218.348 176.431 218.797 176.469 219.283 176.431C220.105 176.319 220.853 175.983 221.564 175.646C221.9 175.497 222.274 175.31 222.61 175.198C224.031 174.674 225.639 174.599 227.097 175.048L227.433 175.16L227.62 174.487L227.284 174.375C225.676 173.889 223.919 173.964 222.349 174.562C221.975 174.712 221.601 174.861 221.264 175.048C220.554 175.385 219.918 175.684 219.171 175.758C218.759 175.796 218.348 175.796 217.937 175.758C217.227 175.721 216.516 175.684 215.843 175.945C215.357 176.132 214.946 176.431 214.572 176.73C214.385 176.88 214.198 177.03 214.011 177.142C212.815 177.927 211.357 178.076 209.824 178.226C208.665 178.338 207.468 178.45 206.347 178.862L206.01 178.974L206.235 179.647Z" fill="#0E0E0E"/>
<path d="M207.468 174.561L207.767 174.412C208.253 174.187 208.814 174.187 209.412 174.187C210.123 174.187 210.833 174.187 211.469 173.814C211.843 173.627 212.104 173.328 212.366 173.066C212.441 172.991 212.516 172.879 212.628 172.804C213.488 171.944 214.684 171.421 215.918 171.309C216.254 171.271 216.628 171.271 216.965 171.271C217.339 171.271 217.75 171.271 218.161 171.234C219.32 171.122 220.404 170.673 221.451 170.224C221.713 170.112 221.975 170 222.274 169.888C223.283 169.477 224.816 168.991 226.162 169.439L226.499 169.551L226.723 168.878L226.386 168.766C224.854 168.243 223.171 168.766 222.049 169.215C221.788 169.327 221.489 169.439 221.227 169.551C220.18 170 219.208 170.411 218.161 170.486C217.787 170.523 217.451 170.523 217.04 170.523C216.666 170.523 216.292 170.523 215.918 170.561C214.535 170.673 213.226 171.271 212.217 172.243C212.142 172.318 212.03 172.43 211.955 172.505C211.693 172.767 211.469 172.991 211.207 173.141C210.721 173.402 210.123 173.402 209.487 173.402C208.852 173.402 208.179 173.402 207.543 173.701L207.244 173.851L207.468 174.561Z" fill="#0E0E0E"/>
<path d="M218.386 402.252L219.358 400.832L183.727 376.38C180.624 374.249 177.446 372.081 174.044 370.286C164.099 365.052 152.509 363.407 141.479 365.613L141.816 367.295C152.471 365.164 163.613 366.734 173.221 371.782C176.511 373.501 179.689 375.67 182.718 377.764L218.386 402.252Z" fill="white"/>
<path d="M255.512 346.432L255.774 344.712C230.761 340.675 207.618 325.57 193.822 304.296L192.364 305.231C206.422 326.916 230.014 342.32 255.512 346.432Z" fill="white"/>
<path d="M259.175 379.67L259.587 377.987C230.836 370.697 205.711 350.507 192.439 323.962L190.906 324.747C204.403 351.741 229.901 372.267 259.175 379.67Z" fill="white"/>
<path d="M328.978 393.69C338.064 386.138 347.336 378.548 356.57 371.183L355.486 369.837C346.252 377.202 336.979 384.792 327.894 392.344L328.978 393.69Z" fill="white"/>
<path d="M184.887 425.133C188.663 422.965 191.691 419.899 194.757 416.646C200.552 410.477 206.235 404.009 211.581 397.429L210.236 396.345C204.889 402.925 199.281 409.356 193.486 415.487C190.532 418.628 187.579 421.619 183.99 423.638L184.887 425.133Z" fill="white"/>
</svg>
