<svg width="495" height="1397" viewBox="0 0 495 1397" fill="none" xmlns="http://www.w3.org/2000/svg">
<path d="M383.848 1163.58C405.969 1130.28 462.991 988.469 475.092 944.107C496.843 864.41 503.75 759.688 475.812 678.622C420.443 517.966 223.812 470.867 91.0117 539.741C16.1683 578.562 -43.1694 675.756 -81.9238 753.549C-99.3944 788.606 -118.752 824.647 -144.939 853.33C-171.183 882.078 -209.121 895.681 -239.12 919.145C-262.544 937.476 -279.645 965.09 -286.201 996.147C-292.641 1026.65 -287.641 1059.01 -277.096 1088.1C-266.552 1117.19 -253.906 1137.62 -237.992 1163.58H383.848Z" fill="#CCFEBA"/>
<path d="M0.203552 356.181C-1.77611 358.282 -4.87625 358.298 -6.97235 356.469C-9.06846 354.641 -9.24033 351.394 -7.33398 349.371C-5.50544 347.275 -2.25857 347.103 -0.0846639 349.005C2.01144 350.834 2.1099 354.158 0.203552 356.181Z" fill="#191919"/>
<path d="M14.6968 370.575C12.7127 372.524 9.46139 372.545 7.51193 370.561C5.56247 368.577 5.54176 365.325 7.52591 363.376C9.51005 361.427 12.8347 361.328 14.7108 363.39C16.7336 365.296 16.7543 368.548 14.6968 370.575Z" fill="#191919"/>
<path d="M28.6765 385.513C26.6145 387.389 23.3587 387.258 21.4826 385.196C19.6064 383.135 19.7368 379.879 21.7988 378.003C23.8607 376.126 27.1165 376.257 28.9927 378.319C30.8688 380.381 30.7384 383.636 28.6765 385.513Z" fill="#191919"/>
<path d="M41.9189 401.078C39.7792 402.88 36.5922 402.521 34.716 400.459C32.9132 398.319 33.1215 395.137 35.2612 393.334C37.4009 391.531 40.6612 391.813 42.464 393.953C44.4135 395.937 44.0587 399.275 41.9189 401.078Z" fill="#191919"/>
<path d="M54.7895 416.88C52.572 418.61 49.3849 418.251 47.5821 416.111C45.7793 413.971 46.1386 410.784 48.3517 408.903C50.5692 407.174 53.7561 407.533 55.559 409.673C57.3663 411.964 57.007 415.151 54.7895 416.88Z" fill="#191919"/>
<path d="M67.2208 433.15C64.9254 434.806 61.7385 434.447 60.0824 432.151C58.3529 429.934 58.8633 426.742 61.0809 425.013C63.2984 423.283 66.5631 423.716 68.2193 426.011C69.8755 428.307 69.5161 431.494 67.2208 433.15Z" fill="#191919"/>
<path d="M79.1339 449.813C76.7608 451.396 73.5694 450.885 71.9865 448.512C70.3304 446.217 70.9186 443.099 73.2139 441.443C75.5093 439.786 78.7006 440.297 80.2835 442.67C81.8664 445.043 81.3559 448.235 79.1339 449.813Z" fill="#191919"/>
<path d="M90.3789 466.874C88.0057 468.457 84.8831 467.717 83.3003 465.344C81.7952 463.044 82.4568 459.848 84.7567 458.343C87.1298 456.76 90.3257 457.422 91.8352 459.873C93.4136 462.095 92.752 465.291 90.3789 466.874Z" fill="#191919"/>
<path d="M101.028 484.255C98.6501 485.686 95.4498 484.874 94.0181 482.496C92.5863 480.118 93.3256 476.996 95.7766 475.486C98.1542 474.055 101.277 474.794 102.786 477.245C104.296 479.696 103.483 482.896 101.028 484.255Z" fill="#191919"/>
<path d="M111.013 502.184C108.479 503.47 105.352 502.579 104.072 500.197C102.713 497.742 103.681 494.688 106.059 493.256C108.514 491.898 111.642 492.788 112.927 495.321C114.358 497.699 113.468 500.826 111.013 502.184Z" fill="#191919"/>
<path d="M120.099 520.444C117.488 521.656 114.508 520.61 113.223 518.076C112.015 515.616 113.057 512.485 115.59 511.2C118.123 509.915 121.182 511.034 122.467 513.567C123.752 516.101 122.71 519.232 120.099 520.444Z" fill="#191919"/>
<path d="M128.367 539.105C125.751 540.166 122.766 538.969 121.705 536.353C120.645 533.738 121.842 530.753 124.38 529.619C126.917 528.485 129.902 529.682 131.041 532.371C132.179 535.06 130.982 538.045 128.367 539.105Z" fill="#191919"/>
<path d="M135.589 558.252C132.969 559.161 129.979 557.813 129.07 555.193C128.16 552.573 129.509 549.583 132.129 548.674C134.744 547.613 137.66 549.039 138.648 551.733C139.635 554.426 138.282 557.264 135.589 558.252Z" fill="#191919"/>
<path d="M141.762 577.732C138.987 578.495 136.217 576.913 135.459 574.288C134.7 571.664 136.204 568.821 138.975 567.907C141.673 567.071 144.516 568.575 145.279 571.351C146.042 574.126 144.387 576.973 141.762 577.732Z" fill="#191919"/>
<path d="M146.585 597.554C143.805 598.166 141.104 596.355 140.497 593.726C139.963 591.02 141.622 588.324 144.398 587.561C147.1 586.876 149.874 588.608 150.486 591.388C151.098 594.168 149.365 596.942 146.585 597.554Z" fill="#191919"/>
<path d="M150.208 617.715C147.423 618.175 144.869 616.209 144.335 613.502C143.952 610.791 145.841 608.164 148.547 607.63C151.332 607.169 153.959 609.058 154.42 611.842C154.88 614.627 152.992 617.254 150.208 617.715Z" fill="#191919"/>
<path d="M152.397 637.994C149.603 638.152 147.123 636.108 146.891 633.392C146.659 630.677 148.777 628.118 151.566 627.809C154.355 627.499 156.835 629.543 157.071 632.41C157.307 635.277 155.264 637.757 152.397 637.994Z" fill="#191919"/>
<path d="M153.303 658.386C150.505 658.393 148.171 656.193 148.164 653.396C148.156 650.598 150.356 648.264 153.227 648.178C156.021 648.02 158.359 650.371 158.367 653.169C158.301 656.044 156.101 658.379 153.303 658.386Z" fill="#191919"/>
<path d="M152.548 678.828C149.745 678.684 147.631 676.251 147.775 673.448C147.919 670.646 150.352 668.532 153.228 668.598C156.103 668.664 158.217 671.097 158 673.977C157.856 676.78 155.428 679.045 152.548 678.828Z" fill="#191919"/>
<path d="M150.579 699.154C147.768 698.708 145.805 696.27 146.177 693.537C146.55 690.803 149.139 688.836 151.946 689.131C154.753 689.426 156.72 692.014 156.347 694.748C155.901 697.559 153.313 699.527 150.579 699.154Z" fill="#191919"/>
<path d="M223.944 633.445L170.303 566.705L139.351 646.505L223.944 633.445Z" fill="#12FF2A"/>
<path d="M379.373 364.724L310.018 278.433L270 381.61L379.373 364.724Z" stroke="black"/>
<path d="M383.373 382.724L314.018 296.433L274 399.61L383.373 382.724Z" fill="#12FF2A"/>
<path fill-rule="evenodd" clip-rule="evenodd" d="M93.2097 662.115L128.648 644.76L111.294 609.322L75.8553 626.676L93.2097 662.115Z" fill="#191919"/>
<path d="M107.532 1092.65C107.532 1092.65 110.56 1132.28 111.121 1141.14C111.682 1150 112.243 1163.76 99.2694 1163.84C86.4454 1163.91 89.4737 1142.71 89.4737 1142.71L92.8012 1092.65H107.532Z" fill="#282A2F"/>
<path d="M432.991 1092.57C432.991 1092.57 436.019 1132.21 436.58 1141.07C437.141 1149.93 437.702 1163.69 424.728 1163.76C411.904 1163.84 414.932 1142.64 414.932 1142.64L418.26 1092.57H432.991Z" fill="#282A2F"/>
<path d="M306.022 1092.57C306.022 1092.57 309.051 1132.21 309.612 1141.07C310.172 1149.93 310.733 1163.69 297.76 1163.76C284.936 1163.84 287.964 1142.64 287.964 1142.64L291.292 1092.57H306.022Z" fill="#282A2F"/>
<path d="M458.489 1092.57H74.3688C74.3688 1092.57 70.5927 904.29 72.4994 880.736C74.3688 857.182 14.1374 719.745 57.4323 694.322C100.727 668.898 84.7251 701.837 117.701 703.743C150.64 705.613 291.853 721.615 291.853 721.615C291.853 721.615 329.502 694.322 350.215 718.773C370.927 743.262 332.343 843.05 332.343 843.05C332.343 843.05 310.696 877.895 325.763 891.99C340.83 906.122 431.196 887.279 464.172 913.637C497.073 940.07 458.489 1092.57 458.489 1092.57Z" fill="#221F1F"/>
<path d="M227.915 1046.22L227.887 1048.65L432.975 1051.05L433.003 1048.62L227.915 1046.22Z" fill="white"/>
<path d="M274.729 860.472C282.095 873.483 339.186 888.55 340.569 890.083C343.298 893.186 355.374 896.888 360.422 900.738C362.104 902.01 370.815 913.637 371.339 910.87C372.087 906.907 363.151 897.224 363.674 896.888C364.235 896.514 373.993 903.243 379.116 907.506C381.994 909.898 385.322 918.498 388.986 917.712C390.182 917.451 385.658 906.534 381.695 902.496C379.863 900.626 372.049 892.812 372.124 892.7C372.535 892.177 381.62 899.131 387.677 904.814C393.285 910.085 396.576 919.582 398.968 918.423C399.903 917.974 398.333 912.478 398.071 911.73C396.276 906.534 390.706 898.271 385.509 894.308C384.499 893.523 377.396 887.578 377.433 887.541C379.863 885.896 397.809 896.925 399.791 899.206C401.885 901.561 403.567 907.954 406.184 906.197C406.558 905.935 406.072 905.3 405.997 904.851C405.287 899.617 401.025 893.897 397.847 889.896C397.136 888.999 396.052 887.503 395.043 886.868C385.247 880.624 374.966 875.203 364.908 869.408C361.282 867.314 312.64 842.713 309.313 837.778C299.928 823.795 305.238 790.295 301.611 791.641L260.746 780.126C255.549 782.257 263.363 840.357 274.729 860.472Z" fill="white"/>
<path d="M326.249 894.233C326.249 894.233 393.808 905.711 410.708 935.434C427.607 965.157 433.028 1108.76 433.028 1108.76L387.34 1118.04C387.34 1118.04 371.301 989.833 347.635 972.971C323.968 956.072 266.092 956.409 244.482 940.182C222.872 923.956 252.072 888.288 252.072 888.288L326.249 894.233Z" fill="#121513"/>
<path opacity="0.49" d="M237.715 723.745C237.715 723.745 243.884 741.206 231.621 743.374C219.358 745.542 201.86 730.101 201.86 730.101L206.421 713.202C206.421 713.202 207.693 716.866 218.61 720.343C229.527 723.858 237.715 723.745 237.715 723.745Z" fill="white"/>
<path d="M393.734 1109.4C393.809 1109.4 393.883 1109.4 393.921 1109.4C394.594 1109.29 395.042 1108.65 394.93 1107.98L372.423 974.392C372.311 973.794 371.825 973.383 371.226 973.383H363.525L368.534 962.952C368.721 962.578 368.684 962.092 368.46 961.755C368.235 961.381 367.824 961.195 367.376 961.195L356.197 961.681L350.327 955.624C350.177 955.474 350.028 955.362 349.841 955.325L304.826 940.071C304.19 939.846 303.48 940.183 303.256 940.818C303.032 941.454 303.368 942.164 304.004 942.389L348.719 957.568L354.738 963.812C355 964.073 355.337 964.186 355.673 964.186L365.394 963.774L360.421 974.131C360.235 974.505 360.272 974.953 360.496 975.327C360.72 975.701 361.094 975.888 361.543 975.888H370.142L392.5 1108.46C392.612 1108.95 393.136 1109.4 393.734 1109.4Z" fill="white"/>
<path d="M237.603 894.233C237.603 894.233 305.162 905.711 322.062 935.434C338.961 965.157 345.167 1107.83 345.167 1107.83L298.395 1116.8C298.395 1116.8 287.59 990.17 263.961 973.27C240.295 956.371 177.484 956.371 155.836 940.145C134.226 923.919 151.836 893.037 151.836 893.037L237.603 894.233Z" fill="#282A2F"/>
<path d="M338.437 893.074L367.076 870.679L309.873 832.73C309.873 832.73 299.479 750.515 281.496 736.569C263.513 722.624 247.137 714.436 205.337 721.39C180.138 723.11 149.63 730.401 138.114 743.598C118.449 766.106 116.504 822.935 116.504 822.935C116.504 822.935 107.307 872.361 116.504 886.606C126.263 901.673 191.691 923.732 191.691 923.732C191.691 923.732 256.97 925.788 281.346 913.002C305.723 900.215 290.693 884.55 290.693 884.55L294.731 893.971L283.59 871.614L338.437 893.074Z" fill="#282A2F"/>
<path d="M239.884 723.97L230.649 761.32L193.299 727.111C193.299 727.111 198.832 713.875 217.002 717.726C235.135 721.54 239.884 723.97 239.884 723.97Z" fill="#38A63C"/>
<path d="M224.816 1024.87C224.816 1024.87 244.033 945.529 212.553 936.406C181.073 927.284 123.795 916.516 120.131 914.759C116.467 913.002 111.644 908.066 110.26 904.515C108.914 900.963 100.203 989.048 100.203 989.048L224.816 1024.87Z" fill="#221F1F"/>
<path d="M210.273 647.475C234.948 646.241 238.463 670.842 240.743 675.89C248.071 692.265 248.109 714.249 232.63 725.765C228.705 728.681 222.648 728.681 218.087 728.232C198.308 726.288 185.896 705.987 186.382 686.695C186.419 684.265 174.306 653.495 210.273 647.475Z" fill="white"/>
<path d="M195.841 714.773C195.841 714.773 174.829 697.051 179.727 689.948C184.625 682.844 190.756 697.462 190.756 697.462L195.841 714.773Z" fill="white"/>
<path d="M209.001 697.125C210.422 696.976 211.357 694.583 211.058 691.816C210.796 689.012 209.413 686.881 207.954 686.993C206.534 687.143 205.599 689.536 205.898 692.302C206.197 695.144 207.581 697.275 209.001 697.125Z" fill="#121513"/>
<path d="M232.855 692.489C234.275 692.34 235.21 689.947 234.911 687.18C234.649 684.376 233.266 682.245 231.845 682.357C230.425 682.507 229.49 684.9 229.789 687.666C230.051 690.47 231.434 692.639 232.855 692.489Z" fill="#121513"/>
<path d="M205.487 683.105C208.142 681.573 209.862 679.554 209.301 678.619C208.74 677.684 206.16 678.133 203.506 679.703C200.851 681.236 199.131 683.255 199.692 684.19C200.253 685.124 202.833 684.638 205.487 683.105Z" fill="#282A2F"/>
<path d="M229.677 678.394C232.742 678.507 235.285 677.721 235.322 676.637C235.36 675.553 232.929 674.543 229.864 674.431C226.798 674.319 224.255 675.104 224.218 676.189C224.143 677.273 226.573 678.282 229.677 678.394Z" fill="#282A2F"/>
<path d="M220.368 705.239L227.808 702.024C228.107 701.874 228.369 701.65 228.481 701.313C228.593 701.014 228.593 700.64 228.406 700.341L221.564 686.695L219.396 687.779L225.677 700.266L219.433 702.958L220.368 705.239Z" fill="#0E0E0E"/>
<path d="M187.615 698.21C187.802 698.21 187.989 698.173 188.139 698.098C188.737 697.799 188.999 697.088 188.7 696.453C188.625 696.303 186.756 692.49 184.55 690.882C183.466 690.097 182.568 690.172 181.97 690.396C180.549 690.957 180.138 692.826 180.063 693.163C179.951 693.836 180.362 694.471 181.035 694.583C181.708 694.695 182.344 694.284 182.456 693.611C182.531 693.275 182.718 692.826 182.867 692.677C182.905 692.714 182.979 692.751 183.092 692.826C184.512 693.873 186.008 696.565 186.494 697.499C186.718 697.948 187.167 698.21 187.615 698.21Z" fill="#0E0E0E"/>
<path d="M182.867 698.247C183.279 698.247 183.69 698.023 183.914 697.612L186.158 693.649C186.494 693.05 186.27 692.303 185.709 691.966C185.148 691.63 184.363 691.854 184.026 692.415L181.783 696.378C181.447 696.976 181.671 697.724 182.232 698.06C182.456 698.21 182.681 698.247 182.867 698.247Z" fill="#0E0E0E"/>
<path d="M233.64 668.599C236.257 672.973 239.173 677.497 242.65 681.236C245.192 683.965 245.903 682.993 246.501 679.292C247.099 675.665 246.95 671.889 245.978 668.3C245.641 667.029 244.968 665.608 243.697 665.421C243.248 665.346 242.762 665.421 242.388 665.159C242.164 664.972 242.052 664.636 242.014 664.337C241.603 662.43 241.491 660.448 240.855 658.616C240.22 656.784 238.949 654.99 237.042 654.504C233.303 653.569 229.602 656.485 229.789 660.075C230.013 662.953 231.509 666.58 233.64 668.599Z" fill="#252629"/>
<path d="M217.825 899.43C221.153 901.15 223.471 902.384 224.181 902.795C234.239 908.59 244.52 914.011 254.316 920.255C255.288 920.89 256.409 922.386 257.12 923.283C260.298 927.246 264.56 933.004 265.27 938.238C265.345 938.687 265.831 939.322 265.457 939.584C262.84 941.341 261.158 934.948 259.064 932.593C257.045 930.312 239.136 919.245 236.706 920.928C236.669 920.965 243.772 926.91 244.782 927.695C249.979 931.658 255.549 939.921 257.344 945.118C257.606 945.865 259.176 951.361 258.241 951.81C255.848 952.969 252.558 943.473 246.95 938.201C240.894 932.518 231.808 925.564 231.397 926.087C231.322 926.199 239.136 934.051 240.968 935.883C244.931 939.921 249.455 950.838 248.259 951.1C244.595 951.885 241.267 943.286 238.389 940.893C233.266 936.631 223.508 929.901 222.947 930.275C222.424 930.611 231.36 940.295 230.612 944.258C230.088 947.024 221.377 935.397 219.695 934.126C214.647 930.275 202.571 926.573 199.842 923.47C199.692 923.283 198.758 922.835 197.262 922.124C197.449 921.862 214.984 905.973 217.825 899.43Z" fill="white"/>
<path d="M429.028 1108.17L434.748 1132.99L479.127 1163.01L392.425 1162.19L390.817 1115.08L429.028 1108.17Z" fill="white"/>
<path d="M384.237 1158.08L424.953 1156.73C424.953 1156.73 424.354 1134.93 451.386 1131.31C462.826 1129.78 475.837 1140.62 483.015 1150.45C487.128 1156.06 483.24 1162.79 483.24 1162.79L412.278 1162.75L384.873 1162.68L384.237 1158.08Z" fill="#221F1F"/>
<path d="M341.839 1108.46L349.279 1132.99L393.658 1163.01L303.479 1162.19L301.647 1115.83L341.839 1108.46Z" fill="white"/>
<path d="M298.731 1158.08L339.447 1156.73C339.447 1156.73 338.848 1134.93 365.88 1131.31C377.32 1129.78 390.331 1140.62 397.509 1150.45C401.622 1156.06 397.734 1162.79 397.734 1162.79L326.772 1162.75L299.367 1162.68L298.731 1158.08Z" fill="#221F1F"/>
<path d="M284.412 871.688C285.011 860.51 283.366 800.988 280.599 789.81C279.477 785.36 278.019 778.743 276.636 772.312C275.252 765.881 273.794 759.264 272.673 754.777L270.99 755.189C272.112 759.638 273.57 766.255 274.953 772.686C276.337 779.117 277.795 785.734 278.916 790.221C281.683 801.288 283.291 860.472 282.693 871.614L284.412 871.688Z" fill="white"/>
<path d="M159.538 856.846C162.491 840.993 171.801 780.388 168.062 766.106L166.38 766.555C170.044 780.575 160.771 840.769 157.818 856.547L159.538 856.846Z" fill="white"/>
<path d="M161.781 749.394L164.062 748.534C162.94 745.468 161.408 742.552 159.501 739.897C158.491 738.476 156.884 736.57 154.528 736.458L154.416 738.888C155.388 738.925 156.36 739.71 157.482 741.281C159.276 743.823 160.697 746.552 161.781 749.394Z" fill="white"/>
<path d="M215.358 1085.84C216.853 1080.31 251.624 950.352 208.666 934.275C186.569 926.013 168.848 923.433 153.22 921.19C139.386 919.171 127.422 917.451 117.066 911.955C101.887 903.954 97.4746 812.953 94.8575 758.591C93.7733 736.42 92.9881 720.418 91.8665 715.857C87.7913 699.519 77.0237 695.182 76.575 694.995L75.6777 697.275C75.7899 697.313 85.735 701.388 89.4737 716.455C90.558 720.792 91.3806 737.542 92.3901 758.741C95.9793 832.992 100.765 906.16 115.907 914.161C126.637 919.844 138.788 921.601 152.846 923.62C168.362 925.863 185.934 928.406 207.806 936.593C248.708 951.885 213.376 1083.9 213.002 1085.25L215.358 1085.84Z" fill="white"/>
<path d="M435.047 1092.69L437.477 1092.5C433.29 1041.02 426.373 941.042 430.112 931.359C434.673 919.47 446.151 914.198 446.264 914.123L445.254 911.88C444.731 912.104 432.766 917.6 427.831 930.462C422.971 943.099 434.524 1086.59 435.047 1092.69Z" fill="white"/>
<path d="M320.603 833.179C321.912 830.001 352.308 755.114 342.101 734.588C331.632 713.576 309.686 721.241 309.461 721.353L310.284 723.634C311.107 723.335 330.436 716.642 339.895 735.672C349.616 755.226 318.659 831.46 318.322 832.245L320.603 833.179Z" fill="white"/>
<path d="M183.129 1084.42L185.559 1084.13C185.41 1082.85 169.969 958.727 190.308 940.108C192.364 938.201 194.719 937.603 197.411 938.201L197.935 935.808C194.42 935.023 191.317 935.883 188.663 938.313C167.389 957.755 182.456 1079.26 183.129 1084.42Z" fill="white"/>
<path d="M209.562 1092.57C209.562 1092.57 212.591 1132.21 213.152 1141.07C213.712 1149.93 214.273 1163.69 201.3 1163.76C188.476 1163.84 191.504 1142.64 191.504 1142.64L194.832 1092.57H209.562Z" fill="#282A2F"/>
<path d="M342.696 1094.17L298.488 1102.64L298.945 1105.02L343.154 1096.55L342.696 1094.17Z" fill="white"/>
<path d="M432.301 1094.28L385.275 1102.76L385.706 1105.15L432.732 1096.68L432.301 1094.28Z" fill="white"/>
<path d="M309.836 1109.4C309.911 1109.4 309.985 1109.4 310.023 1109.4C310.696 1109.29 311.144 1108.65 311.032 1107.98L288.525 974.392C288.413 973.794 287.927 973.383 287.329 973.383H279.627L284.637 962.952C284.824 962.578 284.786 962.092 284.562 961.755C284.338 961.381 283.926 961.195 283.478 961.195L272.299 961.681L266.466 955.624C266.317 955.474 266.167 955.362 265.98 955.325L220.966 940.071C220.33 939.846 219.62 940.183 219.395 940.818C219.171 941.454 219.507 942.164 220.143 942.389L264.859 957.568L270.878 963.812C271.14 964.073 271.476 964.186 271.813 964.186L281.534 963.774L276.561 974.131C276.374 974.505 276.411 974.953 276.636 975.327C276.86 975.701 277.234 975.888 277.682 975.888H286.282L308.64 1108.46C308.752 1108.95 309.238 1109.4 309.836 1109.4Z" fill="white"/>
<path d="M193.785 661.794C198.421 667.365 201.412 676.862 197.449 683.068C195.691 685.835 192.625 685.76 191.504 689.05C191.13 690.097 191.242 695.182 190.046 695.593C189.784 695.705 189.597 695.256 189.448 695.032C187.503 692.452 187.803 692.078 185.073 688.975C184.064 687.854 180.811 687.405 179.764 689.947C177.745 694.92 184.251 700.266 185.709 704.678C181.521 705.239 175.764 702.024 173.221 698.659C171.913 696.901 170.754 695.032 170.156 692.938C169.744 691.443 169.632 689.835 169.632 688.265C169.595 685.199 169.595 681.012 170.829 678.17C171.726 676.114 173.184 675.067 173.558 672.637C174.006 669.795 177.446 664.112 176.474 661.794C179.503 659.252 183.578 656.336 187.765 657.42C189.223 657.794 190.532 658.654 191.691 659.663C192.401 660.262 193.112 661.009 193.785 661.794Z" fill="#252629"/>
<path d="M229.564 717.091L229.041 714.698C229.041 714.698 221.04 721.054 215.432 714.586C215.432 714.586 214.422 716.53 214.871 716.979C221.002 723.484 229.564 717.091 229.564 717.091Z" fill="#0E0E0E"/>
<path d="M216.18 752.945C216.554 752.871 216.853 752.646 217.152 752.235C217.638 751.525 217.75 750.665 217.9 749.805C218.909 743.486 221.414 737.018 223.097 730.775L199.318 719.371L188.177 723.372C192.177 727.821 196.215 732.27 200.216 736.757C203.244 740.121 206.272 743.486 209.301 746.889C210.46 748.16 213.937 753.431 216.18 752.945Z" fill="white"/>
<path d="M240.295 747.711C239.809 747.823 239.21 747.561 238.425 746.813C237.266 745.654 223.545 730.363 223.022 730.774L240.37 717.277L249.903 719.969C249.829 719.932 246.127 731.746 245.866 732.494C244.856 735.672 243.809 738.85 242.8 742.028C242.276 743.822 241.828 747.412 240.295 747.711Z" fill="white"/>
<path d="M228.032 734.626C228.032 735.785 228.032 736.906 228.032 738.065C228.032 738.29 228.032 738.551 227.92 738.738C227.733 739.112 227.322 739.224 226.911 739.336C225.004 739.86 223.06 740.234 221.078 740.533C220.779 740.57 220.48 740.608 220.218 740.458C219.994 740.309 219.882 740.084 219.807 739.823C219.508 739.037 219.321 738.215 219.134 737.392C218.91 736.383 218.648 735.336 218.797 734.327C218.91 733.28 219.471 732.233 220.443 731.822C221.714 731.261 224.032 731.522 225.452 731.41C227.658 731.223 228.032 732.644 228.032 734.626Z" fill="#267E2F"/>
<path d="M207.431 727.11C206.646 726.849 205.749 726.587 205.039 726.998C203.057 728.195 204.739 733.578 204.964 735.336C205.038 735.822 205.076 736.27 205.001 736.756C204.926 737.168 204.702 737.542 204.553 737.953C203.693 740.084 204.253 742.439 204.964 744.533C205.898 747.3 206.235 747.262 208.74 746.178C213.002 744.346 217.227 742.514 221.377 740.458C221.639 740.346 221.9 740.196 222.012 739.934C222.087 739.71 222.05 739.486 222.012 739.224C221.751 737.766 221.452 736.27 221.19 734.812C220.704 732.307 217.825 731.559 215.769 730.587C213.04 729.241 210.273 728.12 207.431 727.11Z" fill="#12FF2A"/>
<path d="M238.986 723.522C241.678 722.438 243.922 722.774 243.847 727.186C243.809 728.831 243.697 730.476 243.473 732.121C243.323 733.28 243.137 734.476 243.249 735.635C243.398 737.056 244.071 738.402 244.146 739.86C244.408 744.122 240.781 742.589 238.239 741.954C234.575 741.057 230.948 740.047 227.359 738.925C227.097 738.851 226.798 738.739 226.648 738.514C226.536 738.327 226.536 738.066 226.536 737.841C226.574 736.346 226.611 734.85 226.648 733.355C226.723 730.812 229.453 729.616 231.322 728.307C233.079 727.111 236.257 724.569 238.986 723.522Z" fill="#12FF2A"/>
<path d="M222.05 730.438C222.835 730.438 223.583 730.4 224.405 730.326C230.051 729.728 235.584 725.241 237.155 723.895C237.678 723.446 237.716 722.699 237.267 722.175C236.818 721.652 236.07 721.614 235.547 722.063C231.733 725.353 227.471 727.559 224.144 727.896C220.255 728.307 216.629 727.484 212.404 726.101C211.769 725.877 211.058 726.25 210.871 726.886C210.647 727.522 211.021 728.232 211.656 728.419C215.32 729.615 218.61 730.438 222.05 730.438Z" fill="#0E0E0E"/>
<path d="M168.099 688.339C168.249 688.339 168.436 688.302 168.585 688.19C168.997 687.928 169.072 687.367 168.81 686.993C168.772 686.956 166.641 683.703 167.987 680.525C169.221 677.647 175.166 679.404 175.24 679.404C175.577 679.516 175.913 679.404 176.138 679.142C176.362 678.88 176.399 678.506 176.25 678.207C176.138 677.983 173.483 672.337 177.932 669.795C182.381 667.253 185.784 672.188 185.896 672.375C186.12 672.711 186.569 672.861 186.943 672.711C187.317 672.562 187.541 672.151 187.466 671.777C187.317 670.917 187.13 668.337 188.064 667.141C188.401 666.729 188.812 666.505 189.373 666.468C192.738 666.169 193.448 669.945 193.486 670.094C193.56 670.58 194.046 670.879 194.495 670.767C194.981 670.692 195.28 670.244 195.206 669.758C194.869 667.888 193.186 664.449 189.261 664.71C188.214 664.785 187.317 665.234 186.718 666.056C185.971 667.028 185.709 668.337 185.634 669.496C183.615 667.739 180.512 666.355 177.073 668.3C173.222 670.505 173.259 674.618 174.082 677.385C171.763 676.974 167.726 676.749 166.38 679.852C164.622 683.928 167.24 687.816 167.352 688.003C167.576 688.227 167.838 688.339 168.099 688.339Z" fill="white"/>
<path d="M176.436 697.762C176.549 697.762 176.698 697.724 176.81 697.687C177.259 697.5 177.446 696.977 177.222 696.528C177.184 696.453 174.305 690.022 177.745 686.807C181.11 683.667 186.755 687.966 186.793 688.004C187.092 688.265 187.541 688.265 187.877 688.004C188.176 687.742 188.288 687.331 188.139 686.957C188.027 686.695 185.484 680.862 189.56 678.395C192.139 676.825 195.168 680.264 195.205 680.302C195.504 680.676 196.065 680.713 196.439 680.376C196.813 680.077 196.85 679.517 196.514 679.143C196.364 678.956 192.513 674.581 188.662 676.899C185.41 678.881 185.223 682.508 185.821 685.312C183.465 684.078 179.54 682.732 176.586 685.499C172.212 689.574 175.502 696.902 175.651 697.238C175.763 697.575 176.1 697.762 176.436 697.762Z" fill="white"/>
<path d="M248.782 677.273C249.193 677.273 249.529 677.011 249.641 676.6C250.09 674.431 249.941 670.057 245.978 669.01C244.407 668.599 243.061 668.786 241.902 669.571C239.659 671.141 239.323 674.469 239.323 674.618C239.285 675.104 239.622 675.516 240.108 675.553C240.631 675.59 241.005 675.254 241.042 674.768C241.042 674.731 241.341 672.039 242.912 670.954C243.622 670.468 244.482 670.356 245.529 670.655C248.894 671.553 247.996 676.039 247.959 676.226C247.847 676.712 248.146 677.161 248.632 677.236C248.67 677.273 248.744 677.273 248.782 677.273Z" fill="white"/>
<path d="M244.108 665.72C244.52 665.72 244.856 665.458 244.968 665.047C245.417 662.879 245.267 658.504 241.304 657.457C239.734 657.046 238.388 657.233 237.229 658.018C234.986 659.588 234.649 662.916 234.649 663.065C234.612 663.551 234.948 663.963 235.434 664C235.958 664.038 236.332 663.701 236.369 663.215C236.369 663.178 236.668 660.486 238.238 659.401C238.949 658.915 239.809 658.803 240.856 659.102C244.22 660 243.323 664.486 243.286 664.673C243.174 665.159 243.473 665.608 243.959 665.683C243.996 665.683 244.034 665.72 244.108 665.72Z" fill="white"/>
<path d="M198.234 692.453C198.234 686.47 203.094 681.61 209.076 681.61C215.058 681.61 219.919 686.47 219.919 692.453C219.919 698.435 215.058 703.295 209.076 703.295C203.094 703.295 198.234 698.435 198.234 692.453ZM200.664 692.453C200.664 697.089 204.44 700.865 209.076 700.865C213.712 700.865 217.489 697.089 217.489 692.453C217.489 687.816 213.712 684.04 209.076 684.04C204.44 684.003 200.664 687.779 200.664 692.453Z" fill="#121513"/>
<path d="M224.031 687.966C224.031 681.984 228.892 677.124 234.874 677.124C240.856 677.124 245.716 681.984 245.716 687.966C245.716 693.948 240.856 698.808 234.874 698.808C228.892 698.808 224.031 693.948 224.031 687.966ZM226.461 687.966C226.461 692.602 230.238 696.378 234.874 696.378C239.51 696.378 243.286 692.602 243.286 687.966C243.286 683.33 239.51 679.554 234.874 679.554C230.238 679.516 226.461 683.293 226.461 687.966Z" fill="#121513"/>
<path d="M217.974 686.769C217.974 686.657 218.348 684.189 220.89 683.479C223.321 682.806 223.956 684.302 224.106 684.75L226.461 684.115C226.424 683.928 225.938 682.357 224.368 681.46C223.246 680.824 221.863 680.712 220.255 681.124C216.18 682.245 215.619 686.246 215.582 686.433L217.974 686.769Z" fill="#121513"/>
<path d="M197.112 690.882L197.262 690.209L196.925 690.134C195.766 689.91 194.607 689.835 193.448 689.91L193.112 689.947L193.149 690.62L193.485 690.583C194.57 690.508 195.691 690.583 196.775 690.77L197.112 690.882Z" fill="#0E0E0E"/>
<path d="M192.85 694.471C194.271 694.471 195.692 694.322 197.112 694.06L197.449 693.985L197.299 693.312L196.963 693.387C195.617 693.649 194.234 693.798 192.85 693.798C192.813 693.798 192.775 693.798 192.701 693.798H192.364V694.509H192.701C192.738 694.471 192.813 694.471 192.85 694.471Z" fill="#0E0E0E"/>
<path d="M193.411 698.584L193.71 698.397C194.869 697.724 196.252 697.425 197.598 697.537L197.935 697.574L198.009 696.864L197.673 696.827C196.215 696.715 194.682 697.051 193.411 697.761L193.112 697.948L193.411 698.584Z" fill="#0E0E0E"/>
<path d="M206.609 718.324L206.87 718.1C208.889 716.605 209.899 714.174 210.871 711.856C211.843 709.463 212.777 707.183 214.759 705.837L215.058 705.65L214.647 705.089L214.348 705.276C212.217 706.772 211.207 709.239 210.235 711.632C209.263 713.987 208.366 716.193 206.459 717.614L206.197 717.801L206.609 718.324Z" fill="#0E0E0E"/>
<path d="M234.948 716.529L235.584 716.23L235.434 715.931C234.088 713.202 232.555 710.51 230.873 707.93C230.125 706.734 229.265 705.537 227.919 704.977L227.62 704.827L227.359 705.463L227.658 705.612C228.817 706.098 229.602 707.22 230.312 708.304C231.957 710.847 233.453 713.501 234.799 716.23L234.948 716.529Z" fill="#0E0E0E"/>
<path d="M206.235 673.647L206.571 673.535C207.581 673.161 208.739 673.048 209.861 672.936C211.431 672.787 213.039 672.637 214.385 671.74C214.609 671.59 214.796 671.441 214.983 671.291C215.357 671.03 215.694 670.73 216.067 670.581C216.628 670.357 217.226 670.394 217.899 670.431C218.348 670.431 218.797 670.469 219.283 670.431C220.105 670.319 220.853 669.983 221.564 669.646C221.9 669.497 222.274 669.31 222.61 669.198C224.031 668.674 225.639 668.599 227.097 669.048L227.433 669.16L227.62 668.487L227.284 668.375C225.676 667.889 223.919 667.964 222.349 668.562C221.975 668.712 221.601 668.861 221.264 669.048C220.554 669.385 219.918 669.684 219.171 669.758C218.759 669.796 218.348 669.796 217.937 669.758C217.227 669.721 216.516 669.684 215.843 669.945C215.357 670.132 214.946 670.431 214.572 670.73C214.385 670.88 214.198 671.03 214.011 671.142C212.815 671.927 211.357 672.076 209.824 672.226C208.665 672.338 207.468 672.45 206.347 672.862L206.01 672.974L206.235 673.647Z" fill="#0E0E0E"/>
<path d="M207.468 668.561L207.767 668.412C208.253 668.187 208.814 668.187 209.412 668.187C210.123 668.187 210.833 668.187 211.469 667.814C211.843 667.627 212.104 667.328 212.366 667.066C212.441 666.991 212.516 666.879 212.628 666.804C213.488 665.944 214.684 665.421 215.918 665.309C216.254 665.271 216.628 665.271 216.965 665.271C217.339 665.271 217.75 665.271 218.161 665.234C219.32 665.122 220.404 664.673 221.451 664.224C221.713 664.112 221.975 664 222.274 663.888C223.283 663.477 224.816 662.991 226.162 663.439L226.499 663.551L226.723 662.878L226.386 662.766C224.854 662.243 223.171 662.766 222.049 663.215C221.788 663.327 221.489 663.439 221.227 663.551C220.18 664 219.208 664.411 218.161 664.486C217.787 664.523 217.451 664.523 217.04 664.523C216.666 664.523 216.292 664.523 215.918 664.561C214.535 664.673 213.226 665.271 212.217 666.243C212.142 666.318 212.03 666.43 211.955 666.505C211.693 666.767 211.469 666.991 211.207 667.141C210.721 667.402 210.123 667.402 209.487 667.402C208.852 667.402 208.179 667.402 207.543 667.701L207.244 667.851L207.468 668.561Z" fill="#0E0E0E"/>
<path d="M218.386 896.252L219.358 894.832L183.727 870.38C180.624 868.249 177.446 866.081 174.044 864.286C164.099 859.052 152.509 857.407 141.479 859.613L141.816 861.295C152.471 859.164 163.613 860.734 173.221 865.782C176.511 867.501 179.689 869.67 182.718 871.764L218.386 896.252Z" fill="white"/>
<path d="M255.512 840.432L255.774 838.712C230.761 834.675 207.618 819.57 193.822 798.296L192.364 799.231C206.422 820.916 230.014 836.32 255.512 840.432Z" fill="white"/>
<path d="M259.175 873.67L259.587 871.987C230.836 864.697 205.711 844.507 192.439 817.962L190.906 818.747C204.403 845.741 229.901 866.267 259.175 873.67Z" fill="white"/>
<path d="M328.978 887.69C338.064 880.138 347.336 872.548 356.57 865.183L355.486 863.837C346.252 871.202 336.979 878.792 327.894 886.344L328.978 887.69Z" fill="white"/>
<path d="M184.887 919.133C188.663 916.965 191.691 913.899 194.757 910.646C200.552 904.477 206.235 898.009 211.581 891.429L210.236 890.345C204.889 896.925 199.281 903.356 193.486 909.487C190.532 912.628 187.579 915.619 183.99 917.638L184.887 919.133Z" fill="white"/>
<path d="M31 670.426L66.3533 692.776L68.0244 651L31 670.426Z" fill="#12FF2A"/>
</svg>
