<svg width="1920" height="1004" viewBox="0 0 1920 1004" fill="none" xmlns="http://www.w3.org/2000/svg">
<path d="M1909.85 548.186C1909.36 546.498 1910.28 544.715 1911.9 544.224C1913.52 543.733 1915.31 544.519 1915.93 546.211C1916.56 547.837 1915.63 549.754 1913.94 550.31C1912.19 550.797 1910.34 549.875 1909.85 548.186Z" fill="#191919"/>
<path d="M1897.37 551.123C1897.09 549.373 1898.2 547.729 1899.89 547.441C1901.57 547.019 1903.22 548.136 1903.64 549.823C1904.06 551.509 1902.94 553.287 1901.19 553.708C1899.44 554.061 1897.66 552.873 1897.37 551.123Z" fill="#191919"/>
<path d="M1884.67 552.513C1884.59 550.701 1885.9 549.331 1887.65 549.178C1889.32 549.024 1890.9 550.273 1891.12 552.021C1891.34 553.769 1890.02 555.341 1888.21 555.558C1886.33 555.707 1884.76 554.257 1884.67 552.513Z" fill="#191919"/>
<path d="M1871.88 552.292C1872.07 550.488 1873.57 549.324 1875.25 549.37C1876.92 549.417 1878.28 550.928 1878.24 552.669C1878.19 554.41 1876.67 555.841 1874.87 555.791C1873.06 555.674 1871.7 553.962 1871.88 552.292Z" fill="#191919"/>
<path d="M1859.28 550.133C1859.73 548.404 1861.37 547.377 1863.03 547.759C1864.7 548.073 1865.79 549.711 1865.54 551.446C1865.29 553.181 1863.59 554.339 1861.72 554.02C1859.92 553.635 1858.83 551.863 1859.28 550.133Z" fill="#191919"/>
<path d="M1847.2 546.047C1847.91 544.459 1849.75 543.638 1851.34 544.285C1852.86 544.931 1853.75 546.63 1853.17 548.356C1852.65 550.016 1850.68 550.967 1848.96 550.249C1847.24 549.531 1846.49 547.635 1847.2 546.047Z" fill="#191919"/>
<path d="M1835.98 539.84C1836.96 538.393 1838.98 537.913 1840.37 538.823C1841.75 539.732 1842.3 541.623 1841.45 543.14C1840.6 544.725 1838.58 545.272 1837 544.223C1835.42 543.308 1834.94 541.352 1835.98 539.84Z" fill="#191919"/>
<path d="M1826.23 531.664C1827.54 530.427 1829.41 530.479 1830.72 531.521C1831.96 532.627 1832.04 534.639 1830.93 536.015C1829.82 537.391 1827.74 537.467 1826.37 536.223C1824.86 534.976 1824.92 532.834 1826.23 531.664Z" fill="#191919"/>
<path d="M1818.27 521.595C1819.77 520.632 1821.7 521.02 1822.6 522.452C1823.63 523.754 1823.31 525.754 1821.94 526.855C1820.57 527.956 1818.5 527.631 1817.4 526.194C1816.38 524.557 1816.77 522.558 1818.27 521.595Z" fill="#191919"/>
<path d="M1812.55 510.181C1814.18 509.556 1816.03 510.345 1816.66 511.836C1817.22 513.392 1816.7 515.187 1815.07 516.013C1813.58 516.775 1811.45 516.18 1810.76 514.419C1810.14 512.727 1810.93 510.806 1812.55 510.181Z" fill="#191919"/>
<path d="M1809.14 497.827C1810.89 497.54 1812.61 498.593 1812.9 500.275C1813.07 501.084 1812.85 501.949 1812.43 502.607C1812.01 503.266 1811.39 503.851 1810.51 504.095C1809.63 504.339 1808.77 504.181 1808.04 503.759C1807.32 503.336 1806.8 502.585 1806.63 501.709C1806.34 499.893 1807.39 498.18 1809.14 497.827Z" fill="#191919"/>
<path d="M1808.02 485.133C1809.77 485.115 1811.27 486.496 1811.36 488.174C1811.38 489.849 1810.06 491.353 1808.32 491.506C1806.5 491.657 1805 490.342 1804.92 488.464C1804.83 486.653 1806.21 485.15 1808.02 485.133Z" fill="#191919"/>
<path d="M1808.51 472.351C1810.25 472.466 1811.62 473.978 1811.56 475.785C1811.45 477.591 1810.01 478.824 1808.2 478.774C1806.46 478.658 1805.03 477.078 1805.15 475.339C1805.2 473.532 1806.71 472.234 1808.51 472.351Z" fill="#191919"/>
<path d="M1809 459.501C1810.74 459.483 1812.24 460.998 1812.19 462.806C1812.08 464.611 1810.63 465.978 1808.82 465.928C1807.08 465.88 1805.72 464.368 1805.77 462.627C1805.88 460.889 1807.19 459.518 1809 459.501Z" fill="#191919"/>
<path d="M1808.75 446.698C1810.57 446.615 1812.07 447.996 1812.08 449.806C1812.1 451.615 1810.72 453.118 1808.91 453.134C1807.17 453.153 1805.67 451.771 1805.65 450.029C1805.7 448.289 1807.01 446.851 1808.75 446.698Z" fill="#191919"/>
<path d="M1807.63 433.938C1809.38 433.719 1811.02 434.97 1811.17 436.783C1811.32 438.596 1810.01 440.168 1808.26 440.32C1806.52 440.473 1804.94 439.156 1804.79 437.477C1804.7 435.733 1805.95 434.227 1807.63 433.938Z" fill="#191919"/>
<path d="M1805.5 421.351C1807.19 420.996 1809.1 422.054 1809.32 423.869C1809.6 425.686 1808.42 427.328 1806.67 427.614C1804.92 427.9 1803.28 426.783 1803.06 425.035C1802.77 423.352 1803.75 421.771 1805.5 421.351Z" fill="#191919"/>
<path d="M1802.1 408.997C1803.79 408.44 1805.64 409.363 1806.19 411.12C1806.74 412.877 1805.62 414.655 1803.93 415.144C1802.18 415.631 1800.6 414.583 1800.04 412.959C1799.55 411.338 1800.47 409.554 1802.1 408.997Z" fill="#191919"/>
<path d="M1797.47 397.077C1799.1 396.318 1800.95 397.04 1801.71 398.736C1802.47 400.431 1801.75 402.287 1800.05 402.91C1798.43 403.535 1796.51 402.812 1795.81 401.252C1795.12 399.759 1795.84 397.836 1797.47 397.077Z" fill="#191919"/>
<path d="M1791.35 385.853C1792.85 384.89 1794.85 385.347 1795.74 386.98C1796.63 388.612 1796.11 390.541 1794.55 391.368C1792.98 392.196 1791.05 391.673 1790.22 390.177C1789.46 388.748 1789.92 386.751 1791.35 385.853Z" fill="#191919"/>
<path d="M1783.86 375.529C1785.23 374.428 1787.24 374.618 1788.4 376.057C1789.57 377.429 1789.24 379.564 1787.81 380.596C1786.37 381.628 1784.44 381.307 1783.34 380.003C1782.24 378.633 1782.49 376.63 1783.86 375.529Z" fill="#191919"/>
<path d="M1775.22 366.044C1776.46 364.739 1778.53 364.796 1779.77 366.103C1781.01 367.411 1780.95 369.486 1779.64 370.655C1778.34 371.825 1776.33 371.769 1775.16 370.531C1773.99 369.293 1774.04 367.284 1775.22 366.044Z" fill="#191919"/>
<path d="M1765.74 357.407C1766.85 356.031 1768.93 355.888 1770.31 357.065C1771.68 358.242 1771.83 360.255 1770.58 361.561C1769.41 362.868 1767.4 362.946 1766.09 361.838C1764.78 360.797 1764.63 358.783 1765.74 357.407Z" fill="#191919"/>
<path d="M1755.78 349.359C1756.82 347.981 1758.91 347.704 1760.28 348.814C1761.66 349.924 1761.94 351.942 1760.83 353.318C1759.72 354.694 1757.7 354.906 1756.33 353.863C1754.95 352.753 1754.67 350.802 1755.78 349.359Z" fill="#191919"/>
<path d="M1745.61 341.641C1746.65 340.263 1748.67 339.984 1750.12 341.029C1751.49 342.072 1751.77 344.089 1750.73 345.534C1749.69 346.912 1747.67 347.191 1746.22 346.146C1744.78 345.034 1744.5 343.017 1745.61 341.641Z" fill="#191919"/>
<path d="M1735.58 333.658C1736.69 332.282 1738.71 332.137 1740.08 333.247C1741.46 334.357 1741.67 336.373 1740.56 337.749C1739.45 339.125 1737.43 339.337 1736.06 338.227C1734.62 337.048 1734.47 334.967 1735.58 333.658Z" fill="#191919"/>
<path d="M1725.97 325.218C1727.14 323.911 1729.16 323.832 1730.46 325.008C1731.77 326.183 1731.85 328.195 1730.67 329.502C1729.5 330.809 1727.48 330.955 1726.18 329.712C1724.87 328.537 1724.79 326.525 1725.97 325.218Z" fill="#191919"/>
<path d="M1716.77 316.254C1718.01 315.015 1720.02 315.071 1721.26 316.244C1722.5 317.484 1722.51 319.495 1721.27 320.733C1720.03 322.039 1718.02 322.05 1716.71 320.741C1715.47 319.567 1715.53 317.492 1716.77 316.254Z" fill="#191919"/>
<path d="M1707.98 306.966C1709.29 305.796 1711.3 305.918 1712.47 307.157C1713.64 308.462 1713.58 310.47 1712.28 311.64C1710.97 312.877 1708.96 312.754 1707.73 311.447C1706.55 310.209 1706.68 308.135 1707.98 306.966Z" fill="#191919"/>
<path d="M1699.68 297.222C1701.05 296.121 1703.05 296.31 1704.16 297.614C1705.26 298.917 1705.14 300.924 1703.76 302.092C1702.39 303.26 1700.39 303.07 1699.22 301.698C1698.12 300.394 1698.31 298.323 1699.68 297.222Z" fill="#191919"/>
<path d="M1691.85 287.089C1693.29 286.057 1695.29 286.314 1696.32 287.749C1697.36 289.118 1697.1 291.121 1695.73 292.222C1694.36 293.323 1692.36 292.999 1691.26 291.629C1690.09 290.189 1690.42 288.188 1691.85 287.089Z" fill="#191919"/>
<path d="M1684.51 276.568C1686.01 275.605 1687.94 275.994 1688.97 277.429C1689.94 278.863 1689.55 280.862 1688.11 281.894C1686.68 282.926 1684.68 282.536 1683.65 281.033C1682.68 279.533 1683.07 277.601 1684.51 276.568Z" fill="#191919"/>
<path d="M1677.77 265.73C1679.27 264.833 1681.27 265.358 1682.1 266.854C1682.99 268.353 1682.54 270.283 1681.04 271.247C1679.54 272.21 1677.54 271.686 1676.58 270.185C1675.75 268.621 1676.21 266.624 1677.77 265.73Z" fill="#191919"/>
<path d="M1671.59 254.504C1673.15 253.676 1675.07 254.333 1675.9 255.829C1676.73 257.326 1676.14 259.32 1674.58 260.147C1673.01 260.975 1671.09 260.385 1670.26 258.822C1669.37 257.256 1669.96 255.329 1671.59 254.504Z" fill="#191919"/>
<path d="M1666.08 242.962C1667.71 242.27 1669.56 242.924 1670.32 244.553C1671.02 246.113 1670.36 248.038 1668.8 248.799C1667.17 249.557 1665.24 248.901 1664.55 247.207C1663.73 245.576 1664.45 243.653 1666.08 242.962Z" fill="#191919"/>
<path d="M1661.18 231.102C1662.87 230.479 1664.59 231.33 1665.29 232.89C1665.98 234.518 1665.12 236.37 1663.49 237.062C1661.87 237.753 1660.01 236.965 1659.32 235.271C1658.63 233.644 1659.56 231.727 1661.18 231.102Z" fill="#191919"/>
<path d="M1656.96 218.993C1658.65 218.504 1660.44 219.357 1660.99 221.047C1661.55 222.671 1660.63 224.521 1658.94 225.077C1657.25 225.633 1655.46 224.713 1654.91 223.022C1654.42 221.334 1655.34 219.551 1656.96 218.993Z" fill="#191919"/>
<path d="M1653.55 206.705C1655.3 206.285 1656.95 207.335 1657.44 208.957C1657.93 210.645 1656.88 212.358 1655.19 212.847C1653.5 213.336 1651.72 212.282 1651.23 210.593C1650.74 208.905 1651.8 207.125 1653.55 206.705Z" fill="#191919"/>
<path d="M1650.82 194.168C1652.57 193.882 1654.21 194.999 1654.57 196.684C1654.85 198.367 1653.8 200.079 1652.05 200.433C1650.3 200.786 1648.59 199.667 1648.3 197.917C1647.95 196.165 1649.13 194.523 1650.82 194.168Z" fill="#191919"/>
<path d="M1648.82 181.518C1650.57 181.298 1652.21 182.55 1652.43 184.231C1652.65 185.979 1651.47 187.554 1649.72 187.84C1647.97 188.126 1646.33 186.875 1646.11 185.127C1645.89 183.379 1647.07 181.737 1648.82 181.518Z" fill="#191919"/>
<path d="M1647.7 168.757C1649.45 168.672 1650.95 169.986 1651.1 171.733C1651.26 173.479 1650.01 174.985 1648.26 175.204C1646.51 175.357 1644.94 174.04 1644.72 172.292C1644.58 170.412 1645.96 168.91 1647.7 168.757Z" fill="#191919"/>
<path d="M1647.25 156.016C1648.99 155.997 1650.5 157.446 1650.52 159.121C1650.53 160.864 1649.16 162.299 1647.34 162.383C1645.6 162.469 1644.1 161.02 1644.08 159.278C1644.06 157.468 1645.51 155.968 1647.25 156.016Z" fill="#191919"/>
<path d="M1647.48 143.159C1649.21 143.274 1650.65 144.721 1650.6 146.461C1650.55 148.202 1649.04 149.567 1647.3 149.519C1645.56 149.47 1644.12 148.024 1644.17 146.216C1644.29 144.478 1645.73 143.111 1647.48 143.159Z" fill="#191919"/>
<path d="M1648.5 130.391C1650.24 130.573 1651.47 132.148 1651.35 133.887C1651.23 135.626 1649.66 136.922 1647.92 136.807C1646.18 136.692 1644.82 135.113 1645 133.309C1645.12 131.503 1646.76 130.209 1648.5 130.391Z" fill="#191919"/>
<path d="M1650.19 117.709C1651.93 117.958 1653.15 119.6 1652.84 121.333C1652.59 123.068 1651.01 124.297 1649.28 124.048C1647.54 123.799 1646.25 122.222 1646.5 120.421C1646.81 118.687 1648.46 117.46 1650.19 117.709Z" fill="#191919"/>
<path d="M1652.48 105.111C1654.21 105.494 1655.31 107.199 1654.99 108.865C1654.68 110.598 1652.97 111.69 1651.24 111.374C1649.5 111.058 1648.41 109.353 1648.73 107.619C1649.04 105.886 1650.75 104.728 1652.48 105.111Z" fill="#191919"/>
<path d="M1655.51 92.6665C1657.17 93.1146 1658.19 94.8849 1657.81 96.5492C1657.36 98.2116 1655.66 99.2363 1653.93 98.8533C1652.2 98.4703 1651.18 96.7 1651.63 94.9037C1652.01 93.2394 1653.78 92.2166 1655.51 92.6665Z" fill="#191919"/>
<path d="M1659.4 80.5144C1661.05 81.0964 1661.94 82.9298 1661.36 84.5216C1660.71 86.1115 1659.08 87.0711 1657.35 86.5543C1655.69 86.0392 1654.67 84.202 1655.32 82.4782C1655.9 80.8195 1657.74 79.8655 1659.4 80.5144Z" fill="#191919"/>
<path d="M1664.22 68.5889C1665.8 69.3029 1666.55 71.1996 1665.91 72.7895C1665.26 74.3795 1663.36 75.1308 1661.71 74.4818C1660.05 73.8329 1659.3 71.9363 1660.01 70.2812C1660.73 68.6262 1662.56 67.8731 1664.22 68.5889Z" fill="#191919"/>
<path d="M1670.02 57.2268C1671.54 58.1398 1672.09 60.0309 1671.24 61.5483C1670.4 62.9988 1668.57 63.6851 1666.92 62.8353C1665.33 62.0544 1664.65 60.0256 1665.57 58.5101C1666.55 56.9294 1668.51 56.3808 1670.02 57.2268Z" fill="#191919"/>
<path d="M1676.89 46.4301C1678.33 47.4751 1678.62 49.3588 1677.7 50.8744C1676.79 52.323 1674.84 52.7378 1673.32 51.7578C1671.81 50.8449 1671.4 48.8235 1672.38 47.3098C1673.36 45.7291 1675.51 45.3869 1676.89 46.4301Z" fill="#191919"/>
<path d="M1684.87 36.4013C1686.18 37.5765 1686.39 39.5922 1685.28 40.9013C1684.17 42.2105 1682.16 42.3556 1680.78 41.3125C1679.41 40.2024 1679.19 38.1866 1680.37 36.8124C1681.48 35.3693 1683.5 35.2242 1684.87 36.4013Z" fill="#191919"/>
<path d="M1693.9 27.3394C1695.07 28.6448 1695.01 30.6531 1693.78 31.8246C1692.47 32.9274 1690.59 33.0093 1689.29 31.7672C1688.05 30.527 1687.97 28.381 1689.35 27.2132C1690.66 25.9096 1692.66 26.0322 1693.9 27.3394Z" fill="#191919"/>
<path d="M1703.84 19.3075C1704.87 20.7431 1704.55 22.677 1703.18 23.7109C1701.87 24.8137 1699.87 24.5572 1698.77 23.1867C1697.67 21.8163 1697.93 19.7467 1699.3 18.6458C1700.74 17.5467 1702.8 17.872 1703.84 19.3075Z" fill="#191919"/>
<path d="M1714.61 12.3711C1715.44 13.868 1714.92 15.7963 1713.49 16.7615C1712.06 17.6597 1710.06 17.2023 1709.09 15.7017C1708.13 14.2011 1708.66 12.2058 1710.15 11.3094C1711.79 10.2829 1713.72 10.8054 1714.61 12.3711Z" fill="#191919"/>
<path d="M1726.09 6.72695C1726.78 8.35402 1726.06 10.2768 1724.5 10.9705C1722.94 11.6642 1721.02 10.9408 1720.26 9.37886C1719.43 7.81502 1720.15 5.89221 1721.85 5.13531C1723.48 4.37655 1725.4 5.09988 1726.09 6.72695Z" fill="#191919"/>
<path d="M1738.08 2.23552C1738.63 3.92582 1737.71 5.70922 1736.09 6.26715C1734.46 6.82508 1732.68 6.03851 1732.05 4.34636C1731.43 2.72114 1732.29 0.802112 1733.98 0.179097C1735.67 -0.376974 1737.52 0.545218 1738.08 2.23552Z" fill="#191919"/>
<path d="M1750.36 -1.24227C1750.79 0.444314 1749.73 2.15701 1748.05 2.64614C1746.36 3.06832 1744.65 2.08279 1744.16 0.394341C1743.67 -1.2941 1744.72 -3.07373 1746.48 -3.561C1748.23 -4.04827 1750.01 -2.99395 1750.36 -1.24227Z" fill="#191919"/>
<path d="M1762.96 -3.63956C1763.25 -1.88975 1762.06 -0.24774 1760.38 0.0405567C1758.7 0.328854 1756.99 -0.857432 1756.7 -2.54031C1756.35 -4.29198 1757.53 -5.93407 1759.28 -6.22051C1761.03 -6.57389 1762.67 -5.38938 1762.96 -3.63956Z" fill="#191919"/>
<path d="M1839.5 -2.32067C1839.25 -0.585709 1837.61 0.57476 1835.87 0.392595C1834.14 0.143487 1832.91 -1.43154 1833.16 -3.16651C1833.41 -4.90147 1835.05 -6.1288 1836.78 -5.87969C1838.52 -5.76447 1839.75 -4.05563 1839.5 -2.32067Z" fill="#191919"/>
<path d="M1852.1 -0.296103C1851.79 1.437 1850.15 2.59749 1848.41 2.34838C1846.68 2.09927 1845.52 0.459186 1845.77 -1.34272C1846.08 -3.07582 1847.72 -4.23623 1849.46 -3.98712C1851.26 -3.66921 1852.42 -2.02921 1852.1 -0.296103Z" fill="#191919"/>
<path d="M1864.7 2.13007C1864.32 3.86132 1862.68 5.02168 1860.94 4.63868C1859.21 4.32263 1858.12 2.61748 1858.44 0.88437C1858.75 -0.848735 1860.46 -2.00723 1862.19 -1.62424C1863.92 -1.24124 1865.08 0.398827 1864.7 2.13007Z" fill="#191919"/>
<path d="M1877.22 4.95614C1876.77 6.68553 1875.06 7.77712 1873.33 7.32718C1871.6 6.94419 1870.58 5.2409 1870.96 3.50965C1871.34 1.77841 1873.05 0.686819 1874.78 1.13676C1876.51 1.5867 1877.6 3.29184 1877.22 4.95614Z" fill="#191919"/>
<path d="M1889.59 8.24702C1889.14 9.97641 1887.37 10.9323 1885.64 10.4823C1883.98 10.0343 1882.95 8.26397 1883.4 6.60153C1883.85 4.87214 1885.62 3.84932 1887.35 4.3662C1889.01 4.74734 1890.04 6.51763 1889.59 8.24702Z" fill="#191919"/>
<path d="M1901.81 11.9358C1901.3 13.5964 1899.46 14.5503 1897.8 14.0353C1896.14 13.5203 1895.18 11.752 1895.7 10.0244C1896.21 8.36384 1897.98 7.40793 1899.71 7.92482C1901.44 8.4417 1902.39 10.277 1901.81 11.9358Z" fill="#191919"/>
<path d="M1913.95 16.1583C1913.3 17.8151 1911.47 18.7023 1909.88 18.1222C1908.22 17.5402 1907.4 15.7086 1907.92 14.048C1908.5 12.3893 1910.33 11.5022 1911.99 12.1511C1913.65 12.6661 1914.54 14.4995 1913.95 16.1583Z" fill="#191919"/>
<path d="M1925.81 20.909C1925.1 22.564 1923.27 23.3171 1921.61 22.6682C1920.02 22.0212 1919.2 20.1227 1919.85 18.4658C1920.5 16.8089 1922.4 16.0575 1924.05 16.7064C1925.71 17.3554 1926.53 19.254 1925.81 20.909Z" fill="#191919"/>
<path d="M7.11356 912.832C7.39122 911.339 6.44477 909.877 4.9998 909.568C3.52329 909.21 2.06148 910.156 1.70354 911.633C1.34561 913.109 2.27489 914.651 3.80013 914.978C5.32537 915.304 6.8359 914.326 7.11356 912.832Z" fill="#191919"/>
<path d="M18.0854 914.718C18.2828 913.208 17.2389 911.809 15.7452 911.531C14.283 911.302 12.8843 912.346 12.6067 913.84C12.329 915.334 13.4044 916.781 14.9469 917.027C16.4405 917.305 17.8393 916.261 18.0854 914.718Z" fill="#191919"/>
<path d="M29.1346 915.656C29.1714 914.11 28.0616 912.823 26.5651 912.755C25.0686 912.687 23.7501 913.748 23.633 915.276C23.4844 916.755 24.6401 918.22 26.2169 918.305C27.7134 918.374 29.0175 917.184 29.1346 915.656Z" fill="#191919"/>
<path d="M40.2119 915.675C40.1197 914.145 38.8637 912.952 37.35 912.964C35.8363 912.976 34.6441 914.232 34.656 915.746C34.6679 917.259 35.9555 918.5 37.5179 918.457C39.0631 918.494 40.3041 917.206 40.2119 915.675Z" fill="#191919"/>
<path d="M51.2403 914.551C51.0192 913.035 49.6169 911.937 48.1807 912.176C46.713 912.365 45.6154 913.767 45.7563 915.267C45.9287 916.815 47.2994 917.864 48.8474 917.691C50.3639 917.47 51.4615 916.068 51.2403 914.551Z" fill="#191919"/>
<path d="M62.1221 912.347C61.7232 910.876 60.238 909.971 58.8161 910.338C57.3943 910.705 56.4257 912.093 56.7272 913.627C56.9971 915.112 58.5454 916.115 60.0475 915.764C61.5668 915.334 62.5211 913.817 62.1221 912.347Z" fill="#191919"/>
<path d="M72.6825 908.898C72.1058 907.473 70.5375 906.76 69.1615 907.305C67.7225 907.752 67.0091 909.321 67.4567 910.76C67.9044 912.199 69.5358 913.01 71.0236 912.53C72.4798 912.002 73.2591 910.322 72.6825 908.898Z" fill="#191919"/>
<path d="M82.7122 904.202C81.9579 902.823 80.3695 902.399 79.008 903.073C77.6952 903.716 77.0936 905.35 77.719 906.743C78.3443 908.136 80.0273 908.706 81.4692 908.049C82.9282 907.312 83.4351 905.532 82.7122 904.202Z" fill="#191919"/>
<path d="M92.0821 898.273C91.1328 897.021 89.4929 896.838 88.2747 897.627C87.0566 898.415 86.7274 900.15 87.5477 901.417C88.3679 902.684 90.134 903.062 91.4496 902.21C92.7337 901.309 92.9682 899.428 92.0821 898.273Z" fill="#191919"/>
<path d="M100.44 890.995C99.3271 889.917 97.6528 889.895 96.5924 890.927C95.5004 891.911 95.4292 893.617 96.3957 894.789C97.3621 895.961 99.1482 896.05 100.386 894.971C101.544 893.876 101.552 892.073 100.44 890.995Z" fill="#191919"/>
<path d="M107.541 882.524C106.297 881.67 104.571 881.889 103.686 883.085C102.849 884.249 102.955 885.909 104.165 886.923C105.295 887.92 107.182 887.736 108.133 886.429C109.084 885.121 108.786 883.378 107.541 882.524Z" fill="#191919"/>
<path d="M113.049 872.873C111.672 872.243 109.958 872.8 109.345 874.096C108.732 875.392 109.177 877.04 110.487 877.782C111.829 878.573 113.575 878.065 114.271 876.577C115.03 875.186 114.505 873.521 113.049 872.873Z" fill="#191919"/>
<path d="M116.586 862.423C115.061 862.096 113.697 862.98 113.195 864.341C112.774 865.721 113.623 867.245 115.065 867.764C116.508 868.282 118.081 867.402 118.537 865.862C119.089 864.26 118.08 862.7 116.586 862.423Z" fill="#191919"/>
<path d="M117.942 851.379C116.397 851.342 115.141 852.501 115.122 853.966C114.942 855.397 116.083 856.732 117.594 856.93C119.105 857.127 120.489 855.954 120.655 854.394C120.677 852.72 119.487 851.416 117.942 851.379Z" fill="#191919"/>
<path d="M117.027 840.354C115.542 840.624 114.525 842.043 114.732 843.43C115.019 844.835 116.212 845.93 117.791 845.806C119.242 845.697 120.549 844.297 120.264 842.684C119.963 841.15 118.512 840.084 117.027 840.354Z" fill="#191919"/>
<path d="M113.982 829.67C112.558 830.246 111.764 831.798 112.309 833.174C112.542 833.853 113.098 834.392 113.706 834.69C114.314 834.988 115.036 835.142 115.796 834.927C116.555 834.712 117.126 834.204 117.473 833.565C117.819 832.925 117.862 832.137 117.598 831.409C116.99 829.936 115.439 829.142 113.982 829.67Z" fill="#191919"/>
<path d="M109.092 819.766C107.793 820.538 107.304 822.238 107.995 823.519C108.735 824.769 110.386 825.29 111.748 824.616C113.158 823.911 113.679 822.259 112.893 820.832C112.139 819.453 110.439 818.963 109.092 819.766Z" fill="#191919"/>
<path d="M102.968 810.523C101.733 811.392 101.404 813.126 102.256 814.442C103.156 815.726 104.779 815.989 106.094 815.137C107.33 814.268 107.676 812.453 106.807 811.218C105.955 809.902 104.252 809.622 102.968 810.523Z" fill="#191919"/>
<path d="M96.8135 801.23C95.515 802.002 95.0883 803.799 95.9402 805.115C96.8407 806.399 98.5265 806.76 99.8421 805.908C101.109 805.088 101.438 803.353 100.618 802.086C99.749 800.851 98.1606 800.427 96.8135 801.23Z" fill="#191919"/>
<path d="M91.2262 791.639C89.8474 792.394 89.3577 794.094 90.1608 795.441C90.9639 796.788 92.6641 797.278 94.0112 796.475C95.3097 795.703 95.7994 794.003 95.0279 792.705C94.2076 791.438 92.5877 790.965 91.2262 791.639Z" fill="#191919"/>
<path d="M86.304 781.687C84.9109 782.313 84.2606 783.978 84.9662 785.389C85.6719 786.799 87.3548 787.369 88.7164 786.695C90.0779 786.021 90.648 784.338 90.0054 783.025C89.2826 781.695 87.6799 781.142 86.304 781.687Z" fill="#191919"/>
<path d="M82.2071 771.408C80.7997 771.904 79.8598 773.55 80.5167 774.992C81.1249 776.465 82.742 777.147 84.1667 776.57C85.5913 775.994 86.3047 774.425 85.6793 773.032C85.1342 771.656 83.6949 770.929 82.2071 771.408Z" fill="#191919"/>
<path d="M79.1624 760.724C77.6603 761.074 76.7061 762.591 77.0878 764.142C77.4696 765.693 79.101 766.504 80.5716 766.105C82.0909 765.674 82.7871 764.186 82.4685 762.733C82.1011 761.311 80.6158 760.405 79.1624 760.724Z" fill="#191919"/>
<path d="M77.2156 749.813C75.6676 749.986 74.6187 751.357 74.8227 752.953C75.0267 754.55 76.3973 755.599 77.931 755.297C79.4159 755.028 80.5135 753.625 80.3239 752.158C80.1658 750.739 78.7636 749.641 77.2156 749.813Z" fill="#191919"/>
<path d="M76.6879 738.745C75.1427 738.708 73.8702 739.947 73.9452 741.558C74.0202 743.169 75.2762 744.361 76.807 744.269C78.3379 744.177 79.5301 742.921 79.4695 741.439C79.3917 740.037 78.1529 738.764 76.6879 738.745Z" fill="#191919"/>
<path d="M77.5765 727.727C76.0656 727.53 74.6669 728.574 74.4523 730.165C74.2062 731.708 75.4107 733.141 76.9387 733.258C78.4668 733.375 79.7537 732.265 79.9826 730.803C80.18 729.292 79.0873 727.925 77.5765 727.727Z" fill="#191919"/>
<path d="M79.7034 716.807C78.1953 716.4 76.6848 717.378 76.3584 718.904C76.032 720.429 77.01 721.939 78.5037 722.217C79.9974 722.495 81.4592 721.548 81.7685 720.103C82.0777 718.658 81.1312 717.196 79.7034 716.807Z" fill="#191919"/>
<path d="M82.8252 706.142C81.383 705.623 79.7779 706.455 79.2909 707.946C78.804 709.437 79.6043 710.993 81.1123 711.4C82.5717 711.838 84.0966 710.989 84.5664 709.579C85.0677 708.217 84.2674 706.66 82.8252 706.142Z" fill="#191919"/>
<path d="M86.5719 695.694C85.1785 695.144 83.5102 695.878 82.9917 697.32C82.4733 698.763 83.1761 700.382 84.6183 700.901C86.0604 701.419 87.6484 700.668 88.1985 699.274C88.717 697.832 88.0456 696.261 86.5719 695.694Z" fill="#191919"/>
<path d="M90.6226 685.395C89.2292 684.845 87.6097 685.548 87.0109 686.973C86.4609 688.366 87.1637 689.986 88.5887 690.585C89.9821 691.135 91.6016 690.432 92.2004 689.007C92.7676 687.533 92.0648 685.914 90.6226 685.395Z" fill="#191919"/>
<path d="M94.45 674.965C93.0079 674.446 91.4514 675.246 90.9329 676.688C90.4144 678.131 91.166 679.719 92.6082 680.237C94.0503 680.756 95.6383 680.004 96.1568 678.562C96.6925 677.039 95.8606 675.434 94.45 674.965Z" fill="#191919"/>
<path d="M97.7637 664.382C96.3044 663.944 94.7795 664.793 94.3413 666.252C93.9031 667.712 94.7521 669.236 96.2114 669.675C97.6708 670.113 99.2272 669.313 99.6339 667.805C100.072 666.345 99.2231 664.82 97.7637 664.382Z" fill="#191919"/>
<path d="M100.533 653.599C99.0566 653.241 97.5947 654.188 97.2053 655.616C96.8473 657.092 97.7451 658.585 99.2216 658.943C100.73 659.35 102.223 658.452 102.598 656.896C102.988 655.468 102.01 653.957 100.533 653.599Z" fill="#191919"/>
<path d="M102.852 642.762C101.358 642.484 99.9282 643.48 99.619 644.925C99.3413 646.418 100.288 647.88 101.781 648.158C103.307 648.484 104.737 647.489 105.063 645.964C105.373 644.519 104.346 643.04 102.852 642.762Z" fill="#191919"/>
<path d="M104.609 631.804C103.098 631.607 101.699 632.651 101.471 634.113C101.242 635.575 102.237 637.005 103.779 637.252C105.322 637.498 106.72 636.454 106.966 634.911C107.195 633.449 106.12 632.002 104.609 631.804Z" fill="#191919"/>
<path d="M105.836 620.775C104.308 620.658 102.941 621.751 102.824 623.279C102.675 624.758 103.768 626.125 105.278 626.323C106.789 626.52 108.125 625.379 108.322 623.868C108.537 622.277 107.396 620.941 105.836 620.775Z" fill="#191919"/>
<path d="M106.532 609.675C104.987 609.638 103.732 610.797 103.614 612.325C103.546 613.821 104.736 615.125 106.264 615.242C107.792 615.359 109.096 614.169 109.182 612.593C109.219 611.047 108.06 609.792 106.532 609.675Z" fill="#191919"/>
<path d="M106.632 598.615C105.119 598.627 103.878 599.914 103.938 601.396C103.95 602.91 105.158 604.134 106.703 604.171C108.248 604.207 109.489 602.92 109.526 601.375C109.434 599.844 108.195 598.571 106.632 598.615Z" fill="#191919"/>
<path d="M106.153 587.515C104.623 587.607 103.493 588.96 103.554 590.442C103.615 591.924 104.951 593.134 106.482 593.042C108.013 592.95 109.173 591.645 109.081 590.114C109.038 588.551 107.733 587.391 106.153 587.515Z" fill="#191919"/>
<path d="M105.029 576.486C103.513 576.707 102.432 578.029 102.605 579.577C102.794 581.045 104.148 582.174 105.647 582.033C107.195 581.861 108.324 580.507 108.072 578.942C107.948 577.363 106.546 576.265 105.029 576.486Z" fill="#191919"/>
<path d="M103.309 565.498C101.775 565.799 100.887 567.204 101.077 568.672C101.298 570.189 102.766 571.175 104.282 570.953C105.799 570.732 106.816 569.313 106.563 567.748C106.342 566.231 104.794 565.228 103.309 565.498Z" fill="#191919"/>
<path d="M100.975 554.631C99.5046 555.03 98.5675 556.466 98.9177 557.968C99.2363 559.422 100.753 560.376 102.255 560.026C103.757 559.675 104.663 558.19 104.313 556.688C103.914 555.218 102.429 554.312 100.975 554.631Z" fill="#191919"/>
<path d="M97.9619 543.996C96.4742 544.475 95.7292 545.994 96.0966 547.416C96.4955 548.887 98.0467 549.68 99.5172 549.282C100.988 548.883 101.83 547.3 101.431 545.829C101.032 544.359 99.4497 543.516 97.9619 543.996Z" fill="#191919"/>
<path d="M94.3352 533.481C92.9106 534.058 92.1972 535.626 92.6935 537.034C93.2386 538.409 94.7898 539.203 96.2459 538.675C97.7021 538.147 98.4643 536.547 97.8876 535.123C97.3597 533.667 95.7427 532.985 94.3352 533.481Z" fill="#191919"/>
<path d="M90.1096 523.216C88.7165 523.842 88.0662 525.507 88.66 526.852C89.2854 528.245 90.8709 528.878 92.2956 528.301C93.7202 527.725 94.3705 526.059 93.7451 524.666C93.1198 523.273 91.5027 522.591 90.1096 523.216Z" fill="#191919"/>
<path d="M85.1871 513.264C83.8571 513.987 83.3359 515.638 84.0099 517C84.684 518.361 86.2867 518.914 87.6798 518.289C89.0414 517.615 89.6114 515.932 88.986 514.539C88.2489 513.08 86.5487 512.59 85.1871 513.264Z" fill="#191919"/>
<path d="M79.7775 503.627C78.4791 504.399 78.0209 506.148 78.7609 507.397C79.5324 508.696 81.2011 509.137 82.5798 508.383C83.9098 507.66 84.368 505.911 83.5964 504.612C82.7933 503.265 81.0445 502.807 79.7775 503.627Z" fill="#191919"/>
<path d="M73.8178 494.209C72.5824 495.078 72.1729 496.795 72.9932 498.062C73.8135 499.329 75.548 499.658 76.8149 498.838C78.0818 498.017 78.4913 496.3 77.6394 494.984C76.7705 493.749 75.0847 493.388 73.8178 494.209Z" fill="#191919"/>
<path d="M67.3046 485.217C66.1008 486.135 65.9006 487.855 66.7696 489.09C67.6386 490.326 69.3903 490.575 70.6256 489.706C71.861 488.837 72.1586 487.053 71.2093 485.801C70.3088 484.517 68.5084 484.299 67.3046 485.217Z" fill="#191919"/>
<path d="M60.3358 476.59C59.1635 477.556 58.9949 479.325 60.01 480.466C60.9765 481.638 62.6966 481.838 63.8689 480.872C65.0411 479.906 65.2901 478.154 64.2921 476.933C63.2769 475.792 61.508 475.624 60.3358 476.59Z" fill="#191919"/>
<path d="M52.9601 468.296C51.8509 469.36 51.8113 471.114 52.7949 472.206C53.8101 473.347 55.5645 473.386 56.7053 472.371C57.846 471.356 57.8856 469.601 56.8704 468.461C55.8552 467.32 54.0692 467.232 52.9601 468.296Z" fill="#191919"/>
<path d="M45.1111 460.445C44.0822 461.527 44.1229 463.298 45.1553 464.359C46.2363 465.388 47.9593 465.378 49.0685 464.315C50.1776 463.251 50.137 461.479 48.9928 460.353C47.9604 459.292 46.1887 459.333 45.1111 460.445Z" fill="#191919"/>
<path d="M36.7553 453.201C35.7896 454.379 35.9592 456.136 37.1062 457.054C38.3019 457.939 39.9446 457.913 40.9906 456.751C41.988 455.622 41.9158 453.801 40.657 452.818C39.4784 451.852 37.6896 451.973 36.7553 453.201Z" fill="#191919"/>
<path d="M27.8117 446.544C26.9577 447.788 27.2563 449.531 28.4521 450.416C29.6478 451.302 31.3907 451.003 32.3249 449.776C33.2592 448.549 32.9605 446.806 31.6845 445.903C30.4086 445 28.7144 445.268 27.8117 446.544Z" fill="#191919"/>
<path d="M18.3897 440.749C17.6791 442.109 18.124 443.757 19.4343 444.499C20.7131 445.192 22.3758 444.877 23.2154 443.503C24.0378 442.21 23.6273 440.401 22.2682 439.69C20.8289 438.963 19.1319 439.439 18.3897 440.749Z" fill="#191919"/>
<path d="M8.44055 435.85C7.84179 437.275 8.48154 438.797 9.84061 439.508C11.1681 440.17 12.8021 439.596 13.4811 438.188C14.1917 436.829 13.5863 435.146 12.1785 434.467C10.7391 433.739 8.99058 434.457 8.44055 435.85Z" fill="#191919"/>
<path d="M-1.99006 432.023C-2.42827 433.482 -1.67673 435.07 -0.266125 435.54C1.14448 436.01 2.70096 435.209 3.251 433.816C3.76948 432.374 3.0179 430.786 1.52701 430.299C0.0533035 429.732 -1.50312 430.532 -1.99006 432.023Z" fill="#191919"/>
</svg>
