<svg xmlns="http://www.w3.org/2000/svg" width="506.756" height="507.155" viewBox="0 0 506.756 507.155"><g id="Camada_2" data-name="Camada 2"><g id="Camada_1-2" data-name="Camada 1"><circle cx="422.223" cy="77.759" r="9.733"/><circle cx="392.548" cy="53.361" r="9.733"/><circle cx="359.231" cy="33.818" r="9.733"/><circle cx="322.813" cy="19.672" r="9.733"/><circle cx="283.835" cy="11.464" r="9.733"/><circle cx="242.928" cy="9.733" r="9.733"/><circle cx="202.824" cy="14.686" r="9.733"/><circle cx="165.004" cy="25.862" r="9.733"/><circle cx="130.011" cy="42.718" r="9.733"/><circle cx="98.388" cy="64.713" r="9.733"/><circle cx="70.675" cy="91.304" r="9.733"/><circle cx="47.416" cy="121.949" r="9.733"/><circle cx="29.152" cy="156.106" r="9.733"/><circle cx="16.426" cy="193.233" r="9.733"/><circle cx="9.779" cy="232.787" r="9.733"/><circle cx="9.733" cy="273.836" r="9.733"/><circle cx="16.293" cy="313.42" r="9.733"/><circle cx="28.939" cy="350.584" r="9.733"/><circle cx="47.131" cy="384.785" r="9.733"/><circle cx="70.326" cy="415.482" r="9.733"/><circle cx="97.981" cy="442.132" r="9.733"/><circle cx="129.555" cy="464.193" r="9.733"/><circle cx="164.505" cy="481.123" r="9.733"/><circle cx="202.29" cy="492.38" r="9.733"/><circle cx="242.367" cy="497.422" r="9.733"/><circle cx="283.304" cy="495.781" r="9.733"/><circle cx="322.334" cy="487.649" r="9.733"/><circle cx="358.808" cy="473.565" r="9.733"/><circle cx="392.184" cy="454.072" r="9.733"/><circle cx="421.92" cy="429.711" r="9.733"/><circle cx="447.473" cy="401.025" r="9.733"/><circle cx="468.303" cy="368.557" r="9.733"/><circle cx="483.865" cy="332.847" r="9.733"/><circle cx="493.62" cy="294.438" r="9.733"/><circle cx="497.023" cy="253.873" r="9.733"/><circle cx="493.707" cy="213.261" r="9.733"/><circle cx="484.026" cy="174.8" r="9.733"/><circle cx="468.523" cy="139.034" r="9.733"/><circle cx="447.741" cy="106.506" r="9.733"/><circle cx="422.223" cy="77.759" r="9.733"/></g></g></svg>