<svg width="47" height="46" viewBox="0 0 47 46" fill="none" xmlns="http://www.w3.org/2000/svg">
<path d="M46.2674 26.7369C46.2674 37.1288 37.8599 45.5885 27.4158 45.5885C17.0239 45.5885 8.56421 37.181 8.56421 26.7369C8.56421 16.345 16.9717 7.88525 27.4158 7.88525C37.8077 7.88525 46.2674 16.345 46.2674 26.7369Z" fill="#12FF2A"/>
<path d="M19.6872 39.3743C8.82532 39.3743 0 30.549 0 19.6872C0 8.82528 8.82532 0 19.6872 0C30.5491 0 39.3743 8.82528 39.3743 19.6872C39.3743 30.549 30.5491 39.3743 19.6872 39.3743ZM19.6872 2.40213C10.1831 2.40213 2.40213 10.1308 2.40213 19.6872C2.40213 29.1913 10.1308 36.9722 19.6872 36.9722C29.1913 36.9722 36.9722 29.2435 36.9722 19.6872C36.9722 10.183 29.1913 2.40213 19.6872 2.40213Z" fill="#191919"/>
</svg>
