<svg width="289" height="655" viewBox="0 0 289 655" fill="none" xmlns="http://www.w3.org/2000/svg">
<path d="M7.11356 563.832C7.39122 562.339 6.44477 560.877 4.9998 560.568C3.52329 560.21 2.06148 561.156 1.70354 562.633C1.34561 564.109 2.27489 565.651 3.80013 565.978C5.32537 566.304 6.8359 565.326 7.11356 563.832Z" fill="#191919"/>
<path d="M18.0854 565.718C18.2828 564.208 17.2389 562.809 15.7452 562.531C14.283 562.302 12.8843 563.346 12.6067 564.84C12.329 566.334 13.4044 567.781 14.9469 568.027C16.4405 568.305 17.8393 567.261 18.0854 565.718Z" fill="#191919"/>
<path d="M29.1346 566.656C29.1714 565.11 28.0616 563.823 26.5651 563.755C25.0686 563.687 23.7501 564.748 23.633 566.276C23.4844 567.755 24.6401 569.22 26.2169 569.305C27.7134 569.374 29.0175 568.184 29.1346 566.656Z" fill="#191919"/>
<path d="M40.2119 566.675C40.1197 565.145 38.8637 563.952 37.35 563.964C35.8363 563.976 34.6441 565.232 34.656 566.746C34.6679 568.259 35.9555 569.5 37.5179 569.457C39.0631 569.494 40.3041 568.206 40.2119 566.675Z" fill="#191919"/>
<path d="M51.2403 565.551C51.0192 564.035 49.6169 562.937 48.1807 563.176C46.713 563.365 45.6154 564.767 45.7563 566.267C45.9287 567.815 47.2994 568.864 48.8474 568.691C50.3639 568.47 51.4615 567.068 51.2403 565.551Z" fill="#191919"/>
<path d="M62.1221 563.347C61.7232 561.876 60.238 560.971 58.8161 561.338C57.3943 561.705 56.4257 563.093 56.7272 564.627C56.9971 566.112 58.5454 567.115 60.0475 566.764C61.5668 566.334 62.5211 564.817 62.1221 563.347Z" fill="#191919"/>
<path d="M72.6825 559.898C72.1058 558.473 70.5375 557.76 69.1615 558.305C67.7225 558.752 67.0091 560.321 67.4567 561.76C67.9044 563.199 69.5358 564.01 71.0236 563.53C72.4798 563.002 73.2591 561.322 72.6825 559.898Z" fill="#191919"/>
<path d="M82.7122 555.202C81.9579 553.823 80.3695 553.399 79.008 554.073C77.6952 554.716 77.0936 556.35 77.719 557.743C78.3443 559.136 80.0273 559.706 81.4692 559.049C82.9282 558.312 83.4351 556.532 82.7122 555.202Z" fill="#191919"/>
<path d="M92.0821 549.273C91.1328 548.021 89.4929 547.838 88.2747 548.627C87.0566 549.415 86.7274 551.15 87.5477 552.417C88.3679 553.684 90.134 554.062 91.4496 553.21C92.7337 552.309 92.9682 550.428 92.0821 549.273Z" fill="#191919"/>
<path d="M100.44 541.995C99.3271 540.917 97.6528 540.895 96.5924 541.927C95.5004 542.911 95.4292 544.617 96.3957 545.789C97.3621 546.961 99.1482 547.05 100.386 545.971C101.544 544.876 101.552 543.073 100.44 541.995Z" fill="#191919"/>
<path d="M107.541 533.524C106.297 532.67 104.571 532.889 103.686 534.085C102.849 535.249 102.955 536.909 104.165 537.923C105.295 538.92 107.182 538.736 108.133 537.429C109.084 536.121 108.786 534.378 107.541 533.524Z" fill="#191919"/>
<path d="M113.049 523.873C111.672 523.243 109.958 523.8 109.345 525.096C108.732 526.392 109.177 528.04 110.487 528.782C111.829 529.573 113.575 529.065 114.271 527.577C115.03 526.186 114.505 524.521 113.049 523.873Z" fill="#191919"/>
<path d="M116.586 513.423C115.061 513.096 113.697 513.98 113.195 515.341C112.774 516.721 113.623 518.245 115.065 518.764C116.508 519.282 118.081 518.402 118.537 516.862C119.089 515.26 118.08 513.7 116.586 513.423Z" fill="#191919"/>
<path d="M117.942 502.379C116.397 502.342 115.141 503.501 115.122 504.966C114.942 506.397 116.083 507.732 117.594 507.93C119.105 508.127 120.489 506.954 120.655 505.394C120.677 503.72 119.487 502.416 117.942 502.379Z" fill="#191919"/>
<path d="M117.027 491.354C115.542 491.624 114.525 493.043 114.732 494.43C115.019 495.835 116.212 496.93 117.791 496.806C119.242 496.697 120.549 495.297 120.264 493.684C119.963 492.15 118.512 491.084 117.027 491.354Z" fill="#191919"/>
<path d="M113.982 480.67C112.558 481.246 111.764 482.798 112.309 484.174C112.542 484.853 113.098 485.392 113.706 485.69C114.314 485.988 115.036 486.142 115.796 485.927C116.555 485.712 117.126 485.204 117.473 484.565C117.819 483.925 117.862 483.137 117.598 482.409C116.99 480.936 115.439 480.142 113.982 480.67Z" fill="#191919"/>
<path d="M109.092 470.766C107.793 471.538 107.304 473.238 107.995 474.519C108.735 475.769 110.386 476.29 111.748 475.616C113.158 474.911 113.679 473.259 112.893 471.832C112.139 470.453 110.439 469.963 109.092 470.766Z" fill="#191919"/>
<path d="M102.968 461.523C101.733 462.392 101.404 464.126 102.256 465.442C103.156 466.726 104.779 466.989 106.094 466.137C107.33 465.268 107.676 463.453 106.807 462.218C105.955 460.902 104.252 460.622 102.968 461.523Z" fill="#191919"/>
<path d="M96.8135 452.23C95.515 453.002 95.0883 454.799 95.9402 456.115C96.8407 457.399 98.5265 457.76 99.8421 456.908C101.109 456.088 101.438 454.353 100.618 453.086C99.749 451.851 98.1606 451.427 96.8135 452.23Z" fill="#191919"/>
<path d="M91.2262 442.639C89.8474 443.394 89.3577 445.094 90.1608 446.441C90.9639 447.788 92.6641 448.278 94.0112 447.475C95.3097 446.703 95.7994 445.003 95.0279 443.705C94.2076 442.438 92.5877 441.965 91.2262 442.639Z" fill="#191919"/>
<path d="M86.304 432.687C84.9109 433.313 84.2606 434.978 84.9662 436.389C85.6719 437.799 87.3548 438.369 88.7164 437.695C90.0779 437.021 90.648 435.338 90.0054 434.025C89.2826 432.695 87.6799 432.142 86.304 432.687Z" fill="#191919"/>
<path d="M82.2071 422.408C80.7997 422.904 79.8598 424.55 80.5167 425.992C81.1249 427.465 82.742 428.147 84.1667 427.57C85.5913 426.994 86.3047 425.425 85.6793 424.032C85.1342 422.656 83.6949 421.929 82.2071 422.408Z" fill="#191919"/>
<path d="M79.1624 411.724C77.6603 412.074 76.7061 413.591 77.0878 415.142C77.4696 416.693 79.101 417.504 80.5716 417.105C82.0909 416.674 82.7871 415.186 82.4685 413.733C82.1011 412.311 80.6158 411.405 79.1624 411.724Z" fill="#191919"/>
<path d="M77.2156 400.813C75.6676 400.986 74.6187 402.357 74.8227 403.953C75.0267 405.55 76.3973 406.599 77.931 406.297C79.4159 406.028 80.5135 404.625 80.3239 403.158C80.1658 401.739 78.7636 400.641 77.2156 400.813Z" fill="#191919"/>
<path d="M76.6879 389.745C75.1427 389.708 73.8702 390.947 73.9452 392.558C74.0202 394.169 75.2762 395.361 76.807 395.269C78.3379 395.177 79.5301 393.921 79.4695 392.439C79.3917 391.037 78.1529 389.764 76.6879 389.745Z" fill="#191919"/>
<path d="M77.5765 378.727C76.0656 378.53 74.6669 379.574 74.4523 381.165C74.2062 382.708 75.4107 384.141 76.9387 384.258C78.4668 384.375 79.7537 383.265 79.9826 381.803C80.18 380.292 79.0873 378.925 77.5765 378.727Z" fill="#191919"/>
<path d="M79.7034 367.807C78.1953 367.4 76.6848 368.378 76.3584 369.904C76.032 371.429 77.01 372.939 78.5037 373.217C79.9974 373.495 81.4592 372.548 81.7685 371.103C82.0777 369.658 81.1312 368.196 79.7034 367.807Z" fill="#191919"/>
<path d="M82.8252 357.142C81.383 356.623 79.7779 357.455 79.2909 358.946C78.804 360.437 79.6043 361.993 81.1123 362.4C82.5717 362.838 84.0966 361.989 84.5664 360.579C85.0677 359.217 84.2674 357.66 82.8252 357.142Z" fill="#191919"/>
<path d="M86.5719 346.694C85.1785 346.144 83.5102 346.878 82.9917 348.32C82.4733 349.763 83.1761 351.382 84.6183 351.901C86.0604 352.419 87.6484 351.668 88.1985 350.274C88.717 348.832 88.0456 347.261 86.5719 346.694Z" fill="#191919"/>
<path d="M90.6226 336.395C89.2292 335.845 87.6097 336.548 87.0109 337.973C86.4609 339.366 87.1637 340.986 88.5887 341.585C89.9821 342.135 91.6016 341.432 92.2004 340.007C92.7676 338.533 92.0648 336.914 90.6226 336.395Z" fill="#191919"/>
<path d="M94.45 325.965C93.0079 325.446 91.4514 326.246 90.9329 327.688C90.4144 329.131 91.166 330.719 92.6082 331.237C94.0503 331.756 95.6383 331.004 96.1568 329.562C96.6925 328.039 95.8606 326.434 94.45 325.965Z" fill="#191919"/>
<path d="M97.7637 315.382C96.3044 314.944 94.7795 315.793 94.3413 317.252C93.9031 318.712 94.7521 320.236 96.2114 320.675C97.6708 321.113 99.2272 320.313 99.6339 318.805C100.072 317.345 99.2231 315.82 97.7637 315.382Z" fill="#191919"/>
<path d="M100.533 304.599C99.0566 304.241 97.5947 305.188 97.2053 306.616C96.8473 308.092 97.7451 309.585 99.2216 309.943C100.73 310.35 102.223 309.452 102.598 307.896C102.988 306.468 102.01 304.957 100.533 304.599Z" fill="#191919"/>
<path d="M102.852 293.762C101.358 293.484 99.9282 294.48 99.619 295.925C99.3413 297.418 100.288 298.88 101.781 299.158C103.307 299.484 104.737 298.489 105.063 296.964C105.373 295.519 104.346 294.04 102.852 293.762Z" fill="#191919"/>
<path d="M104.609 282.804C103.098 282.607 101.699 283.651 101.471 285.113C101.242 286.575 102.237 288.005 103.779 288.252C105.322 288.498 106.72 287.454 106.966 285.911C107.195 284.449 106.12 283.002 104.609 282.804Z" fill="#191919"/>
<path d="M105.836 271.775C104.308 271.658 102.941 272.751 102.824 274.279C102.675 275.758 103.768 277.125 105.278 277.323C106.789 277.52 108.125 276.379 108.322 274.868C108.537 273.277 107.396 271.941 105.836 271.775Z" fill="#191919"/>
<path d="M106.532 260.675C104.987 260.638 103.732 261.797 103.614 263.325C103.546 264.821 104.736 266.125 106.264 266.242C107.792 266.359 109.096 265.169 109.182 263.593C109.219 262.047 108.06 260.792 106.532 260.675Z" fill="#191919"/>
<path d="M106.632 249.615C105.119 249.627 103.878 250.914 103.938 252.396C103.95 253.91 105.158 255.134 106.703 255.171C108.248 255.207 109.489 253.92 109.526 252.375C109.434 250.844 108.195 249.571 106.632 249.615Z" fill="#191919"/>
<path d="M106.153 238.515C104.623 238.607 103.493 239.96 103.554 241.442C103.615 242.924 104.951 244.134 106.482 244.042C108.013 243.95 109.173 242.645 109.081 241.114C109.038 239.551 107.733 238.391 106.153 238.515Z" fill="#191919"/>
<path d="M105.029 227.486C103.513 227.707 102.432 229.029 102.605 230.577C102.794 232.045 104.148 233.174 105.647 233.033C107.195 232.861 108.324 231.507 108.072 229.942C107.948 228.363 106.546 227.265 105.029 227.486Z" fill="#191919"/>
<path d="M103.309 216.498C101.775 216.799 100.887 218.204 101.077 219.672C101.298 221.189 102.766 222.175 104.282 221.953C105.799 221.732 106.816 220.313 106.563 218.748C106.342 217.231 104.794 216.228 103.309 216.498Z" fill="#191919"/>
<path d="M100.975 205.631C99.5046 206.03 98.5675 207.466 98.9177 208.968C99.2363 210.422 100.753 211.376 102.255 211.026C103.757 210.675 104.663 209.19 104.313 207.688C103.914 206.218 102.429 205.312 100.975 205.631Z" fill="#191919"/>
<path d="M97.9619 194.996C96.4742 195.475 95.7292 196.994 96.0966 198.416C96.4955 199.887 98.0467 200.68 99.5172 200.282C100.988 199.883 101.83 198.3 101.431 196.829C101.032 195.359 99.4497 194.516 97.9619 194.996Z" fill="#191919"/>
<path d="M94.3352 184.481C92.9106 185.058 92.1972 186.626 92.6935 188.034C93.2386 189.409 94.7898 190.203 96.2459 189.675C97.7021 189.147 98.4643 187.547 97.8876 186.123C97.3597 184.667 95.7427 183.985 94.3352 184.481Z" fill="#191919"/>
<path d="M90.1096 174.216C88.7165 174.842 88.0662 176.507 88.66 177.852C89.2854 179.245 90.8709 179.878 92.2956 179.301C93.7202 178.725 94.3705 177.059 93.7451 175.666C93.1198 174.273 91.5027 173.591 90.1096 174.216Z" fill="#191919"/>
<path d="M85.1871 164.264C83.8571 164.987 83.3359 166.638 84.0099 168C84.684 169.361 86.2867 169.914 87.6798 169.289C89.0414 168.615 89.6114 166.932 88.986 165.539C88.2489 164.08 86.5487 163.59 85.1871 164.264Z" fill="#191919"/>
<path d="M79.7775 154.627C78.4791 155.399 78.0209 157.148 78.7609 158.397C79.5324 159.696 81.2011 160.137 82.5798 159.383C83.9098 158.66 84.368 156.911 83.5964 155.612C82.7933 154.265 81.0445 153.807 79.7775 154.627Z" fill="#191919"/>
<path d="M73.8178 145.209C72.5824 146.078 72.1729 147.795 72.9932 149.062C73.8135 150.329 75.548 150.658 76.8149 149.838C78.0818 149.017 78.4913 147.3 77.6394 145.984C76.7705 144.749 75.0847 144.388 73.8178 145.209Z" fill="#191919"/>
<path d="M67.3046 136.217C66.1008 137.135 65.9006 138.855 66.7696 140.09C67.6386 141.326 69.3903 141.575 70.6256 140.706C71.861 139.837 72.1586 138.053 71.2093 136.801C70.3088 135.517 68.5084 135.299 67.3046 136.217Z" fill="#191919"/>
<path d="M60.3358 127.59C59.1635 128.556 58.9949 130.325 60.01 131.466C60.9765 132.638 62.6966 132.838 63.8689 131.872C65.0411 130.906 65.2901 129.154 64.2921 127.933C63.2769 126.792 61.508 126.624 60.3358 127.59Z" fill="#191919"/>
<path d="M52.9601 119.296C51.8509 120.36 51.8113 122.114 52.7949 123.206C53.8101 124.347 55.5645 124.386 56.7053 123.371C57.846 122.356 57.8856 120.601 56.8704 119.461C55.8552 118.32 54.0692 118.232 52.9601 119.296Z" fill="#191919"/>
<path d="M45.1111 111.445C44.0822 112.527 44.1229 114.298 45.1553 115.359C46.2363 116.388 47.9593 116.378 49.0685 115.315C50.1776 114.251 50.137 112.479 48.9928 111.353C47.9604 110.292 46.1887 110.333 45.1111 111.445Z" fill="#191919"/>
<path d="M36.7553 104.201C35.7896 105.379 35.9592 107.136 37.1062 108.054C38.3019 108.939 39.9446 108.913 40.9906 107.751C41.988 106.622 41.9158 104.801 40.657 103.818C39.4784 102.852 37.6896 102.973 36.7553 104.201Z" fill="#191919"/>
<path d="M27.8117 97.5435C26.9577 98.788 27.2563 100.531 28.4521 101.416C29.6478 102.302 31.3907 102.003 32.3249 100.776C33.2592 99.5487 32.9605 97.8058 31.6845 96.9031C30.4086 96.0004 28.7144 96.2675 27.8117 97.5435Z" fill="#191919"/>
<path d="M18.3897 91.7494C17.6791 93.1085 18.124 94.7568 19.4343 95.499C20.7131 96.1924 22.3758 95.8765 23.2154 94.5031C24.0378 93.2099 23.6273 91.4011 22.2682 90.6905C20.8289 89.9627 19.1319 90.4391 18.3897 91.7494Z" fill="#191919"/>
<path d="M8.44055 86.85C7.84179 88.2749 8.48154 89.7971 9.84061 90.5077C11.1681 91.1695 12.8021 90.5957 13.4811 89.1879C14.1917 87.8288 13.5863 86.1461 12.1785 85.4671C10.7391 84.7393 8.99058 85.4565 8.44055 86.85Z" fill="#191919"/>
<path d="M-1.99006 83.0229C-2.42827 84.4822 -1.67673 86.0702 -0.266125 86.54C1.14448 87.0097 2.70096 86.2095 3.251 84.816C3.76948 83.3739 3.0179 81.7858 1.52701 81.2989C0.0533035 80.7317 -1.50312 81.532 -1.99006 83.0229Z" fill="#191919"/>
<g style="mix-blend-mode:hard-light">
<path d="M194.921 380.633C193.208 369.209 182.571 361.295 171.09 363.017C159.666 364.73 151.752 375.367 153.473 386.848C155.186 398.272 165.823 406.186 177.305 404.465C188.729 402.752 196.634 392.057 194.921 380.633Z" fill="#12FF2A"/>
<path d="M163.618 371.122C151.677 372.913 143.43 384.069 145.221 396.01C147.011 407.95 158.168 416.197 170.108 414.407C182.049 412.617 190.296 401.46 188.506 389.519C186.715 377.579 175.559 369.332 163.618 371.122ZM169.712 411.766C159.264 413.333 149.437 406.119 147.861 395.614C146.295 385.166 153.508 375.338 164.014 373.763C174.462 372.196 184.29 379.41 185.865 389.915C187.431 400.363 180.16 410.2 169.712 411.766Z" fill="#191919"/>
</g>
</svg>
