<svg width="1528" height="619" viewBox="0 0 1528 619" fill="none" xmlns="http://www.w3.org/2000/svg">
<g style="mix-blend-mode:difference">
<path fill-rule="evenodd" clip-rule="evenodd" d="M331.515 585L346.03 599.515L331.515 614.03L317 599.515L331.515 585Z" fill="#191919"/>
</g>
<g style="mix-blend-mode:exclusion">
<path fill-rule="evenodd" clip-rule="evenodd" d="M1483.76 559.521L1504.68 581.64L1526.8 560.715L1505.87 538.597L1483.76 559.521Z" fill="#191919"/>
</g>
<g style="mix-blend-mode:hard-light">
<path d="M54.9212 581.633C53.2082 570.209 42.5713 562.295 31.0899 564.017C19.6659 565.73 11.7518 576.367 13.4734 587.848C15.1863 599.272 25.8233 607.186 37.3047 605.465C48.7287 603.752 56.6341 593.057 54.9212 581.633Z" fill="#12FF2A"/>
<path d="M23.618 572.122C11.6774 573.913 3.43026 585.069 5.22068 597.01C7.0111 608.95 18.1676 617.197 30.1083 615.407C42.0489 613.617 50.296 602.46 48.5055 590.519C46.7151 578.579 35.5587 570.332 23.618 572.122ZM29.7123 612.766C19.2643 614.333 9.43661 607.119 7.86139 596.614C6.29477 586.166 13.5085 576.338 24.014 574.763C34.462 573.196 44.2896 580.41 45.8648 590.915C47.4315 601.363 40.1604 611.2 29.7123 612.766Z" fill="#191919"/>
</g>
<path d="M1180 129.987L1167 142.985L1170.32 146.308L1183.32 133.311L1180 129.987Z" fill="#191919"/>
<path d="M1170.41 129.998L1167.09 133.322L1180.09 146.319L1183.41 142.996L1170.41 129.998Z" fill="#191919"/>
<path d="M403 115.426L438.353 137.776L440.024 96L403 115.426Z" fill="#12FF2A"/>
<path fill-rule="evenodd" clip-rule="evenodd" d="M608.951 101L595.321 114.63L608.951 128.259L622.58 114.63L608.951 101Z" fill="#191919"/>
<path d="M1241.27 360.207C1241.27 370.599 1232.86 379.058 1222.42 379.058C1212.02 379.058 1203.56 370.651 1203.56 360.207C1203.56 349.815 1211.97 341.355 1222.42 341.355C1232.81 341.355 1241.27 349.815 1241.27 360.207Z" fill="#12FF2A"/>
<path d="M1214.69 372.844C1203.83 372.844 1195 364.019 1195 353.157C1195 342.295 1203.83 333.47 1214.69 333.47C1225.55 333.47 1234.37 342.295 1234.37 353.157C1234.37 364.019 1225.55 372.844 1214.69 372.844ZM1214.69 335.872C1205.18 335.872 1197.4 343.601 1197.4 353.157C1197.4 362.661 1205.13 370.442 1214.69 370.442C1224.19 370.442 1231.97 362.713 1231.97 353.157C1231.97 343.653 1224.19 335.872 1214.69 335.872Z" fill="#191919"/>
<g style="mix-blend-mode:exclusion">
<path fill-rule="evenodd" clip-rule="evenodd" d="M869.23 0L890.745 21.5671L885.888 26.4758L864.373 4.90874L869.23 0Z" fill="#191919"/>
<path fill-rule="evenodd" clip-rule="evenodd" d="M885.836 0.156662L890.692 5.0654L869.178 26.6325L864.321 21.7238L885.836 0.156662Z" fill="#191919"/>
</g>
</svg>
