<svg width="93" height="109" viewBox="0 0 93 109" fill="none" xmlns="http://www.w3.org/2000/svg">
<g style="mix-blend-mode:hard-light">
<path d="M92.4533 46.8817C92.4533 72.1968 71.9722 92.8051 46.5299 92.8051C21.2147 92.8051 0.606445 72.324 0.606445 46.8817C0.606445 21.5666 21.0875 0.958252 46.5299 0.958252C71.845 0.958252 92.4533 21.5666 92.4533 46.8817Z" fill="#12FF2A"/>
</g>
<path d="M34.5285 108.878C15.5258 108.878 0.0859375 93.4385 0.0859375 74.4357C0.0859375 55.4329 15.5258 39.9932 34.5285 39.9932C53.5313 39.9932 68.971 55.4329 68.971 74.4357C68.971 93.4385 53.5313 108.878 34.5285 108.878ZM34.5285 44.1957C17.9011 44.1957 4.28845 57.7169 4.28845 74.4357C4.28845 91.0632 17.8098 104.676 34.5285 104.676C51.156 104.676 64.7685 91.1545 64.7685 74.4357C64.7685 57.8083 51.156 44.1957 34.5285 44.1957Z" fill="#191919"/>
</svg>
