<svg width="47" height="47" viewBox="0 0 47 47" fill="none" xmlns="http://www.w3.org/2000/svg">
<path d="M46.2674 27.2068C46.2674 37.5987 37.8599 46.0584 27.4158 46.0584C17.0239 46.0584 8.56421 37.6509 8.56421 27.2068C8.56421 16.8149 16.9717 8.35513 27.4158 8.35513C37.8077 8.35513 46.2674 16.8149 46.2674 27.2068Z" fill="#12FF2A"/>
<path d="M19.6872 39.8442C8.82532 39.8442 0 31.0189 0 20.157C0 9.29513 8.82532 0.469849 19.6872 0.469849C30.5491 0.469849 39.3743 9.29513 39.3743 20.157C39.3743 31.0189 30.5491 39.8442 19.6872 39.8442ZM19.6872 2.87198C10.1831 2.87198 2.40213 10.6006 2.40213 20.157C2.40213 29.6612 10.1308 37.442 19.6872 37.442C29.1913 37.442 36.9722 29.7134 36.9722 20.157C36.9722 10.6529 29.1913 2.87198 19.6872 2.87198Z" fill="#191919"/>
</svg>
