<svg width="92" height="81" viewBox="0 0 92 81" fill="none" xmlns="http://www.w3.org/2000/svg">
<g style="mix-blend-mode:hard-light">
<path d="M80.8083 40.183C80.8083 62.3337 62.8874 80.366 40.6254 80.366C18.4746 80.366 0.442383 62.445 0.442383 40.183C0.442383 18.0323 18.3633 0 40.6254 0C62.7761 0 80.8083 18.0323 80.8083 40.183Z" fill="#12FF2A"/>
</g>
<path d="M80.8084 60.8485C75.1075 60.8485 70.4756 56.2166 70.4756 50.5158C70.4756 44.8149 75.1075 40.183 80.8084 40.183C86.5092 40.183 91.1411 44.8149 91.1411 50.5158C91.1411 56.2166 86.5092 60.8485 80.8084 60.8485ZM80.8084 41.4437C75.8201 41.4437 71.7363 45.5001 71.7363 50.5158C71.7363 55.504 75.7927 59.5878 80.8084 59.5878C85.7966 59.5878 89.8804 55.5314 89.8804 50.5158C89.8804 45.5275 85.7966 41.4437 80.8084 41.4437Z" fill="#191919"/>
</svg>
