<svg width="60" height="59" viewBox="0 0 60 59" fill="none" xmlns="http://www.w3.org/2000/svg">
<g style="mix-blend-mode:hard-light">
<path d="M54.9212 21.6333C53.2082 10.2093 42.5713 2.29522 31.0899 4.01677C19.6659 5.72972 11.7518 16.3667 13.4734 27.8481C15.1863 39.2721 25.8233 47.1862 37.3047 45.4646C48.7287 43.7517 56.6341 33.0572 54.9212 21.6333Z" fill="#12FF2A"/>
<path d="M23.618 12.1222C11.6774 13.9126 3.43026 25.0691 5.22068 37.0097C7.0111 48.9504 18.1676 57.1974 30.1083 55.407C42.0489 53.6166 50.296 42.4601 48.5055 30.5194C46.7151 18.5788 35.5587 10.3318 23.618 12.1222ZM29.7123 52.7663C19.2643 54.3329 9.43661 47.1192 7.86139 36.6138C6.29477 26.1657 13.5085 16.3381 24.014 14.7629C34.462 13.1963 44.2896 20.4099 45.8648 30.9154C47.4315 41.3635 40.1604 51.1997 29.7123 52.7663Z" fill="#191919"/>
</g>
</svg>
