<svg width="287" height="561" viewBox="0 0 287 561" fill="none" xmlns="http://www.w3.org/2000/svg">
<path d="M276.848 548.186C276.359 546.498 277.28 544.715 278.901 544.224C280.523 543.733 282.31 544.519 282.933 546.211C283.558 547.837 282.634 549.754 280.943 550.31C279.188 550.797 277.338 549.875 276.848 548.186Z" fill="#191919"/>
<path d="M264.373 551.123C264.086 549.373 265.204 547.729 266.887 547.441C268.573 547.019 270.217 548.136 270.639 549.823C271.062 551.509 269.94 553.287 268.187 553.708C266.435 554.061 264.659 552.873 264.373 551.123Z" fill="#191919"/>
<path d="M251.672 552.513C251.588 550.701 252.899 549.331 254.645 549.178C256.325 549.024 257.898 550.273 258.117 552.021C258.337 553.769 257.02 555.341 255.205 555.558C253.325 555.707 251.758 554.257 251.672 552.513Z" fill="#191919"/>
<path d="M238.882 552.292C239.066 550.488 240.573 549.324 242.246 549.37C243.92 549.417 245.285 550.928 245.236 552.669C245.188 554.41 243.675 555.841 241.867 555.791C240.061 555.674 238.702 553.962 238.882 552.292Z" fill="#191919"/>
<path d="M226.28 550.133C226.73 548.404 228.367 547.377 230.031 547.759C231.697 548.073 232.79 549.711 232.541 551.446C232.292 553.181 230.585 554.339 228.718 554.02C226.92 553.635 225.83 551.863 226.28 550.133Z" fill="#191919"/>
<path d="M214.2 546.047C214.914 544.459 216.746 543.638 218.336 544.285C219.859 544.931 220.75 546.63 220.166 548.356C219.651 550.016 217.682 550.967 215.96 550.249C214.238 549.531 213.486 547.635 214.2 546.047Z" fill="#191919"/>
<path d="M202.983 539.84C203.961 538.393 205.985 537.913 207.366 538.823C208.748 539.732 209.298 541.623 208.452 543.14C207.605 544.725 205.58 545.272 204.001 544.223C202.418 543.308 201.937 541.352 202.983 539.84Z" fill="#191919"/>
<path d="M193.228 531.664C194.535 530.427 196.409 530.479 197.721 531.521C198.963 532.627 199.041 534.639 197.931 536.015C196.821 537.391 194.742 537.467 193.369 536.223C191.863 534.976 191.923 532.834 193.228 531.664Z" fill="#191919"/>
<path d="M185.267 521.595C186.767 520.632 188.699 521.02 189.598 522.452C190.633 523.754 190.31 525.754 188.94 526.855C187.569 527.956 185.501 527.631 184.402 526.194C183.376 524.557 183.766 522.558 185.267 521.595Z" fill="#191919"/>
<path d="M179.554 510.181C181.179 509.556 183.033 510.345 183.662 511.836C184.221 513.392 183.703 515.187 182.072 516.013C180.577 516.775 178.45 516.18 177.761 514.419C177.138 512.727 177.929 510.806 179.554 510.181Z" fill="#191919"/>
<path d="M176.145 497.827C177.895 497.54 179.607 498.593 179.896 500.275C180.074 501.084 179.849 501.949 179.429 502.607C179.009 503.266 178.39 503.851 177.512 504.095C176.634 504.339 175.768 504.181 175.042 503.759C174.317 503.336 173.802 502.585 173.625 501.709C173.341 499.893 174.393 498.18 176.145 497.827Z" fill="#191919"/>
<path d="M175.023 485.133C176.765 485.115 178.268 486.496 178.355 488.174C178.376 489.849 177.061 491.353 175.315 491.506C173.502 491.657 171.998 490.342 171.916 488.464C171.832 486.653 173.214 485.15 175.023 485.133Z" fill="#191919"/>
<path d="M175.511 472.351C177.25 472.466 178.615 473.978 178.565 475.785C178.448 477.591 177.007 478.824 175.199 478.774C173.461 478.658 172.031 477.078 172.146 475.339C172.196 473.532 173.706 472.234 175.511 472.351Z" fill="#191919"/>
<path d="M176.002 459.501C177.744 459.483 179.243 460.998 179.193 462.806C179.076 464.611 177.631 465.978 175.824 465.928C174.083 465.88 172.718 464.368 172.766 462.627C172.882 460.889 174.193 459.518 176.002 459.501Z" fill="#191919"/>
<path d="M175.754 446.698C177.565 446.615 179.068 447.996 179.085 449.806C179.101 451.615 177.72 453.118 175.91 453.134C174.168 453.153 172.666 451.771 172.647 450.029C172.695 448.289 174.008 446.851 175.754 446.698Z" fill="#191919"/>
<path d="M174.634 433.938C176.382 433.719 178.022 434.97 178.173 436.783C178.324 438.596 177.007 440.168 175.261 440.32C173.515 440.473 171.944 439.156 171.789 437.477C171.704 435.733 172.951 434.227 174.634 433.938Z" fill="#191919"/>
<path d="M172.504 421.351C174.189 420.996 176.103 422.054 176.32 423.869C176.605 425.686 175.42 427.328 173.671 427.614C171.921 427.9 170.277 426.783 170.057 425.035C169.769 423.352 170.751 421.771 172.504 421.351Z" fill="#191919"/>
<path d="M169.095 408.997C170.786 408.44 172.636 409.363 173.19 411.12C173.744 412.877 172.623 414.655 170.935 415.144C169.179 415.631 167.6 414.583 167.043 412.959C166.552 411.338 167.472 409.554 169.095 408.997Z" fill="#191919"/>
<path d="M164.469 397.077C166.097 396.318 167.953 397.04 168.71 398.736C169.467 400.431 168.746 402.287 167.054 402.91C165.428 403.535 163.505 402.812 162.812 401.252C162.116 399.759 162.84 397.836 164.469 397.077Z" fill="#191919"/>
<path d="M158.348 385.853C159.849 384.89 161.846 385.347 162.739 386.98C163.631 388.612 163.109 390.541 161.545 391.368C159.981 392.196 158.053 391.673 157.223 390.177C156.459 388.748 156.916 386.751 158.348 385.853Z" fill="#191919"/>
<path d="M150.863 375.529C152.234 374.428 154.238 374.618 155.404 376.057C156.572 377.429 156.245 379.564 154.809 380.596C153.374 381.628 151.44 381.307 150.337 380.003C149.236 378.633 149.493 376.63 150.863 375.529Z" fill="#191919"/>
<path d="M142.216 366.044C143.458 364.739 145.533 364.796 146.77 366.103C148.006 367.411 147.949 369.486 146.644 370.655C145.338 371.825 143.33 371.769 142.158 370.531C140.987 369.293 141.042 367.284 142.216 366.044Z" fill="#191919"/>
<path d="M132.741 357.407C133.851 356.031 135.932 355.888 137.306 357.065C138.681 358.242 138.826 360.255 137.584 361.561C136.409 362.868 134.397 362.946 133.087 361.838C131.776 360.797 131.631 358.783 132.741 357.407Z" fill="#191919"/>
<path d="M122.781 349.359C123.824 347.981 125.909 347.704 127.285 348.814C128.661 349.924 128.94 351.942 127.83 353.318C126.72 354.694 124.704 354.906 123.326 353.863C121.95 352.753 121.669 350.802 122.781 349.359Z" fill="#191919"/>
<path d="M112.611 341.641C113.654 340.263 115.672 339.984 117.117 341.029C118.495 342.072 118.774 344.089 117.729 345.534C116.685 346.912 114.668 347.191 113.223 346.146C111.78 345.034 111.501 343.017 112.611 341.641Z" fill="#191919"/>
<path d="M102.582 333.658C103.692 332.282 105.706 332.137 107.082 333.247C108.458 334.357 108.67 336.373 107.56 337.749C106.45 339.125 104.435 339.337 103.058 338.227C101.617 337.048 101.474 334.967 102.582 333.658Z" fill="#191919"/>
<path d="M92.9681 325.218C94.1432 323.911 96.1552 323.832 97.4626 325.008C98.7699 326.183 98.848 328.195 97.6729 329.502C96.4977 330.809 94.4838 330.955 93.1784 329.712C91.8711 328.537 91.7929 326.525 92.9681 325.218Z" fill="#191919"/>
<path d="M83.7704 316.254C85.0106 315.015 87.019 315.071 88.2593 316.244C89.4978 317.484 89.5091 319.495 88.2688 320.733C87.0267 322.039 85.0165 322.05 83.7129 320.741C82.4726 319.567 82.5301 317.492 83.7704 316.254Z" fill="#191919"/>
<path d="M74.9836 306.966C76.289 305.796 78.2954 305.918 79.467 307.157C80.6367 308.462 80.581 310.47 79.2756 311.64C77.9684 312.877 75.9619 312.754 74.7253 311.447C73.5537 310.209 73.6783 308.135 74.9836 306.966Z" fill="#191919"/>
<path d="M66.6784 297.222C68.0489 296.121 70.0535 296.31 71.1562 297.614C72.259 298.917 72.1363 300.924 70.764 302.092C69.3917 303.26 67.3872 303.07 66.2193 301.698C65.1166 300.394 65.308 298.323 66.6784 297.222Z" fill="#191919"/>
<path d="M58.8532 287.089C60.2888 286.057 62.2915 286.314 63.3236 287.749C64.3575 289.118 64.101 291.121 62.7306 292.222C61.3601 293.323 59.3593 292.999 58.2584 291.629C57.0924 290.189 57.4159 288.188 58.8532 287.089Z" fill="#191919"/>
<path d="M51.5077 276.568C53.0084 275.605 54.9404 275.994 55.9725 277.429C56.9377 278.863 56.5473 280.862 55.1117 281.894C53.6762 282.926 51.6772 282.536 50.6469 281.033C49.6836 279.533 50.0722 277.601 51.5077 276.568Z" fill="#191919"/>
<path d="M44.7739 265.73C46.2726 264.833 48.2679 265.358 49.0973 266.854C49.9937 268.353 49.5382 270.283 48.0376 271.247C46.5369 272.21 44.5416 271.686 43.5783 270.185C42.7508 268.621 43.2082 266.624 44.7739 265.73Z" fill="#191919"/>
<path d="M38.5865 254.504C40.1503 253.676 42.075 254.333 42.9044 255.829C43.7338 257.326 43.1425 259.32 41.5787 260.147C40.0149 260.975 38.0884 260.385 37.2608 258.822C36.3663 257.256 36.9557 255.329 38.5865 254.504Z" fill="#191919"/>
<path d="M33.0782 242.962C34.7053 242.27 36.563 242.924 37.3218 244.553C38.0154 246.113 37.3591 248.038 35.7971 248.799C34.1682 249.557 32.2435 248.901 31.5536 247.207C30.7279 245.576 31.4511 243.653 33.0782 242.962Z" fill="#191919"/>
<path d="M28.1815 231.102C29.8736 230.479 31.5919 231.33 32.2855 232.89C32.9774 234.518 32.122 236.37 30.495 237.062C28.8679 237.753 27.0139 236.965 26.3239 235.271C25.6321 233.644 26.5562 231.727 28.1815 231.102Z" fill="#191919"/>
<path d="M23.9617 218.993C25.6501 218.504 27.4353 219.357 27.9914 221.047C28.5493 222.671 27.6271 224.521 25.9368 225.077C24.2465 225.633 22.4631 224.713 21.9071 223.022C21.4179 221.334 22.3383 219.551 23.9617 218.993Z" fill="#191919"/>
<path d="M20.5508 206.705C22.3043 206.285 23.9501 207.335 24.441 208.957C24.9302 210.645 23.8777 212.358 22.1893 212.847C20.5008 213.336 18.7212 212.282 18.2321 210.593C17.743 208.905 18.7973 207.125 20.5508 206.705Z" fill="#191919"/>
<path d="M17.8168 194.168C19.5667 193.882 21.2105 194.999 21.5658 196.684C21.8541 198.367 20.8017 200.079 19.05 200.433C17.2983 200.786 15.5875 199.667 15.301 197.917C14.9476 196.165 16.1321 194.523 17.8168 194.168Z" fill="#191919"/>
<path d="M15.8229 181.518C17.5709 181.298 19.2111 182.55 19.4324 184.231C19.6519 185.979 18.4693 187.554 16.7195 187.84C14.9697 188.126 13.3295 186.875 13.11 185.127C12.8905 183.379 14.075 181.737 15.8229 181.518Z" fill="#191919"/>
<path d="M14.7029 168.757C16.4471 168.672 17.9515 169.986 18.1041 171.733C18.2566 173.479 17.0089 174.985 15.261 175.204C13.5149 175.357 11.9435 174.04 11.724 172.292C11.5752 170.412 12.9568 168.91 14.7029 168.757Z" fill="#191919"/>
<path d="M14.2525 156.016C15.9949 155.997 17.4956 157.446 17.5161 159.121C17.5348 160.864 16.155 162.299 14.3439 162.383C12.5996 162.469 11.0989 161.02 11.0802 159.278C11.0634 157.468 12.512 155.968 14.2525 156.016Z" fill="#191919"/>
<path d="M14.4751 143.159C16.2138 143.274 17.6476 144.721 17.5993 146.461C17.551 148.202 16.0393 149.567 14.2987 149.519C12.5582 149.47 11.1244 148.024 11.1746 146.216C11.2898 144.478 12.7346 143.111 14.4751 143.159Z" fill="#191919"/>
<path d="M15.499 130.391C17.2358 130.573 18.465 132.148 18.3498 133.887C18.2346 135.626 16.6577 136.922 14.9191 136.807C13.1804 136.692 11.8173 135.113 12.0013 133.309C12.1184 131.503 13.7622 130.209 15.499 130.391Z" fill="#191919"/>
<path d="M17.1908 117.709C18.9258 117.958 20.1531 119.6 19.8371 121.333C19.588 123.068 18.013 124.297 16.278 124.048C14.5431 123.799 13.2469 122.222 13.4979 120.421C13.8139 118.687 15.4558 117.46 17.1908 117.709Z" fill="#191919"/>
<path d="M19.4832 105.111C21.2144 105.494 22.306 107.199 21.9918 108.865C21.6758 110.598 19.9706 111.69 18.2375 111.374C16.5044 111.058 15.4128 109.353 15.7289 107.619C16.0449 105.886 17.7519 104.728 19.4832 105.111Z" fill="#191919"/>
<path d="M22.5081 92.6665C24.1705 93.1146 25.1933 94.8849 24.8122 96.5492C24.3641 98.2116 22.6608 99.2363 20.9296 98.8533C19.1983 98.4703 18.1755 96.7 18.6273 94.9037C19.0084 93.2394 20.7787 92.2166 22.5081 92.6665Z" fill="#191919"/>
<path d="M26.3959 80.5144C28.0547 81.0964 28.9417 82.9298 28.3616 84.5216C27.7146 86.1115 26.0801 87.0711 24.3525 86.5543C22.6919 86.0392 21.671 84.202 22.3217 82.4782C22.9037 80.8195 24.739 79.8655 26.3959 80.5144Z" fill="#191919"/>
<path d="M31.2153 68.5889C32.8034 69.3029 33.5547 71.1996 32.9077 72.7895C32.2606 74.3795 30.3639 75.1308 28.7071 74.4818C27.0502 73.8329 26.2989 71.9363 27.0147 70.2812C27.7306 68.6262 29.5603 67.8731 31.2153 68.5889Z" fill="#191919"/>
<path d="M37.0241 57.2268C38.5397 58.1398 39.0902 60.0309 38.2441 61.5483C37.4 62.9988 35.5721 63.6851 33.9208 62.8353C32.3345 62.0544 31.6539 60.0256 32.5668 58.5101C33.5486 56.9294 35.5067 56.3808 37.0241 57.2268Z" fill="#191919"/>
<path d="M43.8892 46.4301C45.3341 47.4751 45.6168 49.3588 44.7038 50.8744C43.7927 52.323 41.8384 52.7378 40.3246 51.7578C38.8091 50.8449 38.3962 48.8235 39.3761 47.3098C40.3579 45.7291 42.5112 45.3869 43.8892 46.4301Z" fill="#191919"/>
<path d="M51.8716 36.4013C53.1789 37.5765 53.391 39.5922 52.2828 40.9013C51.1745 42.2105 49.1606 42.3556 47.7827 41.3125C46.4066 40.2024 46.1945 38.1866 47.3716 36.8124C48.4835 35.3693 50.4974 35.2242 51.8716 36.4013Z" fill="#191919"/>
<path d="M60.8994 27.3394C62.0691 28.6448 62.0134 30.6531 60.775 31.8246C59.4715 32.9274 57.5934 33.0093 56.2879 31.7672C55.0494 30.527 54.975 28.381 56.3473 27.2132C57.6563 25.9096 59.6628 26.0322 60.8994 27.3394Z" fill="#191919"/>
<path d="M70.8365 19.3075C71.8686 20.7431 71.5469 22.677 70.1784 23.7109C68.8749 24.8137 66.8721 24.5572 65.7712 23.1867C64.6703 21.8163 64.9287 19.7467 66.2991 18.6458C67.7365 17.5467 69.8043 17.872 70.8365 19.3075Z" fill="#191919"/>
<path d="M81.614 12.3711C82.4434 13.868 81.9209 15.7963 80.4873 16.7615C79.0554 17.6597 77.0583 17.2023 76.095 15.7017C75.1317 14.2011 75.656 12.2058 77.1547 11.3094C78.7911 10.2829 80.7195 10.8054 81.614 12.3711Z" fill="#191919"/>
<path d="M93.0927 6.72695C93.7845 8.35402 93.0612 10.2768 91.5011 10.9705C89.941 11.6642 88.0182 10.9408 87.2576 9.37886C86.43 7.81502 87.1533 5.89221 88.8492 5.13531C90.4781 4.37655 92.4009 5.09988 93.0927 6.72695Z" fill="#191919"/>
<path d="M105.076 2.23553C105.632 3.92583 104.711 5.70924 103.088 6.26717C101.465 6.82509 99.6775 6.03853 99.0544 4.34637C98.4296 2.72116 99.2867 0.802127 100.979 0.179113C102.669 -0.376958 104.519 0.545233 105.076 2.23553Z" fill="#191919"/>
<path d="M117.365 -1.24227C117.787 0.444314 116.735 2.15701 115.046 2.64614C113.36 3.06832 111.645 2.08279 111.156 0.394341C110.667 -1.2941 111.721 -3.07373 113.477 -3.561C115.232 -4.04827 117.012 -2.99395 117.365 -1.24227Z" fill="#191919"/>
<path d="M129.96 -3.63956C130.246 -1.88975 129.062 -0.24774 127.379 0.0405568C125.696 0.328854 123.987 -0.857432 123.698 -2.54031C123.345 -4.29198 124.53 -5.93407 126.279 -6.22051C128.031 -6.57389 129.673 -5.38938 129.96 -3.63956Z" fill="#191919"/>
<path d="M206.498 -2.32067C206.249 -0.585709 204.609 0.57476 202.872 0.392595C201.137 0.143487 199.908 -1.43154 200.157 -3.16651C200.406 -4.90147 202.048 -6.1288 203.783 -5.87969C205.522 -5.76447 206.747 -4.05563 206.498 -2.32067Z" fill="#191919"/>
<path d="M219.104 -0.296103C218.788 1.437 217.148 2.59749 215.413 2.34838C213.678 2.09927 212.518 0.459186 212.769 -1.34272C213.085 -3.07582 214.725 -4.23623 216.46 -3.98712C218.26 -3.66921 219.42 -2.02921 219.104 -0.296103Z" fill="#191919"/>
<path d="M231.699 2.13007C231.316 3.86132 229.676 5.02168 227.945 4.63868C226.212 4.32263 225.12 2.61748 225.436 0.88437C225.752 -0.848735 227.459 -2.00723 229.19 -1.62424C230.922 -1.24124 232.082 0.398827 231.699 2.13007Z" fill="#191919"/>
<path d="M244.216 4.95614C243.766 6.68553 242.061 7.77712 240.331 7.32718C238.6 6.94419 237.575 5.2409 237.958 3.50965C238.341 1.77841 240.046 0.686819 241.776 1.13676C243.505 1.5867 244.597 3.29184 244.216 4.95614Z" fill="#191919"/>
<path d="M256.586 8.24702C256.136 9.97641 254.367 10.9323 252.638 10.4823C250.976 10.0343 249.953 8.26397 250.401 6.60153C250.851 4.87214 252.621 3.84932 254.349 4.3662C256.013 4.74734 257.036 6.51763 256.586 8.24702Z" fill="#191919"/>
<path d="M268.81 11.9358C268.295 13.5964 266.46 14.5503 264.799 14.0353C263.139 13.5203 262.183 11.752 262.7 10.0244C263.215 8.36384 264.983 7.40793 266.711 7.92482C268.438 8.4417 269.392 10.277 268.81 11.9358Z" fill="#191919"/>
<path d="M280.953 16.1583C280.304 17.8151 278.471 18.7023 276.879 18.1222C275.22 17.5402 274.4 15.7086 274.915 14.048C275.497 12.3893 277.331 11.5022 278.988 12.1511C280.648 12.6661 281.535 14.4995 280.953 16.1583Z" fill="#191919"/>
<path d="M292.814 20.909C292.098 22.564 290.268 23.3171 288.611 22.6682C287.021 22.0212 286.203 20.1227 286.852 18.4658C287.501 16.8089 289.398 16.0575 291.054 16.7064C292.711 17.3554 293.53 19.254 292.814 20.909Z" fill="#191919"/>
</svg>
