<svg width="268" height="596" viewBox="0 0 268 596" fill="none" xmlns="http://www.w3.org/2000/svg">
<path d="M7.11356 534.832C7.39122 533.339 6.44477 531.877 4.9998 531.568C3.52329 531.21 2.06148 532.156 1.70354 533.633C1.34561 535.109 2.27489 536.651 3.80013 536.978C5.32537 537.304 6.8359 536.326 7.11356 534.832Z" fill="#191919"/>
<path d="M18.0854 536.718C18.2828 535.208 17.2389 533.809 15.7452 533.531C14.283 533.302 12.8843 534.346 12.6067 535.84C12.329 537.334 13.4044 538.781 14.9469 539.027C16.4405 539.305 17.8393 538.261 18.0854 536.718Z" fill="#191919"/>
<path d="M29.1346 537.656C29.1714 536.11 28.0616 534.823 26.5651 534.755C25.0686 534.687 23.7501 535.748 23.633 537.276C23.4844 538.755 24.6401 540.22 26.2169 540.305C27.7134 540.374 29.0175 539.184 29.1346 537.656Z" fill="#191919"/>
<path d="M40.2119 537.675C40.1197 536.145 38.8637 534.952 37.35 534.964C35.8363 534.976 34.6441 536.232 34.656 537.746C34.6679 539.259 35.9555 540.5 37.5179 540.457C39.0631 540.494 40.3041 539.206 40.2119 537.675Z" fill="#191919"/>
<path d="M51.2403 536.551C51.0192 535.035 49.6169 533.937 48.1807 534.176C46.713 534.365 45.6154 535.767 45.7563 537.267C45.9287 538.815 47.2994 539.864 48.8474 539.691C50.3639 539.47 51.4615 538.068 51.2403 536.551Z" fill="#191919"/>
<path d="M62.1221 534.347C61.7232 532.876 60.238 531.971 58.8161 532.338C57.3943 532.705 56.4257 534.093 56.7272 535.627C56.9971 537.112 58.5454 538.115 60.0475 537.764C61.5668 537.334 62.5211 535.817 62.1221 534.347Z" fill="#191919"/>
<path d="M72.6825 530.898C72.1058 529.473 70.5375 528.76 69.1615 529.305C67.7225 529.752 67.0091 531.321 67.4567 532.76C67.9044 534.199 69.5358 535.01 71.0236 534.53C72.4798 534.002 73.2591 532.322 72.6825 530.898Z" fill="#191919"/>
<path d="M82.7122 526.202C81.9579 524.823 80.3695 524.399 79.008 525.073C77.6952 525.716 77.0936 527.35 77.719 528.743C78.3443 530.136 80.0273 530.706 81.4692 530.049C82.9282 529.312 83.4351 527.532 82.7122 526.202Z" fill="#191919"/>
<path d="M92.0821 520.273C91.1328 519.021 89.4929 518.838 88.2747 519.627C87.0566 520.415 86.7274 522.15 87.5477 523.417C88.3679 524.684 90.134 525.062 91.4496 524.21C92.7337 523.309 92.9682 521.428 92.0821 520.273Z" fill="#191919"/>
<path d="M100.44 512.995C99.3271 511.917 97.6528 511.895 96.5924 512.927C95.5004 513.911 95.4292 515.617 96.3957 516.789C97.3621 517.961 99.1482 518.05 100.386 516.971C101.544 515.876 101.552 514.073 100.44 512.995Z" fill="#191919"/>
<path d="M107.541 504.524C106.297 503.67 104.571 503.889 103.686 505.085C102.849 506.249 102.955 507.909 104.165 508.923C105.295 509.92 107.182 509.736 108.133 508.429C109.084 507.121 108.786 505.378 107.541 504.524Z" fill="#191919"/>
<path d="M113.049 494.873C111.672 494.243 109.958 494.8 109.345 496.096C108.732 497.392 109.177 499.04 110.487 499.782C111.829 500.573 113.575 500.065 114.271 498.577C115.03 497.186 114.505 495.521 113.049 494.873Z" fill="#191919"/>
<path d="M116.586 484.423C115.061 484.096 113.697 484.98 113.195 486.341C112.774 487.721 113.623 489.245 115.065 489.764C116.508 490.282 118.081 489.402 118.537 487.862C119.089 486.26 118.08 484.7 116.586 484.423Z" fill="#191919"/>
<path d="M117.942 473.379C116.397 473.342 115.141 474.501 115.122 475.966C114.942 477.397 116.083 478.732 117.594 478.93C119.105 479.127 120.489 477.954 120.655 476.394C120.677 474.72 119.487 473.416 117.942 473.379Z" fill="#191919"/>
<path d="M117.027 462.354C115.542 462.624 114.525 464.043 114.732 465.43C115.019 466.835 116.212 467.93 117.791 467.806C119.242 467.697 120.549 466.297 120.264 464.684C119.963 463.15 118.512 462.084 117.027 462.354Z" fill="#191919"/>
<path d="M113.982 451.67C112.558 452.246 111.764 453.798 112.309 455.174C112.542 455.853 113.098 456.392 113.706 456.69C114.314 456.988 115.036 457.142 115.796 456.927C116.555 456.712 117.126 456.204 117.473 455.565C117.819 454.925 117.862 454.137 117.598 453.409C116.99 451.936 115.439 451.142 113.982 451.67Z" fill="#191919"/>
<path d="M109.092 441.766C107.793 442.538 107.304 444.238 107.995 445.519C108.735 446.769 110.386 447.29 111.748 446.616C113.158 445.911 113.679 444.259 112.893 442.832C112.139 441.453 110.439 440.963 109.092 441.766Z" fill="#191919"/>
<path d="M102.968 432.523C101.733 433.392 101.404 435.126 102.256 436.442C103.156 437.726 104.779 437.989 106.094 437.137C107.33 436.268 107.676 434.453 106.807 433.218C105.955 431.902 104.252 431.622 102.968 432.523Z" fill="#191919"/>
<path d="M96.8135 423.23C95.515 424.002 95.0883 425.799 95.9402 427.115C96.8407 428.399 98.5265 428.76 99.8421 427.908C101.109 427.088 101.438 425.353 100.618 424.086C99.749 422.851 98.1606 422.427 96.8135 423.23Z" fill="#191919"/>
<path d="M91.2262 413.639C89.8474 414.394 89.3577 416.094 90.1608 417.441C90.9639 418.788 92.6641 419.278 94.0112 418.475C95.3097 417.703 95.7994 416.003 95.0279 414.705C94.2076 413.438 92.5877 412.965 91.2262 413.639Z" fill="#191919"/>
<path d="M86.304 403.687C84.9109 404.313 84.2606 405.978 84.9662 407.389C85.6719 408.799 87.3548 409.369 88.7164 408.695C90.0779 408.021 90.648 406.338 90.0054 405.025C89.2826 403.695 87.6799 403.142 86.304 403.687Z" fill="#191919"/>
<path d="M82.2071 393.408C80.7997 393.904 79.8598 395.55 80.5167 396.992C81.1249 398.465 82.742 399.147 84.1667 398.57C85.5913 397.994 86.3047 396.425 85.6793 395.032C85.1342 393.656 83.6949 392.929 82.2071 393.408Z" fill="#191919"/>
<path d="M79.1624 382.724C77.6603 383.074 76.7061 384.591 77.0878 386.142C77.4696 387.693 79.101 388.504 80.5716 388.105C82.0909 387.674 82.7871 386.186 82.4685 384.733C82.1011 383.311 80.6158 382.405 79.1624 382.724Z" fill="#191919"/>
<path d="M77.2156 371.813C75.6676 371.986 74.6187 373.357 74.8227 374.953C75.0267 376.55 76.3973 377.599 77.931 377.297C79.4159 377.028 80.5135 375.625 80.3239 374.158C80.1658 372.739 78.7636 371.641 77.2156 371.813Z" fill="#191919"/>
<path d="M76.6879 360.745C75.1427 360.708 73.8702 361.947 73.9452 363.558C74.0202 365.169 75.2762 366.361 76.807 366.269C78.3379 366.177 79.5301 364.921 79.4695 363.439C79.3917 362.037 78.1529 360.764 76.6879 360.745Z" fill="#191919"/>
<path d="M77.5765 349.727C76.0656 349.53 74.6669 350.574 74.4523 352.165C74.2062 353.708 75.4107 355.141 76.9387 355.258C78.4668 355.375 79.7537 354.265 79.9826 352.803C80.18 351.292 79.0873 349.925 77.5765 349.727Z" fill="#191919"/>
<path d="M79.7034 338.807C78.1953 338.4 76.6848 339.378 76.3584 340.904C76.032 342.429 77.01 343.939 78.5037 344.217C79.9974 344.495 81.4592 343.548 81.7685 342.103C82.0777 340.658 81.1312 339.196 79.7034 338.807Z" fill="#191919"/>
<path d="M82.8252 328.142C81.383 327.623 79.7779 328.455 79.2909 329.946C78.804 331.437 79.6043 332.993 81.1123 333.4C82.5717 333.838 84.0966 332.989 84.5664 331.579C85.0677 330.217 84.2674 328.66 82.8252 328.142Z" fill="#191919"/>
<path d="M86.5719 317.694C85.1785 317.144 83.5102 317.878 82.9917 319.32C82.4733 320.763 83.1761 322.382 84.6183 322.901C86.0604 323.419 87.6484 322.668 88.1985 321.274C88.717 319.832 88.0456 318.261 86.5719 317.694Z" fill="#191919"/>
<path d="M90.6226 307.395C89.2292 306.845 87.6097 307.548 87.0109 308.973C86.4609 310.366 87.1637 311.986 88.5887 312.585C89.9821 313.135 91.6016 312.432 92.2004 311.007C92.7676 309.533 92.0648 307.914 90.6226 307.395Z" fill="#191919"/>
<path d="M94.45 296.965C93.0079 296.446 91.4514 297.246 90.9329 298.688C90.4144 300.131 91.166 301.719 92.6082 302.237C94.0503 302.756 95.6383 302.004 96.1568 300.562C96.6925 299.039 95.8606 297.434 94.45 296.965Z" fill="#191919"/>
<path d="M97.7637 286.382C96.3044 285.944 94.7795 286.793 94.3413 288.252C93.9031 289.712 94.7521 291.236 96.2114 291.675C97.6708 292.113 99.2272 291.313 99.6339 289.805C100.072 288.345 99.2231 286.82 97.7637 286.382Z" fill="#191919"/>
<path d="M100.533 275.599C99.0566 275.241 97.5947 276.188 97.2053 277.616C96.8473 279.092 97.7451 280.585 99.2216 280.943C100.73 281.35 102.223 280.452 102.598 278.896C102.988 277.468 102.01 275.957 100.533 275.599Z" fill="#191919"/>
<path d="M102.852 264.762C101.358 264.484 99.9282 265.48 99.619 266.925C99.3413 268.418 100.288 269.88 101.781 270.158C103.307 270.484 104.737 269.489 105.063 267.964C105.373 266.519 104.346 265.04 102.852 264.762Z" fill="#191919"/>
<path d="M104.609 253.804C103.098 253.607 101.699 254.651 101.471 256.113C101.242 257.575 102.237 259.005 103.779 259.252C105.322 259.498 106.72 258.454 106.966 256.911C107.195 255.449 106.12 254.002 104.609 253.804Z" fill="#191919"/>
<path d="M105.836 242.775C104.308 242.658 102.941 243.751 102.824 245.279C102.675 246.758 103.768 248.125 105.278 248.323C106.789 248.52 108.125 247.379 108.322 245.868C108.537 244.277 107.396 242.941 105.836 242.775Z" fill="#191919"/>
<path d="M106.532 231.675C104.987 231.638 103.732 232.797 103.614 234.325C103.546 235.821 104.736 237.125 106.264 237.242C107.792 237.359 109.096 236.169 109.182 234.593C109.219 233.047 108.06 231.792 106.532 231.675Z" fill="#191919"/>
<path d="M106.632 220.615C105.119 220.627 103.878 221.914 103.938 223.396C103.95 224.91 105.158 226.134 106.703 226.171C108.248 226.207 109.489 224.92 109.526 223.375C109.434 221.844 108.195 220.571 106.632 220.615Z" fill="#191919"/>
<path d="M106.153 209.515C104.623 209.607 103.493 210.96 103.554 212.442C103.615 213.924 104.951 215.134 106.482 215.042C108.013 214.95 109.173 213.645 109.081 212.114C109.038 210.551 107.733 209.391 106.153 209.515Z" fill="#191919"/>
<path d="M105.029 198.486C103.513 198.707 102.432 200.029 102.605 201.577C102.794 203.045 104.148 204.174 105.647 204.033C107.195 203.861 108.324 202.507 108.072 200.942C107.948 199.363 106.546 198.265 105.029 198.486Z" fill="#191919"/>
<path d="M103.309 187.498C101.775 187.799 100.887 189.204 101.077 190.672C101.298 192.189 102.766 193.175 104.282 192.953C105.799 192.732 106.816 191.313 106.563 189.748C106.342 188.231 104.794 187.228 103.309 187.498Z" fill="#191919"/>
<path d="M100.975 176.631C99.5046 177.03 98.5675 178.466 98.9177 179.968C99.2363 181.422 100.753 182.376 102.255 182.026C103.757 181.675 104.663 180.19 104.313 178.688C103.914 177.218 102.429 176.312 100.975 176.631Z" fill="#191919"/>
<path d="M97.9619 165.996C96.4742 166.475 95.7292 167.994 96.0966 169.416C96.4955 170.887 98.0467 171.68 99.5172 171.282C100.988 170.883 101.83 169.3 101.431 167.829C101.032 166.359 99.4497 165.516 97.9619 165.996Z" fill="#191919"/>
<path d="M94.3352 155.481C92.9106 156.058 92.1972 157.626 92.6935 159.034C93.2386 160.409 94.7898 161.203 96.2459 160.675C97.7021 160.147 98.4643 158.547 97.8876 157.123C97.3597 155.667 95.7427 154.985 94.3352 155.481Z" fill="#191919"/>
<path d="M90.1096 145.216C88.7165 145.842 88.0662 147.507 88.66 148.852C89.2854 150.245 90.8709 150.878 92.2956 150.301C93.7202 149.725 94.3705 148.059 93.7451 146.666C93.1198 145.273 91.5027 144.591 90.1096 145.216Z" fill="#191919"/>
<path d="M85.1871 135.264C83.8571 135.987 83.3359 137.638 84.0099 139C84.684 140.361 86.2867 140.914 87.6798 140.289C89.0414 139.615 89.6114 137.932 88.986 136.539C88.2489 135.08 86.5487 134.59 85.1871 135.264Z" fill="#191919"/>
<path d="M79.7775 125.627C78.4791 126.399 78.0209 128.148 78.7609 129.397C79.5324 130.696 81.2011 131.137 82.5798 130.383C83.9098 129.66 84.368 127.911 83.5964 126.612C82.7933 125.265 81.0445 124.807 79.7775 125.627Z" fill="#191919"/>
<path d="M73.8178 116.209C72.5824 117.078 72.1729 118.795 72.9932 120.062C73.8135 121.329 75.548 121.658 76.8149 120.838C78.0818 120.017 78.4913 118.3 77.6394 116.984C76.7705 115.749 75.0847 115.388 73.8178 116.209Z" fill="#191919"/>
<path d="M67.3046 107.217C66.1008 108.135 65.9006 109.855 66.7696 111.09C67.6386 112.326 69.3903 112.575 70.6256 111.706C71.861 110.837 72.1586 109.053 71.2093 107.801C70.3088 106.517 68.5084 106.299 67.3046 107.217Z" fill="#191919"/>
<path d="M60.3358 98.59C59.1635 99.5565 58.9949 101.325 60.01 102.466C60.9765 103.638 62.6966 103.838 63.8689 102.872C65.0411 101.906 65.2901 100.154 64.2921 98.9329C63.2769 97.7922 61.508 97.6235 60.3358 98.59Z" fill="#191919"/>
<path d="M52.9601 90.2956C51.8509 91.3595 51.8113 93.114 52.7949 94.206C53.8101 95.3467 55.5645 95.3863 56.7053 94.3711C57.846 93.3559 57.8856 91.6014 56.8704 90.4607C55.8552 89.32 54.0692 89.2317 52.9601 90.2956Z" fill="#191919"/>
<path d="M45.1111 82.4455C44.0822 83.5265 44.1229 85.2983 45.1553 86.3587C46.2363 87.3876 47.9593 87.3785 49.0685 86.3146C50.1776 85.2507 50.137 83.479 48.9928 82.3526C47.9604 81.2922 46.1887 81.3328 45.1111 82.4455Z" fill="#191919"/>
<path d="M36.7553 75.2007C35.7896 76.3792 35.9592 78.1365 37.1062 79.0535C38.3019 79.939 39.9446 79.9128 40.9906 78.7514C41.988 77.6216 41.9158 75.8012 40.657 74.8183C39.4784 73.8525 37.6896 73.9734 36.7553 75.2007Z" fill="#191919"/>
<path d="M27.8117 68.5435C26.9577 69.788 27.2563 71.5309 28.4521 72.4164C29.6478 73.3019 31.3907 73.0032 32.3249 71.776C33.2592 70.5487 32.9605 68.8058 31.6845 67.9031C30.4086 67.0004 28.7144 67.2675 27.8117 68.5435Z" fill="#191919"/>
<path d="M18.3897 62.7494C17.6791 64.1085 18.124 65.7568 19.4343 66.499C20.7131 67.1924 22.3758 66.8765 23.2154 65.5031C24.0378 64.2099 23.6273 62.4011 22.2682 61.6905C20.8289 60.9627 19.1319 61.4391 18.3897 62.7494Z" fill="#191919"/>
<path d="M8.44055 57.85C7.84179 59.2749 8.48154 60.7971 9.84061 61.5077C11.1681 62.1695 12.8021 61.5957 13.4811 60.1879C14.1917 58.8288 13.5863 57.1461 12.1785 56.4671C10.7391 55.7393 8.99058 56.4565 8.44055 57.85Z" fill="#191919"/>
<path d="M-1.99006 54.0229C-2.42827 55.4822 -1.67673 57.0702 -0.266125 57.54C1.14448 58.0097 2.70096 57.2095 3.251 55.816C3.76948 54.3739 3.0179 52.7858 1.52701 52.2989C0.0533035 51.7317 -1.50312 52.532 -1.99006 54.0229Z" fill="#191919"/>
</svg>
