<svg width="284" height="979" viewBox="0 0 284 979" fill="none" xmlns="http://www.w3.org/2000/svg">
<path d="M0.203552 171.181C-1.77611 173.282 -4.87625 173.298 -6.97235 171.469C-9.06846 169.641 -9.24033 166.394 -7.33398 164.371C-5.50544 162.275 -2.25857 162.103 -0.0846639 164.005C2.01144 165.834 2.1099 169.158 0.203552 171.181Z" fill="#191919"/>
<path d="M14.6968 185.575C12.7127 187.524 9.46139 187.545 7.51193 185.561C5.56247 183.577 5.54176 180.325 7.52591 178.376C9.51005 176.427 12.8347 176.328 14.7108 178.39C16.7336 180.296 16.7543 183.548 14.6968 185.575Z" fill="#191919"/>
<path d="M28.6765 200.513C26.6145 202.389 23.3587 202.258 21.4826 200.196C19.6064 198.135 19.7368 194.879 21.7988 193.003C23.8607 191.126 27.1165 191.257 28.9927 193.319C30.8688 195.381 30.7384 198.636 28.6765 200.513Z" fill="#191919"/>
<path d="M41.9189 216.078C39.7792 217.88 36.5922 217.521 34.716 215.459C32.9132 213.319 33.1215 210.137 35.2612 208.334C37.4009 206.531 40.6612 206.813 42.464 208.953C44.4135 210.937 44.0587 214.275 41.9189 216.078Z" fill="#191919"/>
<path d="M54.7895 231.88C52.572 233.61 49.3849 233.251 47.5821 231.111C45.7793 228.971 46.1386 225.784 48.3517 223.903C50.5692 222.174 53.7561 222.533 55.559 224.673C57.3663 226.964 57.007 230.151 54.7895 231.88Z" fill="#191919"/>
<path d="M67.2208 248.15C64.9254 249.806 61.7385 249.447 60.0824 247.151C58.3529 244.934 58.8633 241.742 61.0809 240.013C63.2984 238.283 66.5631 238.716 68.2193 241.011C69.8755 243.307 69.5161 246.494 67.2208 248.15Z" fill="#191919"/>
<path d="M79.1339 264.813C76.7608 266.396 73.5694 265.885 71.9865 263.512C70.3304 261.217 70.9186 258.099 73.2139 256.443C75.5093 254.786 78.7006 255.297 80.2835 257.67C81.8664 260.043 81.3559 263.235 79.1339 264.813Z" fill="#191919"/>
<path d="M90.3789 281.874C88.0057 283.457 84.8831 282.717 83.3003 280.344C81.7952 278.044 82.4568 274.848 84.7567 273.343C87.1298 271.76 90.3257 272.422 91.8352 274.873C93.4136 277.095 92.752 280.291 90.3789 281.874Z" fill="#191919"/>
<path d="M101.028 299.255C98.6501 300.686 95.4498 299.874 94.0181 297.496C92.5863 295.118 93.3256 291.996 95.7766 290.486C98.1542 289.055 101.277 289.794 102.786 292.245C104.296 294.696 103.483 297.896 101.028 299.255Z" fill="#191919"/>
<path d="M111.013 317.184C108.479 318.47 105.352 317.579 104.072 315.197C102.713 312.742 103.681 309.688 106.059 308.256C108.514 306.898 111.642 307.788 112.927 310.321C114.358 312.699 113.468 315.826 111.013 317.184Z" fill="#191919"/>
<path d="M120.099 335.444C117.488 336.656 114.508 335.61 113.223 333.076C112.015 330.616 113.057 327.485 115.59 326.2C118.123 324.915 121.182 326.034 122.467 328.567C123.752 331.101 122.71 334.232 120.099 335.444Z" fill="#191919"/>
<path d="M128.367 354.105C125.751 355.166 122.766 353.969 121.705 351.353C120.645 348.738 121.842 345.753 124.38 344.619C126.917 343.485 129.902 344.682 131.041 347.371C132.179 350.06 130.982 353.045 128.367 354.105Z" fill="#191919"/>
<path d="M135.589 373.252C132.969 374.161 129.979 372.813 129.07 370.193C128.16 367.573 129.509 364.583 132.129 363.674C134.744 362.613 137.66 364.039 138.648 366.733C139.635 369.426 138.282 372.264 135.589 373.252Z" fill="#191919"/>
<path d="M141.762 392.732C138.987 393.495 136.217 391.913 135.459 389.288C134.7 386.664 136.204 383.821 138.975 382.907C141.673 382.071 144.516 383.575 145.279 386.351C146.042 389.126 144.387 391.973 141.762 392.732Z" fill="#191919"/>
<path d="M146.585 412.554C143.805 413.166 141.104 411.355 140.497 408.726C139.963 406.02 141.622 403.324 144.398 402.561C147.1 401.876 149.874 403.608 150.486 406.388C151.098 409.168 149.365 411.942 146.585 412.554Z" fill="#191919"/>
<path d="M150.208 432.715C147.423 433.175 144.869 431.209 144.335 428.502C143.952 425.791 145.841 423.164 148.547 422.63C151.332 422.169 153.959 424.058 154.42 426.842C154.88 429.627 152.992 432.254 150.208 432.715Z" fill="#191919"/>
<path d="M152.397 452.994C149.603 453.152 147.123 451.108 146.891 448.392C146.659 445.677 148.777 443.118 151.566 442.809C154.355 442.499 156.835 444.543 157.071 447.41C157.307 450.277 155.264 452.757 152.397 452.994Z" fill="#191919"/>
<path d="M153.303 473.386C150.505 473.393 148.171 471.193 148.164 468.396C148.156 465.598 150.356 463.264 153.227 463.178C156.021 463.02 158.359 465.371 158.367 468.169C158.301 471.044 156.101 473.379 153.303 473.386Z" fill="#191919"/>
<path d="M152.548 493.828C149.745 493.684 147.631 491.251 147.775 488.448C147.919 485.646 150.352 483.532 153.228 483.598C156.103 483.664 158.217 486.097 158 488.977C157.856 491.78 155.428 494.045 152.548 493.828Z" fill="#191919"/>
<path d="M150.579 514.154C147.768 513.708 145.805 511.27 146.177 508.537C146.55 505.803 149.139 503.836 151.946 504.131C154.753 504.426 156.72 507.014 156.347 509.748C155.901 512.559 153.313 514.527 150.579 514.154Z" fill="#191919"/>
</svg>
