<svg width="804" height="476" viewBox="0 0 804 476" fill="none" xmlns="http://www.w3.org/2000/svg">
<path d="M146.373 96.7241L77.0183 10.4334L37 113.61L146.373 96.7241Z" stroke="black"/>
<path d="M150.373 114.724L81.0183 28.4332L41 131.61L150.373 114.724Z" fill="#12FF2A"/>
<path d="M799.998 62L787 74.9977L790.323 78.3209L803.321 65.3233L799.998 62Z" fill="#191919"/>
<path d="M790.41 62.0107L787.087 65.3345L800.086 78.3321L803.41 75.0084L790.41 62.0107Z" fill="#191919"/>
<path fill-rule="evenodd" clip-rule="evenodd" d="M13.6296 0L0 13.6296L13.6296 27.2591L27.2591 13.6296L13.6296 0Z" fill="#191919"/>
<path d="M636.267 456.737C636.267 467.129 627.86 475.589 617.416 475.589C607.024 475.589 598.564 467.181 598.564 456.737C598.564 446.345 606.972 437.885 617.416 437.885C627.808 437.885 636.267 446.345 636.267 456.737Z" fill="#12FF2A"/>
<path d="M609.687 469.374C598.825 469.374 590 460.549 590 449.687C590 438.825 598.825 430 609.687 430C620.549 430 629.374 438.825 629.374 449.687C629.374 460.549 620.549 469.374 609.687 469.374ZM609.687 432.402C600.183 432.402 592.402 440.131 592.402 449.687C592.402 459.191 600.131 466.972 609.687 466.972C619.191 466.972 626.972 459.244 626.972 449.687C626.972 440.183 619.191 432.402 609.687 432.402Z" fill="#191919"/>
</svg>
