<svg width="495" height="655" viewBox="0 0 495 655" fill="none" xmlns="http://www.w3.org/2000/svg">
<path d="M383.848 654.583C405.969 621.28 462.991 479.469 475.092 435.107C496.843 355.41 503.75 250.688 475.812 169.622C420.443 8.96609 223.812 -38.1333 91.0117 30.7405C16.1683 69.5623 -43.1694 166.756 -81.9238 244.549C-99.3944 279.606 -118.752 315.647 -144.939 344.33C-171.183 373.078 -209.121 386.681 -239.12 410.145C-262.544 428.476 -279.645 456.09 -286.201 487.147C-292.641 517.648 -287.641 550.011 -277.096 579.1C-266.552 608.19 -253.906 628.617 -237.992 654.583L383.848 654.583Z" fill="#CCFEBA"/>
</svg>
