<svg width="563" height="904" viewBox="0 0 563 904" fill="none" xmlns="http://www.w3.org/2000/svg">
<path fill-rule="evenodd" clip-rule="evenodd" d="M572.197 418.979C604.01 472.158 693.849 473.266 714.185 531.802C740.123 606.465 755.289 715.51 691.36 761.99C628.253 807.873 546.382 720.036 468.998 710.067C402.628 701.516 334.289 735.355 273.167 708.114C202.745 676.727 128.222 625.986 111.483 550.725C94.8382 475.895 167.607 413.973 191.543 341.147C216.701 264.606 194.991 167.809 255.007 114.057C316.192 59.2582 421.445 29.7906 491.733 72.2897C566.801 117.68 563.04 226.847 582.873 312.3C591.156 347.985 553.39 387.541 572.197 418.979Z" fill="#CCFEBA"/>
</svg>
