<svg width="340" height="535" viewBox="0 0 340 535" fill="none" xmlns="http://www.w3.org/2000/svg">
<path fill-rule="evenodd" clip-rule="evenodd" d="M391.683 234.036C418.519 278.896 494.304 279.83 511.459 329.209C533.339 392.192 546.132 484.178 492.204 523.386C438.969 562.091 369.907 487.996 304.628 479.586C248.642 472.373 190.993 500.918 139.433 477.939C80.0281 451.462 17.1641 408.659 3.04293 345.172C-10.9976 282.048 50.387 229.813 70.579 168.38C91.8007 103.814 73.4869 22.1596 124.114 -23.1838C175.728 -69.4099 264.515 -94.2675 323.807 -58.417C387.131 -20.128 383.959 71.9611 400.689 144.046C407.676 174.148 375.818 207.516 391.683 234.036Z" fill="#CCFEBA"/>
</svg>
