<svg width="509" height="933" viewBox="0 0 509 933" fill="none" xmlns="http://www.w3.org/2000/svg">
<path fill-rule="evenodd" clip-rule="evenodd" d="M158.304 33.8276C280.286 80.7052 402.808 242.533 354.582 363.988C299.006 503.952 95.0375 500.006 -46.8452 550.484C-114.205 574.448 -208.377 526.404 -254.791 580.785C-376.673 723.585 -323.141 1004.25 -496.222 1076.98C-625.022 1131.11 -802.82 954.533 -812.567 815.165C-824.711 641.534 -560.096 552.506 -545.031 379.103C-536.711 283.343 -762.148 290.225 -758.615 194.169C-755.605 112.332 -588.759 166.943 -534.957 105.204C-459.513 18.6299 -522.774 -218.073 -408.41 -207.7C-282.046 -196.238 -368.752 81.1207 -252.028 130.867C-120.058 187.111 24.3964 -17.6332 158.304 33.8276Z" fill="#CCFEBA"/>
</svg>
